%TF.GenerationSoftware,KiCad,Pcbnew,9.0.6*%
%TF.CreationDate,2026-05-25T15:34:24-04:00*%
%TF.ProjectId,bias_generator_LT8362,62696173-5f67-4656-9e65-7261746f725f,rev?*%
%TF.SameCoordinates,Original*%
%TF.FileFunction,Copper,L3,Inr*%
%TF.FilePolarity,Positive*%
%FSLAX46Y46*%
G04 Gerber Fmt 4.6, Leading zero omitted, Abs format (unit mm)*
G04 Created by KiCad (PCBNEW 9.0.6) date 2026-05-25 15:34:24*
%MOMM*%
%LPD*%
G01*
G04 APERTURE LIST*
G04 Aperture macros list*
%AMRoundRect*
0 Rectangle with rounded corners*
0 $1 Rounding radius*
0 $2 $3 $4 $5 $6 $7 $8 $9 X,Y pos of 4 corners*
0 Add a 4 corners polygon primitive as box body*
4,1,4,$2,$3,$4,$5,$6,$7,$8,$9,$2,$3,0*
0 Add four circle primitives for the rounded corners*
1,1,$1+$1,$2,$3*
1,1,$1+$1,$4,$5*
1,1,$1+$1,$6,$7*
1,1,$1+$1,$8,$9*
0 Add four rect primitives between the rounded corners*
20,1,$1+$1,$2,$3,$4,$5,0*
20,1,$1+$1,$4,$5,$6,$7,0*
20,1,$1+$1,$6,$7,$8,$9,0*
20,1,$1+$1,$8,$9,$2,$3,0*%
G04 Aperture macros list end*
%TA.AperFunction,ComponentPad*%
%ADD10C,0.704800*%
%TD*%
%TA.AperFunction,ComponentPad*%
%ADD11R,1.700000X1.700000*%
%TD*%
%TA.AperFunction,ComponentPad*%
%ADD12O,1.700000X1.700000*%
%TD*%
%TA.AperFunction,ComponentPad*%
%ADD13RoundRect,0.090000X-0.210000X-0.210000X0.210000X-0.210000X0.210000X0.210000X-0.210000X0.210000X0*%
%TD*%
%TA.AperFunction,ViaPad*%
%ADD14C,0.500000*%
%TD*%
%TA.AperFunction,Conductor*%
%ADD15C,0.250000*%
%TD*%
%TA.AperFunction,Conductor*%
%ADD16C,0.500000*%
%TD*%
%TA.AperFunction,Conductor*%
%ADD17C,0.200000*%
%TD*%
G04 APERTURE END LIST*
D10*
X187629800Y-90881200D03*
X181279800Y-90881200D03*
D11*
X207391000Y-98260000D03*
D12*
X209931000Y-98260000D03*
X207391000Y-100800000D03*
X209931000Y-100800000D03*
X207391000Y-103340000D03*
X209931000Y-103340000D03*
D13*
X196800000Y-97150000D03*
X197750000Y-97150000D03*
X198700000Y-97150000D03*
X199600000Y-97150000D03*
X200500000Y-97150000D03*
X201400000Y-97150000D03*
X202350000Y-97150000D03*
X203300000Y-97150000D03*
X203300000Y-98550000D03*
X202350000Y-98550000D03*
X201400000Y-98550000D03*
X200500000Y-98550000D03*
X199600000Y-98550000D03*
X198700000Y-98550000D03*
X197750000Y-98550000D03*
X196800000Y-98550000D03*
D14*
X208401000Y-108966000D03*
X208401000Y-111379000D03*
X210050000Y-118500000D03*
X208401000Y-106553000D03*
X194050000Y-109250000D03*
X179350000Y-96700000D03*
X180250000Y-115075000D03*
X193050000Y-92600000D03*
X189000000Y-99950000D03*
X180900000Y-111000000D03*
X186700000Y-106300000D03*
X181900000Y-115100000D03*
X179200000Y-110600000D03*
X187000000Y-100950000D03*
X203800000Y-103175000D03*
X179750000Y-111700000D03*
X191600000Y-97450000D03*
X204550000Y-115150000D03*
X198400000Y-117650000D03*
X188200000Y-116500000D03*
X191021000Y-94150000D03*
X208300000Y-94500000D03*
X203900000Y-106225000D03*
X180900000Y-110100000D03*
X179200000Y-110000000D03*
X189475000Y-114325000D03*
X186700000Y-107996984D03*
X181150000Y-117525000D03*
X184565300Y-100938569D03*
X189500000Y-111000000D03*
X186800000Y-109000000D03*
X194183000Y-111887000D03*
X197231000Y-108966000D03*
X193103500Y-112966500D03*
X178925000Y-114920000D03*
X187250000Y-114550000D03*
X180175000Y-113425000D03*
X180400000Y-99000000D03*
X193802000Y-94200000D03*
X192187250Y-90841250D03*
X183819800Y-99644200D03*
X185089800Y-97866200D03*
X201625000Y-107100000D03*
X193650000Y-111000000D03*
X188214000Y-96012000D03*
X199517000Y-112903000D03*
X190408044Y-104491956D03*
X189471000Y-95872000D03*
X190699286Y-100257714D03*
X209800000Y-109200000D03*
X209804000Y-106553000D03*
X194600000Y-108700000D03*
X200000000Y-103025000D03*
X191430000Y-104260000D03*
X203125000Y-110925000D03*
X205200000Y-118000000D03*
X198374000Y-115189000D03*
X185500000Y-117500000D03*
X184350000Y-110350000D03*
X177750000Y-111850000D03*
X185900000Y-112800000D03*
X176700000Y-112400000D03*
X177600000Y-113100000D03*
X188440000Y-108710000D03*
X199644000Y-111252000D03*
X205050000Y-115697000D03*
X187800000Y-106250000D03*
X181304216Y-113545784D03*
X195200000Y-96550000D03*
D15*
X202350000Y-98550000D02*
X202350000Y-97750000D01*
X202350000Y-97750000D02*
X202350000Y-97150000D01*
D16*
X202350000Y-97750000D02*
X202450000Y-97850000D01*
D15*
X197750000Y-98550000D02*
X197750000Y-97850000D01*
D16*
X202250000Y-97850000D02*
X202350000Y-97750000D01*
X206981000Y-97850000D02*
X207391000Y-98260000D01*
X197750000Y-97850000D02*
X202250000Y-97850000D01*
X202450000Y-97850000D02*
X206981000Y-97850000D01*
X197750000Y-97850000D02*
X195050000Y-97850000D01*
X195050000Y-97850000D02*
X193802000Y-96602000D01*
X193802000Y-96602000D02*
X193802000Y-93485000D01*
D15*
X197750000Y-97850000D02*
X197750000Y-97150000D01*
D17*
X195850000Y-96600000D02*
X198150000Y-96600000D01*
X198150000Y-96600000D02*
X198700000Y-97150000D01*
X195200000Y-96550000D02*
X195800000Y-96550000D01*
X195800000Y-96550000D02*
X195850000Y-96600000D01*
%TA.AperFunction,Conductor*%
G36*
X196835727Y-89420002D02*
G01*
X196882220Y-89473658D01*
X196893584Y-89523696D01*
X196912181Y-90541704D01*
X196938320Y-91972663D01*
X196938340Y-91974563D01*
X196938873Y-92142142D01*
X196938874Y-92142160D01*
X196977648Y-92477335D01*
X196977649Y-92477336D01*
X197053570Y-92806106D01*
X197053571Y-92806111D01*
X197053572Y-92806112D01*
X197165692Y-93124365D01*
X197312612Y-93428125D01*
X197492498Y-93713602D01*
X197620148Y-93873390D01*
X197703104Y-93977232D01*
X197941801Y-94215725D01*
X197941802Y-94215726D01*
X198205606Y-94426100D01*
X198205617Y-94426108D01*
X198339785Y-94510489D01*
X198491244Y-94605745D01*
X198795131Y-94752404D01*
X199113480Y-94864251D01*
X199113483Y-94864251D01*
X199113487Y-94864253D01*
X199442302Y-94939888D01*
X199442308Y-94939888D01*
X199442318Y-94939891D01*
X199777541Y-94978379D01*
X200114121Y-94979231D01*
X200114964Y-94979234D01*
X200114964Y-94979233D01*
X200114965Y-94979234D01*
X200450379Y-94942447D01*
X200779596Y-94868476D01*
X201098508Y-94758245D01*
X201403134Y-94613129D01*
X201489683Y-94559307D01*
X207849499Y-94559307D01*
X207880201Y-94673886D01*
X207939508Y-94776609D01*
X207939516Y-94776619D01*
X208023380Y-94860483D01*
X208023385Y-94860487D01*
X208023387Y-94860489D01*
X208023388Y-94860490D01*
X208023390Y-94860491D01*
X208037222Y-94868477D01*
X208126114Y-94919799D01*
X208240691Y-94950500D01*
X208240693Y-94950500D01*
X208359307Y-94950500D01*
X208359309Y-94950500D01*
X208473886Y-94919799D01*
X208576613Y-94860489D01*
X208660489Y-94776613D01*
X208719799Y-94673886D01*
X208750500Y-94559309D01*
X208750500Y-94440691D01*
X208719799Y-94326114D01*
X208683501Y-94263244D01*
X208660491Y-94223390D01*
X208660483Y-94223380D01*
X208576619Y-94139516D01*
X208576609Y-94139508D01*
X208473886Y-94080201D01*
X208359309Y-94049500D01*
X208240691Y-94049500D01*
X208164306Y-94069967D01*
X208126113Y-94080201D01*
X208023390Y-94139508D01*
X208023380Y-94139516D01*
X207939516Y-94223380D01*
X207939508Y-94223390D01*
X207880201Y-94326113D01*
X207880201Y-94326114D01*
X207851043Y-94434935D01*
X207849500Y-94440692D01*
X207849500Y-94559307D01*
X207849499Y-94559307D01*
X201489683Y-94559307D01*
X201689673Y-94434940D01*
X201700874Y-94426100D01*
X201818173Y-94333528D01*
X201818178Y-94333524D01*
X201954547Y-94225901D01*
X202194452Y-93988622D01*
X202406386Y-93726072D01*
X202406386Y-93726070D01*
X202406393Y-93726063D01*
X202587724Y-93441502D01*
X202736183Y-93138491D01*
X202849916Y-92820811D01*
X202927504Y-92492428D01*
X202967980Y-92157439D01*
X202969369Y-91988946D01*
X202969375Y-91988554D01*
X203007073Y-89524072D01*
X203028114Y-89456266D01*
X203082475Y-89410599D01*
X203133058Y-89400000D01*
X211974000Y-89400000D01*
X212042121Y-89420002D01*
X212088614Y-89473658D01*
X212100000Y-89526000D01*
X212100000Y-99174000D01*
X212079998Y-99242121D01*
X212026342Y-99288614D01*
X211974000Y-99300000D01*
X210679828Y-99300000D01*
X210611707Y-99279998D01*
X210565214Y-99226342D01*
X210555110Y-99156068D01*
X210584604Y-99091488D01*
X210599901Y-99076595D01*
X210600644Y-99075983D01*
X210600655Y-99075977D01*
X210746977Y-98929655D01*
X210861941Y-98757598D01*
X210941130Y-98566420D01*
X210981500Y-98363465D01*
X210981500Y-98156535D01*
X210941130Y-97953580D01*
X210861941Y-97762402D01*
X210746977Y-97590345D01*
X210746975Y-97590343D01*
X210746970Y-97590337D01*
X210600662Y-97444029D01*
X210600656Y-97444024D01*
X210576173Y-97427665D01*
X210428598Y-97329059D01*
X210237420Y-97249870D01*
X210034467Y-97209500D01*
X210034465Y-97209500D01*
X209827535Y-97209500D01*
X209827532Y-97209500D01*
X209624579Y-97249870D01*
X209624574Y-97249872D01*
X209433402Y-97329059D01*
X209261343Y-97444024D01*
X209261337Y-97444029D01*
X209115029Y-97590337D01*
X209115024Y-97590343D01*
X209000060Y-97762400D01*
X208933408Y-97923310D01*
X208888859Y-97978590D01*
X208821495Y-98001011D01*
X208752704Y-97983452D01*
X208704326Y-97931490D01*
X208690999Y-97875091D01*
X208690999Y-97355805D01*
X208690998Y-97355790D01*
X208688148Y-97325393D01*
X208688147Y-97325390D01*
X208643346Y-97197355D01*
X208643346Y-97197354D01*
X208562792Y-97088207D01*
X208453645Y-97007653D01*
X208325610Y-96962852D01*
X208325605Y-96962851D01*
X208295205Y-96960000D01*
X207645000Y-96960000D01*
X207645000Y-97829297D01*
X207583993Y-97794075D01*
X207456826Y-97760000D01*
X207325174Y-97760000D01*
X207198007Y-97794075D01*
X207137000Y-97829297D01*
X207137000Y-96960000D01*
X206486805Y-96960000D01*
X206486790Y-96960001D01*
X206456393Y-96962851D01*
X206456390Y-96962852D01*
X206328355Y-97007653D01*
X206328354Y-97007653D01*
X206219207Y-97088207D01*
X206138653Y-97197354D01*
X206138653Y-97197355D01*
X206093852Y-97325389D01*
X206093851Y-97325394D01*
X206091000Y-97355794D01*
X206091000Y-98006000D01*
X206960297Y-98006000D01*
X206925075Y-98067007D01*
X206891000Y-98194174D01*
X206891000Y-98325826D01*
X206925075Y-98452993D01*
X206960297Y-98514000D01*
X206091001Y-98514000D01*
X206091001Y-99153707D01*
X206070999Y-99221828D01*
X206017343Y-99268321D01*
X205964743Y-99279706D01*
X204858801Y-99277430D01*
X203659965Y-99274963D01*
X203591885Y-99254821D01*
X203545503Y-99201069D01*
X203535544Y-99130775D01*
X203565170Y-99066255D01*
X203609329Y-99033699D01*
X203677016Y-99003813D01*
X203753813Y-98927016D01*
X203797682Y-98827662D01*
X203800500Y-98803373D01*
X203800499Y-98296628D01*
X203797682Y-98272338D01*
X203766678Y-98202121D01*
X203753813Y-98172983D01*
X203677018Y-98096188D01*
X203677016Y-98096187D01*
X203577660Y-98052317D01*
X203577661Y-98052317D01*
X203553376Y-98049500D01*
X203046631Y-98049500D01*
X203046625Y-98049501D01*
X203022339Y-98052317D01*
X203022334Y-98052319D01*
X202922983Y-98096186D01*
X202846188Y-98172981D01*
X202846187Y-98172983D01*
X202802317Y-98272339D01*
X202799500Y-98296621D01*
X202799500Y-98407518D01*
X202790716Y-98437433D01*
X202784088Y-98467903D01*
X202780273Y-98472998D01*
X202779498Y-98475639D01*
X202762595Y-98496613D01*
X202618699Y-98640509D01*
X202556387Y-98674535D01*
X202511517Y-98671325D01*
X202519552Y-98663291D01*
X202550000Y-98589782D01*
X202550000Y-98510218D01*
X202519552Y-98436709D01*
X202463291Y-98380448D01*
X202389782Y-98350000D01*
X202310218Y-98350000D01*
X202236709Y-98380448D01*
X202180448Y-98436709D01*
X202150000Y-98510218D01*
X202150000Y-98589782D01*
X202180448Y-98663291D01*
X202191268Y-98674111D01*
X202188001Y-98673878D01*
X202179383Y-98677093D01*
X202153142Y-98671384D01*
X202126361Y-98669469D01*
X202117164Y-98663558D01*
X202110009Y-98662002D01*
X202081299Y-98640509D01*
X201937404Y-98496614D01*
X201903378Y-98434302D01*
X201900499Y-98407519D01*
X201900499Y-98296631D01*
X201900499Y-98296628D01*
X201897682Y-98272338D01*
X201866678Y-98202121D01*
X201853813Y-98172983D01*
X201777018Y-98096188D01*
X201777016Y-98096187D01*
X201677660Y-98052317D01*
X201677661Y-98052317D01*
X201653376Y-98049500D01*
X201146631Y-98049500D01*
X201146625Y-98049501D01*
X201122339Y-98052317D01*
X201122334Y-98052319D01*
X201022982Y-98096187D01*
X201021205Y-98097405D01*
X201017466Y-98098623D01*
X201012303Y-98100903D01*
X201012072Y-98100380D01*
X200953701Y-98119400D01*
X200885022Y-98101407D01*
X200878795Y-98097405D01*
X200877018Y-98096187D01*
X200777660Y-98052317D01*
X200777661Y-98052317D01*
X200753376Y-98049500D01*
X200246631Y-98049500D01*
X200246625Y-98049501D01*
X200222339Y-98052317D01*
X200222334Y-98052319D01*
X200122982Y-98096187D01*
X200121205Y-98097405D01*
X200117466Y-98098623D01*
X200112303Y-98100903D01*
X200112072Y-98100380D01*
X200053701Y-98119400D01*
X199985022Y-98101407D01*
X199978795Y-98097405D01*
X199977018Y-98096187D01*
X199877660Y-98052317D01*
X199877661Y-98052317D01*
X199853376Y-98049500D01*
X199346631Y-98049500D01*
X199346625Y-98049501D01*
X199322339Y-98052317D01*
X199322334Y-98052319D01*
X199222982Y-98096187D01*
X199221205Y-98097405D01*
X199217466Y-98098623D01*
X199212303Y-98100903D01*
X199212072Y-98100380D01*
X199153701Y-98119400D01*
X199085022Y-98101407D01*
X199078795Y-98097405D01*
X199077018Y-98096187D01*
X198977660Y-98052317D01*
X198977661Y-98052317D01*
X198953376Y-98049500D01*
X198446631Y-98049500D01*
X198446625Y-98049501D01*
X198422339Y-98052317D01*
X198422334Y-98052319D01*
X198322983Y-98096186D01*
X198246188Y-98172981D01*
X198246187Y-98172983D01*
X198202317Y-98272339D01*
X198199500Y-98296621D01*
X198199500Y-98407518D01*
X198190716Y-98437433D01*
X198184088Y-98467903D01*
X198180273Y-98472998D01*
X198179498Y-98475639D01*
X198162595Y-98496613D01*
X198018699Y-98640509D01*
X197956387Y-98674535D01*
X197911517Y-98671325D01*
X197919552Y-98663291D01*
X197950000Y-98589782D01*
X197950000Y-98510218D01*
X197919552Y-98436709D01*
X197863291Y-98380448D01*
X197789782Y-98350000D01*
X197710218Y-98350000D01*
X197636709Y-98380448D01*
X197580448Y-98436709D01*
X197550000Y-98510218D01*
X197550000Y-98589782D01*
X197580448Y-98663291D01*
X197591268Y-98674111D01*
X197588001Y-98673878D01*
X197579383Y-98677093D01*
X197553142Y-98671384D01*
X197526361Y-98669469D01*
X197517164Y-98663558D01*
X197510009Y-98662002D01*
X197481299Y-98640509D01*
X197337404Y-98496614D01*
X197303378Y-98434302D01*
X197300499Y-98407519D01*
X197300499Y-98296631D01*
X197300499Y-98296628D01*
X197297682Y-98272338D01*
X197266678Y-98202121D01*
X197253813Y-98172983D01*
X197177018Y-98096188D01*
X197177016Y-98096187D01*
X197077660Y-98052317D01*
X197077661Y-98052317D01*
X197053376Y-98049500D01*
X196546631Y-98049500D01*
X196546625Y-98049501D01*
X196522339Y-98052317D01*
X196522334Y-98052319D01*
X196422983Y-98096186D01*
X196346188Y-98172981D01*
X196346187Y-98172983D01*
X196302317Y-98272339D01*
X196299500Y-98296621D01*
X196299500Y-98803368D01*
X196299501Y-98803374D01*
X196302317Y-98827660D01*
X196302319Y-98827665D01*
X196346186Y-98927016D01*
X196422981Y-99003811D01*
X196422982Y-99003811D01*
X196422984Y-99003813D01*
X196456858Y-99018769D01*
X196511094Y-99064581D01*
X196531953Y-99132444D01*
X196512811Y-99200812D01*
X196459746Y-99247978D01*
X196405704Y-99260033D01*
X193661227Y-99254386D01*
X193593147Y-99234244D01*
X193546765Y-99180492D01*
X193535486Y-99128676D01*
X193532567Y-97849999D01*
X197409210Y-97849999D01*
X197409210Y-97850001D01*
X197749999Y-98190790D01*
X197750001Y-98190790D01*
X198090790Y-97850001D01*
X198090790Y-97849999D01*
X202009210Y-97849999D01*
X202009210Y-97850001D01*
X202349999Y-98190790D01*
X202350001Y-98190790D01*
X202690790Y-97850001D01*
X202690790Y-97849999D01*
X202350001Y-97509210D01*
X202349999Y-97509210D01*
X202009210Y-97849999D01*
X198090790Y-97849999D01*
X197750001Y-97509210D01*
X197749999Y-97509210D01*
X197409210Y-97849999D01*
X193532567Y-97849999D01*
X193529734Y-96609307D01*
X194749499Y-96609307D01*
X194780201Y-96723886D01*
X194839508Y-96826609D01*
X194839516Y-96826619D01*
X194923380Y-96910483D01*
X194923385Y-96910487D01*
X194923387Y-96910489D01*
X195026114Y-96969799D01*
X195140691Y-97000500D01*
X195140693Y-97000500D01*
X195259307Y-97000500D01*
X195259309Y-97000500D01*
X195373886Y-96969799D01*
X195476613Y-96910489D01*
X195486602Y-96900500D01*
X195499698Y-96887405D01*
X195527066Y-96872460D01*
X195553295Y-96855604D01*
X195559593Y-96854698D01*
X195562010Y-96853379D01*
X195588793Y-96850500D01*
X195649117Y-96850500D01*
X195712115Y-96867379D01*
X195734012Y-96880022D01*
X195810438Y-96900500D01*
X195889562Y-96900500D01*
X196173500Y-96900500D01*
X196241621Y-96920502D01*
X196288114Y-96974158D01*
X196299500Y-97026500D01*
X196299500Y-97403368D01*
X196299501Y-97403374D01*
X196302317Y-97427660D01*
X196302319Y-97427665D01*
X196346186Y-97527016D01*
X196422981Y-97603811D01*
X196422983Y-97603812D01*
X196422984Y-97603813D01*
X196522338Y-97647682D01*
X196546627Y-97650500D01*
X197053372Y-97650499D01*
X197077662Y-97647682D01*
X197177016Y-97603813D01*
X197253813Y-97527016D01*
X197297682Y-97427662D01*
X197300500Y-97403373D01*
X197300499Y-97292478D01*
X197320500Y-97224360D01*
X197337405Y-97203384D01*
X197390790Y-97150000D01*
X197356385Y-97115596D01*
X197353448Y-97110218D01*
X197550000Y-97110218D01*
X197550000Y-97189782D01*
X197580448Y-97263291D01*
X197636709Y-97319552D01*
X197710218Y-97350000D01*
X197789782Y-97350000D01*
X197863291Y-97319552D01*
X197919552Y-97263291D01*
X197950000Y-97189782D01*
X197950000Y-97110218D01*
X197919552Y-97036709D01*
X197863291Y-96980448D01*
X197789782Y-96950000D01*
X197710218Y-96950000D01*
X197636709Y-96980448D01*
X197580448Y-97036709D01*
X197550000Y-97110218D01*
X197353448Y-97110218D01*
X197322360Y-97053284D01*
X197327424Y-96982468D01*
X197369970Y-96925632D01*
X197436490Y-96900821D01*
X197445480Y-96900500D01*
X197807520Y-96900500D01*
X197875641Y-96920502D01*
X197896615Y-96937405D01*
X198162595Y-97203385D01*
X198196621Y-97265697D01*
X198199500Y-97292479D01*
X198199500Y-97403367D01*
X198199501Y-97403375D01*
X198202317Y-97427660D01*
X198202319Y-97427665D01*
X198246186Y-97527016D01*
X198322981Y-97603811D01*
X198322983Y-97603812D01*
X198322984Y-97603813D01*
X198422338Y-97647682D01*
X198446627Y-97650500D01*
X198953372Y-97650499D01*
X198977662Y-97647682D01*
X199077016Y-97603813D01*
X199077019Y-97603809D01*
X199078789Y-97602598D01*
X199082526Y-97601379D01*
X199087697Y-97599097D01*
X199087927Y-97599619D01*
X199146291Y-97580600D01*
X199214971Y-97598588D01*
X199221211Y-97602598D01*
X199222981Y-97603810D01*
X199222984Y-97603813D01*
X199322338Y-97647682D01*
X199346627Y-97650500D01*
X199853372Y-97650499D01*
X199877662Y-97647682D01*
X199977016Y-97603813D01*
X199977019Y-97603809D01*
X199978789Y-97602598D01*
X199982526Y-97601379D01*
X199987697Y-97599097D01*
X199987927Y-97599619D01*
X200046291Y-97580600D01*
X200114971Y-97598588D01*
X200121211Y-97602598D01*
X200122981Y-97603810D01*
X200122984Y-97603813D01*
X200222338Y-97647682D01*
X200246627Y-97650500D01*
X200753372Y-97650499D01*
X200777662Y-97647682D01*
X200877016Y-97603813D01*
X200877019Y-97603809D01*
X200878789Y-97602598D01*
X200882526Y-97601379D01*
X200887697Y-97599097D01*
X200887927Y-97599619D01*
X200946291Y-97580600D01*
X201014971Y-97598588D01*
X201021211Y-97602598D01*
X201022981Y-97603810D01*
X201022984Y-97603813D01*
X201122338Y-97647682D01*
X201146627Y-97650500D01*
X201653372Y-97650499D01*
X201677662Y-97647682D01*
X201777016Y-97603813D01*
X201853813Y-97527016D01*
X201897682Y-97427662D01*
X201900500Y-97403373D01*
X201900499Y-97292478D01*
X201920500Y-97224360D01*
X201937404Y-97203384D01*
X202030570Y-97110218D01*
X202150000Y-97110218D01*
X202150000Y-97189782D01*
X202180448Y-97263291D01*
X202236709Y-97319552D01*
X202310218Y-97350000D01*
X202389782Y-97350000D01*
X202463291Y-97319552D01*
X202519552Y-97263291D01*
X202550000Y-97189782D01*
X202550000Y-97149999D01*
X202709210Y-97149999D01*
X202762595Y-97203384D01*
X202796620Y-97265696D01*
X202799500Y-97292479D01*
X202799500Y-97403367D01*
X202799501Y-97403375D01*
X202802317Y-97427660D01*
X202802319Y-97427665D01*
X202846186Y-97527016D01*
X202922981Y-97603811D01*
X202922983Y-97603812D01*
X202922984Y-97603813D01*
X203022338Y-97647682D01*
X203046627Y-97650500D01*
X203553372Y-97650499D01*
X203577662Y-97647682D01*
X203677016Y-97603813D01*
X203753813Y-97527016D01*
X203797682Y-97427662D01*
X203800500Y-97403373D01*
X203800499Y-97150000D01*
X203800499Y-96896631D01*
X203800499Y-96896628D01*
X203797682Y-96872338D01*
X203777495Y-96826619D01*
X203753813Y-96772983D01*
X203677018Y-96696188D01*
X203677016Y-96696187D01*
X203577660Y-96652317D01*
X203577661Y-96652317D01*
X203553376Y-96649500D01*
X203046631Y-96649500D01*
X203046625Y-96649501D01*
X203022339Y-96652317D01*
X203022334Y-96652319D01*
X202922983Y-96696186D01*
X202846188Y-96772981D01*
X202846187Y-96772983D01*
X202802317Y-96872339D01*
X202799500Y-96896621D01*
X202799500Y-97007518D01*
X202790715Y-97037436D01*
X202784088Y-97067902D01*
X202780273Y-97072997D01*
X202779498Y-97075639D01*
X202762596Y-97096612D01*
X202709210Y-97149999D01*
X202550000Y-97149999D01*
X202550000Y-97110218D01*
X202519552Y-97036709D01*
X202463291Y-96980448D01*
X202389782Y-96950000D01*
X202310218Y-96950000D01*
X202236709Y-96980448D01*
X202180448Y-97036709D01*
X202150000Y-97110218D01*
X202030570Y-97110218D01*
X202132075Y-97008714D01*
X202132077Y-97008712D01*
X202170395Y-96970395D01*
X202718683Y-96422106D01*
X202718077Y-96419188D01*
X202723801Y-96348422D01*
X202766875Y-96291985D01*
X202775397Y-96286421D01*
X202776605Y-96285493D01*
X202776613Y-96285489D01*
X202860489Y-96201613D01*
X202919799Y-96098886D01*
X202950500Y-95984309D01*
X202950500Y-95865691D01*
X202919799Y-95751114D01*
X202860489Y-95648387D01*
X202860487Y-95648385D01*
X202860483Y-95648380D01*
X202776619Y-95564516D01*
X202776609Y-95564508D01*
X202673886Y-95505201D01*
X202559309Y-95474500D01*
X201540691Y-95474500D01*
X201464306Y-95494967D01*
X201426113Y-95505201D01*
X201323390Y-95564508D01*
X201323380Y-95564516D01*
X201239516Y-95648380D01*
X201239508Y-95648390D01*
X201180201Y-95751113D01*
X201149500Y-95865692D01*
X201149500Y-95984307D01*
X201149499Y-95984307D01*
X201180201Y-96098886D01*
X201239508Y-96201609D01*
X201239516Y-96201619D01*
X201323380Y-96285483D01*
X201323385Y-96285487D01*
X201323387Y-96285489D01*
X201323388Y-96285490D01*
X201323390Y-96285491D01*
X201363244Y-96308501D01*
X201426114Y-96344799D01*
X201540691Y-96375500D01*
X201540693Y-96375500D01*
X201636686Y-96375500D01*
X201650191Y-96379465D01*
X201664236Y-96378549D01*
X201683581Y-96389269D01*
X201704807Y-96395502D01*
X201714025Y-96406140D01*
X201726335Y-96412962D01*
X201736813Y-96432439D01*
X201751300Y-96449158D01*
X201753303Y-96463090D01*
X201759971Y-96475485D01*
X201758255Y-96497535D01*
X201761404Y-96519432D01*
X201755442Y-96533697D01*
X201754465Y-96546268D01*
X201737082Y-96577636D01*
X201720398Y-96599636D01*
X201663298Y-96641828D01*
X201620002Y-96649500D01*
X201146631Y-96649500D01*
X201146625Y-96649501D01*
X201122339Y-96652317D01*
X201122334Y-96652319D01*
X201022982Y-96696187D01*
X201021205Y-96697405D01*
X201017466Y-96698623D01*
X201012303Y-96700903D01*
X201012072Y-96700380D01*
X200953701Y-96719400D01*
X200885022Y-96701407D01*
X200878795Y-96697405D01*
X200877018Y-96696187D01*
X200777660Y-96652317D01*
X200777661Y-96652317D01*
X200753376Y-96649500D01*
X200246631Y-96649500D01*
X200246625Y-96649501D01*
X200222339Y-96652317D01*
X200222334Y-96652319D01*
X200122982Y-96696187D01*
X200121205Y-96697405D01*
X200117466Y-96698623D01*
X200112303Y-96700903D01*
X200112072Y-96700380D01*
X200053701Y-96719400D01*
X199985022Y-96701407D01*
X199978795Y-96697405D01*
X199977018Y-96696187D01*
X199877660Y-96652317D01*
X199877661Y-96652317D01*
X199853376Y-96649500D01*
X199346631Y-96649500D01*
X199346625Y-96649501D01*
X199322339Y-96652317D01*
X199322334Y-96652319D01*
X199222982Y-96696187D01*
X199221205Y-96697405D01*
X199217466Y-96698623D01*
X199212303Y-96700903D01*
X199212072Y-96700380D01*
X199153701Y-96719400D01*
X199085022Y-96701407D01*
X199078795Y-96697405D01*
X199077018Y-96696187D01*
X198977660Y-96652317D01*
X198977661Y-96652317D01*
X198953378Y-96649500D01*
X198953373Y-96649500D01*
X198676661Y-96649500D01*
X198646745Y-96640716D01*
X198616276Y-96634088D01*
X198611180Y-96630273D01*
X198608540Y-96629498D01*
X198587566Y-96612595D01*
X198548921Y-96573950D01*
X198514895Y-96511638D01*
X198519960Y-96440823D01*
X198562507Y-96383987D01*
X198605402Y-96363149D01*
X198673886Y-96344799D01*
X198776613Y-96285489D01*
X198860489Y-96201613D01*
X198919799Y-96098886D01*
X198950500Y-95984309D01*
X198950500Y-95865691D01*
X198919799Y-95751114D01*
X198860489Y-95648387D01*
X198860487Y-95648385D01*
X198860483Y-95648380D01*
X198776619Y-95564516D01*
X198776609Y-95564508D01*
X198673886Y-95505201D01*
X198559309Y-95474500D01*
X197540691Y-95474500D01*
X197464306Y-95494967D01*
X197426113Y-95505201D01*
X197323390Y-95564508D01*
X197323380Y-95564516D01*
X197239516Y-95648380D01*
X197239508Y-95648390D01*
X197180201Y-95751113D01*
X197149500Y-95865692D01*
X197149500Y-95984307D01*
X197149499Y-95984307D01*
X197149500Y-95984309D01*
X197180201Y-96098886D01*
X197186906Y-96110500D01*
X197203645Y-96179493D01*
X197180426Y-96246585D01*
X197124620Y-96290474D01*
X197077788Y-96299500D01*
X196000882Y-96299500D01*
X195937882Y-96282619D01*
X195915986Y-96269977D01*
X195839565Y-96249500D01*
X195839562Y-96249500D01*
X195588793Y-96249500D01*
X195520672Y-96229498D01*
X195499698Y-96212595D01*
X195476619Y-96189516D01*
X195476609Y-96189508D01*
X195373886Y-96130201D01*
X195259309Y-96099500D01*
X195140691Y-96099500D01*
X195064306Y-96119967D01*
X195026113Y-96130201D01*
X194923390Y-96189508D01*
X194923380Y-96189516D01*
X194839516Y-96273380D01*
X194839508Y-96273390D01*
X194780201Y-96376113D01*
X194768659Y-96419188D01*
X194753575Y-96475485D01*
X194749500Y-96490692D01*
X194749500Y-96609307D01*
X194749499Y-96609307D01*
X193529734Y-96609307D01*
X193525701Y-94842861D01*
X193525701Y-94842860D01*
X191115062Y-94847700D01*
X190928838Y-94848074D01*
X186492719Y-94856979D01*
X186492718Y-94856980D01*
X186548731Y-105793750D01*
X186529078Y-105861972D01*
X186485735Y-105903513D01*
X186423390Y-105939508D01*
X186423380Y-105939516D01*
X186339516Y-106023380D01*
X186339508Y-106023390D01*
X186280201Y-106126113D01*
X186249500Y-106240692D01*
X186249500Y-106359307D01*
X186249499Y-106359307D01*
X186280201Y-106473886D01*
X186339508Y-106576609D01*
X186339516Y-106576619D01*
X186423380Y-106660483D01*
X186423387Y-106660489D01*
X186490928Y-106699484D01*
X186539921Y-106750867D01*
X186553925Y-106807958D01*
X186557397Y-107485731D01*
X186537745Y-107553953D01*
X186494400Y-107595495D01*
X186423388Y-107636494D01*
X186423380Y-107636500D01*
X186339516Y-107720364D01*
X186339508Y-107720374D01*
X186280201Y-107823097D01*
X186249500Y-107937676D01*
X186249500Y-108056291D01*
X186249499Y-108056291D01*
X186280201Y-108170870D01*
X186339508Y-108273593D01*
X186339516Y-108273603D01*
X186423380Y-108357467D01*
X186423385Y-108357471D01*
X186423387Y-108357473D01*
X186499644Y-108401500D01*
X186507839Y-108410095D01*
X186518667Y-108414973D01*
X186531891Y-108435319D01*
X186548637Y-108452882D01*
X186551869Y-108466057D01*
X186557357Y-108474501D01*
X186562642Y-108509973D01*
X186562833Y-108547225D01*
X186543181Y-108615447D01*
X186525931Y-108636966D01*
X186439513Y-108723384D01*
X186439508Y-108723390D01*
X186380201Y-108826113D01*
X186349500Y-108940692D01*
X186349500Y-109059307D01*
X186349499Y-109059307D01*
X186380201Y-109173886D01*
X186439508Y-109276609D01*
X186439516Y-109276619D01*
X186529226Y-109366329D01*
X186527000Y-109368554D01*
X186560074Y-109413882D01*
X186567486Y-109455820D01*
X186571291Y-110198657D01*
X186571291Y-110198656D01*
X186571292Y-110198658D01*
X187427914Y-110187332D01*
X187496290Y-110206432D01*
X187543489Y-110259468D01*
X187555577Y-110313030D01*
X187569044Y-116148213D01*
X187549199Y-116216380D01*
X187495651Y-116262997D01*
X187444461Y-116274496D01*
X176103376Y-116402070D01*
X176035035Y-116382835D01*
X175987941Y-116329706D01*
X175975959Y-116276039D01*
X175976395Y-114979307D01*
X178474499Y-114979307D01*
X178505201Y-115093886D01*
X178564508Y-115196609D01*
X178564516Y-115196619D01*
X178648380Y-115280483D01*
X178648385Y-115280487D01*
X178648387Y-115280489D01*
X178751114Y-115339799D01*
X178865691Y-115370500D01*
X178865693Y-115370500D01*
X178984307Y-115370500D01*
X178984309Y-115370500D01*
X179098886Y-115339799D01*
X179201613Y-115280489D01*
X179285489Y-115196613D01*
X179321462Y-115134307D01*
X179799499Y-115134307D01*
X179830201Y-115248886D01*
X179889508Y-115351609D01*
X179889516Y-115351619D01*
X179973380Y-115435483D01*
X179973385Y-115435487D01*
X179973387Y-115435489D01*
X180076114Y-115494799D01*
X180190691Y-115525500D01*
X180190693Y-115525500D01*
X180309307Y-115525500D01*
X180309309Y-115525500D01*
X180423886Y-115494799D01*
X180526613Y-115435489D01*
X180610489Y-115351613D01*
X180669799Y-115248886D01*
X180693802Y-115159307D01*
X181449499Y-115159307D01*
X181480201Y-115273886D01*
X181539508Y-115376609D01*
X181539516Y-115376619D01*
X181623380Y-115460483D01*
X181623385Y-115460487D01*
X181623387Y-115460489D01*
X181726114Y-115519799D01*
X181840691Y-115550500D01*
X181840693Y-115550500D01*
X181959307Y-115550500D01*
X181959309Y-115550500D01*
X182073886Y-115519799D01*
X182176613Y-115460489D01*
X182260489Y-115376613D01*
X182319799Y-115273886D01*
X182350500Y-115159309D01*
X182350500Y-115040691D01*
X182319799Y-114926114D01*
X182282027Y-114860691D01*
X182260491Y-114823390D01*
X182260483Y-114823380D01*
X182176619Y-114739516D01*
X182176609Y-114739508D01*
X182073886Y-114680201D01*
X181959309Y-114649500D01*
X181840691Y-114649500D01*
X181764306Y-114669967D01*
X181726113Y-114680201D01*
X181623390Y-114739508D01*
X181623380Y-114739516D01*
X181539516Y-114823380D01*
X181539508Y-114823390D01*
X181480201Y-114926113D01*
X181480201Y-114926114D01*
X181456354Y-115015114D01*
X181449500Y-115040692D01*
X181449500Y-115159307D01*
X181449499Y-115159307D01*
X180693802Y-115159307D01*
X180700500Y-115134309D01*
X180700500Y-115015691D01*
X180669799Y-114901114D01*
X180610489Y-114798387D01*
X180610487Y-114798385D01*
X180610483Y-114798380D01*
X180526619Y-114714516D01*
X180526609Y-114714508D01*
X180423886Y-114655201D01*
X180309309Y-114624500D01*
X180190691Y-114624500D01*
X180120230Y-114643380D01*
X180076113Y-114655201D01*
X179973390Y-114714508D01*
X179973380Y-114714516D01*
X179889516Y-114798380D01*
X179889508Y-114798390D01*
X179830201Y-114901113D01*
X179799500Y-115015692D01*
X179799500Y-115134307D01*
X179799499Y-115134307D01*
X179321462Y-115134307D01*
X179344799Y-115093886D01*
X179375500Y-114979309D01*
X179375500Y-114860691D01*
X179344799Y-114746114D01*
X179292310Y-114655201D01*
X179285491Y-114643390D01*
X179285483Y-114643380D01*
X179201619Y-114559516D01*
X179201609Y-114559508D01*
X179098886Y-114500201D01*
X179093978Y-114498886D01*
X178984309Y-114469500D01*
X178865691Y-114469500D01*
X178789306Y-114489967D01*
X178751113Y-114500201D01*
X178648390Y-114559508D01*
X178648380Y-114559516D01*
X178564516Y-114643380D01*
X178564508Y-114643390D01*
X178505201Y-114746113D01*
X178474500Y-114860692D01*
X178474500Y-114979307D01*
X178474499Y-114979307D01*
X175976395Y-114979307D01*
X175976858Y-113605091D01*
X180853715Y-113605091D01*
X180884417Y-113719670D01*
X180943724Y-113822393D01*
X180943732Y-113822403D01*
X181027596Y-113906267D01*
X181027601Y-113906271D01*
X181027603Y-113906273D01*
X181130330Y-113965583D01*
X181244907Y-113996284D01*
X181244909Y-113996284D01*
X181363523Y-113996284D01*
X181363525Y-113996284D01*
X181478102Y-113965583D01*
X181580829Y-113906273D01*
X181664705Y-113822397D01*
X181724015Y-113719670D01*
X181754716Y-113605093D01*
X181754716Y-113486475D01*
X181724015Y-113371898D01*
X181664705Y-113269171D01*
X181664703Y-113269169D01*
X181664699Y-113269164D01*
X181580835Y-113185300D01*
X181580825Y-113185292D01*
X181478102Y-113125985D01*
X181363525Y-113095284D01*
X181244907Y-113095284D01*
X181168522Y-113115751D01*
X181130329Y-113125985D01*
X181027606Y-113185292D01*
X181027596Y-113185300D01*
X180943732Y-113269164D01*
X180943724Y-113269174D01*
X180884417Y-113371897D01*
X180883152Y-113376619D01*
X180860679Y-113460491D01*
X180853716Y-113486476D01*
X180853716Y-113605091D01*
X180853715Y-113605091D01*
X175976858Y-113605091D01*
X175977008Y-113159307D01*
X177149499Y-113159307D01*
X177180201Y-113273886D01*
X177239508Y-113376609D01*
X177239516Y-113376619D01*
X177323380Y-113460483D01*
X177323385Y-113460487D01*
X177323387Y-113460489D01*
X177426114Y-113519799D01*
X177540691Y-113550500D01*
X177540693Y-113550500D01*
X177659307Y-113550500D01*
X177659309Y-113550500D01*
X177773886Y-113519799D01*
X177876613Y-113460489D01*
X177876619Y-113460483D01*
X177947982Y-113389121D01*
X177960483Y-113376619D01*
X177960489Y-113376613D01*
X178019799Y-113273886D01*
X178050500Y-113159309D01*
X178050500Y-113040691D01*
X178019799Y-112926114D01*
X177981228Y-112859307D01*
X185449499Y-112859307D01*
X185480201Y-112973886D01*
X185539508Y-113076609D01*
X185539516Y-113076619D01*
X185623380Y-113160483D01*
X185623385Y-113160487D01*
X185623387Y-113160489D01*
X185726114Y-113219799D01*
X185840691Y-113250500D01*
X185840693Y-113250500D01*
X185959307Y-113250500D01*
X185959309Y-113250500D01*
X186073886Y-113219799D01*
X186176613Y-113160489D01*
X186260489Y-113076613D01*
X186319799Y-112973886D01*
X186350500Y-112859309D01*
X186350500Y-112740691D01*
X186319799Y-112626114D01*
X186283501Y-112563244D01*
X186260491Y-112523390D01*
X186260483Y-112523380D01*
X186176619Y-112439516D01*
X186176609Y-112439508D01*
X186073886Y-112380201D01*
X185959309Y-112349500D01*
X185840691Y-112349500D01*
X185764306Y-112369967D01*
X185726113Y-112380201D01*
X185623390Y-112439508D01*
X185623380Y-112439516D01*
X185539516Y-112523380D01*
X185539508Y-112523390D01*
X185480201Y-112626113D01*
X185449500Y-112740692D01*
X185449500Y-112859307D01*
X185449499Y-112859307D01*
X177981228Y-112859307D01*
X177960489Y-112823387D01*
X177960487Y-112823385D01*
X177960483Y-112823380D01*
X177876619Y-112739516D01*
X177876609Y-112739508D01*
X177773886Y-112680201D01*
X177760495Y-112676613D01*
X177659309Y-112649500D01*
X177540691Y-112649500D01*
X177464306Y-112669967D01*
X177426113Y-112680201D01*
X177323390Y-112739508D01*
X177323384Y-112739513D01*
X177297777Y-112765119D01*
X177297770Y-112765127D01*
X177239511Y-112823387D01*
X177201717Y-112888845D01*
X177201714Y-112888851D01*
X177191126Y-112907191D01*
X177180201Y-112926114D01*
X177167401Y-112973886D01*
X177149500Y-113040692D01*
X177149500Y-113159307D01*
X177149499Y-113159307D01*
X175977008Y-113159307D01*
X175977243Y-112459307D01*
X176249499Y-112459307D01*
X176280201Y-112573886D01*
X176339508Y-112676609D01*
X176339516Y-112676619D01*
X176423380Y-112760483D01*
X176423385Y-112760487D01*
X176423387Y-112760489D01*
X176526114Y-112819799D01*
X176640691Y-112850500D01*
X176640693Y-112850500D01*
X176759307Y-112850500D01*
X176759309Y-112850500D01*
X176873886Y-112819799D01*
X176976613Y-112760489D01*
X177060489Y-112676613D01*
X177119799Y-112573886D01*
X177150500Y-112459309D01*
X177150500Y-112340691D01*
X177119799Y-112226114D01*
X177060489Y-112123387D01*
X177060487Y-112123385D01*
X177060483Y-112123380D01*
X176976619Y-112039516D01*
X176976609Y-112039508D01*
X176873886Y-111980201D01*
X176860495Y-111976613D01*
X176759309Y-111949500D01*
X176640691Y-111949500D01*
X176564306Y-111969967D01*
X176526113Y-111980201D01*
X176423390Y-112039508D01*
X176423380Y-112039516D01*
X176339516Y-112123380D01*
X176339508Y-112123390D01*
X176280201Y-112226113D01*
X176249500Y-112340692D01*
X176249500Y-112459307D01*
X176249499Y-112459307D01*
X175977243Y-112459307D01*
X175977428Y-111909307D01*
X177299499Y-111909307D01*
X177330201Y-112023886D01*
X177389508Y-112126609D01*
X177389516Y-112126619D01*
X177473380Y-112210483D01*
X177473385Y-112210487D01*
X177473387Y-112210489D01*
X177576114Y-112269799D01*
X177690691Y-112300500D01*
X177690693Y-112300500D01*
X177809307Y-112300500D01*
X177809309Y-112300500D01*
X177923886Y-112269799D01*
X178026613Y-112210489D01*
X178110489Y-112126613D01*
X178169799Y-112023886D01*
X178200500Y-111909309D01*
X178200500Y-111790691D01*
X178192091Y-111759307D01*
X179299499Y-111759307D01*
X179330201Y-111873886D01*
X179389508Y-111976609D01*
X179389516Y-111976619D01*
X179473380Y-112060483D01*
X179473385Y-112060487D01*
X179473387Y-112060489D01*
X179473388Y-112060490D01*
X179473390Y-112060491D01*
X179513244Y-112083501D01*
X179576114Y-112119799D01*
X179690691Y-112150500D01*
X179690693Y-112150500D01*
X179809307Y-112150500D01*
X179809309Y-112150500D01*
X179923886Y-112119799D01*
X180026613Y-112060489D01*
X180110489Y-111976613D01*
X180169799Y-111873886D01*
X180200500Y-111759309D01*
X180200500Y-111640691D01*
X180169799Y-111526114D01*
X180110489Y-111423387D01*
X180110487Y-111423385D01*
X180110483Y-111423380D01*
X180026619Y-111339516D01*
X180026609Y-111339508D01*
X179923886Y-111280201D01*
X179910495Y-111276613D01*
X179809309Y-111249500D01*
X179690691Y-111249500D01*
X179614306Y-111269967D01*
X179576113Y-111280201D01*
X179473390Y-111339508D01*
X179473380Y-111339516D01*
X179389516Y-111423380D01*
X179389508Y-111423390D01*
X179330201Y-111526113D01*
X179299500Y-111640692D01*
X179299500Y-111759307D01*
X179299499Y-111759307D01*
X178192091Y-111759307D01*
X178169799Y-111676114D01*
X178110489Y-111573387D01*
X178110487Y-111573385D01*
X178110483Y-111573380D01*
X178026619Y-111489516D01*
X178026609Y-111489508D01*
X177923886Y-111430201D01*
X177898456Y-111423387D01*
X177809309Y-111399500D01*
X177690691Y-111399500D01*
X177614938Y-111419798D01*
X177576113Y-111430201D01*
X177473390Y-111489508D01*
X177473380Y-111489516D01*
X177389516Y-111573380D01*
X177389508Y-111573390D01*
X177330201Y-111676113D01*
X177299500Y-111790692D01*
X177299500Y-111909307D01*
X177299499Y-111909307D01*
X175977428Y-111909307D01*
X175978050Y-110059307D01*
X178749499Y-110059307D01*
X178780201Y-110173886D01*
X178816640Y-110237000D01*
X178833378Y-110305995D01*
X178816640Y-110363000D01*
X178780201Y-110426113D01*
X178749500Y-110540692D01*
X178749500Y-110659307D01*
X178749499Y-110659307D01*
X178780201Y-110773886D01*
X178839508Y-110876609D01*
X178839516Y-110876619D01*
X178923380Y-110960483D01*
X178923385Y-110960487D01*
X178923387Y-110960489D01*
X179026114Y-111019799D01*
X179140691Y-111050500D01*
X179140693Y-111050500D01*
X179259307Y-111050500D01*
X179259309Y-111050500D01*
X179373886Y-111019799D01*
X179476613Y-110960489D01*
X179560489Y-110876613D01*
X179619799Y-110773886D01*
X179650500Y-110659309D01*
X179650500Y-110540691D01*
X179619799Y-110426114D01*
X179583358Y-110362996D01*
X179566621Y-110294006D01*
X179583357Y-110237003D01*
X179619799Y-110173886D01*
X179623705Y-110159307D01*
X180449499Y-110159307D01*
X180480201Y-110273886D01*
X180539508Y-110376609D01*
X180539516Y-110376619D01*
X180623802Y-110460905D01*
X180657828Y-110523217D01*
X180652763Y-110594032D01*
X180623802Y-110639095D01*
X180539516Y-110723380D01*
X180539508Y-110723390D01*
X180480201Y-110826113D01*
X180449500Y-110940692D01*
X180449500Y-111059307D01*
X180449499Y-111059307D01*
X180480201Y-111173886D01*
X180539508Y-111276609D01*
X180539516Y-111276619D01*
X180623380Y-111360483D01*
X180623385Y-111360487D01*
X180623387Y-111360489D01*
X180623388Y-111360490D01*
X180623390Y-111360491D01*
X180663244Y-111383501D01*
X180726114Y-111419799D01*
X180840691Y-111450500D01*
X180840693Y-111450500D01*
X180959307Y-111450500D01*
X180959309Y-111450500D01*
X181073886Y-111419799D01*
X181176613Y-111360489D01*
X181260489Y-111276613D01*
X181319799Y-111173886D01*
X181350500Y-111059309D01*
X181350500Y-110940691D01*
X181319799Y-110826114D01*
X181260489Y-110723387D01*
X181260487Y-110723385D01*
X181260483Y-110723380D01*
X181176198Y-110639095D01*
X181142172Y-110576783D01*
X181147237Y-110505968D01*
X181176198Y-110460905D01*
X181227795Y-110409307D01*
X183899499Y-110409307D01*
X183930201Y-110523886D01*
X183989508Y-110626609D01*
X183989516Y-110626619D01*
X184073380Y-110710483D01*
X184073385Y-110710487D01*
X184073387Y-110710489D01*
X184073388Y-110710490D01*
X184073390Y-110710491D01*
X184095727Y-110723387D01*
X184176114Y-110769799D01*
X184290691Y-110800500D01*
X184290693Y-110800500D01*
X184409307Y-110800500D01*
X184409309Y-110800500D01*
X184523886Y-110769799D01*
X184626613Y-110710489D01*
X184710489Y-110626613D01*
X184769799Y-110523886D01*
X184800500Y-110409309D01*
X184800500Y-110290691D01*
X184769799Y-110176114D01*
X184710489Y-110073387D01*
X184710487Y-110073385D01*
X184710483Y-110073380D01*
X184626619Y-109989516D01*
X184626609Y-109989508D01*
X184523886Y-109930201D01*
X184508629Y-109926113D01*
X184409309Y-109899500D01*
X184290691Y-109899500D01*
X184214306Y-109919967D01*
X184176113Y-109930201D01*
X184073390Y-109989508D01*
X184073380Y-109989516D01*
X183989516Y-110073380D01*
X183989508Y-110073390D01*
X183930201Y-110176113D01*
X183899500Y-110290692D01*
X183899500Y-110409307D01*
X183899499Y-110409307D01*
X181227795Y-110409307D01*
X181260483Y-110376619D01*
X181260489Y-110376613D01*
X181319799Y-110273886D01*
X181350500Y-110159309D01*
X181350500Y-110040691D01*
X181319799Y-109926114D01*
X181283501Y-109863244D01*
X181260491Y-109823390D01*
X181260483Y-109823380D01*
X181176619Y-109739516D01*
X181176609Y-109739508D01*
X181073886Y-109680201D01*
X181035065Y-109669799D01*
X180959309Y-109649500D01*
X180840691Y-109649500D01*
X180764935Y-109669799D01*
X180726113Y-109680201D01*
X180623390Y-109739508D01*
X180623380Y-109739516D01*
X180539516Y-109823380D01*
X180539508Y-109823390D01*
X180480201Y-109926113D01*
X180449500Y-110040692D01*
X180449500Y-110159307D01*
X180449499Y-110159307D01*
X179623705Y-110159307D01*
X179650500Y-110059309D01*
X179650500Y-109940691D01*
X179619799Y-109826114D01*
X179560489Y-109723387D01*
X179560487Y-109723385D01*
X179560483Y-109723380D01*
X179476619Y-109639516D01*
X179476609Y-109639508D01*
X179373886Y-109580201D01*
X179259309Y-109549500D01*
X179140691Y-109549500D01*
X179064306Y-109569967D01*
X179026113Y-109580201D01*
X178923390Y-109639508D01*
X178923380Y-109639516D01*
X178839516Y-109723380D01*
X178839508Y-109723390D01*
X178780201Y-109826113D01*
X178749500Y-109940692D01*
X178749500Y-110059307D01*
X178749499Y-110059307D01*
X175978050Y-110059307D01*
X175979952Y-104407080D01*
X175981099Y-100997876D01*
X184114799Y-100997876D01*
X184145501Y-101112455D01*
X184204808Y-101215178D01*
X184204816Y-101215188D01*
X184288680Y-101299052D01*
X184288685Y-101299056D01*
X184288687Y-101299058D01*
X184391414Y-101358368D01*
X184505991Y-101389069D01*
X184505993Y-101389069D01*
X184624607Y-101389069D01*
X184624609Y-101389069D01*
X184739186Y-101358368D01*
X184841913Y-101299058D01*
X184925789Y-101215182D01*
X184985099Y-101112455D01*
X185015800Y-100997878D01*
X185015800Y-100879260D01*
X184985099Y-100764683D01*
X184925789Y-100661956D01*
X184925787Y-100661954D01*
X184925783Y-100661949D01*
X184841919Y-100578085D01*
X184841909Y-100578077D01*
X184739186Y-100518770D01*
X184624609Y-100488069D01*
X184505991Y-100488069D01*
X184429606Y-100508536D01*
X184391413Y-100518770D01*
X184288690Y-100578077D01*
X184288680Y-100578085D01*
X184204816Y-100661949D01*
X184204808Y-100661959D01*
X184145501Y-100764682D01*
X184114800Y-100879261D01*
X184114800Y-100997876D01*
X184114799Y-100997876D01*
X175981099Y-100997876D01*
X175981142Y-100870959D01*
X175981534Y-99703507D01*
X183369299Y-99703507D01*
X183400001Y-99818086D01*
X183459308Y-99920809D01*
X183459316Y-99920819D01*
X183543180Y-100004683D01*
X183543185Y-100004687D01*
X183543187Y-100004689D01*
X183645914Y-100063999D01*
X183760491Y-100094700D01*
X183760493Y-100094700D01*
X183879107Y-100094700D01*
X183879109Y-100094700D01*
X183993686Y-100063999D01*
X184096413Y-100004689D01*
X184180289Y-99920813D01*
X184239599Y-99818086D01*
X184270300Y-99703509D01*
X184270300Y-99584891D01*
X184239599Y-99470314D01*
X184180289Y-99367587D01*
X184180287Y-99367585D01*
X184180283Y-99367580D01*
X184096419Y-99283716D01*
X184096409Y-99283708D01*
X183993686Y-99224401D01*
X183984083Y-99221828D01*
X183879109Y-99193700D01*
X183760491Y-99193700D01*
X183684106Y-99214167D01*
X183645913Y-99224401D01*
X183543190Y-99283708D01*
X183543180Y-99283716D01*
X183459316Y-99367580D01*
X183459308Y-99367590D01*
X183400001Y-99470313D01*
X183369300Y-99584892D01*
X183369300Y-99703507D01*
X183369299Y-99703507D01*
X175981534Y-99703507D01*
X175981577Y-99576590D01*
X175982073Y-98100903D01*
X175982132Y-97925507D01*
X184639299Y-97925507D01*
X184670001Y-98040086D01*
X184729308Y-98142809D01*
X184729316Y-98142819D01*
X184813180Y-98226683D01*
X184813185Y-98226687D01*
X184813187Y-98226689D01*
X184915914Y-98285999D01*
X185030491Y-98316700D01*
X185030493Y-98316700D01*
X185149107Y-98316700D01*
X185149109Y-98316700D01*
X185263686Y-98285999D01*
X185366413Y-98226689D01*
X185450289Y-98142813D01*
X185509599Y-98040086D01*
X185540300Y-97925509D01*
X185540300Y-97806891D01*
X185509599Y-97692314D01*
X185458503Y-97603814D01*
X185450291Y-97589590D01*
X185450283Y-97589580D01*
X185366419Y-97505716D01*
X185366409Y-97505708D01*
X185263686Y-97446401D01*
X185149109Y-97415700D01*
X185030491Y-97415700D01*
X184954106Y-97436167D01*
X184915913Y-97446401D01*
X184813190Y-97505708D01*
X184813180Y-97505716D01*
X184729316Y-97589580D01*
X184729308Y-97589590D01*
X184670001Y-97692313D01*
X184654650Y-97749602D01*
X184651865Y-97760000D01*
X184639300Y-97806892D01*
X184639300Y-97925507D01*
X184639299Y-97925507D01*
X175982132Y-97925507D01*
X175982524Y-96759307D01*
X178899499Y-96759307D01*
X178930201Y-96873886D01*
X178989508Y-96976609D01*
X178989516Y-96976619D01*
X179073380Y-97060483D01*
X179073385Y-97060487D01*
X179073387Y-97060489D01*
X179073388Y-97060490D01*
X179073390Y-97060491D01*
X179095051Y-97072997D01*
X179176114Y-97119799D01*
X179290691Y-97150500D01*
X179290693Y-97150500D01*
X179409307Y-97150500D01*
X179409309Y-97150500D01*
X179523886Y-97119799D01*
X179626613Y-97060489D01*
X179710489Y-96976613D01*
X179769799Y-96873886D01*
X179800500Y-96759309D01*
X179800500Y-96640691D01*
X179769799Y-96526114D01*
X179710489Y-96423387D01*
X179710487Y-96423385D01*
X179710483Y-96423380D01*
X179626619Y-96339516D01*
X179626609Y-96339508D01*
X179523886Y-96280201D01*
X179498456Y-96273387D01*
X179409309Y-96249500D01*
X179290691Y-96249500D01*
X179214306Y-96269967D01*
X179176113Y-96280201D01*
X179073390Y-96339508D01*
X179073380Y-96339516D01*
X178989516Y-96423380D01*
X178989508Y-96423390D01*
X178930201Y-96526113D01*
X178930201Y-96526114D01*
X178901270Y-96634088D01*
X178899500Y-96640692D01*
X178899500Y-96759307D01*
X178899499Y-96759307D01*
X175982524Y-96759307D01*
X175983382Y-94209307D01*
X190570499Y-94209307D01*
X190601201Y-94323886D01*
X190660508Y-94426609D01*
X190660516Y-94426619D01*
X190744380Y-94510483D01*
X190744385Y-94510487D01*
X190744387Y-94510489D01*
X190847114Y-94569799D01*
X190961691Y-94600500D01*
X191080309Y-94600500D01*
X191194886Y-94569799D01*
X191297613Y-94510489D01*
X191381489Y-94426613D01*
X191440799Y-94323886D01*
X191471500Y-94209309D01*
X191471500Y-94090691D01*
X191440799Y-93976114D01*
X191381489Y-93873387D01*
X191381487Y-93873385D01*
X191381483Y-93873380D01*
X191297619Y-93789516D01*
X191297609Y-93789508D01*
X191194886Y-93730201D01*
X191179443Y-93726063D01*
X191080309Y-93699500D01*
X190961691Y-93699500D01*
X190885306Y-93719967D01*
X190847113Y-93730201D01*
X190744390Y-93789508D01*
X190744380Y-93789516D01*
X190660516Y-93873380D01*
X190660508Y-93873390D01*
X190601201Y-93976113D01*
X190570500Y-94090692D01*
X190570500Y-94209307D01*
X190570499Y-94209307D01*
X175983382Y-94209307D01*
X175983903Y-92659307D01*
X192599499Y-92659307D01*
X192630201Y-92773886D01*
X192689508Y-92876609D01*
X192689516Y-92876619D01*
X192773380Y-92960483D01*
X192773385Y-92960487D01*
X192773387Y-92960489D01*
X192876114Y-93019799D01*
X192990691Y-93050500D01*
X192990693Y-93050500D01*
X193109307Y-93050500D01*
X193109309Y-93050500D01*
X193223886Y-93019799D01*
X193326613Y-92960489D01*
X193410489Y-92876613D01*
X193469799Y-92773886D01*
X193500500Y-92659309D01*
X193500500Y-92540691D01*
X193469799Y-92426114D01*
X193410489Y-92323387D01*
X193410487Y-92323385D01*
X193410483Y-92323380D01*
X193326619Y-92239516D01*
X193326609Y-92239508D01*
X193223886Y-92180201D01*
X193109309Y-92149500D01*
X192990691Y-92149500D01*
X192914306Y-92169967D01*
X192876113Y-92180201D01*
X192773390Y-92239508D01*
X192773380Y-92239516D01*
X192689516Y-92323380D01*
X192689508Y-92323390D01*
X192630201Y-92426113D01*
X192599500Y-92540692D01*
X192599500Y-92659307D01*
X192599499Y-92659307D01*
X175983903Y-92659307D01*
X175984526Y-90808409D01*
X180726900Y-90808409D01*
X180726900Y-90953991D01*
X180754482Y-91056929D01*
X180764578Y-91094608D01*
X180764581Y-91094615D01*
X180837367Y-91220685D01*
X180837375Y-91220695D01*
X180940304Y-91323624D01*
X180940309Y-91323628D01*
X180940311Y-91323630D01*
X181066389Y-91396421D01*
X181207009Y-91434100D01*
X181207011Y-91434100D01*
X181352589Y-91434100D01*
X181352591Y-91434100D01*
X181493211Y-91396421D01*
X181619289Y-91323630D01*
X181722230Y-91220689D01*
X181795021Y-91094611D01*
X181832700Y-90953991D01*
X181832700Y-90808409D01*
X187076900Y-90808409D01*
X187076900Y-90953991D01*
X187104482Y-91056929D01*
X187114578Y-91094608D01*
X187114581Y-91094615D01*
X187187367Y-91220685D01*
X187187375Y-91220695D01*
X187290304Y-91323624D01*
X187290309Y-91323628D01*
X187290311Y-91323630D01*
X187416389Y-91396421D01*
X187557009Y-91434100D01*
X187557011Y-91434100D01*
X187702589Y-91434100D01*
X187702591Y-91434100D01*
X187843211Y-91396421D01*
X187969289Y-91323630D01*
X188072230Y-91220689D01*
X188145021Y-91094611D01*
X188182700Y-90953991D01*
X188182700Y-90808409D01*
X188145021Y-90667789D01*
X188072230Y-90541711D01*
X188072228Y-90541709D01*
X188072224Y-90541704D01*
X187969295Y-90438775D01*
X187969285Y-90438767D01*
X187843215Y-90365981D01*
X187843212Y-90365980D01*
X187843211Y-90365979D01*
X187843209Y-90365978D01*
X187843208Y-90365978D01*
X187805529Y-90355882D01*
X187702591Y-90328300D01*
X187557009Y-90328300D01*
X187481653Y-90348491D01*
X187416391Y-90365978D01*
X187416384Y-90365981D01*
X187290314Y-90438767D01*
X187290304Y-90438775D01*
X187187375Y-90541704D01*
X187187367Y-90541714D01*
X187114581Y-90667784D01*
X187114579Y-90667789D01*
X187076900Y-90808409D01*
X181832700Y-90808409D01*
X181795021Y-90667789D01*
X181722230Y-90541711D01*
X181722228Y-90541709D01*
X181722224Y-90541704D01*
X181619295Y-90438775D01*
X181619285Y-90438767D01*
X181493215Y-90365981D01*
X181493212Y-90365980D01*
X181493211Y-90365979D01*
X181493209Y-90365978D01*
X181493208Y-90365978D01*
X181455529Y-90355882D01*
X181352591Y-90328300D01*
X181207009Y-90328300D01*
X181131653Y-90348491D01*
X181066391Y-90365978D01*
X181066384Y-90365981D01*
X180940314Y-90438767D01*
X180940304Y-90438775D01*
X180837375Y-90541704D01*
X180837367Y-90541714D01*
X180764581Y-90667784D01*
X180764579Y-90667789D01*
X180726900Y-90808409D01*
X175984526Y-90808409D01*
X175984958Y-89525958D01*
X176004983Y-89457844D01*
X176058654Y-89411369D01*
X176110958Y-89400000D01*
X196767606Y-89400000D01*
X196835727Y-89420002D01*
G37*
%TD.AperFunction*%
%TA.AperFunction,Conductor*%
G36*
X192875262Y-95298752D02*
G01*
X192943177Y-95319435D01*
X192989131Y-95373552D01*
X193000000Y-95424746D01*
X193000000Y-100700000D01*
X202039253Y-100735542D01*
X202107294Y-100755812D01*
X202153576Y-100809650D01*
X202164757Y-100861786D01*
X202140444Y-113383135D01*
X202120309Y-113451216D01*
X202066564Y-113497605D01*
X202014364Y-113508890D01*
X193507719Y-113503493D01*
X193439611Y-113483448D01*
X193393152Y-113429763D01*
X193383093Y-113359482D01*
X193412627Y-113294920D01*
X193418690Y-113288411D01*
X193463989Y-113243113D01*
X193523299Y-113140386D01*
X193554000Y-113025809D01*
X193554000Y-112907191D01*
X193523299Y-112792614D01*
X193463989Y-112689887D01*
X193463987Y-112689885D01*
X193463983Y-112689880D01*
X193380119Y-112606016D01*
X193380109Y-112606008D01*
X193277386Y-112546701D01*
X193162809Y-112516000D01*
X193044191Y-112516000D01*
X192967806Y-112536467D01*
X192929613Y-112546701D01*
X192826890Y-112606008D01*
X192826880Y-112606016D01*
X192743016Y-112689880D01*
X192743008Y-112689890D01*
X192683701Y-112792613D01*
X192653000Y-112907192D01*
X192653000Y-113025807D01*
X192652999Y-113025807D01*
X192683701Y-113140386D01*
X192743008Y-113243109D01*
X192743016Y-113243119D01*
X192787782Y-113287885D01*
X192821808Y-113350197D01*
X192816743Y-113421012D01*
X192774196Y-113477848D01*
X192707676Y-113502659D01*
X192698607Y-113502980D01*
X188125920Y-113500079D01*
X188057812Y-113480034D01*
X188011353Y-113426349D01*
X188000000Y-113374079D01*
X188000000Y-111946307D01*
X193732499Y-111946307D01*
X193763201Y-112060886D01*
X193822508Y-112163609D01*
X193822516Y-112163619D01*
X193906380Y-112247483D01*
X193906385Y-112247487D01*
X193906387Y-112247489D01*
X194009114Y-112306799D01*
X194123691Y-112337500D01*
X194123693Y-112337500D01*
X194242307Y-112337500D01*
X194242309Y-112337500D01*
X194356886Y-112306799D01*
X194459613Y-112247489D01*
X194543489Y-112163613D01*
X194602799Y-112060886D01*
X194633500Y-111946309D01*
X194633500Y-111827691D01*
X194602799Y-111713114D01*
X194543489Y-111610387D01*
X194543487Y-111610385D01*
X194543483Y-111610380D01*
X194459619Y-111526516D01*
X194459609Y-111526508D01*
X194356886Y-111467201D01*
X194242309Y-111436500D01*
X194123691Y-111436500D01*
X194071443Y-111450500D01*
X194009113Y-111467201D01*
X193906390Y-111526508D01*
X193906380Y-111526516D01*
X193822516Y-111610380D01*
X193822508Y-111610390D01*
X193763201Y-111713113D01*
X193732500Y-111827692D01*
X193732500Y-111946307D01*
X193732499Y-111946307D01*
X188000000Y-111946307D01*
X188000000Y-111059307D01*
X189049499Y-111059307D01*
X189080201Y-111173886D01*
X189139508Y-111276609D01*
X189139516Y-111276619D01*
X189223380Y-111360483D01*
X189223385Y-111360487D01*
X189223387Y-111360489D01*
X189326114Y-111419799D01*
X189440691Y-111450500D01*
X189440693Y-111450500D01*
X189559307Y-111450500D01*
X189559309Y-111450500D01*
X189673886Y-111419799D01*
X189776613Y-111360489D01*
X189825795Y-111311307D01*
X199193499Y-111311307D01*
X199224201Y-111425886D01*
X199283508Y-111528609D01*
X199283516Y-111528619D01*
X199367380Y-111612483D01*
X199367385Y-111612487D01*
X199367387Y-111612489D01*
X199470114Y-111671799D01*
X199584691Y-111702500D01*
X199584693Y-111702500D01*
X199703307Y-111702500D01*
X199703309Y-111702500D01*
X199817886Y-111671799D01*
X199920613Y-111612489D01*
X200004489Y-111528613D01*
X200063799Y-111425886D01*
X200094500Y-111311309D01*
X200094500Y-111192691D01*
X200063799Y-111078114D01*
X200004489Y-110975387D01*
X200004487Y-110975385D01*
X200004483Y-110975380D01*
X199920619Y-110891516D01*
X199920609Y-110891508D01*
X199817886Y-110832201D01*
X199795165Y-110826113D01*
X199703309Y-110801500D01*
X199584691Y-110801500D01*
X199508306Y-110821967D01*
X199470113Y-110832201D01*
X199367390Y-110891508D01*
X199367380Y-110891516D01*
X199283516Y-110975380D01*
X199283508Y-110975390D01*
X199224201Y-111078113D01*
X199193500Y-111192692D01*
X199193500Y-111311307D01*
X199193499Y-111311307D01*
X189825795Y-111311307D01*
X189860489Y-111276613D01*
X189919799Y-111173886D01*
X189950500Y-111059309D01*
X189950500Y-110940691D01*
X189919799Y-110826114D01*
X189860489Y-110723387D01*
X189860487Y-110723385D01*
X189860483Y-110723380D01*
X189776619Y-110639516D01*
X189776609Y-110639508D01*
X189673886Y-110580201D01*
X189559309Y-110549500D01*
X189440691Y-110549500D01*
X189364306Y-110569967D01*
X189326113Y-110580201D01*
X189223390Y-110639508D01*
X189223380Y-110639516D01*
X189139516Y-110723380D01*
X189139508Y-110723390D01*
X189080201Y-110826113D01*
X189080201Y-110826114D01*
X189062677Y-110891516D01*
X189049500Y-110940692D01*
X189049500Y-111059307D01*
X189049499Y-111059307D01*
X188000000Y-111059307D01*
X188000000Y-109309307D01*
X193599499Y-109309307D01*
X193630201Y-109423886D01*
X193689508Y-109526609D01*
X193689516Y-109526619D01*
X193773380Y-109610483D01*
X193773385Y-109610487D01*
X193773387Y-109610489D01*
X193876114Y-109669799D01*
X193990691Y-109700500D01*
X193990693Y-109700500D01*
X194109307Y-109700500D01*
X194109309Y-109700500D01*
X194223886Y-109669799D01*
X194326613Y-109610489D01*
X194410489Y-109526613D01*
X194469799Y-109423886D01*
X194500500Y-109309309D01*
X194500500Y-109276500D01*
X194520502Y-109208379D01*
X194574158Y-109161886D01*
X194626500Y-109150500D01*
X194659307Y-109150500D01*
X194659309Y-109150500D01*
X194773886Y-109119799D01*
X194876613Y-109060489D01*
X194911795Y-109025307D01*
X196780499Y-109025307D01*
X196811201Y-109139886D01*
X196870508Y-109242609D01*
X196870516Y-109242619D01*
X196954380Y-109326483D01*
X196954385Y-109326487D01*
X196954387Y-109326489D01*
X197057114Y-109385799D01*
X197171691Y-109416500D01*
X197171693Y-109416500D01*
X197290307Y-109416500D01*
X197290309Y-109416500D01*
X197404886Y-109385799D01*
X197507613Y-109326489D01*
X197591489Y-109242613D01*
X197650799Y-109139886D01*
X197681500Y-109025309D01*
X197681500Y-108906691D01*
X197650799Y-108792114D01*
X197591489Y-108689387D01*
X197591487Y-108689385D01*
X197591483Y-108689380D01*
X197507619Y-108605516D01*
X197507609Y-108605508D01*
X197404886Y-108546201D01*
X197290309Y-108515500D01*
X197171691Y-108515500D01*
X197095306Y-108535967D01*
X197057113Y-108546201D01*
X196954390Y-108605508D01*
X196954380Y-108605516D01*
X196870516Y-108689380D01*
X196870508Y-108689390D01*
X196811201Y-108792113D01*
X196795850Y-108849402D01*
X196785104Y-108889511D01*
X196780500Y-108906692D01*
X196780500Y-109025307D01*
X196780499Y-109025307D01*
X194911795Y-109025307D01*
X194960489Y-108976613D01*
X195019799Y-108873886D01*
X195031505Y-108830201D01*
X195041710Y-108792113D01*
X195050500Y-108759309D01*
X195050500Y-108640691D01*
X195019799Y-108526114D01*
X194960489Y-108423387D01*
X194960487Y-108423385D01*
X194960483Y-108423380D01*
X194876619Y-108339516D01*
X194876609Y-108339508D01*
X194773886Y-108280201D01*
X194659309Y-108249500D01*
X194540691Y-108249500D01*
X194464306Y-108269967D01*
X194426113Y-108280201D01*
X194323390Y-108339508D01*
X194323380Y-108339516D01*
X194239516Y-108423380D01*
X194239508Y-108423390D01*
X194180201Y-108526113D01*
X194149500Y-108640692D01*
X194149500Y-108673500D01*
X194129498Y-108741621D01*
X194075842Y-108788114D01*
X194023500Y-108799500D01*
X193990691Y-108799500D01*
X193914306Y-108819967D01*
X193876113Y-108830201D01*
X193773390Y-108889508D01*
X193773380Y-108889516D01*
X193689516Y-108973380D01*
X193689508Y-108973390D01*
X193630201Y-109076113D01*
X193599500Y-109190692D01*
X193599500Y-109309307D01*
X193599499Y-109309307D01*
X188000000Y-109309307D01*
X188000000Y-109194395D01*
X188020002Y-109126274D01*
X188073658Y-109079781D01*
X188143932Y-109069677D01*
X188188995Y-109085273D01*
X188266114Y-109129799D01*
X188380691Y-109160500D01*
X188380693Y-109160500D01*
X188499307Y-109160500D01*
X188499309Y-109160500D01*
X188613886Y-109129799D01*
X188716613Y-109070489D01*
X188800489Y-108986613D01*
X188859799Y-108883886D01*
X188890500Y-108769309D01*
X188890500Y-108650691D01*
X188859799Y-108536114D01*
X188800489Y-108433387D01*
X188800487Y-108433385D01*
X188800483Y-108433380D01*
X188716619Y-108349516D01*
X188716609Y-108349508D01*
X188613886Y-108290201D01*
X188499309Y-108259500D01*
X188380691Y-108259500D01*
X188332425Y-108272433D01*
X188266113Y-108290201D01*
X188189000Y-108334723D01*
X188120005Y-108351461D01*
X188052913Y-108328241D01*
X188009026Y-108272433D01*
X188000000Y-108225604D01*
X188000000Y-106727467D01*
X188020002Y-106659346D01*
X188063000Y-106618348D01*
X188076613Y-106610489D01*
X188160489Y-106526613D01*
X188219799Y-106423886D01*
X188250500Y-106309309D01*
X188250500Y-106190691D01*
X188219799Y-106076114D01*
X188160489Y-105973387D01*
X188160487Y-105973385D01*
X188160483Y-105973380D01*
X188076619Y-105889516D01*
X188076606Y-105889506D01*
X188062999Y-105881650D01*
X188014006Y-105830267D01*
X188000000Y-105772532D01*
X188000000Y-104319307D01*
X190979499Y-104319307D01*
X191010201Y-104433886D01*
X191069508Y-104536609D01*
X191069516Y-104536619D01*
X191153380Y-104620483D01*
X191153385Y-104620487D01*
X191153387Y-104620489D01*
X191256114Y-104679799D01*
X191370691Y-104710500D01*
X191370693Y-104710500D01*
X191489307Y-104710500D01*
X191489309Y-104710500D01*
X191603886Y-104679799D01*
X191706613Y-104620489D01*
X191790489Y-104536613D01*
X191849799Y-104433886D01*
X191880500Y-104319309D01*
X191880500Y-104200691D01*
X191849799Y-104086114D01*
X191790489Y-103983387D01*
X191790487Y-103983385D01*
X191790483Y-103983380D01*
X191706619Y-103899516D01*
X191706609Y-103899508D01*
X191603886Y-103840201D01*
X191489309Y-103809500D01*
X191370691Y-103809500D01*
X191294306Y-103829967D01*
X191256113Y-103840201D01*
X191153390Y-103899508D01*
X191153380Y-103899516D01*
X191069516Y-103983380D01*
X191069508Y-103983390D01*
X191010201Y-104086113D01*
X190979500Y-104200692D01*
X190979500Y-104319307D01*
X190979499Y-104319307D01*
X188000000Y-104319307D01*
X188000000Y-103084307D01*
X199549499Y-103084307D01*
X199580201Y-103198886D01*
X199639508Y-103301609D01*
X199639516Y-103301619D01*
X199723380Y-103385483D01*
X199723385Y-103385487D01*
X199723387Y-103385489D01*
X199826114Y-103444799D01*
X199940691Y-103475500D01*
X199940693Y-103475500D01*
X200059307Y-103475500D01*
X200059309Y-103475500D01*
X200173886Y-103444799D01*
X200276613Y-103385489D01*
X200360489Y-103301613D01*
X200419799Y-103198886D01*
X200450500Y-103084309D01*
X200450500Y-102965691D01*
X200419799Y-102851114D01*
X200360489Y-102748387D01*
X200360487Y-102748385D01*
X200360483Y-102748380D01*
X200276619Y-102664516D01*
X200276609Y-102664508D01*
X200173886Y-102605201D01*
X200059309Y-102574500D01*
X199940691Y-102574500D01*
X199864306Y-102594967D01*
X199826113Y-102605201D01*
X199723390Y-102664508D01*
X199723380Y-102664516D01*
X199639516Y-102748380D01*
X199639508Y-102748390D01*
X199580201Y-102851113D01*
X199549500Y-102965692D01*
X199549500Y-103084307D01*
X199549499Y-103084307D01*
X188000000Y-103084307D01*
X188000000Y-100009307D01*
X188549499Y-100009307D01*
X188580201Y-100123886D01*
X188639508Y-100226609D01*
X188639516Y-100226619D01*
X188723380Y-100310483D01*
X188723385Y-100310487D01*
X188723387Y-100310489D01*
X188723388Y-100310490D01*
X188723390Y-100310491D01*
X188734704Y-100317023D01*
X188826114Y-100369799D01*
X188940691Y-100400500D01*
X188940693Y-100400500D01*
X189059307Y-100400500D01*
X189059309Y-100400500D01*
X189173886Y-100369799D01*
X189265299Y-100317021D01*
X190248785Y-100317021D01*
X190279487Y-100431600D01*
X190338794Y-100534323D01*
X190338802Y-100534333D01*
X190422666Y-100618197D01*
X190422671Y-100618201D01*
X190422673Y-100618203D01*
X190525400Y-100677513D01*
X190639977Y-100708214D01*
X190639979Y-100708214D01*
X190758593Y-100708214D01*
X190758595Y-100708214D01*
X190873172Y-100677513D01*
X190975899Y-100618203D01*
X191059775Y-100534327D01*
X191119085Y-100431600D01*
X191149786Y-100317023D01*
X191149786Y-100198405D01*
X191119085Y-100083828D01*
X191059775Y-99981101D01*
X191059773Y-99981099D01*
X191059769Y-99981094D01*
X190975905Y-99897230D01*
X190975895Y-99897222D01*
X190873172Y-99837915D01*
X190758595Y-99807214D01*
X190639977Y-99807214D01*
X190563592Y-99827681D01*
X190525399Y-99837915D01*
X190422676Y-99897222D01*
X190422666Y-99897230D01*
X190338802Y-99981094D01*
X190338794Y-99981104D01*
X190279487Y-100083827D01*
X190248786Y-100198406D01*
X190248786Y-100317021D01*
X190248785Y-100317021D01*
X189265299Y-100317021D01*
X189276613Y-100310489D01*
X189360489Y-100226613D01*
X189419799Y-100123886D01*
X189450500Y-100009309D01*
X189450500Y-99890691D01*
X189419799Y-99776114D01*
X189360489Y-99673387D01*
X189360487Y-99673385D01*
X189360483Y-99673380D01*
X189276619Y-99589516D01*
X189276609Y-99589508D01*
X189173886Y-99530201D01*
X189152143Y-99524375D01*
X189059309Y-99499500D01*
X188940691Y-99499500D01*
X188864306Y-99519967D01*
X188826113Y-99530201D01*
X188723390Y-99589508D01*
X188723380Y-99589516D01*
X188639516Y-99673380D01*
X188639508Y-99673390D01*
X188580201Y-99776113D01*
X188549500Y-99890692D01*
X188549500Y-100009307D01*
X188549499Y-100009307D01*
X188000000Y-100009307D01*
X188000000Y-97509307D01*
X191149499Y-97509307D01*
X191180201Y-97623886D01*
X191239508Y-97726609D01*
X191239516Y-97726619D01*
X191323380Y-97810483D01*
X191323385Y-97810487D01*
X191323387Y-97810489D01*
X191426114Y-97869799D01*
X191540691Y-97900500D01*
X191540693Y-97900500D01*
X191659307Y-97900500D01*
X191659309Y-97900500D01*
X191773886Y-97869799D01*
X191876613Y-97810489D01*
X191960489Y-97726613D01*
X192019799Y-97623886D01*
X192050500Y-97509309D01*
X192050500Y-97390691D01*
X192019799Y-97276114D01*
X191960489Y-97173387D01*
X191960487Y-97173385D01*
X191960483Y-97173380D01*
X191876619Y-97089516D01*
X191876609Y-97089508D01*
X191773886Y-97030201D01*
X191659309Y-96999500D01*
X191540691Y-96999500D01*
X191464306Y-97019967D01*
X191426113Y-97030201D01*
X191323390Y-97089508D01*
X191323380Y-97089516D01*
X191239516Y-97173380D01*
X191239508Y-97173390D01*
X191180201Y-97276113D01*
X191149500Y-97390692D01*
X191149500Y-97509307D01*
X191149499Y-97509307D01*
X188000000Y-97509307D01*
X188000000Y-95377266D01*
X188020002Y-95309145D01*
X188073658Y-95262652D01*
X188127257Y-95251272D01*
X192875262Y-95298752D01*
G37*
%TD.AperFunction*%
%TA.AperFunction,Conductor*%
G36*
X208895506Y-103460002D02*
G01*
X208941999Y-103513658D01*
X208950963Y-103541415D01*
X208968949Y-103631835D01*
X209044368Y-103813914D01*
X209153861Y-103977782D01*
X209293218Y-104117139D01*
X209457086Y-104226632D01*
X209639165Y-104302051D01*
X209832459Y-104340500D01*
X210029541Y-104340500D01*
X210222835Y-104302051D01*
X210404914Y-104226632D01*
X210568782Y-104117139D01*
X210708139Y-103977782D01*
X210817632Y-103813914D01*
X210893051Y-103631835D01*
X210911036Y-103541417D01*
X210943944Y-103478509D01*
X211005639Y-103443377D01*
X211034615Y-103440000D01*
X212182000Y-103440000D01*
X212250121Y-103460002D01*
X212296614Y-103513658D01*
X212308000Y-103566000D01*
X212308000Y-118064000D01*
X212287998Y-118132121D01*
X212234342Y-118178614D01*
X212182000Y-118190000D01*
X210347827Y-118190000D01*
X210284827Y-118173119D01*
X210204591Y-118126794D01*
X210192557Y-118123569D01*
X210102727Y-118099500D01*
X209997273Y-118099500D01*
X209934931Y-118116204D01*
X209895408Y-118126794D01*
X209815173Y-118173119D01*
X209752173Y-118190000D01*
X206484000Y-118190000D01*
X206415879Y-118169998D01*
X206369386Y-118116342D01*
X206358000Y-118064000D01*
X206358000Y-111326273D01*
X208000500Y-111326273D01*
X208000500Y-111431727D01*
X208024569Y-111521557D01*
X208027794Y-111533591D01*
X208080517Y-111624909D01*
X208080525Y-111624919D01*
X208155080Y-111699474D01*
X208155085Y-111699478D01*
X208155087Y-111699480D01*
X208155088Y-111699481D01*
X208155090Y-111699482D01*
X208246408Y-111752205D01*
X208246410Y-111752205D01*
X208246413Y-111752207D01*
X208348273Y-111779500D01*
X208348275Y-111779500D01*
X208453725Y-111779500D01*
X208453727Y-111779500D01*
X208555587Y-111752207D01*
X208555590Y-111752205D01*
X208555591Y-111752205D01*
X208601250Y-111725843D01*
X208646913Y-111699480D01*
X208721480Y-111624913D01*
X208774207Y-111533587D01*
X208801500Y-111431727D01*
X208801500Y-111326273D01*
X208774207Y-111224413D01*
X208774205Y-111224410D01*
X208774205Y-111224408D01*
X208721482Y-111133090D01*
X208721474Y-111133080D01*
X208646919Y-111058525D01*
X208646909Y-111058517D01*
X208555591Y-111005794D01*
X208543557Y-111002569D01*
X208453727Y-110978500D01*
X208348273Y-110978500D01*
X208285931Y-110995204D01*
X208246408Y-111005794D01*
X208155090Y-111058517D01*
X208155080Y-111058525D01*
X208080525Y-111133080D01*
X208080517Y-111133090D01*
X208027794Y-111224408D01*
X208027793Y-111224413D01*
X208000500Y-111326273D01*
X206358000Y-111326273D01*
X206358000Y-110690000D01*
X205265000Y-110690000D01*
X205196879Y-110669998D01*
X205150386Y-110616342D01*
X205139000Y-110564000D01*
X205139000Y-108913273D01*
X208000500Y-108913273D01*
X208000500Y-109018727D01*
X208024569Y-109108557D01*
X208027794Y-109120591D01*
X208080517Y-109211909D01*
X208080525Y-109211919D01*
X208155080Y-109286474D01*
X208155085Y-109286478D01*
X208155087Y-109286480D01*
X208155088Y-109286481D01*
X208155090Y-109286482D01*
X208246408Y-109339205D01*
X208246410Y-109339205D01*
X208246413Y-109339207D01*
X208348273Y-109366500D01*
X208348275Y-109366500D01*
X208453725Y-109366500D01*
X208453727Y-109366500D01*
X208555587Y-109339207D01*
X208555590Y-109339205D01*
X208555591Y-109339205D01*
X208601250Y-109312843D01*
X208646913Y-109286480D01*
X208721480Y-109211913D01*
X208774207Y-109120587D01*
X208801500Y-109018727D01*
X208801500Y-108913273D01*
X208774207Y-108811413D01*
X208774205Y-108811410D01*
X208774205Y-108811408D01*
X208721482Y-108720090D01*
X208721474Y-108720080D01*
X208646919Y-108645525D01*
X208646909Y-108645517D01*
X208555591Y-108592794D01*
X208543557Y-108589569D01*
X208453727Y-108565500D01*
X208348273Y-108565500D01*
X208285931Y-108582204D01*
X208246408Y-108592794D01*
X208155090Y-108645517D01*
X208155080Y-108645525D01*
X208080525Y-108720080D01*
X208080517Y-108720090D01*
X208027794Y-108811408D01*
X208027793Y-108811413D01*
X208000500Y-108913273D01*
X205139000Y-108913273D01*
X205139000Y-106500273D01*
X208000500Y-106500273D01*
X208000500Y-106605727D01*
X208024569Y-106695557D01*
X208027794Y-106707591D01*
X208080517Y-106798909D01*
X208080525Y-106798919D01*
X208155080Y-106873474D01*
X208155085Y-106873478D01*
X208155087Y-106873480D01*
X208155088Y-106873481D01*
X208155090Y-106873482D01*
X208246408Y-106926205D01*
X208246410Y-106926205D01*
X208246413Y-106926207D01*
X208348273Y-106953500D01*
X208348275Y-106953500D01*
X208453725Y-106953500D01*
X208453727Y-106953500D01*
X208555587Y-106926207D01*
X208555590Y-106926205D01*
X208555591Y-106926205D01*
X208601250Y-106899843D01*
X208646913Y-106873480D01*
X208721480Y-106798913D01*
X208774207Y-106707587D01*
X208801500Y-106605727D01*
X208801500Y-106500273D01*
X208774207Y-106398413D01*
X208774205Y-106398410D01*
X208774205Y-106398408D01*
X208721482Y-106307090D01*
X208721474Y-106307080D01*
X208646919Y-106232525D01*
X208646909Y-106232517D01*
X208555591Y-106179794D01*
X208543557Y-106176569D01*
X208453727Y-106152500D01*
X208348273Y-106152500D01*
X208285931Y-106169204D01*
X208246408Y-106179794D01*
X208155090Y-106232517D01*
X208155080Y-106232525D01*
X208080525Y-106307080D01*
X208080517Y-106307090D01*
X208027794Y-106398408D01*
X208027793Y-106398413D01*
X208000500Y-106500273D01*
X205139000Y-106500273D01*
X205139000Y-103566000D01*
X205159002Y-103497879D01*
X205212658Y-103451386D01*
X205265000Y-103440000D01*
X208827385Y-103440000D01*
X208895506Y-103460002D01*
G37*
%TD.AperFunction*%
M02*
