G04 #@! TF.GenerationSoftware,KiCad,Pcbnew,9.0.6*
G04 #@! TF.CreationDate,2026-05-25T14:22:23-04:00*
G04 #@! TF.ProjectId,tiav3_s14160,74696176-335f-4733-9134-3136302e6b69,rev?*
G04 #@! TF.SameCoordinates,Original*
G04 #@! TF.FileFunction,Soldermask,Bot*
G04 #@! TF.FilePolarity,Negative*
%FSLAX46Y46*%
G04 Gerber Fmt 4.6, Leading zero omitted, Abs format (unit mm)*
G04 Created by KiCad (PCBNEW 9.0.6) date 2026-05-25 14:22:23*
%MOMM*%
%LPD*%
G01*
G04 APERTURE LIST*
G04 Aperture macros list*
%AMRoundRect*
0 Rectangle with rounded corners*
0 $1 Rounding radius*
0 $2 $3 $4 $5 $6 $7 $8 $9 X,Y pos of 4 corners*
0 Add a 4 corners polygon primitive as box body*
4,1,4,$2,$3,$4,$5,$6,$7,$8,$9,$2,$3,0*
0 Add four circle primitives for the rounded corners*
1,1,$1+$1,$2,$3*
1,1,$1+$1,$4,$5*
1,1,$1+$1,$6,$7*
1,1,$1+$1,$8,$9*
0 Add four rect primitives between the rounded corners*
20,1,$1+$1,$2,$3,$4,$5,0*
20,1,$1+$1,$4,$5,$6,$7,0*
20,1,$1+$1,$6,$7,$8,$9,0*
20,1,$1+$1,$8,$9,$2,$3,0*%
G04 Aperture macros list end*
%ADD10R,1.700000X1.700000*%
%ADD11O,1.700000X1.700000*%
%ADD12C,2.240000*%
%ADD13C,2.740000*%
%ADD14RoundRect,0.250000X-0.650000X0.325000X-0.650000X-0.325000X0.650000X-0.325000X0.650000X0.325000X0*%
%ADD15RoundRect,0.140000X-0.140000X-0.170000X0.140000X-0.170000X0.140000X0.170000X-0.140000X0.170000X0*%
%ADD16RoundRect,0.140000X0.140000X0.170000X-0.140000X0.170000X-0.140000X-0.170000X0.140000X-0.170000X0*%
%ADD17RoundRect,0.225000X-0.225000X-0.250000X0.225000X-0.250000X0.225000X0.250000X-0.225000X0.250000X0*%
%ADD18RoundRect,0.135000X0.135000X0.185000X-0.135000X0.185000X-0.135000X-0.185000X0.135000X-0.185000X0*%
%ADD19RoundRect,0.160000X0.197500X0.160000X-0.197500X0.160000X-0.197500X-0.160000X0.197500X-0.160000X0*%
%ADD20RoundRect,0.237500X-0.237500X0.287500X-0.237500X-0.287500X0.237500X-0.287500X0.237500X0.287500X0*%
%ADD21RoundRect,0.140000X-0.170000X0.140000X-0.170000X-0.140000X0.170000X-0.140000X0.170000X0.140000X0*%
%ADD22RoundRect,0.135000X0.185000X-0.135000X0.185000X0.135000X-0.185000X0.135000X-0.185000X-0.135000X0*%
%ADD23R,1.473200X0.558800*%
%ADD24RoundRect,0.135000X-0.135000X-0.185000X0.135000X-0.185000X0.135000X0.185000X-0.135000X0.185000X0*%
%ADD25RoundRect,0.140000X0.170000X-0.140000X0.170000X0.140000X-0.170000X0.140000X-0.170000X-0.140000X0*%
%ADD26R,1.050000X4.250000*%
%ADD27RoundRect,0.218750X0.256250X-0.218750X0.256250X0.218750X-0.256250X0.218750X-0.256250X-0.218750X0*%
G04 APERTURE END LIST*
D10*
X206900000Y-97500000D03*
D11*
X209440000Y-97500000D03*
X206900000Y-100040000D03*
X209440000Y-100040000D03*
X206900000Y-102580000D03*
X209440000Y-102580000D03*
D12*
X200025000Y-92150000D03*
D13*
X197485000Y-89610000D03*
X197485000Y-94690000D03*
X202565000Y-89610000D03*
X202565000Y-94690000D03*
D14*
X200400000Y-103475000D03*
X200400000Y-106425000D03*
D15*
X193095000Y-100750000D03*
X194055000Y-100750000D03*
D16*
X194859200Y-105168400D03*
X193899200Y-105168400D03*
D17*
X192775000Y-99550000D03*
X194325000Y-99550000D03*
D18*
X194135000Y-98300000D03*
X193115000Y-98300000D03*
D19*
X206897500Y-106700000D03*
X205702500Y-106700000D03*
D18*
X197385000Y-102125000D03*
X196365000Y-102125000D03*
D20*
X197425000Y-105550000D03*
X197425000Y-107300000D03*
D18*
X192760000Y-104863600D03*
X191740000Y-104863600D03*
D21*
X191600000Y-103020000D03*
X191600000Y-103980000D03*
D22*
X197418000Y-104235000D03*
X197418000Y-103215000D03*
D23*
X192964800Y-104035001D03*
X192964800Y-103085000D03*
X192964800Y-102134999D03*
X195200000Y-102134999D03*
X195200000Y-103085000D03*
X195200000Y-104035001D03*
D24*
X193115000Y-97150000D03*
X194135000Y-97150000D03*
D25*
X190475000Y-101655000D03*
X190475000Y-100695000D03*
D26*
X198910000Y-100240000D03*
X201110000Y-100240000D03*
D16*
X190880000Y-105175000D03*
X189920000Y-105175000D03*
X196660000Y-98400000D03*
X195700000Y-98400000D03*
D27*
X190450000Y-104212500D03*
X190450000Y-102637500D03*
D14*
X203000000Y-103475000D03*
X203000000Y-106425000D03*
M02*
