M48
; DRILL file {KiCad 9.0.6} date 2026-05-26T22:52:51-0400
; FORMAT={-:-/ absolute / metric / decimal}
; #@! TF.CreationDate,2026-05-26T22:52:51-04:00
; #@! TF.GenerationSoftware,Kicad,Pcbnew,9.0.6
; #@! TF.FileFunction,Plated,1,4,PTH
FMAT,2
METRIC
; #@! TA.AperFunction,Plated,PTH,ViaDrill
T1C0.300
; #@! TA.AperFunction,Plated,PTH,ComponentDrill
T2C1.000
; #@! TA.AperFunction,Plated,PTH,ComponentDrill
T3C1.200
; #@! TA.AperFunction,Plated,PTH,ComponentDrill
T4C1.700
%
G90
G05
T1
X189.29Y-104.86
X190.55Y-99.97
X191.33Y-103.742
X192.1Y-103.1
X193.394Y-104.015
X193.47Y-105.67
X194.75Y-102.2
X194.894Y-104.504
X195.0Y-99.55
X195.05Y-100.75
X195.7Y-97.81
X196.41Y-107.44
X196.65Y-97.125
X200.45Y-106.4
X202.95Y-106.4
T2
X206.9Y-97.5
X206.9Y-100.04
X206.9Y-102.58
X209.44Y-97.5
X209.44Y-100.04
X209.44Y-102.58
T3
X200.025Y-92.15
T4
X197.485Y-89.61
X197.485Y-94.69
X202.565Y-89.61
X202.565Y-94.69
M30
