%TF.GenerationSoftware,KiCad,Pcbnew,9.0.6*%
%TF.CreationDate,2026-05-26T22:52:46-04:00*%
%TF.ProjectId,tiav3_s14160,74696176-335f-4733-9134-3136302e6b69,rev?*%
%TF.SameCoordinates,Original*%
%TF.FileFunction,Copper,L2,Inr*%
%TF.FilePolarity,Positive*%
%FSLAX46Y46*%
G04 Gerber Fmt 4.6, Leading zero omitted, Abs format (unit mm)*
G04 Created by KiCad (PCBNEW 9.0.6) date 2026-05-26 22:52:46*
%MOMM*%
%LPD*%
G01*
G04 APERTURE LIST*
%TA.AperFunction,ComponentPad*%
%ADD10R,1.700000X1.700000*%
%TD*%
%TA.AperFunction,ComponentPad*%
%ADD11O,1.700000X1.700000*%
%TD*%
%TA.AperFunction,ComponentPad*%
%ADD12C,2.240000*%
%TD*%
%TA.AperFunction,ComponentPad*%
%ADD13C,2.740000*%
%TD*%
%TA.AperFunction,ViaPad*%
%ADD14C,0.500000*%
%TD*%
G04 APERTURE END LIST*
D10*
%TO.N,+5V*%
%TO.C,J1*%
X206900000Y-97500000D03*
D11*
%TO.N,VSSA*%
X209440000Y-97500000D03*
%TO.N,VDDA*%
X206900000Y-100040000D03*
%TO.N,LINE*%
X209440000Y-100040000D03*
%TO.N,+VDC*%
X206900000Y-102580000D03*
%TO.N,GND*%
X209440000Y-102580000D03*
%TD*%
D12*
%TO.N,Net-(J2-In)*%
%TO.C,J2*%
X200025000Y-92150000D03*
D13*
%TO.N,GND*%
X197485000Y-89610000D03*
X197485000Y-94690000D03*
X202565000Y-89610000D03*
X202565000Y-94690000D03*
%TD*%
D14*
%TO.N,GND*%
X191330302Y-103741724D03*
X189290000Y-104860000D03*
X200450000Y-106400000D03*
X202950000Y-106400000D03*
X195700000Y-97810000D03*
X196410000Y-107440000D03*
X190550000Y-99970000D03*
X195050000Y-100750000D03*
X193470000Y-105670000D03*
X195000000Y-99550000D03*
%TO.N,VDDA*%
X194894000Y-104504000D03*
%TO.N,VSSA*%
X192100000Y-103100000D03*
%TO.N,/OUT*%
X193394000Y-104014599D03*
%TO.N,LINE*%
X196650000Y-97125000D03*
%TO.N,Net-(U1--)*%
X194750000Y-102200000D03*
%TD*%
%TA.AperFunction,Conductor*%
%TO.N,VDDA*%
G36*
X197945191Y-100062907D02*
G01*
X197981155Y-100112407D01*
X197986000Y-100143000D01*
X197986000Y-102250000D01*
X201542000Y-102222000D01*
X201542000Y-100143000D01*
X201560907Y-100084809D01*
X201610407Y-100048845D01*
X201641000Y-100044000D01*
X207940000Y-100044000D01*
X207998191Y-100062907D01*
X208034155Y-100112407D01*
X208039000Y-100143000D01*
X208039000Y-101800595D01*
X208020093Y-101858786D01*
X207970593Y-101894750D01*
X207909407Y-101894750D01*
X207859908Y-101858786D01*
X207815694Y-101797932D01*
X207815692Y-101797930D01*
X207815690Y-101797927D01*
X207682073Y-101664310D01*
X207529199Y-101553240D01*
X207529198Y-101553239D01*
X207529196Y-101553238D01*
X207360832Y-101467453D01*
X207181113Y-101409058D01*
X206994484Y-101379500D01*
X206994481Y-101379500D01*
X206805519Y-101379500D01*
X206805516Y-101379500D01*
X206618886Y-101409058D01*
X206439167Y-101467453D01*
X206270803Y-101553238D01*
X206117928Y-101664309D01*
X205984309Y-101797928D01*
X205873238Y-101950803D01*
X205787453Y-102119167D01*
X205729058Y-102298886D01*
X205699500Y-102485515D01*
X205699500Y-102674484D01*
X205729058Y-102861113D01*
X205729060Y-102861118D01*
X205787453Y-103040832D01*
X205873240Y-103209199D01*
X205984310Y-103362073D01*
X206117927Y-103495690D01*
X206270801Y-103606760D01*
X206439168Y-103692547D01*
X206618882Y-103750940D01*
X206618883Y-103750940D01*
X206618886Y-103750941D01*
X206805516Y-103780500D01*
X206805519Y-103780500D01*
X206994484Y-103780500D01*
X207181113Y-103750941D01*
X207181114Y-103750940D01*
X207181118Y-103750940D01*
X207360832Y-103692547D01*
X207529199Y-103606760D01*
X207682073Y-103495690D01*
X207815690Y-103362073D01*
X207859908Y-103301212D01*
X207909408Y-103265249D01*
X207970593Y-103265249D01*
X208020093Y-103301213D01*
X208039000Y-103359404D01*
X208039000Y-107031000D01*
X208020093Y-107089191D01*
X207970593Y-107125155D01*
X207940000Y-107130000D01*
X203256076Y-107130000D01*
X203197885Y-107111093D01*
X203161921Y-107061593D01*
X203161921Y-107000407D01*
X203197885Y-106950907D01*
X203206569Y-106945267D01*
X203318716Y-106880520D01*
X203430520Y-106768716D01*
X203509577Y-106631784D01*
X203550500Y-106479057D01*
X203550500Y-106320943D01*
X203509577Y-106168216D01*
X203430520Y-106031284D01*
X203318716Y-105919480D01*
X203181784Y-105840423D01*
X203029057Y-105799500D01*
X202870943Y-105799500D01*
X202718216Y-105840423D01*
X202581284Y-105919480D01*
X202469480Y-106031284D01*
X202390423Y-106168216D01*
X202349500Y-106320943D01*
X202349500Y-106479057D01*
X202390423Y-106631784D01*
X202469480Y-106768716D01*
X202581284Y-106880520D01*
X202693424Y-106945263D01*
X202734365Y-106990733D01*
X202740761Y-107051583D01*
X202710168Y-107104571D01*
X202654272Y-107129458D01*
X202643924Y-107130000D01*
X200756076Y-107130000D01*
X200697885Y-107111093D01*
X200661921Y-107061593D01*
X200661921Y-107000407D01*
X200697885Y-106950907D01*
X200706569Y-106945267D01*
X200818716Y-106880520D01*
X200930520Y-106768716D01*
X201009577Y-106631784D01*
X201050500Y-106479057D01*
X201050500Y-106320943D01*
X201009577Y-106168216D01*
X200930520Y-106031284D01*
X200818716Y-105919480D01*
X200681784Y-105840423D01*
X200529057Y-105799500D01*
X200370943Y-105799500D01*
X200218216Y-105840423D01*
X200081284Y-105919480D01*
X199969480Y-106031284D01*
X199890423Y-106168216D01*
X199849500Y-106320943D01*
X199849500Y-106479057D01*
X199890423Y-106631784D01*
X199969480Y-106768716D01*
X200081284Y-106880520D01*
X200193424Y-106945263D01*
X200234365Y-106990733D01*
X200240761Y-107051583D01*
X200210168Y-107104571D01*
X200154272Y-107129458D01*
X200143924Y-107130000D01*
X198449000Y-107130000D01*
X198390809Y-107111093D01*
X198354845Y-107061593D01*
X198350000Y-107031000D01*
X198350000Y-104925001D01*
X198350000Y-104925000D01*
X196450000Y-104925000D01*
X196450000Y-104925001D01*
X196450000Y-106740500D01*
X196431093Y-106798691D01*
X196381593Y-106834655D01*
X196351000Y-106839500D01*
X196330943Y-106839500D01*
X196178216Y-106880423D01*
X196041284Y-106959480D01*
X195929478Y-107071286D01*
X195924159Y-107080500D01*
X195878690Y-107121441D01*
X195838423Y-107130000D01*
X194461000Y-107130000D01*
X194402809Y-107111093D01*
X194366845Y-107061593D01*
X194362000Y-107031000D01*
X194362000Y-104480000D01*
X194380907Y-104421809D01*
X194430407Y-104385845D01*
X194461000Y-104381000D01*
X195453999Y-104381000D01*
X195454000Y-104381000D01*
X195454000Y-102575001D01*
X195472907Y-102516810D01*
X195522407Y-102480846D01*
X195552995Y-102476001D01*
X196842043Y-102475997D01*
X196844000Y-101736800D01*
X196843999Y-101736800D01*
X195174893Y-101736800D01*
X195125478Y-101720744D01*
X195124335Y-101722725D01*
X195118718Y-101719482D01*
X195118716Y-101719480D01*
X194981784Y-101640423D01*
X194829057Y-101599500D01*
X194670943Y-101599500D01*
X194518216Y-101640423D01*
X194518214Y-101640424D01*
X194518213Y-101640424D01*
X194510497Y-101644879D01*
X194450649Y-101657598D01*
X194394754Y-101632710D01*
X194364163Y-101579721D01*
X194362000Y-101559141D01*
X194362000Y-101128822D01*
X194380907Y-101070631D01*
X194430407Y-101034667D01*
X194491593Y-101034667D01*
X194541093Y-101070631D01*
X194546728Y-101079309D01*
X194569480Y-101118716D01*
X194681284Y-101230520D01*
X194818216Y-101309577D01*
X194970943Y-101350500D01*
X194970945Y-101350500D01*
X195129055Y-101350500D01*
X195129057Y-101350500D01*
X195281784Y-101309577D01*
X195418716Y-101230520D01*
X195530520Y-101118716D01*
X195609577Y-100981784D01*
X195650500Y-100829057D01*
X195650500Y-100670943D01*
X195609577Y-100518216D01*
X195530520Y-100381284D01*
X195418716Y-100269480D01*
X195348143Y-100228735D01*
X195307204Y-100183267D01*
X195300808Y-100122417D01*
X195331401Y-100069429D01*
X195387296Y-100044542D01*
X195397645Y-100044000D01*
X197887000Y-100044000D01*
X197945191Y-100062907D01*
G37*
%TD.AperFunction*%
%TD*%
%TA.AperFunction,Conductor*%
%TO.N,VSSA*%
G36*
X200357958Y-87341037D02*
G01*
X201061657Y-87380556D01*
X201067153Y-87381019D01*
X201767579Y-87459938D01*
X201773060Y-87460712D01*
X202467905Y-87578771D01*
X202473341Y-87579852D01*
X203160499Y-87736692D01*
X203165840Y-87738069D01*
X203843154Y-87933200D01*
X203848403Y-87934874D01*
X204513676Y-88167663D01*
X204518839Y-88169633D01*
X205170023Y-88439362D01*
X205175064Y-88441617D01*
X205810110Y-88747440D01*
X205815017Y-88749976D01*
X206280313Y-89007136D01*
X206431880Y-89090904D01*
X206436660Y-89093723D01*
X206673029Y-89242244D01*
X207033445Y-89468708D01*
X207038059Y-89471791D01*
X207058647Y-89486399D01*
X207612883Y-89879650D01*
X207617320Y-89882990D01*
X208168341Y-90322414D01*
X208172584Y-90325996D01*
X208679063Y-90778614D01*
X208698119Y-90795643D01*
X208702155Y-90799458D01*
X209200541Y-91297844D01*
X209204356Y-91301880D01*
X209674003Y-91827415D01*
X209677585Y-91831658D01*
X210117009Y-92382679D01*
X210120349Y-92387116D01*
X210528206Y-92961937D01*
X210531291Y-92966554D01*
X210906274Y-93563336D01*
X210909095Y-93568119D01*
X211250016Y-94184969D01*
X211252565Y-94189902D01*
X211558375Y-94824921D01*
X211560643Y-94829990D01*
X211830361Y-95481148D01*
X211832341Y-95486336D01*
X212065118Y-96151575D01*
X212066805Y-96156866D01*
X212261924Y-96834137D01*
X212263311Y-96839515D01*
X212420146Y-97526657D01*
X212421229Y-97532103D01*
X212539285Y-98226930D01*
X212540062Y-98232429D01*
X212618978Y-98932828D01*
X212619444Y-98938361D01*
X212658962Y-99642041D01*
X212659118Y-99647592D01*
X212659118Y-100352407D01*
X212658962Y-100357958D01*
X212619444Y-101061638D01*
X212618978Y-101067171D01*
X212540062Y-101767570D01*
X212539285Y-101773069D01*
X212421229Y-102467896D01*
X212420146Y-102473342D01*
X212263311Y-103160484D01*
X212261924Y-103165862D01*
X212066805Y-103843133D01*
X212065118Y-103848424D01*
X211832341Y-104513663D01*
X211830361Y-104518851D01*
X211560643Y-105170009D01*
X211558375Y-105175078D01*
X211252565Y-105810097D01*
X211250016Y-105815030D01*
X210909095Y-106431880D01*
X210906274Y-106436663D01*
X210531291Y-107033445D01*
X210528206Y-107038062D01*
X210120349Y-107612883D01*
X210117009Y-107617320D01*
X209677585Y-108168341D01*
X209674003Y-108172584D01*
X209204356Y-108698119D01*
X209200541Y-108702155D01*
X208702155Y-109200541D01*
X208698119Y-109204356D01*
X208172584Y-109674003D01*
X208168341Y-109677585D01*
X207617320Y-110117009D01*
X207612883Y-110120349D01*
X207038062Y-110528206D01*
X207033445Y-110531291D01*
X206436663Y-110906274D01*
X206431880Y-110909095D01*
X205815030Y-111250016D01*
X205810097Y-111252565D01*
X205175078Y-111558375D01*
X205170009Y-111560643D01*
X204518851Y-111830361D01*
X204513663Y-111832341D01*
X203848424Y-112065118D01*
X203843133Y-112066805D01*
X203165862Y-112261924D01*
X203160484Y-112263311D01*
X202473342Y-112420146D01*
X202467896Y-112421229D01*
X202058039Y-112490866D01*
X202041831Y-112492264D01*
X198047955Y-112507392D01*
X198030997Y-112505994D01*
X197532103Y-112421229D01*
X197526657Y-112420146D01*
X196839515Y-112263311D01*
X196834137Y-112261924D01*
X196156866Y-112066805D01*
X196151575Y-112065118D01*
X195486336Y-111832341D01*
X195481148Y-111830361D01*
X194829990Y-111560643D01*
X194824921Y-111558375D01*
X194189902Y-111252565D01*
X194184969Y-111250016D01*
X193568119Y-110909095D01*
X193563336Y-110906274D01*
X192966554Y-110531291D01*
X192961937Y-110528206D01*
X192387116Y-110120349D01*
X192382679Y-110117009D01*
X191831658Y-109677585D01*
X191827415Y-109674003D01*
X191301880Y-109204356D01*
X191297844Y-109200541D01*
X190799458Y-108702155D01*
X190795643Y-108698119D01*
X190325996Y-108172584D01*
X190322414Y-108168341D01*
X189882990Y-107617320D01*
X189879650Y-107612883D01*
X189506251Y-107086626D01*
X189471791Y-107038059D01*
X189468708Y-107033445D01*
X189093725Y-106436663D01*
X189090904Y-106431880D01*
X188749976Y-105815017D01*
X188747434Y-105810097D01*
X188708528Y-105729309D01*
X188441617Y-105175064D01*
X188439356Y-105170009D01*
X188382972Y-105033886D01*
X188286380Y-104800691D01*
X188839500Y-104800691D01*
X188839500Y-104919309D01*
X188866574Y-105020351D01*
X188870202Y-105033890D01*
X188929507Y-105136608D01*
X188929509Y-105136610D01*
X188929511Y-105136613D01*
X189013387Y-105220489D01*
X189013389Y-105220490D01*
X189013391Y-105220492D01*
X189116110Y-105279797D01*
X189116111Y-105279797D01*
X189116114Y-105279799D01*
X189230691Y-105310500D01*
X189230693Y-105310500D01*
X189349307Y-105310500D01*
X189349309Y-105310500D01*
X189463886Y-105279799D01*
X189463888Y-105279797D01*
X189463890Y-105279797D01*
X189566608Y-105220492D01*
X189566608Y-105220491D01*
X189566613Y-105220489D01*
X189650489Y-105136613D01*
X189709799Y-105033886D01*
X189740500Y-104919309D01*
X189740500Y-104800691D01*
X189709799Y-104686114D01*
X189709797Y-104686111D01*
X189709797Y-104686109D01*
X189650492Y-104583391D01*
X189650490Y-104583389D01*
X189650489Y-104583387D01*
X189566613Y-104499511D01*
X189566610Y-104499509D01*
X189519187Y-104472129D01*
X189519185Y-104472127D01*
X189463889Y-104440202D01*
X189463890Y-104440202D01*
X189442229Y-104434398D01*
X189349309Y-104409500D01*
X189230691Y-104409500D01*
X189160567Y-104428289D01*
X189116109Y-104440202D01*
X189013391Y-104499507D01*
X188929507Y-104583391D01*
X188870202Y-104686109D01*
X188870201Y-104686114D01*
X188839500Y-104800691D01*
X188286380Y-104800691D01*
X188169633Y-104518839D01*
X188167658Y-104513663D01*
X188162706Y-104499511D01*
X188123154Y-104386478D01*
X192248800Y-104386478D01*
X192248800Y-105232800D01*
X192248801Y-105232800D01*
X193031982Y-105232800D01*
X193090173Y-105251707D01*
X193126137Y-105301207D01*
X193126137Y-105362393D01*
X193110520Y-105392073D01*
X193109506Y-105393394D01*
X193050202Y-105496109D01*
X193050201Y-105496114D01*
X193019500Y-105610691D01*
X193019500Y-105729309D01*
X193041147Y-105810097D01*
X193050202Y-105843890D01*
X193109507Y-105946608D01*
X193109509Y-105946610D01*
X193109511Y-105946613D01*
X193193387Y-106030489D01*
X193193389Y-106030490D01*
X193193391Y-106030492D01*
X193296110Y-106089797D01*
X193296111Y-106089797D01*
X193296114Y-106089799D01*
X193410691Y-106120500D01*
X193410693Y-106120500D01*
X193529307Y-106120500D01*
X193529309Y-106120500D01*
X193643886Y-106089799D01*
X193643888Y-106089797D01*
X193643890Y-106089797D01*
X193746608Y-106030492D01*
X193746608Y-106030491D01*
X193746613Y-106030489D01*
X193830489Y-105946613D01*
X193830490Y-105946610D01*
X193835077Y-105942024D01*
X193836487Y-105943434D01*
X193879375Y-105913954D01*
X193940540Y-105915551D01*
X193989084Y-105952795D01*
X194006500Y-106008875D01*
X194006500Y-107031000D01*
X194006878Y-107035797D01*
X194010876Y-107086602D01*
X194010878Y-107086626D01*
X194015719Y-107117192D01*
X194015720Y-107117198D01*
X194026974Y-107165844D01*
X194079240Y-107270551D01*
X194092700Y-107289078D01*
X194115198Y-107320044D01*
X194115203Y-107320049D01*
X194115204Y-107320051D01*
X194189126Y-107395206D01*
X194292956Y-107449194D01*
X194351147Y-107468101D01*
X194395088Y-107475060D01*
X194460997Y-107485500D01*
X194461000Y-107485500D01*
X195838421Y-107485500D01*
X195838423Y-107485500D01*
X195843056Y-107485013D01*
X195868492Y-107482340D01*
X195928341Y-107495060D01*
X195969282Y-107540529D01*
X195974468Y-107555173D01*
X195990200Y-107613885D01*
X195990202Y-107613889D01*
X196049507Y-107716608D01*
X196049509Y-107716610D01*
X196049511Y-107716613D01*
X196133387Y-107800489D01*
X196133389Y-107800490D01*
X196133391Y-107800492D01*
X196236110Y-107859797D01*
X196236111Y-107859797D01*
X196236114Y-107859799D01*
X196350691Y-107890500D01*
X196351000Y-107890500D01*
X196351209Y-107890568D01*
X196357125Y-107891347D01*
X196356980Y-107892443D01*
X196409191Y-107909407D01*
X196445155Y-107958907D01*
X196447271Y-107972270D01*
X196450000Y-107974999D01*
X196450000Y-107975000D01*
X196450001Y-107975000D01*
X198349999Y-107975000D01*
X198350000Y-107975000D01*
X198350000Y-107584500D01*
X198368907Y-107526309D01*
X198418407Y-107490345D01*
X198449000Y-107485500D01*
X200143925Y-107485500D01*
X200144853Y-107485475D01*
X200162519Y-107485013D01*
X200172867Y-107484471D01*
X200185584Y-107483576D01*
X200298869Y-107454222D01*
X200354765Y-107429335D01*
X200394191Y-107404192D01*
X200453418Y-107388846D01*
X200493092Y-107399828D01*
X200588032Y-107449194D01*
X200646223Y-107468101D01*
X200690164Y-107475060D01*
X200756073Y-107485500D01*
X200756076Y-107485500D01*
X202643925Y-107485500D01*
X202644853Y-107485475D01*
X202662519Y-107485013D01*
X202672867Y-107484471D01*
X202685584Y-107483576D01*
X202798869Y-107454222D01*
X202854765Y-107429335D01*
X202894191Y-107404192D01*
X202953418Y-107388846D01*
X202993092Y-107399828D01*
X203088032Y-107449194D01*
X203146223Y-107468101D01*
X203190164Y-107475060D01*
X203256073Y-107485500D01*
X203256076Y-107485500D01*
X207939994Y-107485500D01*
X207940000Y-107485500D01*
X207995607Y-107481124D01*
X208026200Y-107476279D01*
X208074844Y-107465026D01*
X208179551Y-107412760D01*
X208229051Y-107376796D01*
X208304206Y-107302874D01*
X208358194Y-107199044D01*
X208377101Y-107140853D01*
X208391453Y-107050237D01*
X208394500Y-107031003D01*
X208394500Y-103359400D01*
X208377102Y-103249555D01*
X208377101Y-103249551D01*
X208358194Y-103191360D01*
X208311115Y-103097040D01*
X208299479Y-103085210D01*
X208299478Y-103085208D01*
X208229057Y-103013613D01*
X208229053Y-103013610D01*
X208229051Y-103013608D01*
X208179551Y-102977644D01*
X208086024Y-102929011D01*
X208008305Y-102916042D01*
X207954020Y-102887814D01*
X207926695Y-102833069D01*
X207927503Y-102799078D01*
X207950500Y-102683465D01*
X207950500Y-102476535D01*
X207950499Y-102476532D01*
X208389500Y-102476532D01*
X208389500Y-102683467D01*
X208429870Y-102886419D01*
X208429870Y-102886421D01*
X208470854Y-102985366D01*
X208470859Y-102985377D01*
X208509059Y-103077598D01*
X208544387Y-103130471D01*
X208544388Y-103130472D01*
X208623953Y-103249551D01*
X208624023Y-103249655D01*
X208770345Y-103395977D01*
X208942402Y-103510941D01*
X209133580Y-103590130D01*
X209336535Y-103630500D01*
X209336536Y-103630500D01*
X209543464Y-103630500D01*
X209543465Y-103630500D01*
X209746420Y-103590130D01*
X209937598Y-103510941D01*
X210109655Y-103395977D01*
X210255977Y-103249655D01*
X210370941Y-103077598D01*
X210450130Y-102886420D01*
X210490500Y-102683465D01*
X210490500Y-102476535D01*
X210450130Y-102273580D01*
X210370941Y-102082402D01*
X210255977Y-101910345D01*
X210109655Y-101764023D01*
X210109651Y-101764020D01*
X209937597Y-101649058D01*
X209746418Y-101569869D01*
X209543467Y-101529500D01*
X209543465Y-101529500D01*
X209336535Y-101529500D01*
X209336532Y-101529500D01*
X209133581Y-101569869D01*
X208942402Y-101649058D01*
X208770348Y-101764020D01*
X208624020Y-101910348D01*
X208541086Y-102034469D01*
X208493036Y-102072349D01*
X208450288Y-102074028D01*
X208453612Y-102079452D01*
X208467527Y-102093599D01*
X208469226Y-102104932D01*
X208475213Y-102114702D01*
X208473656Y-102134481D01*
X208476599Y-102154108D01*
X208470413Y-102175699D01*
X208429870Y-102273578D01*
X208429870Y-102273580D01*
X208389500Y-102476532D01*
X207950499Y-102476532D01*
X207927629Y-102361553D01*
X207934821Y-102300793D01*
X207976353Y-102255863D01*
X208010048Y-102244335D01*
X208074844Y-102234621D01*
X208179551Y-102182355D01*
X208229051Y-102146391D01*
X208304206Y-102072469D01*
X208304208Y-102072464D01*
X208309526Y-102067234D01*
X208319779Y-102062115D01*
X208327221Y-102053403D01*
X208346514Y-102048770D01*
X208364270Y-102039908D01*
X208375573Y-102041794D01*
X208380931Y-102040507D01*
X208359846Y-101983355D01*
X208364614Y-101948878D01*
X208377101Y-101910448D01*
X208377117Y-101910348D01*
X208394500Y-101800598D01*
X208394500Y-100692508D01*
X208413407Y-100634317D01*
X208462907Y-100598353D01*
X208524093Y-100598353D01*
X208573593Y-100634317D01*
X208575805Y-100637492D01*
X208624023Y-100709655D01*
X208770345Y-100855977D01*
X208942402Y-100970941D01*
X209133580Y-101050130D01*
X209336535Y-101090500D01*
X209336536Y-101090500D01*
X209543464Y-101090500D01*
X209543465Y-101090500D01*
X209746420Y-101050130D01*
X209937598Y-100970941D01*
X210109655Y-100855977D01*
X210255977Y-100709655D01*
X210370941Y-100537598D01*
X210450130Y-100346420D01*
X210490500Y-100143465D01*
X210490500Y-99936535D01*
X210450130Y-99733580D01*
X210370941Y-99542402D01*
X210255977Y-99370345D01*
X210109655Y-99224023D01*
X209969241Y-99130202D01*
X209937597Y-99109058D01*
X209746418Y-99029869D01*
X209543467Y-98989500D01*
X209543465Y-98989500D01*
X209336535Y-98989500D01*
X209336532Y-98989500D01*
X209133581Y-99029869D01*
X208942402Y-99109058D01*
X208770348Y-99224020D01*
X208624020Y-99370348D01*
X208509058Y-99542402D01*
X208429869Y-99733582D01*
X208429868Y-99733586D01*
X208422214Y-99772063D01*
X208392317Y-99825446D01*
X208336751Y-99851061D01*
X208276742Y-99839123D01*
X208254537Y-99822169D01*
X208211874Y-99778794D01*
X208108042Y-99724805D01*
X208108043Y-99724805D01*
X208049850Y-99705898D01*
X207942808Y-99688944D01*
X207888291Y-99661166D01*
X207866831Y-99629048D01*
X207830942Y-99542404D01*
X207796389Y-99490692D01*
X207715977Y-99370345D01*
X207569655Y-99224023D01*
X207429241Y-99130202D01*
X207397597Y-99109058D01*
X207206418Y-99029869D01*
X207003467Y-98989500D01*
X207003465Y-98989500D01*
X206796535Y-98989500D01*
X206796532Y-98989500D01*
X206593581Y-99029869D01*
X206402402Y-99109058D01*
X206230348Y-99224020D01*
X206084020Y-99370348D01*
X205969058Y-99542402D01*
X205933857Y-99627386D01*
X205894120Y-99673912D01*
X205842393Y-99688500D01*
X201641000Y-99688500D01*
X201582809Y-99669593D01*
X201546845Y-99620093D01*
X201542000Y-99589500D01*
X201542000Y-98000001D01*
X201542000Y-98000000D01*
X197986000Y-98000000D01*
X197986000Y-98000001D01*
X197986000Y-99589500D01*
X197967093Y-99647691D01*
X197917593Y-99683655D01*
X197887000Y-99688500D01*
X195549500Y-99688500D01*
X195491309Y-99669593D01*
X195455345Y-99620093D01*
X195450500Y-99589500D01*
X195450500Y-99490692D01*
X195450500Y-99490691D01*
X195419799Y-99376114D01*
X195419797Y-99376111D01*
X195419797Y-99376109D01*
X195360492Y-99273391D01*
X195360490Y-99273389D01*
X195360489Y-99273387D01*
X195276613Y-99189511D01*
X195276610Y-99189509D01*
X195276608Y-99189507D01*
X195173889Y-99130202D01*
X195173890Y-99130202D01*
X195160351Y-99126574D01*
X195059309Y-99099500D01*
X194940691Y-99099500D01*
X194870567Y-99118289D01*
X194826109Y-99130202D01*
X194723391Y-99189507D01*
X194639507Y-99273391D01*
X194580202Y-99376109D01*
X194549500Y-99490692D01*
X194549500Y-99590020D01*
X194530593Y-99648211D01*
X194481093Y-99684175D01*
X194458268Y-99688714D01*
X194405393Y-99692876D01*
X194405389Y-99692876D01*
X194405373Y-99692878D01*
X194374807Y-99697719D01*
X194374801Y-99697720D01*
X194326154Y-99708974D01*
X194221449Y-99761240D01*
X194221446Y-99761242D01*
X194171955Y-99797198D01*
X194171946Y-99797206D01*
X194096794Y-99871125D01*
X194042805Y-99974957D01*
X194023898Y-100033149D01*
X194006500Y-100142996D01*
X194006500Y-100371177D01*
X194006987Y-100389789D01*
X194007528Y-100400110D01*
X194008422Y-100412826D01*
X194008422Y-100412831D01*
X194037776Y-100526120D01*
X194062658Y-100582006D01*
X194062666Y-100582020D01*
X194119339Y-100670892D01*
X194119338Y-100670892D01*
X194125150Y-100675678D01*
X194158048Y-100727266D01*
X194154341Y-100788339D01*
X194131636Y-100822678D01*
X194096793Y-100856949D01*
X194042805Y-100960779D01*
X194023898Y-101018971D01*
X194006500Y-101128818D01*
X194006500Y-101559158D01*
X194008444Y-101596267D01*
X194008446Y-101596294D01*
X194010609Y-101616876D01*
X194011545Y-101623116D01*
X194001478Y-101683467D01*
X193957860Y-101726376D01*
X193913640Y-101736800D01*
X193190000Y-101736800D01*
X193190000Y-101736801D01*
X193190000Y-103555028D01*
X193185057Y-103570238D01*
X193184954Y-103586232D01*
X193176486Y-103596619D01*
X193171093Y-103613219D01*
X193148669Y-103635497D01*
X193144706Y-103638336D01*
X193117387Y-103654110D01*
X193103955Y-103667541D01*
X193097359Y-103672269D01*
X193075559Y-103679195D01*
X193055177Y-103689581D01*
X193039690Y-103690800D01*
X192250000Y-103690800D01*
X192248800Y-104386478D01*
X188123154Y-104386478D01*
X187934874Y-103848403D01*
X187933200Y-103843154D01*
X187886892Y-103682415D01*
X190879802Y-103682415D01*
X190879802Y-103801033D01*
X190906876Y-103902075D01*
X190910504Y-103915614D01*
X190969809Y-104018332D01*
X190969811Y-104018334D01*
X190969813Y-104018337D01*
X191053689Y-104102213D01*
X191053691Y-104102214D01*
X191053693Y-104102216D01*
X191156412Y-104161521D01*
X191156413Y-104161521D01*
X191156416Y-104161523D01*
X191270993Y-104192224D01*
X191270995Y-104192224D01*
X191389609Y-104192224D01*
X191389611Y-104192224D01*
X191504188Y-104161523D01*
X191504190Y-104161521D01*
X191504192Y-104161521D01*
X191606910Y-104102216D01*
X191606910Y-104102215D01*
X191606915Y-104102213D01*
X191690791Y-104018337D01*
X191750101Y-103915610D01*
X191780802Y-103801033D01*
X191780802Y-103682415D01*
X191750101Y-103567838D01*
X191750099Y-103567835D01*
X191750099Y-103567833D01*
X191690794Y-103465115D01*
X191690792Y-103465113D01*
X191690791Y-103465111D01*
X191606915Y-103381235D01*
X191606912Y-103381233D01*
X191606910Y-103381231D01*
X191504191Y-103321926D01*
X191504192Y-103321926D01*
X191490653Y-103318298D01*
X191389611Y-103291224D01*
X191270993Y-103291224D01*
X191200869Y-103310013D01*
X191156411Y-103321926D01*
X191053693Y-103381231D01*
X190969809Y-103465115D01*
X190910504Y-103567833D01*
X190910503Y-103567838D01*
X190879802Y-103682415D01*
X187886892Y-103682415D01*
X187738069Y-103165840D01*
X187736688Y-103160484D01*
X187722207Y-103097040D01*
X187579852Y-102473341D01*
X187578770Y-102467896D01*
X187545754Y-102273580D01*
X187460712Y-101773060D01*
X187459937Y-101767570D01*
X187381019Y-101067153D01*
X187380556Y-101061657D01*
X187341038Y-100357958D01*
X187340882Y-100352407D01*
X187340882Y-100029306D01*
X190099499Y-100029306D01*
X190130202Y-100143890D01*
X190189507Y-100246608D01*
X190189509Y-100246610D01*
X190189511Y-100246613D01*
X190273387Y-100330489D01*
X190273389Y-100330490D01*
X190273391Y-100330492D01*
X190376110Y-100389797D01*
X190376111Y-100389797D01*
X190376114Y-100389799D01*
X190490691Y-100420500D01*
X190490693Y-100420500D01*
X190609307Y-100420500D01*
X190609309Y-100420500D01*
X190723886Y-100389799D01*
X190723888Y-100389797D01*
X190723890Y-100389797D01*
X190826608Y-100330492D01*
X190826608Y-100330491D01*
X190826613Y-100330489D01*
X190910489Y-100246613D01*
X190969799Y-100143886D01*
X191000500Y-100029309D01*
X191000500Y-99910691D01*
X190969799Y-99796114D01*
X190969797Y-99796111D01*
X190969797Y-99796109D01*
X190910492Y-99693391D01*
X190910490Y-99693389D01*
X190910489Y-99693387D01*
X190826613Y-99609511D01*
X190826610Y-99609509D01*
X190826608Y-99609507D01*
X190723889Y-99550202D01*
X190723890Y-99550202D01*
X190694780Y-99542402D01*
X190609309Y-99519500D01*
X190490691Y-99519500D01*
X190420567Y-99538289D01*
X190376109Y-99550202D01*
X190273391Y-99609507D01*
X190189507Y-99693391D01*
X190130202Y-99796109D01*
X190122341Y-99825446D01*
X190101441Y-99903449D01*
X190099500Y-99910692D01*
X190099500Y-100029305D01*
X190099499Y-100029306D01*
X187340882Y-100029306D01*
X187340882Y-99647592D01*
X187341038Y-99642041D01*
X187343989Y-99589500D01*
X187380556Y-98938339D01*
X187381019Y-98932849D01*
X187459938Y-98232415D01*
X187460714Y-98226930D01*
X187460864Y-98226048D01*
X187541630Y-97750691D01*
X195249500Y-97750691D01*
X195249500Y-97869309D01*
X195276574Y-97970351D01*
X195280202Y-97983890D01*
X195339507Y-98086608D01*
X195339509Y-98086610D01*
X195339511Y-98086613D01*
X195423387Y-98170489D01*
X195423389Y-98170490D01*
X195423391Y-98170492D01*
X195526110Y-98229797D01*
X195526111Y-98229797D01*
X195526114Y-98229799D01*
X195640691Y-98260500D01*
X195640693Y-98260500D01*
X195759307Y-98260500D01*
X195759309Y-98260500D01*
X195873886Y-98229799D01*
X195873888Y-98229797D01*
X195873890Y-98229797D01*
X195976608Y-98170492D01*
X195976608Y-98170491D01*
X195976613Y-98170489D01*
X196060489Y-98086613D01*
X196110495Y-98000001D01*
X196119797Y-97983890D01*
X196119797Y-97983888D01*
X196119799Y-97983886D01*
X196150500Y-97869309D01*
X196150500Y-97750691D01*
X196119799Y-97636114D01*
X196119797Y-97636111D01*
X196119797Y-97636109D01*
X196060492Y-97533391D01*
X196060490Y-97533389D01*
X196060489Y-97533387D01*
X195976613Y-97449511D01*
X195976610Y-97449509D01*
X195976608Y-97449507D01*
X195873889Y-97390202D01*
X195873890Y-97390202D01*
X195860351Y-97386574D01*
X195759309Y-97359500D01*
X195640691Y-97359500D01*
X195570567Y-97378289D01*
X195526109Y-97390202D01*
X195423391Y-97449507D01*
X195339507Y-97533391D01*
X195280202Y-97636109D01*
X195280201Y-97636114D01*
X195249500Y-97750691D01*
X187541630Y-97750691D01*
X187578772Y-97532087D01*
X187579853Y-97526657D01*
X187589249Y-97485492D01*
X187685065Y-97065691D01*
X196199500Y-97065691D01*
X196199500Y-97184309D01*
X196226574Y-97285351D01*
X196230202Y-97298890D01*
X196289507Y-97401608D01*
X196289509Y-97401610D01*
X196289511Y-97401613D01*
X196373387Y-97485489D01*
X196373389Y-97485490D01*
X196373391Y-97485492D01*
X196476110Y-97544797D01*
X196476111Y-97544797D01*
X196476114Y-97544799D01*
X196590691Y-97575500D01*
X196590693Y-97575500D01*
X196709307Y-97575500D01*
X196709309Y-97575500D01*
X196823886Y-97544799D01*
X196823888Y-97544797D01*
X196823890Y-97544797D01*
X196926608Y-97485492D01*
X196926608Y-97485491D01*
X196926613Y-97485489D01*
X197010489Y-97401613D01*
X197069799Y-97298886D01*
X197100500Y-97184309D01*
X197100500Y-97065691D01*
X197069799Y-96951114D01*
X197069797Y-96951111D01*
X197069797Y-96951109D01*
X197010492Y-96848391D01*
X197010490Y-96848389D01*
X197010489Y-96848387D01*
X196926613Y-96764511D01*
X196926610Y-96764509D01*
X196926608Y-96764507D01*
X196834146Y-96711124D01*
X196834145Y-96711124D01*
X196823888Y-96705202D01*
X196823887Y-96705201D01*
X196823886Y-96705201D01*
X196709309Y-96674500D01*
X196590691Y-96674500D01*
X196520567Y-96693289D01*
X196476109Y-96705202D01*
X196373391Y-96764507D01*
X196289507Y-96848391D01*
X196230202Y-96951109D01*
X196230201Y-96951114D01*
X196199500Y-97065691D01*
X187685065Y-97065691D01*
X187736695Y-96839483D01*
X187738067Y-96834167D01*
X187796814Y-96630253D01*
X205849500Y-96630253D01*
X205849500Y-98369746D01*
X205849501Y-98369758D01*
X205861132Y-98428227D01*
X205861133Y-98428231D01*
X205905448Y-98494552D01*
X205971769Y-98538867D01*
X206016231Y-98547711D01*
X206030241Y-98550498D01*
X206030246Y-98550498D01*
X206030252Y-98550500D01*
X206030253Y-98550500D01*
X207769747Y-98550500D01*
X207769748Y-98550500D01*
X207828231Y-98538867D01*
X207894552Y-98494552D01*
X207938867Y-98428231D01*
X207950500Y-98369748D01*
X207950500Y-96630252D01*
X207938867Y-96571769D01*
X207894552Y-96505448D01*
X207894548Y-96505445D01*
X207828233Y-96461134D01*
X207828231Y-96461133D01*
X207828228Y-96461132D01*
X207828227Y-96461132D01*
X207769758Y-96449501D01*
X207769748Y-96449500D01*
X206030252Y-96449500D01*
X206030251Y-96449500D01*
X206030241Y-96449501D01*
X205971772Y-96461132D01*
X205971766Y-96461134D01*
X205905451Y-96505445D01*
X205905445Y-96505451D01*
X205861134Y-96571766D01*
X205861132Y-96571772D01*
X205849501Y-96630241D01*
X205849500Y-96630253D01*
X187796814Y-96630253D01*
X187933203Y-96156835D01*
X187934870Y-96151606D01*
X188167667Y-95486311D01*
X188169628Y-95481172D01*
X188439367Y-94829963D01*
X188441624Y-94824922D01*
X188566124Y-94566395D01*
X195914500Y-94566395D01*
X195914500Y-94813604D01*
X195953169Y-95057755D01*
X196029561Y-95292863D01*
X196126801Y-95483709D01*
X196141788Y-95513121D01*
X196287090Y-95713112D01*
X196461888Y-95887910D01*
X196661879Y-96033212D01*
X196882137Y-96145439D01*
X197117240Y-96221829D01*
X197117241Y-96221829D01*
X197117244Y-96221830D01*
X197361396Y-96260500D01*
X197361399Y-96260500D01*
X197608604Y-96260500D01*
X197852755Y-96221830D01*
X197852756Y-96221829D01*
X197852760Y-96221829D01*
X198087863Y-96145439D01*
X198308121Y-96033212D01*
X198508112Y-95887910D01*
X198682910Y-95713112D01*
X198828212Y-95513121D01*
X198940439Y-95292863D01*
X199016829Y-95057760D01*
X199016830Y-95057755D01*
X199055500Y-94813604D01*
X199055500Y-94566395D01*
X200994500Y-94566395D01*
X200994500Y-94813604D01*
X201033169Y-95057755D01*
X201109561Y-95292863D01*
X201206801Y-95483709D01*
X201221788Y-95513121D01*
X201367090Y-95713112D01*
X201541888Y-95887910D01*
X201741879Y-96033212D01*
X201962137Y-96145439D01*
X202197240Y-96221829D01*
X202197241Y-96221829D01*
X202197244Y-96221830D01*
X202441396Y-96260500D01*
X202441399Y-96260500D01*
X202688604Y-96260500D01*
X202932755Y-96221830D01*
X202932756Y-96221829D01*
X202932760Y-96221829D01*
X203167863Y-96145439D01*
X203388121Y-96033212D01*
X203588112Y-95887910D01*
X203762910Y-95713112D01*
X203908212Y-95513121D01*
X204020439Y-95292863D01*
X204096829Y-95057760D01*
X204096830Y-95057755D01*
X204135500Y-94813604D01*
X204135500Y-94566395D01*
X204096830Y-94322244D01*
X204096829Y-94322240D01*
X204020439Y-94087137D01*
X203908212Y-93866879D01*
X203762910Y-93666888D01*
X203588112Y-93492090D01*
X203388121Y-93346788D01*
X203388120Y-93346787D01*
X203388118Y-93346786D01*
X203167863Y-93234561D01*
X202932755Y-93158169D01*
X202688604Y-93119500D01*
X202688601Y-93119500D01*
X202441399Y-93119500D01*
X202441396Y-93119500D01*
X202197244Y-93158169D01*
X201962136Y-93234561D01*
X201741881Y-93346786D01*
X201541889Y-93492089D01*
X201367089Y-93666889D01*
X201221786Y-93866881D01*
X201109561Y-94087136D01*
X201033169Y-94322244D01*
X200994500Y-94566395D01*
X199055500Y-94566395D01*
X199016830Y-94322244D01*
X199016829Y-94322240D01*
X198940439Y-94087137D01*
X198828212Y-93866879D01*
X198682910Y-93666888D01*
X198508112Y-93492090D01*
X198308121Y-93346788D01*
X198308120Y-93346787D01*
X198308118Y-93346786D01*
X198087863Y-93234561D01*
X197852755Y-93158169D01*
X197608604Y-93119500D01*
X197608601Y-93119500D01*
X197361399Y-93119500D01*
X197361396Y-93119500D01*
X197117244Y-93158169D01*
X196882136Y-93234561D01*
X196661881Y-93346786D01*
X196461889Y-93492089D01*
X196287089Y-93666889D01*
X196141786Y-93866881D01*
X196029561Y-94087136D01*
X195953169Y-94322244D01*
X195914500Y-94566395D01*
X188566124Y-94566395D01*
X188747447Y-94189874D01*
X188749968Y-94184996D01*
X189090914Y-93568100D01*
X189093714Y-93563354D01*
X189468720Y-92966534D01*
X189471779Y-92961956D01*
X189879654Y-92387109D01*
X189882990Y-92382679D01*
X190151426Y-92046070D01*
X198704500Y-92046070D01*
X198704500Y-92253929D01*
X198737014Y-92459219D01*
X198737015Y-92459223D01*
X198801241Y-92656889D01*
X198801243Y-92656892D01*
X198801244Y-92656895D01*
X198801245Y-92656896D01*
X198895607Y-92842093D01*
X199017779Y-93010248D01*
X199164752Y-93157221D01*
X199332907Y-93279393D01*
X199518104Y-93373755D01*
X199518106Y-93373755D01*
X199518107Y-93373756D01*
X199518110Y-93373758D01*
X199715776Y-93437984D01*
X199715780Y-93437985D01*
X199921071Y-93470500D01*
X199921074Y-93470500D01*
X200128929Y-93470500D01*
X200334219Y-93437985D01*
X200334223Y-93437984D01*
X200531889Y-93373758D01*
X200531891Y-93373756D01*
X200531896Y-93373755D01*
X200717093Y-93279393D01*
X200885248Y-93157221D01*
X201032221Y-93010248D01*
X201154393Y-92842093D01*
X201248755Y-92656896D01*
X201248756Y-92656891D01*
X201248758Y-92656889D01*
X201312984Y-92459223D01*
X201312985Y-92459219D01*
X201345500Y-92253929D01*
X201345500Y-92046070D01*
X201312985Y-91840780D01*
X201312984Y-91840776D01*
X201248758Y-91643110D01*
X201248756Y-91643107D01*
X201248755Y-91643106D01*
X201248755Y-91643104D01*
X201154393Y-91457907D01*
X201032221Y-91289752D01*
X200885248Y-91142779D01*
X200717093Y-91020607D01*
X200717092Y-91020606D01*
X200717090Y-91020605D01*
X200531892Y-90926243D01*
X200531889Y-90926241D01*
X200334223Y-90862015D01*
X200334219Y-90862014D01*
X200128929Y-90829500D01*
X200128926Y-90829500D01*
X199921074Y-90829500D01*
X199921071Y-90829500D01*
X199715780Y-90862014D01*
X199715776Y-90862015D01*
X199518110Y-90926241D01*
X199518107Y-90926243D01*
X199332909Y-91020605D01*
X199164753Y-91142778D01*
X199017778Y-91289753D01*
X198895605Y-91457909D01*
X198801243Y-91643107D01*
X198801241Y-91643110D01*
X198737015Y-91840776D01*
X198737014Y-91840780D01*
X198704500Y-92046070D01*
X190151426Y-92046070D01*
X190322441Y-91831624D01*
X190325983Y-91827429D01*
X190795661Y-91301860D01*
X190799440Y-91297862D01*
X191297862Y-90799440D01*
X191301860Y-90795661D01*
X191827429Y-90325983D01*
X191831642Y-90322426D01*
X192382685Y-89882985D01*
X192387116Y-89879650D01*
X192941357Y-89486395D01*
X195914500Y-89486395D01*
X195914500Y-89733604D01*
X195953169Y-89977755D01*
X196029561Y-90212863D01*
X196086266Y-90324154D01*
X196141788Y-90433121D01*
X196287090Y-90633112D01*
X196461888Y-90807910D01*
X196661879Y-90953212D01*
X196882137Y-91065439D01*
X197117240Y-91141829D01*
X197117241Y-91141829D01*
X197117244Y-91141830D01*
X197361396Y-91180500D01*
X197361399Y-91180500D01*
X197608604Y-91180500D01*
X197852755Y-91141830D01*
X197852756Y-91141829D01*
X197852760Y-91141829D01*
X198087863Y-91065439D01*
X198308121Y-90953212D01*
X198508112Y-90807910D01*
X198682910Y-90633112D01*
X198828212Y-90433121D01*
X198940439Y-90212863D01*
X199016829Y-89977760D01*
X199055500Y-89733601D01*
X199055500Y-89486399D01*
X199055500Y-89486395D01*
X200994500Y-89486395D01*
X200994500Y-89733604D01*
X201033169Y-89977755D01*
X201109561Y-90212863D01*
X201166266Y-90324154D01*
X201221788Y-90433121D01*
X201367090Y-90633112D01*
X201541888Y-90807910D01*
X201741879Y-90953212D01*
X201962137Y-91065439D01*
X202197240Y-91141829D01*
X202197241Y-91141829D01*
X202197244Y-91141830D01*
X202441396Y-91180500D01*
X202441399Y-91180500D01*
X202688604Y-91180500D01*
X202932755Y-91141830D01*
X202932756Y-91141829D01*
X202932760Y-91141829D01*
X203167863Y-91065439D01*
X203388121Y-90953212D01*
X203588112Y-90807910D01*
X203762910Y-90633112D01*
X203908212Y-90433121D01*
X204020439Y-90212863D01*
X204096829Y-89977760D01*
X204135500Y-89733601D01*
X204135500Y-89486399D01*
X204135500Y-89486395D01*
X204096830Y-89242244D01*
X204048094Y-89092251D01*
X204020439Y-89007137D01*
X203908212Y-88786879D01*
X203762910Y-88586888D01*
X203588112Y-88412090D01*
X203388121Y-88266788D01*
X203388120Y-88266787D01*
X203388118Y-88266786D01*
X203167863Y-88154561D01*
X202932755Y-88078169D01*
X202688604Y-88039500D01*
X202688601Y-88039500D01*
X202441399Y-88039500D01*
X202441396Y-88039500D01*
X202197244Y-88078169D01*
X201962136Y-88154561D01*
X201741881Y-88266786D01*
X201541889Y-88412089D01*
X201367089Y-88586889D01*
X201221786Y-88786881D01*
X201109561Y-89007136D01*
X201033169Y-89242244D01*
X200994500Y-89486395D01*
X199055500Y-89486395D01*
X199016830Y-89242244D01*
X198968094Y-89092251D01*
X198940439Y-89007137D01*
X198828212Y-88786879D01*
X198682910Y-88586888D01*
X198508112Y-88412090D01*
X198308121Y-88266788D01*
X198308120Y-88266787D01*
X198308118Y-88266786D01*
X198087863Y-88154561D01*
X197852755Y-88078169D01*
X197608604Y-88039500D01*
X197608601Y-88039500D01*
X197361399Y-88039500D01*
X197361396Y-88039500D01*
X197117244Y-88078169D01*
X196882136Y-88154561D01*
X196661881Y-88266786D01*
X196461889Y-88412089D01*
X196287089Y-88586889D01*
X196141786Y-88786881D01*
X196029561Y-89007136D01*
X195953169Y-89242244D01*
X195914500Y-89486395D01*
X192941357Y-89486395D01*
X192961956Y-89471779D01*
X192966534Y-89468720D01*
X193563354Y-89093714D01*
X193568100Y-89090914D01*
X194184996Y-88749968D01*
X194189874Y-88747447D01*
X194824948Y-88441611D01*
X194829963Y-88439367D01*
X195481172Y-88169628D01*
X195486311Y-88167667D01*
X196151606Y-87934870D01*
X196156835Y-87933203D01*
X196834167Y-87738067D01*
X196839491Y-87736693D01*
X197526665Y-87579851D01*
X197532087Y-87578772D01*
X198226944Y-87460711D01*
X198232415Y-87459938D01*
X198932849Y-87381019D01*
X198938339Y-87380556D01*
X199642041Y-87341037D01*
X199647592Y-87340882D01*
X200352408Y-87340882D01*
X200357958Y-87341037D01*
G37*
%TD.AperFunction*%
%TD*%
M02*
