%TF.GenerationSoftware,KiCad,Pcbnew,9.0.6*%
%TF.CreationDate,2026-05-26T22:52:46-04:00*%
%TF.ProjectId,tiav3_s14160,74696176-335f-4733-9134-3136302e6b69,rev?*%
%TF.SameCoordinates,Original*%
%TF.FileFunction,Soldermask,Top*%
%TF.FilePolarity,Negative*%
%FSLAX46Y46*%
G04 Gerber Fmt 4.6, Leading zero omitted, Abs format (unit mm)*
G04 Created by KiCad (PCBNEW 9.0.6) date 2026-05-26 22:52:46*
%MOMM*%
%LPD*%
G01*
G04 APERTURE LIST*
G04 Aperture macros list*
%AMRoundRect*
0 Rectangle with rounded corners*
0 $1 Rounding radius*
0 $2 $3 $4 $5 $6 $7 $8 $9 X,Y pos of 4 corners*
0 Add a 4 corners polygon primitive as box body*
4,1,4,$2,$3,$4,$5,$6,$7,$8,$9,$2,$3,0*
0 Add four circle primitives for the rounded corners*
1,1,$1+$1,$2,$3*
1,1,$1+$1,$4,$5*
1,1,$1+$1,$6,$7*
1,1,$1+$1,$8,$9*
0 Add four rect primitives between the rounded corners*
20,1,$1+$1,$2,$3,$4,$5,0*
20,1,$1+$1,$4,$5,$6,$7,0*
20,1,$1+$1,$6,$7,$8,$9,0*
20,1,$1+$1,$8,$9,$2,$3,0*%
G04 Aperture macros list end*
%ADD10C,0.000000*%
%ADD11R,1.700000X1.700000*%
%ADD12O,1.700000X1.700000*%
%ADD13RoundRect,0.135000X-0.092715X0.209413X-0.227715X-0.024413X0.092715X-0.209413X0.227715X0.024413X0*%
%ADD14C,2.240000*%
%ADD15C,2.740000*%
G04 APERTURE END LIST*
D10*
%TO.C,J3*%
G36*
X193407956Y-93326044D02*
G01*
X193417427Y-93327517D01*
X193426908Y-93329801D01*
X193436364Y-93332913D01*
X193445761Y-93336870D01*
X193455063Y-93341689D01*
X193464236Y-93347387D01*
X193473244Y-93353982D01*
X193482053Y-93361490D01*
X193490465Y-93369738D01*
X193498008Y-93378238D01*
X193504696Y-93386956D01*
X193510544Y-93395859D01*
X193515565Y-93404913D01*
X193519774Y-93414084D01*
X193523184Y-93423338D01*
X193525809Y-93432642D01*
X193527664Y-93441962D01*
X193528762Y-93451264D01*
X193529117Y-93460515D01*
X193528744Y-93469681D01*
X193527656Y-93478728D01*
X193525868Y-93487623D01*
X193523393Y-93496332D01*
X193520246Y-93504820D01*
X193516440Y-93513056D01*
X193511990Y-93521004D01*
X193506909Y-93528632D01*
X193501211Y-93535905D01*
X193494911Y-93542789D01*
X193488023Y-93549252D01*
X193480559Y-93555259D01*
X193472536Y-93560777D01*
X193463966Y-93565772D01*
X193454863Y-93570210D01*
X193445242Y-93574058D01*
X193435116Y-93577282D01*
X193424500Y-93579848D01*
X193413408Y-93581722D01*
X193401853Y-93582872D01*
X193389850Y-93583262D01*
X193377208Y-93582917D01*
X193366144Y-93581753D01*
X193356233Y-93579581D01*
X193347052Y-93576210D01*
X193338177Y-93571449D01*
X193329186Y-93565108D01*
X193319654Y-93556996D01*
X193309158Y-93546922D01*
X193298923Y-93536275D01*
X193290736Y-93526670D01*
X193284387Y-93517629D01*
X193279666Y-93508671D01*
X193276363Y-93499318D01*
X193274267Y-93489090D01*
X193273168Y-93477507D01*
X193272857Y-93464089D01*
X193273269Y-93452059D01*
X193274459Y-93440463D01*
X193276393Y-93429317D01*
X193279035Y-93418640D01*
X193282351Y-93408449D01*
X193286305Y-93398760D01*
X193290864Y-93389590D01*
X193295991Y-93380957D01*
X193301653Y-93372878D01*
X193307813Y-93365370D01*
X193314438Y-93358450D01*
X193321492Y-93352135D01*
X193328940Y-93346443D01*
X193336747Y-93341390D01*
X193344880Y-93336994D01*
X193353301Y-93333271D01*
X193361977Y-93330240D01*
X193370874Y-93327916D01*
X193379954Y-93326317D01*
X193389185Y-93325461D01*
X193398531Y-93325364D01*
X193407956Y-93326044D01*
G37*
G36*
X192453778Y-96305028D02*
G01*
X192465935Y-96316786D01*
X192478184Y-96328639D01*
X192490508Y-96340569D01*
X192502891Y-96352559D01*
X192515315Y-96364595D01*
X192527764Y-96376658D01*
X192540221Y-96388733D01*
X192552669Y-96400803D01*
X192565091Y-96412851D01*
X192577469Y-96424862D01*
X192589788Y-96436818D01*
X192602030Y-96448703D01*
X192614178Y-96460501D01*
X192626216Y-96472195D01*
X192638126Y-96483768D01*
X192649891Y-96495205D01*
X192661496Y-96506488D01*
X192672921Y-96517601D01*
X192684152Y-96528528D01*
X192695170Y-96539252D01*
X192705959Y-96549757D01*
X192716502Y-96560026D01*
X192726782Y-96570043D01*
X192736783Y-96579791D01*
X192746486Y-96589254D01*
X192755876Y-96598415D01*
X192764935Y-96607258D01*
X192773647Y-96615766D01*
X192781994Y-96623923D01*
X192789960Y-96631712D01*
X192797528Y-96639117D01*
X192804680Y-96646121D01*
X192811400Y-96652709D01*
X192817671Y-96658862D01*
X192823476Y-96664566D01*
X192828799Y-96669803D01*
X192833621Y-96674556D01*
X192837927Y-96678811D01*
X192841699Y-96682549D01*
X192844920Y-96685754D01*
X192847574Y-96688411D01*
X192849643Y-96690502D01*
X192851112Y-96692011D01*
X192851961Y-96692921D01*
X192852176Y-96693217D01*
X192850000Y-96692326D01*
X192844392Y-96689863D01*
X192835728Y-96685998D01*
X192824386Y-96680902D01*
X192810743Y-96674747D01*
X192795178Y-96667702D01*
X192778067Y-96659940D01*
X192759787Y-96651631D01*
X192759787Y-96651677D01*
X192754076Y-96649070D01*
X192747809Y-96646194D01*
X192741001Y-96643056D01*
X192733668Y-96639665D01*
X192725827Y-96636027D01*
X192717494Y-96632151D01*
X192708684Y-96628044D01*
X192699413Y-96623713D01*
X192689698Y-96619166D01*
X192679553Y-96614411D01*
X192668996Y-96609456D01*
X192658042Y-96604308D01*
X192646706Y-96598974D01*
X192635006Y-96593463D01*
X192622956Y-96587781D01*
X192610573Y-96581937D01*
X192597873Y-96575938D01*
X192584871Y-96569792D01*
X192571583Y-96563506D01*
X192558026Y-96557088D01*
X192544216Y-96550546D01*
X192530167Y-96543886D01*
X192515897Y-96537118D01*
X192501421Y-96530248D01*
X192486755Y-96523284D01*
X192471914Y-96516234D01*
X192456916Y-96509105D01*
X192441776Y-96501904D01*
X192426509Y-96494641D01*
X192411132Y-96487321D01*
X192395660Y-96479953D01*
X192380110Y-96472545D01*
X192364498Y-96465103D01*
X192348838Y-96457636D01*
X192333148Y-96450151D01*
X192317444Y-96442656D01*
X192301740Y-96435159D01*
X192286054Y-96427666D01*
X192270400Y-96420186D01*
X192254795Y-96412726D01*
X192239256Y-96405294D01*
X192223797Y-96397898D01*
X192208434Y-96390544D01*
X192193185Y-96383242D01*
X192178063Y-96375998D01*
X192163087Y-96368819D01*
X192148270Y-96361714D01*
X192133631Y-96354691D01*
X192119183Y-96347756D01*
X192104943Y-96340918D01*
X192090928Y-96334183D01*
X192077152Y-96327560D01*
X192063633Y-96321057D01*
X192050385Y-96314680D01*
X192037426Y-96308438D01*
X192024769Y-96302338D01*
X192012433Y-96296387D01*
X192000432Y-96290594D01*
X191988783Y-96284966D01*
X191977501Y-96279510D01*
X191966603Y-96274235D01*
X191956103Y-96269147D01*
X191946019Y-96264255D01*
X191936366Y-96259566D01*
X191927161Y-96255087D01*
X191918418Y-96250827D01*
X191910154Y-96246792D01*
X191902385Y-96242991D01*
X191895126Y-96239431D01*
X191888395Y-96236120D01*
X191882206Y-96233065D01*
X191876575Y-96230274D01*
X191871519Y-96227754D01*
X191867053Y-96225514D01*
X191863194Y-96223560D01*
X191859957Y-96221901D01*
X191857358Y-96220544D01*
X191855413Y-96219496D01*
X191854139Y-96218766D01*
X191853550Y-96218360D01*
X191852019Y-96216629D01*
X191851069Y-96215026D01*
X191850779Y-96213544D01*
X191851223Y-96212179D01*
X191852480Y-96210926D01*
X191854626Y-96209778D01*
X191857738Y-96208732D01*
X191861893Y-96207782D01*
X191867167Y-96206922D01*
X191873638Y-96206147D01*
X191881382Y-96205453D01*
X191890477Y-96204833D01*
X191900998Y-96204283D01*
X191913024Y-96203797D01*
X191926630Y-96203371D01*
X191941894Y-96202998D01*
X191958893Y-96202674D01*
X191977702Y-96202393D01*
X191998400Y-96202150D01*
X192021063Y-96201940D01*
X192045768Y-96201758D01*
X192072592Y-96201599D01*
X192101611Y-96201457D01*
X192345499Y-96200314D01*
X192453778Y-96305028D01*
G37*
G36*
X193983673Y-93284106D02*
G01*
X193985464Y-93284435D01*
X193988176Y-93284977D01*
X193991782Y-93285724D01*
X193996251Y-93286670D01*
X194001556Y-93287808D01*
X194007666Y-93289132D01*
X194014554Y-93290635D01*
X194022190Y-93292311D01*
X194030546Y-93294153D01*
X194039592Y-93296155D01*
X194049299Y-93298310D01*
X194059639Y-93300612D01*
X194070583Y-93303054D01*
X194082101Y-93305629D01*
X194094166Y-93308331D01*
X194106747Y-93311154D01*
X194119817Y-93314091D01*
X194133345Y-93317135D01*
X194147304Y-93320281D01*
X194161663Y-93323521D01*
X194176396Y-93326848D01*
X194191471Y-93330257D01*
X194206861Y-93333741D01*
X194222537Y-93337294D01*
X194238469Y-93340908D01*
X194254629Y-93344577D01*
X194270988Y-93348295D01*
X194287517Y-93352055D01*
X194304187Y-93355852D01*
X194320969Y-93359677D01*
X194337833Y-93363525D01*
X194354752Y-93367389D01*
X194371697Y-93371262D01*
X194388638Y-93375139D01*
X194405546Y-93379012D01*
X194422393Y-93382876D01*
X194439149Y-93386722D01*
X194455786Y-93390546D01*
X194472275Y-93394341D01*
X194488586Y-93398099D01*
X194507866Y-93402613D01*
X194526291Y-93407060D01*
X194543653Y-93411384D01*
X194559746Y-93415526D01*
X194574363Y-93419430D01*
X194587299Y-93423036D01*
X194598346Y-93426288D01*
X194607298Y-93429129D01*
X194613947Y-93431499D01*
X194618089Y-93433343D01*
X194619516Y-93434602D01*
X194617716Y-93436427D01*
X194612559Y-93439200D01*
X194604405Y-93442784D01*
X194593615Y-93447043D01*
X194580553Y-93451838D01*
X194565578Y-93457034D01*
X194549054Y-93462492D01*
X194531341Y-93468076D01*
X194525121Y-93469997D01*
X194518126Y-93472166D01*
X194510396Y-93474572D01*
X194501971Y-93477202D01*
X194492891Y-93480042D01*
X194483195Y-93483081D01*
X194472924Y-93486306D01*
X194462118Y-93489704D01*
X194450815Y-93493263D01*
X194439056Y-93496970D01*
X194426881Y-93500812D01*
X194414330Y-93504778D01*
X194401442Y-93508853D01*
X194388257Y-93513026D01*
X194374815Y-93517285D01*
X194361156Y-93521615D01*
X194347320Y-93526006D01*
X194333346Y-93530444D01*
X194319275Y-93534917D01*
X194305146Y-93539412D01*
X194290998Y-93543916D01*
X194276873Y-93548418D01*
X194262809Y-93552903D01*
X194248847Y-93557361D01*
X194235026Y-93561778D01*
X194212735Y-93568897D01*
X194190882Y-93575861D01*
X194169468Y-93582670D01*
X194148496Y-93589322D01*
X194127969Y-93595818D01*
X194107887Y-93602155D01*
X194088255Y-93608334D01*
X194069074Y-93614355D01*
X194050345Y-93620216D01*
X194032073Y-93625916D01*
X194014258Y-93631455D01*
X193996904Y-93636833D01*
X193980012Y-93642048D01*
X193963585Y-93647101D01*
X193947625Y-93651989D01*
X193932134Y-93656714D01*
X193917115Y-93661273D01*
X193902570Y-93665667D01*
X193888501Y-93669895D01*
X193874911Y-93673955D01*
X193861801Y-93677848D01*
X193849175Y-93681573D01*
X193837034Y-93685128D01*
X193825380Y-93688514D01*
X193814217Y-93691730D01*
X193803546Y-93694775D01*
X193793369Y-93697648D01*
X193783689Y-93700349D01*
X193774508Y-93702877D01*
X193765829Y-93705231D01*
X193757653Y-93707411D01*
X193749984Y-93709416D01*
X193742822Y-93711245D01*
X193736171Y-93712898D01*
X193730033Y-93714374D01*
X193724410Y-93715673D01*
X193719305Y-93716793D01*
X193714719Y-93717734D01*
X193710656Y-93718496D01*
X193707116Y-93719077D01*
X193704103Y-93719478D01*
X193701619Y-93719697D01*
X193699666Y-93719733D01*
X193698247Y-93719587D01*
X193697363Y-93719257D01*
X193697018Y-93718743D01*
X193697212Y-93718044D01*
X193697218Y-93718044D01*
X193699798Y-93713758D01*
X193703085Y-93708470D01*
X193707036Y-93702241D01*
X193711610Y-93695133D01*
X193716764Y-93687209D01*
X193722455Y-93678529D01*
X193728641Y-93669156D01*
X193735280Y-93659153D01*
X193742330Y-93648580D01*
X193749749Y-93637501D01*
X193757493Y-93625977D01*
X193765522Y-93614070D01*
X193773792Y-93601842D01*
X193782261Y-93589355D01*
X193790888Y-93576672D01*
X193799629Y-93563853D01*
X193808442Y-93550962D01*
X193817286Y-93538060D01*
X193826117Y-93525209D01*
X193834894Y-93512472D01*
X193843575Y-93499910D01*
X193852116Y-93487585D01*
X193860476Y-93475559D01*
X193868612Y-93463894D01*
X193876483Y-93452653D01*
X193884045Y-93441897D01*
X193891257Y-93431689D01*
X193898077Y-93422090D01*
X193904461Y-93413162D01*
X193910368Y-93404967D01*
X193915755Y-93397568D01*
X193925855Y-93383594D01*
X193935449Y-93369959D01*
X193944405Y-93356872D01*
X193952593Y-93344541D01*
X193959882Y-93333175D01*
X193966139Y-93322984D01*
X193971235Y-93314175D01*
X193975037Y-93306957D01*
X193977414Y-93301541D01*
X193978236Y-93298133D01*
X193979587Y-93288149D01*
X193982833Y-93283994D01*
X193983673Y-93284106D01*
G37*
G36*
X191057616Y-96236320D02*
G01*
X191073734Y-96237795D01*
X191078490Y-96238264D01*
X191084305Y-96238726D01*
X191091127Y-96239179D01*
X191098903Y-96239621D01*
X191107580Y-96240051D01*
X191117105Y-96240469D01*
X191127425Y-96240873D01*
X191138488Y-96241261D01*
X191150240Y-96241632D01*
X191162629Y-96241985D01*
X191175602Y-96242319D01*
X191189105Y-96242633D01*
X191203087Y-96242924D01*
X191217495Y-96243192D01*
X191232274Y-96243436D01*
X191247373Y-96243654D01*
X191262739Y-96243845D01*
X191278319Y-96244007D01*
X191294060Y-96244140D01*
X191309909Y-96244242D01*
X191325814Y-96244312D01*
X191341720Y-96244348D01*
X191553593Y-96244602D01*
X191588894Y-96284682D01*
X191591527Y-96287681D01*
X191594768Y-96291391D01*
X191598596Y-96295785D01*
X191602986Y-96300836D01*
X191607917Y-96306519D01*
X191613367Y-96312807D01*
X191619312Y-96319674D01*
X191625730Y-96327093D01*
X191632598Y-96335039D01*
X191639894Y-96343485D01*
X191647595Y-96352405D01*
X191655679Y-96361772D01*
X191664123Y-96371560D01*
X191672904Y-96381743D01*
X191682000Y-96392294D01*
X191691388Y-96403188D01*
X191701045Y-96414398D01*
X191710950Y-96425898D01*
X191721079Y-96437661D01*
X191731410Y-96449661D01*
X191741919Y-96461872D01*
X191752586Y-96474268D01*
X191763387Y-96486822D01*
X191774299Y-96499508D01*
X191785300Y-96512299D01*
X191796368Y-96525170D01*
X191807479Y-96538094D01*
X191818611Y-96551045D01*
X191829741Y-96563997D01*
X191840848Y-96576923D01*
X191851907Y-96589797D01*
X191862898Y-96602592D01*
X191873796Y-96615283D01*
X191884580Y-96627843D01*
X191895227Y-96640246D01*
X191905715Y-96652465D01*
X191916020Y-96664475D01*
X191926120Y-96676248D01*
X191935992Y-96687760D01*
X191945615Y-96698982D01*
X191954965Y-96709890D01*
X191964020Y-96720456D01*
X191972757Y-96730656D01*
X191981153Y-96740461D01*
X191989186Y-96749846D01*
X191996834Y-96758785D01*
X192004074Y-96767251D01*
X192010882Y-96775219D01*
X192017238Y-96782661D01*
X192023117Y-96789551D01*
X192028498Y-96795864D01*
X192033357Y-96801573D01*
X192037673Y-96806652D01*
X192041423Y-96811074D01*
X192044583Y-96814812D01*
X192047132Y-96817842D01*
X192058153Y-96831737D01*
X192065857Y-96842969D01*
X192069542Y-96850390D01*
X192068509Y-96852851D01*
X192065549Y-96851900D01*
X192060075Y-96849483D01*
X192052361Y-96845741D01*
X192042676Y-96840819D01*
X192031293Y-96834858D01*
X192018483Y-96828001D01*
X192004518Y-96820392D01*
X191989669Y-96812173D01*
X191974209Y-96803487D01*
X191974209Y-96803494D01*
X191966830Y-96799314D01*
X191959200Y-96794984D01*
X191951324Y-96790507D01*
X191943209Y-96785887D01*
X191934863Y-96781129D01*
X191926293Y-96776236D01*
X191917504Y-96771212D01*
X191908505Y-96766062D01*
X191899301Y-96760789D01*
X191889901Y-96755398D01*
X191880310Y-96749892D01*
X191870536Y-96744275D01*
X191860586Y-96738552D01*
X191850466Y-96732726D01*
X191840184Y-96726802D01*
X191829745Y-96720784D01*
X191819158Y-96714675D01*
X191808429Y-96708479D01*
X191797566Y-96702201D01*
X191786573Y-96695845D01*
X191775460Y-96689414D01*
X191764233Y-96682913D01*
X191752898Y-96676345D01*
X191741462Y-96669715D01*
X191729934Y-96663027D01*
X191718318Y-96656285D01*
X191706622Y-96649492D01*
X191694854Y-96642653D01*
X191683019Y-96635772D01*
X191671125Y-96628852D01*
X191659179Y-96621898D01*
X191647188Y-96614914D01*
X191635158Y-96607904D01*
X191623096Y-96600872D01*
X191611010Y-96593821D01*
X191598906Y-96586757D01*
X191586792Y-96579682D01*
X191574673Y-96572601D01*
X191562558Y-96565518D01*
X191550452Y-96558437D01*
X191538363Y-96551362D01*
X191526297Y-96544297D01*
X191514262Y-96537246D01*
X191502265Y-96530213D01*
X191490312Y-96523202D01*
X191478410Y-96516217D01*
X191466566Y-96509262D01*
X191454787Y-96502341D01*
X191443081Y-96495459D01*
X191431453Y-96488618D01*
X191419910Y-96481823D01*
X191408461Y-96475079D01*
X191397111Y-96468389D01*
X191385867Y-96461757D01*
X191374736Y-96455187D01*
X191363726Y-96448684D01*
X191352843Y-96442250D01*
X191342094Y-96435891D01*
X191331486Y-96429610D01*
X191321026Y-96423412D01*
X191310720Y-96417299D01*
X191300576Y-96411278D01*
X191290600Y-96405350D01*
X191275437Y-96396347D01*
X191260376Y-96387427D01*
X191245464Y-96378617D01*
X191230748Y-96369943D01*
X191216274Y-96361434D01*
X191202090Y-96353116D01*
X191188242Y-96345016D01*
X191174777Y-96337161D01*
X191161743Y-96329579D01*
X191149186Y-96322296D01*
X191137153Y-96315340D01*
X191125691Y-96308737D01*
X191114846Y-96302515D01*
X191104667Y-96296700D01*
X191095199Y-96291320D01*
X191086489Y-96286402D01*
X191078585Y-96281973D01*
X191071534Y-96278060D01*
X191065382Y-96274689D01*
X191060175Y-96271889D01*
X191055962Y-96269686D01*
X191052789Y-96268107D01*
X191040113Y-96261651D01*
X191030427Y-96255829D01*
X191023705Y-96250677D01*
X191019924Y-96246229D01*
X191019059Y-96242521D01*
X191021085Y-96239588D01*
X191025978Y-96237467D01*
X191033714Y-96236191D01*
X191044268Y-96235797D01*
X191057616Y-96236320D01*
G37*
G36*
X191091848Y-95889776D02*
G01*
X191091200Y-95891150D01*
X191089447Y-95893310D01*
X191086639Y-95896219D01*
X191082829Y-95899836D01*
X191078066Y-95904123D01*
X191072402Y-95909042D01*
X191065887Y-95914553D01*
X191058572Y-95920619D01*
X191050510Y-95927200D01*
X191041749Y-95934257D01*
X191032342Y-95941753D01*
X191022339Y-95949647D01*
X191011791Y-95957903D01*
X191000750Y-95966480D01*
X190989265Y-95975340D01*
X190977388Y-95984444D01*
X190965171Y-95993754D01*
X190952663Y-96003231D01*
X190939916Y-96012836D01*
X190926981Y-96022531D01*
X190913908Y-96032276D01*
X190900750Y-96042034D01*
X190887555Y-96051765D01*
X190874377Y-96061430D01*
X190861264Y-96070992D01*
X190848269Y-96080411D01*
X190835443Y-96089648D01*
X190822835Y-96098665D01*
X190810498Y-96107424D01*
X190798482Y-96115884D01*
X190786839Y-96124009D01*
X190775618Y-96131758D01*
X190764871Y-96139093D01*
X190754649Y-96145977D01*
X190750118Y-96148996D01*
X190745442Y-96152095D01*
X190740622Y-96155273D01*
X190735658Y-96158530D01*
X190730551Y-96161866D01*
X190725302Y-96165280D01*
X190719911Y-96168772D01*
X190714379Y-96172341D01*
X190708706Y-96175987D01*
X190702894Y-96179711D01*
X190696941Y-96183510D01*
X190690850Y-96187386D01*
X190684621Y-96191337D01*
X190678255Y-96195364D01*
X190671751Y-96199465D01*
X190665111Y-96203642D01*
X190658336Y-96207892D01*
X190651425Y-96212217D01*
X190644380Y-96216614D01*
X190637200Y-96221085D01*
X190629888Y-96225629D01*
X190622443Y-96230245D01*
X190614866Y-96234934D01*
X190607157Y-96239694D01*
X190599317Y-96244525D01*
X190591347Y-96249427D01*
X190583248Y-96254400D01*
X190575019Y-96259444D01*
X190566663Y-96264557D01*
X190558178Y-96269739D01*
X190549566Y-96274991D01*
X190540827Y-96280312D01*
X190531963Y-96285701D01*
X190522973Y-96291158D01*
X190513858Y-96296683D01*
X190504619Y-96302275D01*
X190495257Y-96307935D01*
X190485771Y-96313661D01*
X190476163Y-96319453D01*
X190466434Y-96325311D01*
X190456583Y-96331235D01*
X190446612Y-96337224D01*
X190436521Y-96343278D01*
X190426311Y-96349396D01*
X190415982Y-96355578D01*
X190405534Y-96361824D01*
X190394970Y-96368134D01*
X190384288Y-96374506D01*
X190373490Y-96380941D01*
X190362577Y-96387439D01*
X190351549Y-96393998D01*
X190340406Y-96400619D01*
X190329149Y-96407302D01*
X190317779Y-96414045D01*
X190306296Y-96420848D01*
X190294702Y-96427712D01*
X190282996Y-96434636D01*
X190271179Y-96441619D01*
X190259252Y-96448660D01*
X190247215Y-96455761D01*
X190235070Y-96462920D01*
X190222816Y-96470137D01*
X190210455Y-96477412D01*
X190197986Y-96484744D01*
X190185410Y-96492132D01*
X190172729Y-96499577D01*
X190159943Y-96507079D01*
X190147052Y-96514636D01*
X190134056Y-96522249D01*
X190120957Y-96529916D01*
X190107756Y-96537639D01*
X190094452Y-96545415D01*
X190081046Y-96553246D01*
X190067540Y-96561131D01*
X190053932Y-96569068D01*
X190040225Y-96577059D01*
X190026419Y-96585102D01*
X190012514Y-96593197D01*
X189998512Y-96601344D01*
X189984411Y-96609543D01*
X189970214Y-96617792D01*
X189955921Y-96626093D01*
X189941532Y-96634444D01*
X189927048Y-96642844D01*
X189912470Y-96651295D01*
X189897798Y-96659795D01*
X189883033Y-96668343D01*
X189868176Y-96676940D01*
X189853226Y-96685586D01*
X189838185Y-96694279D01*
X189823054Y-96703020D01*
X189807832Y-96711808D01*
X189792521Y-96720642D01*
X189777121Y-96729523D01*
X189761632Y-96738450D01*
X189746056Y-96747423D01*
X189730393Y-96756441D01*
X189714644Y-96765504D01*
X189698808Y-96774612D01*
X189682888Y-96783763D01*
X189666882Y-96792959D01*
X189650793Y-96802198D01*
X189634014Y-96811813D01*
X189617645Y-96821159D01*
X189601773Y-96830187D01*
X189586487Y-96838848D01*
X189571872Y-96847094D01*
X189558017Y-96854877D01*
X189545009Y-96862149D01*
X189532935Y-96868860D01*
X189521883Y-96874964D01*
X189511939Y-96880410D01*
X189503192Y-96885152D01*
X189495728Y-96889139D01*
X189489635Y-96892325D01*
X189485000Y-96894661D01*
X189481911Y-96896098D01*
X189480454Y-96896587D01*
X189480271Y-96894268D01*
X189484143Y-96887953D01*
X189491386Y-96878607D01*
X189501316Y-96867194D01*
X189501316Y-96867192D01*
X189503182Y-96865043D01*
X189505609Y-96862078D01*
X189508578Y-96858325D01*
X189512069Y-96853810D01*
X189516065Y-96848559D01*
X189520544Y-96842601D01*
X189525488Y-96835960D01*
X189530878Y-96828665D01*
X189536695Y-96820743D01*
X189542918Y-96812219D01*
X189549530Y-96803121D01*
X189556510Y-96793476D01*
X189563840Y-96783311D01*
X189571500Y-96772652D01*
X189579471Y-96761526D01*
X189587733Y-96749961D01*
X189596268Y-96737982D01*
X189605056Y-96725617D01*
X189614078Y-96712892D01*
X189623315Y-96699835D01*
X189632747Y-96686473D01*
X189642355Y-96672831D01*
X189652120Y-96658938D01*
X189662022Y-96644819D01*
X189672043Y-96630502D01*
X189682163Y-96616013D01*
X189692363Y-96601380D01*
X189702623Y-96586628D01*
X189713253Y-96571343D01*
X189723799Y-96556203D01*
X189734241Y-96541239D01*
X189744557Y-96526481D01*
X189754726Y-96511957D01*
X189764728Y-96497697D01*
X189774541Y-96483730D01*
X189784145Y-96470086D01*
X189793518Y-96456795D01*
X189802640Y-96443884D01*
X189811490Y-96431385D01*
X189820047Y-96419325D01*
X189828289Y-96407736D01*
X189836196Y-96396645D01*
X189843747Y-96386083D01*
X189850921Y-96376079D01*
X189857697Y-96366661D01*
X189864054Y-96357861D01*
X189869971Y-96349706D01*
X189875427Y-96342226D01*
X189880402Y-96335451D01*
X189884874Y-96329410D01*
X189888822Y-96324133D01*
X189892225Y-96319648D01*
X189895063Y-96315986D01*
X189897315Y-96313175D01*
X189898958Y-96311245D01*
X189903102Y-96307308D01*
X189908609Y-96303155D01*
X189915432Y-96298809D01*
X189923525Y-96294289D01*
X189932841Y-96289616D01*
X189943331Y-96284811D01*
X189954950Y-96279896D01*
X189967650Y-96274889D01*
X189981383Y-96269814D01*
X189996103Y-96264689D01*
X190011762Y-96259535D01*
X190028313Y-96254375D01*
X190041220Y-96250447D01*
X190054174Y-96246491D01*
X190067170Y-96242507D01*
X190080208Y-96238495D01*
X190093284Y-96234457D01*
X190106397Y-96230394D01*
X190119543Y-96226305D01*
X190132720Y-96222194D01*
X190145925Y-96218059D01*
X190159157Y-96213902D01*
X190172413Y-96209724D01*
X190185689Y-96205526D01*
X190198984Y-96201308D01*
X190212296Y-96197072D01*
X190225621Y-96192818D01*
X190238957Y-96188547D01*
X190252303Y-96184260D01*
X190265654Y-96179958D01*
X190279009Y-96175642D01*
X190292366Y-96171312D01*
X190305721Y-96166970D01*
X190319073Y-96162616D01*
X190332418Y-96158251D01*
X190345755Y-96153876D01*
X190359081Y-96149492D01*
X190372393Y-96145100D01*
X190385689Y-96140701D01*
X190398967Y-96136295D01*
X190412223Y-96131883D01*
X190425456Y-96127466D01*
X190438663Y-96123046D01*
X190451842Y-96118622D01*
X190464990Y-96114196D01*
X190478104Y-96109769D01*
X190491182Y-96105342D01*
X190504222Y-96100914D01*
X190517220Y-96096488D01*
X190530176Y-96092064D01*
X190543085Y-96087643D01*
X190555947Y-96083226D01*
X190568757Y-96078813D01*
X190581514Y-96074406D01*
X190594216Y-96070006D01*
X190606859Y-96065612D01*
X190619441Y-96061227D01*
X190631960Y-96056851D01*
X190644413Y-96052484D01*
X190656798Y-96048128D01*
X190669113Y-96043784D01*
X190681354Y-96039452D01*
X190693520Y-96035134D01*
X190705607Y-96030829D01*
X190717614Y-96026540D01*
X190729538Y-96022267D01*
X190741376Y-96018010D01*
X190753126Y-96013771D01*
X190764785Y-96009550D01*
X190776352Y-96005348D01*
X190787823Y-96001167D01*
X190799196Y-95997007D01*
X190810468Y-95992869D01*
X190821638Y-95988753D01*
X190832702Y-95984661D01*
X190843658Y-95980594D01*
X190854504Y-95976552D01*
X190865237Y-95972536D01*
X190875854Y-95968547D01*
X190886354Y-95964586D01*
X190896733Y-95960654D01*
X190906990Y-95956751D01*
X190917121Y-95952879D01*
X190927124Y-95949039D01*
X190936997Y-95945230D01*
X190946738Y-95941455D01*
X190956343Y-95937714D01*
X190965810Y-95934007D01*
X190975137Y-95930336D01*
X190984322Y-95926702D01*
X190993361Y-95923105D01*
X191002253Y-95919547D01*
X191010995Y-95916027D01*
X191019583Y-95912548D01*
X191028017Y-95909109D01*
X191036294Y-95905712D01*
X191044410Y-95902358D01*
X191052364Y-95899047D01*
X191067877Y-95893135D01*
X191080493Y-95889416D01*
X191088915Y-95888195D01*
X191091848Y-95889776D01*
G37*
G36*
X191238549Y-95127918D02*
G01*
X191238817Y-95129308D01*
X191237729Y-95131509D01*
X191235316Y-95134509D01*
X191233422Y-95136596D01*
X191230766Y-95139504D01*
X191227377Y-95143201D01*
X191223283Y-95147657D01*
X191218513Y-95152842D01*
X191213094Y-95158724D01*
X191207056Y-95165274D01*
X191200426Y-95172461D01*
X191193232Y-95180253D01*
X191185504Y-95188621D01*
X191177269Y-95197534D01*
X191168556Y-95206960D01*
X191159393Y-95216871D01*
X191149808Y-95227234D01*
X191139829Y-95238019D01*
X191129486Y-95249196D01*
X191118806Y-95260734D01*
X191107817Y-95272603D01*
X191096549Y-95284771D01*
X191085028Y-95297208D01*
X191073284Y-95309884D01*
X191061345Y-95322768D01*
X191049239Y-95335829D01*
X191036994Y-95349036D01*
X191024639Y-95362360D01*
X191010680Y-95377432D01*
X190997009Y-95392231D01*
X190983662Y-95406717D01*
X190970676Y-95420849D01*
X190958088Y-95434586D01*
X190945934Y-95447888D01*
X190934250Y-95460714D01*
X190923073Y-95473024D01*
X190912439Y-95484776D01*
X190902384Y-95495930D01*
X190892944Y-95506446D01*
X190884157Y-95516283D01*
X190876059Y-95525400D01*
X190868685Y-95533757D01*
X190862073Y-95541313D01*
X190856258Y-95548028D01*
X190851278Y-95553860D01*
X190847168Y-95558769D01*
X190843964Y-95562715D01*
X190841704Y-95565657D01*
X190840424Y-95567554D01*
X190840159Y-95568365D01*
X190841147Y-95568904D01*
X190842806Y-95569229D01*
X190845123Y-95569345D01*
X190848081Y-95569257D01*
X190851665Y-95568968D01*
X190855861Y-95568484D01*
X190860653Y-95567808D01*
X190866026Y-95566944D01*
X190871964Y-95565898D01*
X190878454Y-95564673D01*
X190885479Y-95563274D01*
X190893024Y-95561706D01*
X190901074Y-95559971D01*
X190909615Y-95558076D01*
X190918630Y-95556023D01*
X190928105Y-95553818D01*
X190938025Y-95551465D01*
X190948374Y-95548969D01*
X190959137Y-95546332D01*
X190970299Y-95543561D01*
X190981845Y-95540659D01*
X190993760Y-95537630D01*
X191006029Y-95534479D01*
X191018636Y-95531211D01*
X191031566Y-95527829D01*
X191044804Y-95524338D01*
X191058335Y-95520743D01*
X191072144Y-95517047D01*
X191086216Y-95513255D01*
X191100535Y-95509371D01*
X191115086Y-95505400D01*
X191129854Y-95501346D01*
X191144825Y-95497213D01*
X191159982Y-95493006D01*
X191175311Y-95488729D01*
X191190796Y-95484387D01*
X191206423Y-95479983D01*
X191222176Y-95475522D01*
X191238040Y-95471009D01*
X191253999Y-95466447D01*
X191270040Y-95461842D01*
X191286146Y-95457196D01*
X191302302Y-95452516D01*
X191318494Y-95447805D01*
X191334705Y-95443067D01*
X191350921Y-95438307D01*
X191367128Y-95433529D01*
X191383308Y-95428738D01*
X191399448Y-95423937D01*
X191415533Y-95419132D01*
X191431546Y-95414326D01*
X191447473Y-95409524D01*
X191463300Y-95404731D01*
X191479009Y-95399950D01*
X191494587Y-95395185D01*
X191510019Y-95390442D01*
X191525288Y-95385725D01*
X191540381Y-95381037D01*
X191555281Y-95376384D01*
X191569974Y-95371769D01*
X191584444Y-95367198D01*
X191598677Y-95362673D01*
X191612657Y-95358200D01*
X191626369Y-95353784D01*
X191639797Y-95349427D01*
X191652927Y-95345135D01*
X191665744Y-95340913D01*
X191678232Y-95336763D01*
X191690377Y-95332691D01*
X191702162Y-95328702D01*
X191713573Y-95324798D01*
X191724595Y-95320986D01*
X191735213Y-95317268D01*
X191745410Y-95313650D01*
X191755173Y-95310136D01*
X191764486Y-95306730D01*
X191773334Y-95303436D01*
X191781702Y-95300259D01*
X191789574Y-95297203D01*
X191796936Y-95294273D01*
X191806552Y-95290467D01*
X191815070Y-95287261D01*
X191822478Y-95284670D01*
X191828764Y-95282706D01*
X191833914Y-95281385D01*
X191837918Y-95280720D01*
X191840762Y-95280725D01*
X191842434Y-95281414D01*
X191842922Y-95282801D01*
X191842214Y-95284901D01*
X191840296Y-95287727D01*
X191837157Y-95291293D01*
X191832785Y-95295613D01*
X191827167Y-95300702D01*
X191820290Y-95306573D01*
X191812143Y-95313241D01*
X191802713Y-95320719D01*
X191791987Y-95329021D01*
X191779954Y-95338162D01*
X191766601Y-95348155D01*
X191751916Y-95359015D01*
X191735886Y-95370755D01*
X191718499Y-95383390D01*
X191709373Y-95389977D01*
X191700213Y-95396544D01*
X191691020Y-95403093D01*
X191681791Y-95409621D01*
X191672528Y-95416131D01*
X191663231Y-95422621D01*
X191653899Y-95429092D01*
X191644531Y-95435544D01*
X191635129Y-95441977D01*
X191625691Y-95448392D01*
X191616217Y-95454787D01*
X191606708Y-95461164D01*
X191597163Y-95467522D01*
X191587582Y-95473862D01*
X191577964Y-95480184D01*
X191568310Y-95486487D01*
X191558619Y-95492772D01*
X191548892Y-95499039D01*
X191539128Y-95505287D01*
X191529326Y-95511518D01*
X191519488Y-95517731D01*
X191509611Y-95523926D01*
X191499697Y-95530104D01*
X191489746Y-95536263D01*
X191479756Y-95542406D01*
X191469728Y-95548531D01*
X191459662Y-95554638D01*
X191449557Y-95560729D01*
X191439413Y-95566802D01*
X191429231Y-95572858D01*
X191419010Y-95578897D01*
X191408749Y-95584920D01*
X191398449Y-95590925D01*
X191388109Y-95596914D01*
X191377730Y-95602886D01*
X191367311Y-95608842D01*
X191356851Y-95614781D01*
X191346351Y-95620704D01*
X191335811Y-95626611D01*
X191325231Y-95632501D01*
X191314609Y-95638376D01*
X191303947Y-95644234D01*
X191293243Y-95650077D01*
X191282498Y-95655903D01*
X191271712Y-95661714D01*
X191260883Y-95667510D01*
X191250013Y-95673290D01*
X191239101Y-95679054D01*
X191228147Y-95684803D01*
X191217151Y-95690537D01*
X191206112Y-95696255D01*
X191195030Y-95701958D01*
X191183905Y-95707647D01*
X191172737Y-95713320D01*
X191161527Y-95718979D01*
X191150272Y-95724623D01*
X191138974Y-95730252D01*
X191127632Y-95735867D01*
X191116247Y-95741467D01*
X191104817Y-95747053D01*
X191093343Y-95752625D01*
X191081824Y-95758182D01*
X191070261Y-95763725D01*
X191058653Y-95769254D01*
X191047000Y-95774769D01*
X191035302Y-95780271D01*
X191023559Y-95785759D01*
X191011770Y-95791232D01*
X190999936Y-95796693D01*
X190988055Y-95802140D01*
X190976129Y-95807573D01*
X190964156Y-95812993D01*
X190952137Y-95818400D01*
X190940071Y-95823794D01*
X190927959Y-95829175D01*
X190915800Y-95834543D01*
X190903594Y-95839898D01*
X190891340Y-95845240D01*
X190879039Y-95850569D01*
X190866691Y-95855886D01*
X190854294Y-95861190D01*
X190841850Y-95866482D01*
X190829358Y-95871762D01*
X190816817Y-95877029D01*
X190804228Y-95882284D01*
X190791590Y-95887527D01*
X190778904Y-95892759D01*
X190766168Y-95897978D01*
X190753383Y-95903185D01*
X190740549Y-95908381D01*
X190727666Y-95913565D01*
X190714732Y-95918738D01*
X190701749Y-95923899D01*
X190688716Y-95929049D01*
X190675633Y-95934187D01*
X190662499Y-95939314D01*
X190649315Y-95944431D01*
X190636079Y-95949536D01*
X190622793Y-95954630D01*
X190609456Y-95959714D01*
X190596068Y-95964787D01*
X190582628Y-95969849D01*
X190569137Y-95974900D01*
X190555594Y-95979942D01*
X190541999Y-95984972D01*
X190532264Y-95988556D01*
X190522308Y-95992203D01*
X190512137Y-95995913D01*
X190501754Y-95999684D01*
X190491163Y-96003516D01*
X190480369Y-96007406D01*
X190469375Y-96011354D01*
X190458185Y-96015358D01*
X190446804Y-96019417D01*
X190435236Y-96023529D01*
X190423485Y-96027693D01*
X190411554Y-96031909D01*
X190399449Y-96036174D01*
X190387172Y-96040487D01*
X190374729Y-96044847D01*
X190362123Y-96049253D01*
X190349358Y-96053703D01*
X190336439Y-96058196D01*
X190323370Y-96062731D01*
X190310154Y-96067306D01*
X190296795Y-96071921D01*
X190283299Y-96076573D01*
X190269668Y-96081261D01*
X190255908Y-96085985D01*
X190242021Y-96090742D01*
X190228013Y-96095532D01*
X190213887Y-96100353D01*
X190199647Y-96105204D01*
X190185298Y-96110083D01*
X190170843Y-96114990D01*
X190156287Y-96119923D01*
X190141634Y-96124880D01*
X190126887Y-96129861D01*
X190112052Y-96134863D01*
X190097131Y-96139886D01*
X190082130Y-96144929D01*
X190067052Y-96149990D01*
X190051901Y-96155067D01*
X190036681Y-96160160D01*
X190021397Y-96165267D01*
X190006052Y-96170386D01*
X189990651Y-96175517D01*
X189975198Y-96180659D01*
X189959697Y-96185809D01*
X189944152Y-96190966D01*
X189928566Y-96196130D01*
X189912945Y-96201299D01*
X189897292Y-96206471D01*
X189881611Y-96211646D01*
X189865907Y-96216822D01*
X189850183Y-96221997D01*
X189834443Y-96227170D01*
X189818693Y-96232341D01*
X189802935Y-96237507D01*
X189787174Y-96242668D01*
X189771414Y-96247822D01*
X189755659Y-96252967D01*
X189739913Y-96258103D01*
X189724180Y-96263228D01*
X189708464Y-96268341D01*
X189692770Y-96273441D01*
X189677102Y-96278525D01*
X189661463Y-96283594D01*
X189645857Y-96288645D01*
X189630290Y-96293677D01*
X189614764Y-96298689D01*
X189599284Y-96303680D01*
X189583855Y-96308648D01*
X189568479Y-96313592D01*
X189553162Y-96318511D01*
X189537907Y-96323403D01*
X189522718Y-96328268D01*
X189507600Y-96333103D01*
X189492557Y-96337907D01*
X189477592Y-96342679D01*
X189462710Y-96347419D01*
X189447914Y-96352123D01*
X189433210Y-96356792D01*
X189418601Y-96361424D01*
X189404091Y-96366018D01*
X189389684Y-96370571D01*
X189375385Y-96375084D01*
X189361197Y-96379554D01*
X189347124Y-96383980D01*
X189333171Y-96388361D01*
X189319342Y-96392696D01*
X189305641Y-96396984D01*
X189292071Y-96401222D01*
X189278638Y-96405410D01*
X189265344Y-96409546D01*
X189252195Y-96413630D01*
X189239193Y-96417659D01*
X189226345Y-96421633D01*
X189213652Y-96425550D01*
X189201121Y-96429409D01*
X189188753Y-96433208D01*
X189176555Y-96436946D01*
X189164529Y-96440623D01*
X189152680Y-96444236D01*
X189141012Y-96447784D01*
X189129530Y-96451266D01*
X189118236Y-96454681D01*
X189107136Y-96458027D01*
X189096233Y-96461303D01*
X189085531Y-96464507D01*
X189075035Y-96467639D01*
X189064749Y-96470698D01*
X189054676Y-96473681D01*
X189044821Y-96476587D01*
X189035188Y-96479415D01*
X189025782Y-96482165D01*
X189016605Y-96484833D01*
X189007662Y-96487420D01*
X188998958Y-96489924D01*
X188990496Y-96492343D01*
X188982280Y-96494677D01*
X188974315Y-96496923D01*
X188966604Y-96499082D01*
X188959153Y-96501150D01*
X188951964Y-96503127D01*
X188945042Y-96505012D01*
X188938391Y-96506804D01*
X188932015Y-96508500D01*
X188925919Y-96510100D01*
X188920105Y-96511603D01*
X188914579Y-96513006D01*
X188909345Y-96514310D01*
X188904406Y-96515512D01*
X188899766Y-96516611D01*
X188895431Y-96517606D01*
X188891403Y-96518495D01*
X188887687Y-96519278D01*
X188884287Y-96519952D01*
X188881208Y-96520517D01*
X188878452Y-96520972D01*
X188876025Y-96521314D01*
X188873930Y-96521543D01*
X188872172Y-96521657D01*
X188870754Y-96521655D01*
X188860912Y-96520651D01*
X188860484Y-96518617D01*
X188869306Y-96514734D01*
X188869306Y-96514738D01*
X188871292Y-96513860D01*
X188874567Y-96512251D01*
X188879074Y-96509941D01*
X188884755Y-96506964D01*
X188891553Y-96503349D01*
X188899410Y-96499129D01*
X188908269Y-96494335D01*
X188918072Y-96488999D01*
X188928762Y-96483153D01*
X188940280Y-96476829D01*
X188952571Y-96470057D01*
X188965575Y-96462870D01*
X188979236Y-96455299D01*
X188993496Y-96447376D01*
X189008297Y-96439132D01*
X189023582Y-96430600D01*
X189039294Y-96421810D01*
X189055375Y-96412794D01*
X189071767Y-96403585D01*
X189088413Y-96394213D01*
X189098405Y-96388584D01*
X189108660Y-96382812D01*
X189119156Y-96376909D01*
X189129875Y-96370885D01*
X189140797Y-96364751D01*
X189151902Y-96358519D01*
X189163170Y-96352199D01*
X189174582Y-96345802D01*
X189186117Y-96339339D01*
X189197757Y-96332822D01*
X189209481Y-96326261D01*
X189221270Y-96319667D01*
X189233105Y-96313052D01*
X189244964Y-96306426D01*
X189256830Y-96299800D01*
X189268681Y-96293185D01*
X189280499Y-96286592D01*
X189292263Y-96280033D01*
X189303954Y-96273518D01*
X189315553Y-96267057D01*
X189327039Y-96260663D01*
X189338392Y-96254347D01*
X189349594Y-96248118D01*
X189360624Y-96241988D01*
X189371463Y-96235969D01*
X189382091Y-96230070D01*
X189392488Y-96224304D01*
X189402635Y-96218681D01*
X189412512Y-96213212D01*
X189422098Y-96207907D01*
X189431376Y-96202779D01*
X189440324Y-96197838D01*
X189448923Y-96193095D01*
X189457153Y-96188561D01*
X189466454Y-96183437D01*
X189476115Y-96178109D01*
X189486112Y-96172590D01*
X189496417Y-96166895D01*
X189507007Y-96161039D01*
X189517853Y-96155035D01*
X189528932Y-96148897D01*
X189540217Y-96142641D01*
X189551682Y-96136281D01*
X189563302Y-96129830D01*
X189575051Y-96123304D01*
X189586903Y-96116717D01*
X189598832Y-96110083D01*
X189610813Y-96103416D01*
X189622819Y-96096730D01*
X189634826Y-96090041D01*
X189646807Y-96083363D01*
X189658736Y-96076709D01*
X189670588Y-96070094D01*
X189682337Y-96063533D01*
X189693957Y-96057039D01*
X189705422Y-96050628D01*
X189716707Y-96044313D01*
X189727786Y-96038109D01*
X189738633Y-96032031D01*
X189749222Y-96026092D01*
X189759528Y-96020307D01*
X189769524Y-96014691D01*
X189779186Y-96009257D01*
X189788486Y-96004020D01*
X189801018Y-95996963D01*
X189813732Y-95989810D01*
X189826580Y-95982589D01*
X189839513Y-95975325D01*
X189852484Y-95968047D01*
X189865445Y-95960780D01*
X189878348Y-95953552D01*
X189891144Y-95946389D01*
X189903785Y-95939319D01*
X189916224Y-95932367D01*
X189928413Y-95925562D01*
X189940302Y-95918929D01*
X189951845Y-95912496D01*
X189962993Y-95906288D01*
X189973698Y-95900335D01*
X189983912Y-95894661D01*
X189993587Y-95889293D01*
X190002676Y-95884260D01*
X190011128Y-95879587D01*
X190018898Y-95875301D01*
X190025936Y-95871430D01*
X190032196Y-95867999D01*
X190047789Y-95859341D01*
X190062174Y-95851102D01*
X190075048Y-95843474D01*
X190086108Y-95836649D01*
X190095050Y-95830818D01*
X190101571Y-95826174D01*
X190105367Y-95822909D01*
X190106136Y-95821213D01*
X190104202Y-95820896D01*
X190099764Y-95821151D01*
X190093021Y-95821946D01*
X190084173Y-95823244D01*
X190073419Y-95825010D01*
X190060957Y-95827209D01*
X190046986Y-95829807D01*
X190031705Y-95832767D01*
X190015314Y-95836054D01*
X189998012Y-95839634D01*
X189979996Y-95843471D01*
X189970962Y-95845402D01*
X189961257Y-95847436D01*
X189950912Y-95849569D01*
X189939960Y-95851794D01*
X189928430Y-95854107D01*
X189916355Y-95856502D01*
X189903766Y-95858974D01*
X189890694Y-95861517D01*
X189877170Y-95864125D01*
X189863225Y-95866794D01*
X189848891Y-95869517D01*
X189834199Y-95872289D01*
X189819181Y-95875106D01*
X189803867Y-95877961D01*
X189788288Y-95880849D01*
X189772477Y-95883764D01*
X189756465Y-95886701D01*
X189740282Y-95889655D01*
X189723959Y-95892620D01*
X189707529Y-95895591D01*
X189691023Y-95898561D01*
X189674471Y-95901527D01*
X189657905Y-95904482D01*
X189641357Y-95907421D01*
X189624857Y-95910338D01*
X189608436Y-95913228D01*
X189592127Y-95916086D01*
X189575960Y-95918905D01*
X189559967Y-95921681D01*
X189544179Y-95924409D01*
X189528627Y-95927082D01*
X189513342Y-95929695D01*
X189498356Y-95932243D01*
X189483700Y-95934720D01*
X189469405Y-95937122D01*
X189455502Y-95939441D01*
X189442024Y-95941674D01*
X189429000Y-95943814D01*
X189416463Y-95945856D01*
X189404443Y-95947795D01*
X189392972Y-95949624D01*
X189382081Y-95951340D01*
X189371802Y-95952936D01*
X189362165Y-95954406D01*
X189353202Y-95955746D01*
X189344945Y-95956950D01*
X189337424Y-95958012D01*
X189330670Y-95958927D01*
X189324716Y-95959689D01*
X189319592Y-95960294D01*
X189315329Y-95960735D01*
X189311959Y-95961008D01*
X189309514Y-95961106D01*
X189308023Y-95961024D01*
X189307520Y-95960757D01*
X189307708Y-95960152D01*
X189308272Y-95959402D01*
X189309210Y-95958506D01*
X189310518Y-95957467D01*
X189312194Y-95956285D01*
X189314236Y-95954961D01*
X189316641Y-95953496D01*
X189319408Y-95951892D01*
X189322533Y-95950149D01*
X189326014Y-95948268D01*
X189329849Y-95946251D01*
X189334034Y-95944099D01*
X189338569Y-95941812D01*
X189343450Y-95939392D01*
X189348675Y-95936839D01*
X189354242Y-95934155D01*
X189360147Y-95931340D01*
X189366389Y-95928397D01*
X189372966Y-95925325D01*
X189379874Y-95922126D01*
X189387111Y-95918801D01*
X189394675Y-95915351D01*
X189402564Y-95911777D01*
X189410775Y-95908080D01*
X189419305Y-95904261D01*
X189428152Y-95900320D01*
X189437314Y-95896261D01*
X189446789Y-95892082D01*
X189456573Y-95887785D01*
X189466665Y-95883372D01*
X189477061Y-95878843D01*
X189487760Y-95874200D01*
X189498760Y-95869442D01*
X189510056Y-95864573D01*
X189521648Y-95859591D01*
X189533533Y-95854499D01*
X189545709Y-95849298D01*
X189558172Y-95843988D01*
X189570920Y-95838571D01*
X189583952Y-95833048D01*
X189597264Y-95827419D01*
X189610855Y-95821686D01*
X189624721Y-95815850D01*
X189638861Y-95809912D01*
X189653271Y-95803872D01*
X189667950Y-95797733D01*
X189682895Y-95791494D01*
X189698103Y-95785158D01*
X189713573Y-95778724D01*
X189729301Y-95772195D01*
X189745286Y-95765571D01*
X189761524Y-95758853D01*
X189778014Y-95752042D01*
X189794753Y-95745139D01*
X189811738Y-95738146D01*
X189828968Y-95731063D01*
X189846439Y-95723891D01*
X189864149Y-95716632D01*
X189882097Y-95709286D01*
X189900278Y-95701855D01*
X189918691Y-95694339D01*
X189937334Y-95686740D01*
X189956204Y-95679059D01*
X189975299Y-95671296D01*
X189994616Y-95663453D01*
X190014152Y-95655530D01*
X190033906Y-95647530D01*
X190053875Y-95639452D01*
X190074056Y-95631298D01*
X190094448Y-95623069D01*
X190115046Y-95614766D01*
X190135850Y-95606390D01*
X190153533Y-95599272D01*
X190170995Y-95592236D01*
X190188239Y-95585281D01*
X190205267Y-95578406D01*
X190222081Y-95571611D01*
X190238685Y-95564893D01*
X190255082Y-95558252D01*
X190271273Y-95551686D01*
X190287262Y-95545195D01*
X190303052Y-95538777D01*
X190318644Y-95532431D01*
X190334043Y-95526156D01*
X190349249Y-95519950D01*
X190364267Y-95513814D01*
X190379098Y-95507744D01*
X190393746Y-95501741D01*
X190408213Y-95495802D01*
X190422502Y-95489928D01*
X190436615Y-95484116D01*
X190450556Y-95478366D01*
X190464326Y-95472676D01*
X190477929Y-95467046D01*
X190491368Y-95461473D01*
X190504644Y-95455957D01*
X190517761Y-95450497D01*
X190530721Y-95445092D01*
X190543527Y-95439740D01*
X190556182Y-95434440D01*
X190568688Y-95429191D01*
X190581049Y-95423992D01*
X190593266Y-95418842D01*
X190605342Y-95413740D01*
X190617281Y-95408684D01*
X190629084Y-95403673D01*
X190640755Y-95398706D01*
X190652296Y-95393782D01*
X190663710Y-95388900D01*
X190675000Y-95384058D01*
X190686168Y-95379256D01*
X190697216Y-95374492D01*
X190708149Y-95369765D01*
X190718967Y-95365074D01*
X190729675Y-95360417D01*
X190740274Y-95355795D01*
X190750768Y-95351204D01*
X190761158Y-95346646D01*
X190771449Y-95342117D01*
X190781641Y-95337617D01*
X190791739Y-95333144D01*
X190801745Y-95328699D01*
X190811661Y-95324279D01*
X190821490Y-95319883D01*
X190831236Y-95315510D01*
X190840899Y-95311159D01*
X190850484Y-95306829D01*
X190859993Y-95302518D01*
X190869428Y-95298226D01*
X190878793Y-95293952D01*
X190888090Y-95289693D01*
X190897321Y-95285449D01*
X190906490Y-95281219D01*
X190915598Y-95277002D01*
X190924650Y-95272796D01*
X190933646Y-95268600D01*
X190942591Y-95264414D01*
X190951487Y-95260236D01*
X190960336Y-95256064D01*
X190969141Y-95251898D01*
X190977905Y-95247736D01*
X190986631Y-95243578D01*
X190995320Y-95239422D01*
X191003977Y-95235267D01*
X191012603Y-95231111D01*
X191021202Y-95226954D01*
X191029775Y-95222795D01*
X191038326Y-95218632D01*
X191046857Y-95214464D01*
X191055372Y-95210291D01*
X191063872Y-95206110D01*
X191072360Y-95201920D01*
X191080840Y-95197721D01*
X191089313Y-95193512D01*
X191097783Y-95189291D01*
X191118459Y-95179015D01*
X191137382Y-95169710D01*
X191154582Y-95161364D01*
X191170090Y-95153963D01*
X191183935Y-95147497D01*
X191196150Y-95141952D01*
X191206764Y-95137316D01*
X191215807Y-95133578D01*
X191223312Y-95130725D01*
X191229308Y-95128744D01*
X191233825Y-95127625D01*
X191236896Y-95127353D01*
X191238549Y-95127918D01*
G37*
G36*
X192987201Y-92783462D02*
G01*
X193000889Y-92783611D01*
X193014466Y-92783860D01*
X193027933Y-92784211D01*
X193041292Y-92784664D01*
X193054544Y-92785219D01*
X193067691Y-92785876D01*
X193080733Y-92786637D01*
X193093674Y-92787502D01*
X193106513Y-92788471D01*
X193119252Y-92789545D01*
X193131893Y-92790723D01*
X193144437Y-92792008D01*
X193156886Y-92793399D01*
X193169240Y-92794897D01*
X193181501Y-92796502D01*
X193193671Y-92798214D01*
X193205751Y-92800035D01*
X193217742Y-92801965D01*
X193229646Y-92804004D01*
X193241465Y-92806153D01*
X193253199Y-92808412D01*
X193264849Y-92810782D01*
X193276418Y-92813263D01*
X193287907Y-92815856D01*
X193299317Y-92818561D01*
X193310650Y-92821379D01*
X193321906Y-92824310D01*
X193333088Y-92827355D01*
X193344197Y-92830514D01*
X193355234Y-92833789D01*
X193366200Y-92837178D01*
X193377097Y-92840683D01*
X193387926Y-92844305D01*
X193398689Y-92848043D01*
X193409387Y-92851899D01*
X193420022Y-92855873D01*
X193430595Y-92859964D01*
X193441106Y-92864175D01*
X193451559Y-92868505D01*
X193461953Y-92872955D01*
X193472291Y-92877525D01*
X193482574Y-92882216D01*
X193492803Y-92887028D01*
X193502980Y-92891963D01*
X193513106Y-92897019D01*
X193523182Y-92902199D01*
X193533210Y-92907501D01*
X193543191Y-92912928D01*
X193553127Y-92918479D01*
X193563019Y-92924154D01*
X193572868Y-92929956D01*
X193582676Y-92935883D01*
X193592444Y-92941936D01*
X193602174Y-92948116D01*
X193611867Y-92954424D01*
X193621524Y-92960859D01*
X193631147Y-92967423D01*
X193640737Y-92974116D01*
X193650296Y-92980938D01*
X193659824Y-92987890D01*
X193669324Y-92994972D01*
X193678797Y-93002185D01*
X193688244Y-93009530D01*
X193697666Y-93017006D01*
X193707065Y-93024615D01*
X193716443Y-93032357D01*
X193725800Y-93040232D01*
X193735139Y-93048241D01*
X193744460Y-93056385D01*
X193753765Y-93064663D01*
X193763055Y-93073077D01*
X193772331Y-93081627D01*
X193781596Y-93090313D01*
X193790851Y-93099136D01*
X193800096Y-93108096D01*
X193809334Y-93117195D01*
X193818565Y-93126432D01*
X193831842Y-93139889D01*
X193844641Y-93152994D01*
X193856860Y-93165637D01*
X193868396Y-93177706D01*
X193879150Y-93189090D01*
X193889018Y-93199680D01*
X193897901Y-93209364D01*
X193905695Y-93218032D01*
X193912300Y-93225573D01*
X193917614Y-93231876D01*
X193921535Y-93236830D01*
X193923962Y-93240325D01*
X193924794Y-93242251D01*
X193923695Y-93243998D01*
X193920513Y-93246743D01*
X193915420Y-93250394D01*
X193908587Y-93254861D01*
X193900186Y-93260054D01*
X193890388Y-93265881D01*
X193879366Y-93272252D01*
X193867290Y-93279077D01*
X193854334Y-93286266D01*
X193840667Y-93293727D01*
X193826463Y-93301370D01*
X193811892Y-93309104D01*
X193797126Y-93316840D01*
X193782337Y-93324486D01*
X193767697Y-93331952D01*
X193753377Y-93339148D01*
X193739550Y-93345983D01*
X193726386Y-93352365D01*
X193714057Y-93358206D01*
X193702735Y-93363414D01*
X193692592Y-93367899D01*
X193683799Y-93371570D01*
X193676528Y-93374337D01*
X193670951Y-93376109D01*
X193658184Y-93377991D01*
X193649871Y-93375962D01*
X193646903Y-93370241D01*
X193645996Y-93365792D01*
X193643375Y-93360347D01*
X193639183Y-93354029D01*
X193633567Y-93346963D01*
X193626673Y-93339272D01*
X193618646Y-93331080D01*
X193609633Y-93322510D01*
X193599778Y-93313686D01*
X193589227Y-93304731D01*
X193578127Y-93295770D01*
X193566623Y-93286926D01*
X193554860Y-93278322D01*
X193542984Y-93270083D01*
X193531142Y-93262332D01*
X193519478Y-93255192D01*
X193508138Y-93248788D01*
X193497269Y-93243243D01*
X193486547Y-93238374D01*
X193475697Y-93233981D01*
X193464731Y-93230061D01*
X193453663Y-93226612D01*
X193442504Y-93223632D01*
X193431269Y-93221118D01*
X193419968Y-93219069D01*
X193408616Y-93217482D01*
X193397225Y-93216354D01*
X193385807Y-93215684D01*
X193374375Y-93215469D01*
X193362942Y-93215706D01*
X193351521Y-93216395D01*
X193340124Y-93217531D01*
X193328764Y-93219114D01*
X193317454Y-93221140D01*
X193306206Y-93223608D01*
X193295033Y-93226515D01*
X193283949Y-93229859D01*
X193272964Y-93233638D01*
X193262093Y-93237849D01*
X193251348Y-93242490D01*
X193240741Y-93247559D01*
X193230286Y-93253053D01*
X193219995Y-93258971D01*
X193209880Y-93265309D01*
X193199955Y-93272066D01*
X193190232Y-93279240D01*
X193180724Y-93286828D01*
X193171443Y-93294828D01*
X193162403Y-93303237D01*
X193155921Y-93309833D01*
X193148844Y-93317638D01*
X193141304Y-93326479D01*
X193133429Y-93336181D01*
X193125351Y-93346569D01*
X193117198Y-93357471D01*
X193109103Y-93368712D01*
X193101194Y-93380117D01*
X193093601Y-93391513D01*
X193086456Y-93402726D01*
X193079888Y-93413581D01*
X193074950Y-93421756D01*
X193069697Y-93430003D01*
X193064134Y-93438316D01*
X193058267Y-93446691D01*
X193052102Y-93455121D01*
X193045644Y-93463602D01*
X193038900Y-93472128D01*
X193031874Y-93480694D01*
X193024573Y-93489296D01*
X193017003Y-93497927D01*
X193009168Y-93506582D01*
X193001074Y-93515257D01*
X192992728Y-93523946D01*
X192984135Y-93532644D01*
X192975300Y-93541345D01*
X192966229Y-93550044D01*
X192956929Y-93558737D01*
X192947404Y-93567417D01*
X192937660Y-93576080D01*
X192927703Y-93584720D01*
X192917539Y-93593333D01*
X192907173Y-93601912D01*
X192896611Y-93610453D01*
X192885858Y-93618950D01*
X192874921Y-93627398D01*
X192863805Y-93635793D01*
X192852516Y-93644128D01*
X192841058Y-93652398D01*
X192829439Y-93660599D01*
X192817664Y-93668725D01*
X192805738Y-93676770D01*
X192793666Y-93684730D01*
X192781456Y-93692599D01*
X192769112Y-93700373D01*
X192763492Y-93703847D01*
X192757624Y-93707429D01*
X192751510Y-93711118D01*
X192745156Y-93714911D01*
X192738565Y-93718807D01*
X192731741Y-93722802D01*
X192724688Y-93726896D01*
X192717411Y-93731086D01*
X192709913Y-93735370D01*
X192702199Y-93739746D01*
X192694272Y-93744213D01*
X192686136Y-93748767D01*
X192677796Y-93753407D01*
X192669256Y-93758132D01*
X192660520Y-93762938D01*
X192651591Y-93767824D01*
X192642474Y-93772788D01*
X192633173Y-93777828D01*
X192623692Y-93782942D01*
X192614035Y-93788127D01*
X192604207Y-93793382D01*
X192594210Y-93798705D01*
X192584049Y-93804094D01*
X192573729Y-93809546D01*
X192563253Y-93815060D01*
X192552625Y-93820634D01*
X192541850Y-93826265D01*
X192530931Y-93831952D01*
X192519873Y-93837692D01*
X192508679Y-93843484D01*
X192497354Y-93849325D01*
X192485901Y-93855213D01*
X192474326Y-93861147D01*
X192462631Y-93867124D01*
X192450821Y-93873143D01*
X192438900Y-93879201D01*
X192426872Y-93885296D01*
X192414741Y-93891427D01*
X192402511Y-93897590D01*
X192390186Y-93903785D01*
X192377770Y-93910009D01*
X192365268Y-93916260D01*
X192352682Y-93922536D01*
X192340019Y-93928836D01*
X192327280Y-93935156D01*
X192314471Y-93941495D01*
X192301596Y-93947851D01*
X192288658Y-93954222D01*
X192275662Y-93960606D01*
X192262612Y-93967001D01*
X192249511Y-93973405D01*
X192236365Y-93979815D01*
X192223176Y-93986231D01*
X192209949Y-93992649D01*
X192196688Y-93999067D01*
X192183397Y-94005485D01*
X192170080Y-94011899D01*
X192156741Y-94018307D01*
X192143385Y-94024709D01*
X192130015Y-94031100D01*
X192116635Y-94037481D01*
X192103249Y-94043848D01*
X192089862Y-94050199D01*
X192076478Y-94056533D01*
X192063100Y-94062847D01*
X192049732Y-94069139D01*
X192036379Y-94075408D01*
X192023045Y-94081651D01*
X192009734Y-94087867D01*
X191996450Y-94094052D01*
X191983196Y-94100206D01*
X191969978Y-94106326D01*
X191956798Y-94112411D01*
X191943662Y-94118457D01*
X191930573Y-94124463D01*
X191917534Y-94130428D01*
X191904551Y-94136349D01*
X191891628Y-94142223D01*
X191878767Y-94148050D01*
X191865975Y-94153826D01*
X191853253Y-94159550D01*
X191840607Y-94165221D01*
X191831229Y-94169422D01*
X191821622Y-94173733D01*
X191811793Y-94178151D01*
X191801745Y-94182674D01*
X191791485Y-94187300D01*
X191781018Y-94192025D01*
X191770348Y-94196848D01*
X191759480Y-94201767D01*
X191748420Y-94206778D01*
X191737174Y-94211880D01*
X191725746Y-94217070D01*
X191714140Y-94222346D01*
X191702362Y-94227705D01*
X191690418Y-94233145D01*
X191678312Y-94238664D01*
X191666050Y-94244258D01*
X191653636Y-94249927D01*
X191641076Y-94255667D01*
X191628375Y-94261476D01*
X191615539Y-94267351D01*
X191602571Y-94273291D01*
X191589477Y-94279293D01*
X191576263Y-94285354D01*
X191562934Y-94291472D01*
X191549494Y-94297645D01*
X191535949Y-94303870D01*
X191522303Y-94310145D01*
X191508563Y-94316467D01*
X191494733Y-94322835D01*
X191480818Y-94329245D01*
X191466823Y-94335696D01*
X191452754Y-94342185D01*
X191438615Y-94348709D01*
X191424412Y-94355266D01*
X191410149Y-94361854D01*
X191395833Y-94368471D01*
X191381468Y-94375113D01*
X191367058Y-94381780D01*
X191352610Y-94388467D01*
X191338129Y-94395173D01*
X191323619Y-94401896D01*
X191309085Y-94408632D01*
X191294533Y-94415381D01*
X191279969Y-94422138D01*
X191265396Y-94428903D01*
X191250820Y-94435672D01*
X191236246Y-94442443D01*
X191221680Y-94449214D01*
X191207126Y-94455982D01*
X191192589Y-94462745D01*
X191178076Y-94469501D01*
X191163590Y-94476247D01*
X191149137Y-94482980D01*
X191134722Y-94489700D01*
X191120350Y-94496402D01*
X191106026Y-94503084D01*
X191091756Y-94509745D01*
X191077544Y-94516382D01*
X191063396Y-94522992D01*
X191049316Y-94529573D01*
X191035311Y-94536123D01*
X191021384Y-94542639D01*
X191007541Y-94549119D01*
X190993788Y-94555561D01*
X190980129Y-94561961D01*
X190966569Y-94568318D01*
X190953114Y-94574630D01*
X190939769Y-94580894D01*
X190926538Y-94587107D01*
X190913427Y-94593267D01*
X190900441Y-94599372D01*
X190887586Y-94605420D01*
X190874865Y-94611407D01*
X190862285Y-94617332D01*
X190849851Y-94623193D01*
X190837567Y-94628986D01*
X190825438Y-94634709D01*
X190813471Y-94640361D01*
X190801669Y-94645938D01*
X190790039Y-94651439D01*
X190778585Y-94656860D01*
X190767312Y-94662200D01*
X190756225Y-94667456D01*
X190745330Y-94672626D01*
X190734632Y-94677707D01*
X190724135Y-94682697D01*
X190713845Y-94687593D01*
X190703768Y-94692394D01*
X190693907Y-94697096D01*
X190684269Y-94701698D01*
X190674858Y-94706197D01*
X190665679Y-94710591D01*
X190656738Y-94714876D01*
X190648040Y-94719052D01*
X190639589Y-94723115D01*
X190631392Y-94727063D01*
X190623453Y-94730893D01*
X190615776Y-94734604D01*
X190608368Y-94738193D01*
X190601234Y-94741657D01*
X190594378Y-94744995D01*
X190587805Y-94748203D01*
X190581522Y-94751279D01*
X190575532Y-94754221D01*
X190569841Y-94757027D01*
X190564455Y-94759694D01*
X190559377Y-94762220D01*
X190554614Y-94764602D01*
X190550170Y-94766838D01*
X190546051Y-94768926D01*
X190542262Y-94770863D01*
X190538808Y-94772647D01*
X190535693Y-94774275D01*
X190532923Y-94775745D01*
X190513612Y-94785932D01*
X190498062Y-94793749D01*
X190486035Y-94799270D01*
X190477293Y-94802566D01*
X190471599Y-94803713D01*
X190468715Y-94802783D01*
X190468404Y-94799848D01*
X190470427Y-94794983D01*
X190470427Y-94794972D01*
X190471132Y-94793899D01*
X190472378Y-94792294D01*
X190474154Y-94790170D01*
X190476449Y-94787536D01*
X190479252Y-94784404D01*
X190482553Y-94780786D01*
X190486340Y-94776691D01*
X190490603Y-94772131D01*
X190495330Y-94767117D01*
X190500512Y-94761660D01*
X190506136Y-94755771D01*
X190512193Y-94749461D01*
X190518671Y-94742741D01*
X190525559Y-94735623D01*
X190532847Y-94728117D01*
X190540524Y-94720234D01*
X190548579Y-94711985D01*
X190557000Y-94703381D01*
X190565778Y-94694434D01*
X190574901Y-94685154D01*
X190584358Y-94675553D01*
X190594139Y-94665641D01*
X190604233Y-94655429D01*
X190614628Y-94644929D01*
X190625315Y-94634151D01*
X190636281Y-94623107D01*
X190647517Y-94611807D01*
X190659011Y-94600263D01*
X190670752Y-94588486D01*
X190682730Y-94576486D01*
X190694934Y-94564275D01*
X190707353Y-94551864D01*
X190719976Y-94539263D01*
X190732792Y-94526485D01*
X190745790Y-94513539D01*
X190758960Y-94500436D01*
X190772291Y-94487189D01*
X190785771Y-94473808D01*
X190799390Y-94460304D01*
X190813137Y-94446687D01*
X190827001Y-94432970D01*
X190839932Y-94420188D01*
X190852745Y-94407537D01*
X190865440Y-94395016D01*
X190878019Y-94382622D01*
X190890483Y-94370354D01*
X190902833Y-94358212D01*
X190915072Y-94346194D01*
X190927201Y-94334299D01*
X190939220Y-94322526D01*
X190951132Y-94310872D01*
X190962938Y-94299337D01*
X190974639Y-94287920D01*
X190986237Y-94276620D01*
X190997734Y-94265434D01*
X191009129Y-94254362D01*
X191020426Y-94243402D01*
X191031625Y-94232554D01*
X191042729Y-94221816D01*
X191053737Y-94211186D01*
X191064653Y-94200663D01*
X191075477Y-94190247D01*
X191086210Y-94179935D01*
X191096854Y-94169727D01*
X191107411Y-94159621D01*
X191117882Y-94149615D01*
X191128269Y-94139710D01*
X191138572Y-94129902D01*
X191148794Y-94120192D01*
X191158935Y-94110577D01*
X191168997Y-94101057D01*
X191178982Y-94091630D01*
X191188891Y-94082295D01*
X191198726Y-94073050D01*
X191208487Y-94063895D01*
X191218177Y-94054828D01*
X191227796Y-94045847D01*
X191237347Y-94036952D01*
X191246830Y-94028141D01*
X191256247Y-94019413D01*
X191265600Y-94010767D01*
X191274890Y-94002201D01*
X191284118Y-93993713D01*
X191293286Y-93985304D01*
X191302395Y-93976971D01*
X191311447Y-93968713D01*
X191320443Y-93960529D01*
X191329385Y-93952418D01*
X191338273Y-93944378D01*
X191347110Y-93936408D01*
X191355897Y-93928506D01*
X191364635Y-93920672D01*
X191373326Y-93912904D01*
X191381971Y-93905202D01*
X191390571Y-93897562D01*
X191399129Y-93889985D01*
X191407645Y-93882469D01*
X191416121Y-93875013D01*
X191424558Y-93867615D01*
X191432958Y-93860274D01*
X191441322Y-93852989D01*
X191449652Y-93845759D01*
X191457949Y-93838581D01*
X191466214Y-93831456D01*
X191474449Y-93824382D01*
X191482656Y-93817357D01*
X191490835Y-93810380D01*
X191498989Y-93803450D01*
X191507119Y-93796566D01*
X191515225Y-93789726D01*
X191523310Y-93782928D01*
X191531375Y-93776173D01*
X191539422Y-93769458D01*
X191547451Y-93762782D01*
X191555465Y-93756144D01*
X191563464Y-93749542D01*
X191571451Y-93742976D01*
X191579426Y-93736444D01*
X191587391Y-93729944D01*
X191595347Y-93723476D01*
X191603297Y-93717038D01*
X191611241Y-93710629D01*
X191619180Y-93704247D01*
X191627117Y-93697892D01*
X191635052Y-93691562D01*
X191642988Y-93685255D01*
X191650925Y-93678971D01*
X191658865Y-93672708D01*
X191666809Y-93666464D01*
X191674759Y-93660240D01*
X191682716Y-93654032D01*
X191690682Y-93647841D01*
X191698658Y-93641664D01*
X191706646Y-93635500D01*
X191714647Y-93629349D01*
X191722662Y-93623209D01*
X191730693Y-93617078D01*
X191738741Y-93610955D01*
X191746807Y-93604839D01*
X191754894Y-93598729D01*
X191763003Y-93592624D01*
X191771134Y-93586521D01*
X191780457Y-93579558D01*
X191790092Y-93572402D01*
X191800021Y-93565068D01*
X191810224Y-93557568D01*
X191820681Y-93549916D01*
X191831373Y-93542126D01*
X191842281Y-93534211D01*
X191853385Y-93526184D01*
X191864666Y-93518058D01*
X191876104Y-93509848D01*
X191887680Y-93501567D01*
X191899375Y-93493227D01*
X191911170Y-93484843D01*
X191923043Y-93476428D01*
X191934978Y-93467995D01*
X191946953Y-93459558D01*
X191958949Y-93451130D01*
X191970948Y-93442724D01*
X191982929Y-93434355D01*
X191994874Y-93426035D01*
X192006762Y-93417778D01*
X192018575Y-93409597D01*
X192030293Y-93401505D01*
X192041897Y-93393517D01*
X192053366Y-93385646D01*
X192064682Y-93377905D01*
X192075826Y-93370307D01*
X192086778Y-93362865D01*
X192097518Y-93355595D01*
X192108027Y-93348507D01*
X192118286Y-93341617D01*
X192128275Y-93334938D01*
X192137975Y-93328482D01*
X192147366Y-93322264D01*
X192156430Y-93316297D01*
X192165146Y-93310594D01*
X192173495Y-93305169D01*
X192181458Y-93300034D01*
X192189015Y-93295205D01*
X192196147Y-93290693D01*
X192202834Y-93286513D01*
X192209058Y-93282678D01*
X192214799Y-93279200D01*
X192220036Y-93276095D01*
X192262788Y-93251067D01*
X192166596Y-93257506D01*
X192153430Y-93258406D01*
X192139896Y-93259368D01*
X192126028Y-93260389D01*
X192111860Y-93261466D01*
X192097424Y-93262594D01*
X192082756Y-93263772D01*
X192067888Y-93264994D01*
X192052855Y-93266258D01*
X192037689Y-93267561D01*
X192022426Y-93268898D01*
X192007099Y-93270266D01*
X191991740Y-93271662D01*
X191976385Y-93273082D01*
X191961067Y-93274523D01*
X191945819Y-93275982D01*
X191930676Y-93277454D01*
X191915671Y-93278937D01*
X191900838Y-93280426D01*
X191886210Y-93281919D01*
X191871822Y-93283412D01*
X191857707Y-93284902D01*
X191843898Y-93286384D01*
X191830430Y-93287856D01*
X191817337Y-93289314D01*
X191804651Y-93290755D01*
X191792408Y-93292175D01*
X191780640Y-93293570D01*
X191769381Y-93294938D01*
X191758665Y-93296274D01*
X191748526Y-93297576D01*
X191738998Y-93298839D01*
X191730114Y-93300061D01*
X191721908Y-93301238D01*
X191714413Y-93302365D01*
X191707664Y-93303441D01*
X191701695Y-93304461D01*
X191696538Y-93305422D01*
X191692228Y-93306321D01*
X191677295Y-93309451D01*
X191663974Y-93311856D01*
X191653107Y-93313415D01*
X191645535Y-93314006D01*
X191642102Y-93313509D01*
X191642806Y-93312137D01*
X191645789Y-93309095D01*
X191650885Y-93304517D01*
X191657928Y-93298536D01*
X191666750Y-93291287D01*
X191677186Y-93282903D01*
X191689068Y-93273518D01*
X191702230Y-93263267D01*
X191716505Y-93252282D01*
X191731727Y-93240699D01*
X191747728Y-93228650D01*
X191758947Y-93220288D01*
X191770170Y-93212004D01*
X191781396Y-93203800D01*
X191792625Y-93195676D01*
X191803858Y-93187630D01*
X191815094Y-93179664D01*
X191826333Y-93171777D01*
X191837576Y-93163970D01*
X191848822Y-93156242D01*
X191860071Y-93148593D01*
X191871324Y-93141023D01*
X191882579Y-93133533D01*
X191893838Y-93126122D01*
X191905101Y-93118790D01*
X191916367Y-93111538D01*
X191927635Y-93104365D01*
X191938908Y-93097271D01*
X191950183Y-93090257D01*
X191961462Y-93083322D01*
X191972744Y-93076466D01*
X191984029Y-93069690D01*
X191995317Y-93062993D01*
X192006608Y-93056375D01*
X192017903Y-93049837D01*
X192029201Y-93043378D01*
X192040502Y-93036998D01*
X192051806Y-93030698D01*
X192063114Y-93024477D01*
X192074424Y-93018336D01*
X192085738Y-93012273D01*
X192097055Y-93006291D01*
X192108375Y-93000387D01*
X192119698Y-92994563D01*
X192131024Y-92988819D01*
X192142354Y-92983153D01*
X192153686Y-92977567D01*
X192165022Y-92972061D01*
X192176360Y-92966634D01*
X192187702Y-92961286D01*
X192199047Y-92956018D01*
X192210395Y-92950829D01*
X192221745Y-92945720D01*
X192233099Y-92940689D01*
X192244456Y-92935739D01*
X192255816Y-92930868D01*
X192267179Y-92926076D01*
X192278545Y-92921363D01*
X192289914Y-92916730D01*
X192301287Y-92912177D01*
X192312662Y-92907703D01*
X192324040Y-92903308D01*
X192335421Y-92898993D01*
X192346805Y-92894757D01*
X192358191Y-92890600D01*
X192369581Y-92886523D01*
X192380974Y-92882526D01*
X192392370Y-92878608D01*
X192403769Y-92874769D01*
X192415170Y-92871010D01*
X192426575Y-92867331D01*
X192437982Y-92863730D01*
X192449393Y-92860210D01*
X192460806Y-92856768D01*
X192472222Y-92853407D01*
X192483641Y-92850124D01*
X192495063Y-92846921D01*
X192506487Y-92843798D01*
X192517915Y-92840754D01*
X192529345Y-92837790D01*
X192540779Y-92834905D01*
X192552215Y-92832100D01*
X192563654Y-92829374D01*
X192575095Y-92826727D01*
X192586540Y-92824160D01*
X192597987Y-92821673D01*
X192609437Y-92819265D01*
X192620890Y-92816937D01*
X192632346Y-92814688D01*
X192643804Y-92812518D01*
X192655265Y-92810429D01*
X192666729Y-92808418D01*
X192678196Y-92806488D01*
X192689665Y-92804636D01*
X192701137Y-92802865D01*
X192712612Y-92801173D01*
X192724089Y-92799560D01*
X192735570Y-92798027D01*
X192747052Y-92796573D01*
X192758538Y-92795199D01*
X192770026Y-92793905D01*
X192781517Y-92792690D01*
X192793011Y-92791555D01*
X192804507Y-92790499D01*
X192816006Y-92789523D01*
X192827508Y-92788626D01*
X192839012Y-92787809D01*
X192850519Y-92787072D01*
X192862028Y-92786414D01*
X192873540Y-92785835D01*
X192888165Y-92785197D01*
X192902668Y-92784655D01*
X192917051Y-92784210D01*
X192931314Y-92783863D01*
X192945459Y-92783614D01*
X192959488Y-92783464D01*
X192973402Y-92783413D01*
X192987201Y-92783462D01*
G37*
G36*
X193957178Y-93766478D02*
G01*
X193956645Y-93770824D01*
X193954470Y-93777696D01*
X193950788Y-93786789D01*
X193945729Y-93797797D01*
X193939426Y-93810416D01*
X193932013Y-93824341D01*
X193923620Y-93839268D01*
X193917528Y-93849946D01*
X193911647Y-93860487D01*
X193905974Y-93870902D01*
X193900509Y-93881205D01*
X193895247Y-93891410D01*
X193890188Y-93901530D01*
X193885328Y-93911576D01*
X193880666Y-93921564D01*
X193876199Y-93931505D01*
X193871925Y-93941414D01*
X193867841Y-93951303D01*
X193863944Y-93961185D01*
X193860234Y-93971073D01*
X193856707Y-93980982D01*
X193853362Y-93990923D01*
X193850195Y-94000910D01*
X193847204Y-94010956D01*
X193844387Y-94021075D01*
X193841743Y-94031278D01*
X193839268Y-94041581D01*
X193836959Y-94051995D01*
X193834816Y-94062534D01*
X193832835Y-94073211D01*
X193831015Y-94084040D01*
X193829352Y-94095033D01*
X193827845Y-94106203D01*
X193826490Y-94117564D01*
X193825287Y-94129128D01*
X193824232Y-94140910D01*
X193823324Y-94152922D01*
X193822559Y-94165177D01*
X193821936Y-94177688D01*
X193821452Y-94190469D01*
X193821105Y-94203533D01*
X193820893Y-94216893D01*
X193820813Y-94230562D01*
X193820863Y-94244553D01*
X193821040Y-94258879D01*
X193821343Y-94273554D01*
X193821768Y-94288590D01*
X193822315Y-94304002D01*
X193822979Y-94319801D01*
X193823760Y-94336001D01*
X193824654Y-94352616D01*
X193825660Y-94369658D01*
X193826774Y-94387141D01*
X193828015Y-94406158D01*
X193829187Y-94424585D01*
X193830292Y-94442440D01*
X193831329Y-94459745D01*
X193832298Y-94476518D01*
X193833200Y-94492779D01*
X193834033Y-94508548D01*
X193834799Y-94523843D01*
X193835498Y-94538686D01*
X193836129Y-94553095D01*
X193836692Y-94567089D01*
X193837188Y-94580690D01*
X193837616Y-94593915D01*
X193837977Y-94606785D01*
X193838271Y-94619319D01*
X193838497Y-94631538D01*
X193838656Y-94643459D01*
X193838748Y-94655104D01*
X193838773Y-94666492D01*
X193838731Y-94677642D01*
X193838622Y-94688573D01*
X193838445Y-94699306D01*
X193838202Y-94709861D01*
X193837892Y-94720256D01*
X193837515Y-94730511D01*
X193837071Y-94740646D01*
X193836560Y-94750680D01*
X193835982Y-94760634D01*
X193835338Y-94770526D01*
X193834628Y-94780377D01*
X193833850Y-94790205D01*
X193833006Y-94800031D01*
X193832096Y-94809873D01*
X193831119Y-94819753D01*
X193830076Y-94829688D01*
X193828966Y-94839700D01*
X193827790Y-94849806D01*
X193826196Y-94862690D01*
X193824496Y-94875529D01*
X193822690Y-94888323D01*
X193820777Y-94901072D01*
X193818758Y-94913776D01*
X193816634Y-94926433D01*
X193814403Y-94939045D01*
X193812067Y-94951610D01*
X193809625Y-94964128D01*
X193807078Y-94976599D01*
X193804426Y-94989023D01*
X193801668Y-95001399D01*
X193798806Y-95013727D01*
X193795839Y-95026006D01*
X193792767Y-95038238D01*
X193789590Y-95050420D01*
X193786309Y-95062553D01*
X193782924Y-95074637D01*
X193779435Y-95086671D01*
X193775841Y-95098655D01*
X193772144Y-95110589D01*
X193768343Y-95122472D01*
X193764439Y-95134304D01*
X193760431Y-95146084D01*
X193756319Y-95157814D01*
X193752105Y-95169491D01*
X193747787Y-95181117D01*
X193743367Y-95192689D01*
X193738844Y-95204210D01*
X193734218Y-95215677D01*
X193729490Y-95227091D01*
X193724659Y-95238451D01*
X193719726Y-95249758D01*
X193714691Y-95261010D01*
X193709554Y-95272208D01*
X193704315Y-95283351D01*
X193698975Y-95294438D01*
X193693533Y-95305471D01*
X193687990Y-95316448D01*
X193682345Y-95327369D01*
X193676600Y-95338233D01*
X193670753Y-95349041D01*
X193664805Y-95359792D01*
X193658757Y-95370486D01*
X193652608Y-95381123D01*
X193646359Y-95391702D01*
X193640010Y-95402222D01*
X193633560Y-95412685D01*
X193627011Y-95423089D01*
X193620361Y-95433433D01*
X193613612Y-95443719D01*
X193606763Y-95453945D01*
X193599815Y-95464111D01*
X193592767Y-95474217D01*
X193585620Y-95484263D01*
X193578374Y-95494248D01*
X193571029Y-95504172D01*
X193563586Y-95514035D01*
X193556044Y-95523836D01*
X193548403Y-95533575D01*
X193540664Y-95543252D01*
X193532826Y-95552866D01*
X193524891Y-95562418D01*
X193516858Y-95571907D01*
X193508727Y-95581332D01*
X193500498Y-95590693D01*
X193492171Y-95599991D01*
X193483748Y-95609224D01*
X193475227Y-95618393D01*
X193466608Y-95627496D01*
X193457752Y-95636678D01*
X193448792Y-95645792D01*
X193439729Y-95654838D01*
X193430567Y-95663814D01*
X193421307Y-95672719D01*
X193411952Y-95681552D01*
X193402504Y-95690312D01*
X193392966Y-95698996D01*
X193383339Y-95707604D01*
X193373626Y-95716134D01*
X193363829Y-95724586D01*
X193353951Y-95732957D01*
X193343994Y-95741247D01*
X193333959Y-95749453D01*
X193323850Y-95757576D01*
X193313668Y-95765613D01*
X193303416Y-95773563D01*
X193293096Y-95781425D01*
X193282711Y-95789197D01*
X193272262Y-95796879D01*
X193261752Y-95804468D01*
X193251183Y-95811964D01*
X193240557Y-95819365D01*
X193229878Y-95826670D01*
X193219146Y-95833877D01*
X193208365Y-95840986D01*
X193197536Y-95847994D01*
X193186662Y-95854901D01*
X193175745Y-95861706D01*
X193164787Y-95868406D01*
X193153791Y-95875001D01*
X193142759Y-95881489D01*
X193131693Y-95887869D01*
X193120596Y-95894139D01*
X193109469Y-95900299D01*
X193098316Y-95906347D01*
X193087137Y-95912282D01*
X193075936Y-95918102D01*
X193064715Y-95923806D01*
X193053476Y-95929393D01*
X193042221Y-95934861D01*
X193030953Y-95940209D01*
X193019674Y-95945435D01*
X193008386Y-95950540D01*
X192997092Y-95955520D01*
X192985793Y-95960375D01*
X192974492Y-95965103D01*
X192963191Y-95969704D01*
X192951893Y-95974175D01*
X192940600Y-95978516D01*
X192929314Y-95982725D01*
X192918037Y-95986800D01*
X192906772Y-95990741D01*
X192895520Y-95994547D01*
X192884285Y-95998215D01*
X192873069Y-96001745D01*
X192861873Y-96005134D01*
X192850700Y-96008383D01*
X192839552Y-96011489D01*
X192828432Y-96014452D01*
X192817341Y-96017269D01*
X192806283Y-96019940D01*
X192795259Y-96022463D01*
X192784272Y-96024838D01*
X192768721Y-96027994D01*
X192754813Y-96030614D01*
X192742607Y-96032707D01*
X192732164Y-96034281D01*
X192723543Y-96035344D01*
X192716805Y-96035907D01*
X192712008Y-96035978D01*
X192709213Y-96035565D01*
X192708480Y-96034678D01*
X192709869Y-96033325D01*
X192713439Y-96031515D01*
X192719251Y-96029257D01*
X192727364Y-96026560D01*
X192737838Y-96023433D01*
X192750734Y-96019885D01*
X192759178Y-96017522D01*
X192767913Y-96014853D01*
X192776923Y-96011884D01*
X192786195Y-96008626D01*
X192795714Y-96005086D01*
X192805465Y-96001273D01*
X192815434Y-95997196D01*
X192825607Y-95992864D01*
X192835970Y-95988284D01*
X192846507Y-95983466D01*
X192857204Y-95978418D01*
X192868048Y-95973149D01*
X192879023Y-95967667D01*
X192890116Y-95961981D01*
X192901311Y-95956100D01*
X192912595Y-95950032D01*
X192923953Y-95943786D01*
X192935370Y-95937370D01*
X192946832Y-95930793D01*
X192958325Y-95924064D01*
X192969835Y-95917191D01*
X192981346Y-95910183D01*
X192992845Y-95903048D01*
X193004318Y-95895795D01*
X193015748Y-95888433D01*
X193027123Y-95880971D01*
X193038428Y-95873416D01*
X193049649Y-95865777D01*
X193060770Y-95858064D01*
X193071778Y-95850284D01*
X193082658Y-95842447D01*
X193093396Y-95834560D01*
X193103978Y-95826633D01*
X193114388Y-95818675D01*
X193124613Y-95810692D01*
X193134638Y-95802696D01*
X193144449Y-95794693D01*
X193154032Y-95786692D01*
X193163371Y-95778703D01*
X193172452Y-95770733D01*
X193181262Y-95762792D01*
X193191168Y-95753681D01*
X193200952Y-95744564D01*
X193210617Y-95735441D01*
X193220162Y-95726311D01*
X193229589Y-95717172D01*
X193238899Y-95708023D01*
X193248091Y-95698862D01*
X193257167Y-95689689D01*
X193266128Y-95680501D01*
X193274974Y-95671298D01*
X193283706Y-95662079D01*
X193292324Y-95652842D01*
X193300830Y-95643585D01*
X193309224Y-95634308D01*
X193317508Y-95625009D01*
X193325680Y-95615687D01*
X193333743Y-95606340D01*
X193341698Y-95596968D01*
X193349544Y-95587568D01*
X193357283Y-95578141D01*
X193364915Y-95568683D01*
X193372441Y-95559195D01*
X193379862Y-95549674D01*
X193387178Y-95540120D01*
X193394391Y-95530531D01*
X193401501Y-95520905D01*
X193408509Y-95511242D01*
X193415415Y-95501541D01*
X193422220Y-95491799D01*
X193428925Y-95482016D01*
X193435531Y-95472190D01*
X193442039Y-95462321D01*
X193448448Y-95452406D01*
X193454761Y-95442444D01*
X193460977Y-95432434D01*
X193467097Y-95422376D01*
X193473123Y-95412266D01*
X193479055Y-95402105D01*
X193484893Y-95391891D01*
X193490638Y-95381623D01*
X193496292Y-95371299D01*
X193501854Y-95360917D01*
X193507326Y-95350478D01*
X193512708Y-95339978D01*
X193518001Y-95329418D01*
X193523206Y-95318796D01*
X193528323Y-95308110D01*
X193533354Y-95297359D01*
X193538298Y-95286543D01*
X193543157Y-95275658D01*
X193547932Y-95264705D01*
X193552623Y-95253682D01*
X193557231Y-95242588D01*
X193561756Y-95231421D01*
X193566200Y-95220180D01*
X193570563Y-95208864D01*
X193574845Y-95197471D01*
X193579049Y-95186000D01*
X193583173Y-95174451D01*
X193587220Y-95162820D01*
X193591190Y-95151109D01*
X193595083Y-95139314D01*
X193598900Y-95127434D01*
X193602642Y-95115469D01*
X193606310Y-95103417D01*
X193609905Y-95091277D01*
X193613426Y-95079047D01*
X193616876Y-95066726D01*
X193620254Y-95054313D01*
X193623562Y-95041807D01*
X193626800Y-95029206D01*
X193629969Y-95016509D01*
X193633069Y-95003714D01*
X193636102Y-94990821D01*
X193639068Y-94977827D01*
X193641968Y-94964733D01*
X193644802Y-94951536D01*
X193647572Y-94938234D01*
X193649869Y-94926534D01*
X193652119Y-94914102D01*
X193654316Y-94901021D01*
X193656455Y-94887368D01*
X193658530Y-94873223D01*
X193660535Y-94858666D01*
X193662466Y-94843776D01*
X193664316Y-94828634D01*
X193666080Y-94813318D01*
X193667752Y-94797907D01*
X193669326Y-94782481D01*
X193670798Y-94767121D01*
X193672162Y-94751904D01*
X193673411Y-94736911D01*
X193674541Y-94722221D01*
X193675545Y-94707914D01*
X193676419Y-94694070D01*
X193677156Y-94680767D01*
X193677751Y-94668085D01*
X193678199Y-94656104D01*
X193678494Y-94644903D01*
X193678629Y-94634562D01*
X193678601Y-94625160D01*
X193678403Y-94616776D01*
X193678029Y-94609491D01*
X193677474Y-94603384D01*
X193676733Y-94598533D01*
X193675799Y-94595020D01*
X193674668Y-94592922D01*
X193673333Y-94592320D01*
X193671790Y-94593293D01*
X193669442Y-94596592D01*
X193666101Y-94602385D01*
X193661900Y-94610395D01*
X193656970Y-94620344D01*
X193651444Y-94631956D01*
X193645453Y-94644953D01*
X193639129Y-94659058D01*
X193632604Y-94673995D01*
X193626011Y-94689486D01*
X193622080Y-94698655D01*
X193617724Y-94708466D01*
X193612988Y-94718832D01*
X193607918Y-94729662D01*
X193602558Y-94740867D01*
X193596955Y-94752358D01*
X193591154Y-94764047D01*
X193585200Y-94775843D01*
X193579138Y-94787658D01*
X193573014Y-94799402D01*
X193566873Y-94810987D01*
X193560761Y-94822323D01*
X193554723Y-94833321D01*
X193548804Y-94843891D01*
X193543050Y-94853946D01*
X193537506Y-94863395D01*
X193531732Y-94873038D01*
X193525899Y-94882658D01*
X193520006Y-94892254D01*
X193514055Y-94901824D01*
X193508045Y-94911371D01*
X193501977Y-94920893D01*
X193495850Y-94930390D01*
X193489665Y-94939862D01*
X193483422Y-94949309D01*
X193477120Y-94958730D01*
X193470762Y-94968127D01*
X193464345Y-94977498D01*
X193457871Y-94986844D01*
X193451340Y-94996164D01*
X193444752Y-95005458D01*
X193438106Y-95014727D01*
X193431404Y-95023969D01*
X193424645Y-95033186D01*
X193417830Y-95042376D01*
X193410958Y-95051540D01*
X193404031Y-95060677D01*
X193397047Y-95069788D01*
X193390007Y-95078872D01*
X193382912Y-95087929D01*
X193375761Y-95096959D01*
X193368555Y-95105962D01*
X193361294Y-95114938D01*
X193353977Y-95123887D01*
X193346606Y-95132808D01*
X193339180Y-95141702D01*
X193331699Y-95150568D01*
X193324164Y-95159407D01*
X193316575Y-95168217D01*
X193308931Y-95176999D01*
X193301234Y-95185753D01*
X193293483Y-95194479D01*
X193285678Y-95203177D01*
X193277820Y-95211846D01*
X193269908Y-95220486D01*
X193261943Y-95229098D01*
X193253926Y-95237681D01*
X193245855Y-95246235D01*
X193237732Y-95254759D01*
X193229556Y-95263255D01*
X193221329Y-95271721D01*
X193213048Y-95280157D01*
X193204716Y-95288564D01*
X193196332Y-95296942D01*
X193187896Y-95305289D01*
X193179409Y-95313607D01*
X193170870Y-95321894D01*
X193162281Y-95330152D01*
X193153640Y-95338379D01*
X193144948Y-95346575D01*
X193136205Y-95354741D01*
X193127412Y-95362877D01*
X193118568Y-95370981D01*
X193109674Y-95379055D01*
X193100730Y-95387097D01*
X193091736Y-95395109D01*
X193082693Y-95403089D01*
X193073599Y-95411038D01*
X193064456Y-95418955D01*
X193055264Y-95426841D01*
X193046023Y-95434695D01*
X193036732Y-95442517D01*
X193027393Y-95450307D01*
X193018005Y-95458065D01*
X193008569Y-95465791D01*
X192999084Y-95473484D01*
X192989551Y-95481145D01*
X192979970Y-95488773D01*
X192970342Y-95496369D01*
X192960665Y-95503932D01*
X192950941Y-95511461D01*
X192941169Y-95518958D01*
X192931351Y-95526422D01*
X192921485Y-95533852D01*
X192911572Y-95541249D01*
X192901613Y-95548612D01*
X192891606Y-95555942D01*
X192881554Y-95563237D01*
X192871455Y-95570499D01*
X192861310Y-95577727D01*
X192851119Y-95584921D01*
X192840882Y-95592080D01*
X192830600Y-95599205D01*
X192820272Y-95606296D01*
X192809899Y-95613352D01*
X192799480Y-95620373D01*
X192789017Y-95627359D01*
X192778509Y-95634311D01*
X192767956Y-95641227D01*
X192757358Y-95648108D01*
X192746717Y-95654953D01*
X192736031Y-95661763D01*
X192725300Y-95668538D01*
X192714527Y-95675277D01*
X192703709Y-95681980D01*
X192692847Y-95688647D01*
X192681943Y-95695278D01*
X192670995Y-95701873D01*
X192660004Y-95708431D01*
X192648970Y-95714953D01*
X192637893Y-95721439D01*
X192626774Y-95727887D01*
X192615612Y-95734299D01*
X192604408Y-95740675D01*
X192593161Y-95747013D01*
X192581873Y-95753314D01*
X192570543Y-95759577D01*
X192559171Y-95765804D01*
X192547758Y-95771992D01*
X192536303Y-95778143D01*
X192524808Y-95784257D01*
X192513271Y-95790332D01*
X192501693Y-95796370D01*
X192490075Y-95802369D01*
X192478416Y-95808330D01*
X192466716Y-95814253D01*
X192454977Y-95820137D01*
X192443197Y-95825983D01*
X192431378Y-95831790D01*
X192419519Y-95837558D01*
X192407620Y-95843288D01*
X192395681Y-95848978D01*
X192383704Y-95854629D01*
X192371687Y-95860240D01*
X192359632Y-95865813D01*
X192347537Y-95871345D01*
X192335404Y-95876838D01*
X192323233Y-95882291D01*
X192311023Y-95887705D01*
X192298775Y-95893078D01*
X192286489Y-95898411D01*
X192274165Y-95903704D01*
X192261804Y-95908956D01*
X192249405Y-95914168D01*
X192236968Y-95919339D01*
X192224495Y-95924470D01*
X192211984Y-95929560D01*
X192199437Y-95934608D01*
X192186853Y-95939616D01*
X192174232Y-95944582D01*
X192161575Y-95949507D01*
X192148881Y-95954391D01*
X192136152Y-95959232D01*
X192123386Y-95964033D01*
X192110585Y-95968791D01*
X192097749Y-95973507D01*
X192084876Y-95978182D01*
X192071969Y-95982814D01*
X192059026Y-95987403D01*
X192046049Y-95991951D01*
X192033036Y-95996456D01*
X192022150Y-96000160D01*
X192010828Y-96003933D01*
X191999101Y-96007767D01*
X191986998Y-96011654D01*
X191974549Y-96015587D01*
X191961784Y-96019556D01*
X191948732Y-96023556D01*
X191935423Y-96027577D01*
X191921887Y-96031613D01*
X191908153Y-96035655D01*
X191894251Y-96039696D01*
X191880211Y-96043728D01*
X191866062Y-96047743D01*
X191851835Y-96051733D01*
X191837559Y-96055691D01*
X191823263Y-96059609D01*
X191808977Y-96063479D01*
X191794732Y-96067293D01*
X191780556Y-96071044D01*
X191766480Y-96074724D01*
X191752532Y-96078324D01*
X191738745Y-96081838D01*
X191725145Y-96085258D01*
X191711763Y-96088575D01*
X191698629Y-96091782D01*
X191685773Y-96094872D01*
X191673224Y-96097836D01*
X191661012Y-96100666D01*
X191649166Y-96103356D01*
X191637717Y-96105897D01*
X191626695Y-96108281D01*
X191616128Y-96110501D01*
X191606046Y-96112549D01*
X191596479Y-96114417D01*
X191587458Y-96116097D01*
X191579011Y-96117582D01*
X191571168Y-96118863D01*
X191563960Y-96119934D01*
X191557415Y-96120786D01*
X191503974Y-96127162D01*
X191568061Y-96093987D01*
X191582650Y-96086420D01*
X191597070Y-96078902D01*
X191611322Y-96071432D01*
X191625409Y-96064007D01*
X191639332Y-96056627D01*
X191653094Y-96049290D01*
X191666698Y-96041995D01*
X191680144Y-96034739D01*
X191693436Y-96027522D01*
X191706575Y-96020342D01*
X191719563Y-96013198D01*
X191732403Y-96006088D01*
X191745096Y-95999010D01*
X191757646Y-95991963D01*
X191770054Y-95984946D01*
X191782322Y-95977957D01*
X191794453Y-95970994D01*
X191806448Y-95964057D01*
X191818309Y-95957143D01*
X191830040Y-95950252D01*
X191841641Y-95943381D01*
X191853115Y-95936529D01*
X191864464Y-95929695D01*
X191875691Y-95922878D01*
X191886797Y-95916075D01*
X191897784Y-95909285D01*
X191908655Y-95902507D01*
X191919412Y-95895739D01*
X191930057Y-95888980D01*
X191940592Y-95882228D01*
X191951019Y-95875482D01*
X191961341Y-95868741D01*
X191971559Y-95862002D01*
X191981675Y-95855264D01*
X191991692Y-95848527D01*
X192001613Y-95841788D01*
X192011438Y-95835045D01*
X192021170Y-95828298D01*
X192030812Y-95821545D01*
X192040365Y-95814785D01*
X192049831Y-95808015D01*
X192059213Y-95801235D01*
X192068513Y-95794442D01*
X192077733Y-95787636D01*
X192086875Y-95780815D01*
X192095941Y-95773978D01*
X192104934Y-95767123D01*
X192113855Y-95760248D01*
X192122707Y-95753352D01*
X192131491Y-95746434D01*
X192140210Y-95739491D01*
X192148867Y-95732524D01*
X192157462Y-95725529D01*
X192165999Y-95718506D01*
X192174479Y-95711453D01*
X192182905Y-95704369D01*
X192191278Y-95697252D01*
X192199601Y-95690101D01*
X192207876Y-95682913D01*
X192216105Y-95675689D01*
X192224291Y-95668425D01*
X192232435Y-95661122D01*
X192240539Y-95653776D01*
X192248606Y-95646387D01*
X192256637Y-95638954D01*
X192264636Y-95631474D01*
X192272603Y-95623947D01*
X192280542Y-95616370D01*
X192288454Y-95608743D01*
X192296342Y-95601063D01*
X192304206Y-95593330D01*
X192312051Y-95585541D01*
X192319878Y-95577696D01*
X192327688Y-95569793D01*
X192335485Y-95561830D01*
X192343269Y-95553806D01*
X192352469Y-95544220D01*
X192361594Y-95534590D01*
X192370644Y-95524917D01*
X192379620Y-95515201D01*
X192388520Y-95505442D01*
X192397344Y-95495642D01*
X192406093Y-95485799D01*
X192414766Y-95475916D01*
X192423362Y-95465992D01*
X192431882Y-95456028D01*
X192440326Y-95446025D01*
X192448692Y-95435982D01*
X192456981Y-95425900D01*
X192465193Y-95415780D01*
X192473327Y-95405623D01*
X192481383Y-95395428D01*
X192489362Y-95385196D01*
X192497261Y-95374927D01*
X192505082Y-95364623D01*
X192512824Y-95354283D01*
X192520487Y-95343908D01*
X192528071Y-95333498D01*
X192535575Y-95323055D01*
X192543000Y-95312577D01*
X192550344Y-95302067D01*
X192557608Y-95291524D01*
X192564791Y-95280948D01*
X192571893Y-95270341D01*
X192578915Y-95259703D01*
X192585855Y-95249033D01*
X192592714Y-95238334D01*
X192599491Y-95227604D01*
X192606186Y-95216845D01*
X192612798Y-95206056D01*
X192619328Y-95195240D01*
X192625776Y-95184395D01*
X192632140Y-95173522D01*
X192638422Y-95162623D01*
X192644620Y-95151697D01*
X192650734Y-95140744D01*
X192656764Y-95129766D01*
X192662710Y-95118762D01*
X192668572Y-95107734D01*
X192674349Y-95096681D01*
X192680041Y-95085605D01*
X192685648Y-95074505D01*
X192691169Y-95063382D01*
X192696605Y-95052236D01*
X192701956Y-95041069D01*
X192707220Y-95029880D01*
X192712397Y-95018669D01*
X192717488Y-95007438D01*
X192722493Y-94996187D01*
X192727410Y-94984917D01*
X192732240Y-94973627D01*
X192736983Y-94962318D01*
X192741637Y-94950991D01*
X192746204Y-94939646D01*
X192750682Y-94928283D01*
X192755072Y-94916904D01*
X192759373Y-94905508D01*
X192763586Y-94894096D01*
X192767709Y-94882669D01*
X192771742Y-94871226D01*
X192775686Y-94859769D01*
X192779540Y-94848298D01*
X192783303Y-94836814D01*
X192786977Y-94825316D01*
X192790559Y-94813805D01*
X192794051Y-94802282D01*
X192797452Y-94790747D01*
X192800761Y-94779201D01*
X192803978Y-94767643D01*
X192807104Y-94756076D01*
X192810137Y-94744498D01*
X192813079Y-94732911D01*
X192815927Y-94721314D01*
X192818683Y-94709710D01*
X192821346Y-94698097D01*
X192823915Y-94686476D01*
X192826391Y-94674848D01*
X192828773Y-94663214D01*
X192831061Y-94651573D01*
X192833255Y-94639927D01*
X192835354Y-94628275D01*
X192837359Y-94616618D01*
X192839268Y-94604957D01*
X192841083Y-94593292D01*
X192842721Y-94581967D01*
X192844274Y-94570220D01*
X192845740Y-94558085D01*
X192847119Y-94545596D01*
X192848412Y-94532786D01*
X192849617Y-94519688D01*
X192850734Y-94506337D01*
X192851762Y-94492764D01*
X192852702Y-94479004D01*
X192853553Y-94465091D01*
X192854314Y-94451057D01*
X192854985Y-94436937D01*
X192855566Y-94422763D01*
X192856056Y-94408570D01*
X192856455Y-94394390D01*
X192856763Y-94380257D01*
X192856978Y-94366204D01*
X192857101Y-94352266D01*
X192857132Y-94338475D01*
X192857069Y-94324864D01*
X192856912Y-94311469D01*
X192856662Y-94298320D01*
X192856317Y-94285454D01*
X192855877Y-94272902D01*
X192855342Y-94260698D01*
X192854711Y-94248875D01*
X192853985Y-94237468D01*
X192853162Y-94226510D01*
X192852242Y-94216033D01*
X192851225Y-94206072D01*
X192850110Y-94196660D01*
X192848897Y-94187830D01*
X192847586Y-94179617D01*
X192846175Y-94172052D01*
X192843228Y-94156571D01*
X192840863Y-94142345D01*
X192839151Y-94129975D01*
X192838166Y-94120066D01*
X192837981Y-94113219D01*
X192838670Y-94110038D01*
X192840886Y-94110470D01*
X192845706Y-94113163D01*
X192852770Y-94117832D01*
X192861719Y-94124188D01*
X192872193Y-94131943D01*
X192883833Y-94140810D01*
X192896280Y-94150502D01*
X192909175Y-94160731D01*
X192922157Y-94171210D01*
X192934868Y-94181650D01*
X192946949Y-94191765D01*
X192958040Y-94201266D01*
X192967782Y-94209867D01*
X192975816Y-94217280D01*
X192981782Y-94223216D01*
X192985320Y-94227390D01*
X192985912Y-94227574D01*
X192987184Y-94227417D01*
X192989126Y-94226925D01*
X192991723Y-94226103D01*
X192994964Y-94224957D01*
X192998835Y-94223494D01*
X193003324Y-94221720D01*
X193008417Y-94219640D01*
X193014103Y-94217260D01*
X193020368Y-94214587D01*
X193027200Y-94211626D01*
X193034585Y-94208384D01*
X193042512Y-94204866D01*
X193050966Y-94201078D01*
X193059937Y-94197027D01*
X193069410Y-94192718D01*
X193079373Y-94188157D01*
X193089813Y-94183351D01*
X193100718Y-94178305D01*
X193112074Y-94173025D01*
X193123870Y-94167517D01*
X193136091Y-94161788D01*
X193148726Y-94155842D01*
X193161762Y-94149687D01*
X193175185Y-94143328D01*
X193188984Y-94136772D01*
X193203145Y-94130023D01*
X193217655Y-94123089D01*
X193232502Y-94115974D01*
X193247674Y-94108686D01*
X193263156Y-94101230D01*
X193278937Y-94093612D01*
X193295004Y-94085837D01*
X193311344Y-94077913D01*
X193327944Y-94069845D01*
X193344792Y-94061639D01*
X193361874Y-94053301D01*
X193379178Y-94044836D01*
X193396691Y-94036252D01*
X193414401Y-94027553D01*
X193432294Y-94018747D01*
X193450358Y-94009838D01*
X193468581Y-94000833D01*
X193486806Y-93991822D01*
X193504879Y-93982893D01*
X193522787Y-93974053D01*
X193540517Y-93965308D01*
X193558056Y-93956665D01*
X193575391Y-93948130D01*
X193592510Y-93939708D01*
X193609399Y-93931407D01*
X193626046Y-93923232D01*
X193642438Y-93915190D01*
X193658561Y-93907286D01*
X193674404Y-93899528D01*
X193689953Y-93891920D01*
X193705195Y-93884471D01*
X193720117Y-93877185D01*
X193734707Y-93870069D01*
X193748952Y-93863129D01*
X193762839Y-93856372D01*
X193776354Y-93849804D01*
X193789486Y-93843430D01*
X193802221Y-93837258D01*
X193814546Y-93831292D01*
X193826448Y-93825541D01*
X193837915Y-93820009D01*
X193848934Y-93814704D01*
X193859492Y-93809630D01*
X193869575Y-93804795D01*
X193879172Y-93800205D01*
X193888269Y-93795866D01*
X193896853Y-93791784D01*
X193904911Y-93787966D01*
X193912431Y-93784417D01*
X193919400Y-93781144D01*
X193925805Y-93778154D01*
X193931633Y-93775451D01*
X193936871Y-93773044D01*
X193941506Y-93770937D01*
X193945525Y-93769137D01*
X193948916Y-93767650D01*
X193951666Y-93766483D01*
X193953761Y-93765642D01*
X193955189Y-93765132D01*
X193955937Y-93764961D01*
X193957178Y-93766478D01*
G37*
G36*
X192655516Y-93988194D02*
G01*
X192656384Y-93988616D01*
X192657763Y-93990806D01*
X192659052Y-93994473D01*
X192660249Y-93999536D01*
X192661356Y-94005913D01*
X192662374Y-94013524D01*
X192663302Y-94022287D01*
X192664141Y-94032121D01*
X192664890Y-94042945D01*
X192665552Y-94054679D01*
X192666126Y-94067241D01*
X192666611Y-94080549D01*
X192667010Y-94094523D01*
X192667322Y-94109082D01*
X192667547Y-94124144D01*
X192667686Y-94139629D01*
X192667739Y-94155455D01*
X192667707Y-94171542D01*
X192667589Y-94187808D01*
X192667387Y-94204171D01*
X192667101Y-94220552D01*
X192666731Y-94236869D01*
X192666277Y-94253040D01*
X192665740Y-94268985D01*
X192665121Y-94284623D01*
X192664419Y-94299872D01*
X192663635Y-94314651D01*
X192662769Y-94328880D01*
X192661822Y-94342477D01*
X192660794Y-94355361D01*
X192659685Y-94367451D01*
X192658497Y-94378666D01*
X192657228Y-94388925D01*
X192655880Y-94398146D01*
X192654454Y-94406249D01*
X192651980Y-94418698D01*
X192649455Y-94430937D01*
X192646873Y-94442983D01*
X192644229Y-94454850D01*
X192641516Y-94466556D01*
X192638731Y-94478117D01*
X192635867Y-94489547D01*
X192632918Y-94500864D01*
X192629879Y-94512084D01*
X192626745Y-94523222D01*
X192623511Y-94534295D01*
X192620170Y-94545319D01*
X192616717Y-94556309D01*
X192613147Y-94567282D01*
X192609454Y-94578254D01*
X192605633Y-94589241D01*
X192601678Y-94600259D01*
X192597583Y-94611324D01*
X192593344Y-94622452D01*
X192588955Y-94633659D01*
X192584410Y-94644961D01*
X192579703Y-94656375D01*
X192574830Y-94667915D01*
X192569784Y-94679600D01*
X192564561Y-94691443D01*
X192559155Y-94703462D01*
X192553560Y-94715673D01*
X192547770Y-94728091D01*
X192541781Y-94740733D01*
X192535587Y-94753614D01*
X192530029Y-94765000D01*
X192524450Y-94776246D01*
X192518845Y-94787356D01*
X192513212Y-94798337D01*
X192507546Y-94809194D01*
X192501844Y-94819932D01*
X192496101Y-94830556D01*
X192490313Y-94841071D01*
X192484477Y-94851485D01*
X192478589Y-94861800D01*
X192472644Y-94872024D01*
X192466640Y-94882161D01*
X192460571Y-94892217D01*
X192454435Y-94902196D01*
X192448227Y-94912105D01*
X192441944Y-94921949D01*
X192435581Y-94931733D01*
X192429134Y-94941462D01*
X192422600Y-94951142D01*
X192415976Y-94960778D01*
X192409256Y-94970376D01*
X192402437Y-94979940D01*
X192395515Y-94989477D01*
X192388487Y-94998991D01*
X192381348Y-95008488D01*
X192374094Y-95017974D01*
X192366722Y-95027453D01*
X192359228Y-95036931D01*
X192351607Y-95046414D01*
X192343857Y-95055906D01*
X192335973Y-95065414D01*
X192327950Y-95074942D01*
X192319786Y-95084495D01*
X192311477Y-95094080D01*
X192303017Y-95103702D01*
X192294405Y-95113365D01*
X192285635Y-95123076D01*
X192276704Y-95132839D01*
X192267608Y-95142660D01*
X192258343Y-95152545D01*
X192248905Y-95162498D01*
X192239290Y-95172526D01*
X192229495Y-95182632D01*
X192219515Y-95192824D01*
X192209347Y-95203106D01*
X192199993Y-95212436D01*
X192190241Y-95222005D01*
X192180125Y-95231786D01*
X192169679Y-95241750D01*
X192158937Y-95251869D01*
X192147934Y-95262116D01*
X192136703Y-95272462D01*
X192125280Y-95282879D01*
X192113697Y-95293339D01*
X192101990Y-95303815D01*
X192090192Y-95314277D01*
X192078338Y-95324698D01*
X192066462Y-95335050D01*
X192054598Y-95345304D01*
X192042781Y-95355434D01*
X192031044Y-95365410D01*
X192019421Y-95375205D01*
X192007948Y-95384791D01*
X191996658Y-95394139D01*
X191985585Y-95403221D01*
X191974763Y-95412010D01*
X191964228Y-95420477D01*
X191954012Y-95428595D01*
X191944150Y-95436335D01*
X191934677Y-95443669D01*
X191925626Y-95450569D01*
X191917032Y-95457007D01*
X191908930Y-95462956D01*
X191901352Y-95468386D01*
X191894333Y-95473270D01*
X191887908Y-95477581D01*
X191882111Y-95481289D01*
X191876976Y-95484367D01*
X191872537Y-95486786D01*
X191868829Y-95488519D01*
X191865885Y-95489538D01*
X191863740Y-95489814D01*
X191862427Y-95489320D01*
X191861982Y-95488028D01*
X191863759Y-95482673D01*
X191868597Y-95475230D01*
X191875754Y-95466682D01*
X191884492Y-95458015D01*
X191887873Y-95454750D01*
X191891702Y-95450674D01*
X191895958Y-95445824D01*
X191900616Y-95440233D01*
X191905656Y-95433937D01*
X191911054Y-95426972D01*
X191916788Y-95419371D01*
X191922836Y-95411170D01*
X191929175Y-95402404D01*
X191935782Y-95393109D01*
X191942636Y-95383318D01*
X191949713Y-95373067D01*
X191956991Y-95362391D01*
X191964449Y-95351325D01*
X191972063Y-95339904D01*
X191979810Y-95328164D01*
X191987669Y-95316138D01*
X191995617Y-95303862D01*
X192003632Y-95291371D01*
X192011691Y-95278700D01*
X192019771Y-95265884D01*
X192027850Y-95252958D01*
X192035906Y-95239957D01*
X192043917Y-95226916D01*
X192051859Y-95213870D01*
X192059710Y-95200855D01*
X192067448Y-95187904D01*
X192075051Y-95175053D01*
X192082495Y-95162337D01*
X192089759Y-95149791D01*
X192096820Y-95137451D01*
X192103656Y-95125350D01*
X192110244Y-95113524D01*
X192116561Y-95102009D01*
X192122585Y-95090838D01*
X192128295Y-95080047D01*
X192133666Y-95069672D01*
X192139091Y-95058927D01*
X192144711Y-95047532D01*
X192150501Y-95035549D01*
X192156434Y-95023041D01*
X192162486Y-95010070D01*
X192168632Y-94996697D01*
X192174846Y-94982984D01*
X192181103Y-94968994D01*
X192187378Y-94954788D01*
X192193646Y-94940429D01*
X192199881Y-94925979D01*
X192206058Y-94911498D01*
X192212152Y-94897051D01*
X192218137Y-94882698D01*
X192223988Y-94868501D01*
X192229681Y-94854523D01*
X192235189Y-94840826D01*
X192240488Y-94827473D01*
X192245552Y-94814522D01*
X192250357Y-94802039D01*
X192254875Y-94790084D01*
X192259084Y-94778720D01*
X192262956Y-94768009D01*
X192266468Y-94758012D01*
X192269593Y-94748792D01*
X192272307Y-94740411D01*
X192274584Y-94732931D01*
X192276399Y-94726413D01*
X192277727Y-94720920D01*
X192278542Y-94716514D01*
X192278819Y-94713256D01*
X192277730Y-94712599D01*
X192274578Y-94714036D01*
X192269538Y-94717420D01*
X192262783Y-94722603D01*
X192254487Y-94729438D01*
X192244825Y-94737779D01*
X192233970Y-94747479D01*
X192222095Y-94758390D01*
X192209376Y-94770365D01*
X192195986Y-94783257D01*
X192186940Y-94792011D01*
X192177846Y-94800711D01*
X192168705Y-94809356D01*
X192159517Y-94817947D01*
X192150282Y-94826483D01*
X192140999Y-94834964D01*
X192131671Y-94843390D01*
X192122296Y-94851761D01*
X192112876Y-94860078D01*
X192103410Y-94868338D01*
X192093898Y-94876544D01*
X192084341Y-94884693D01*
X192074740Y-94892787D01*
X192065093Y-94900824D01*
X192055403Y-94908806D01*
X192045668Y-94916731D01*
X192035890Y-94924599D01*
X192026068Y-94932411D01*
X192016202Y-94940166D01*
X192006294Y-94947865D01*
X191996343Y-94955506D01*
X191986349Y-94963089D01*
X191976313Y-94970616D01*
X191966235Y-94978084D01*
X191956115Y-94985495D01*
X191945954Y-94992848D01*
X191935751Y-95000143D01*
X191925508Y-95007380D01*
X191915224Y-95014558D01*
X191904899Y-95021678D01*
X191894534Y-95028739D01*
X191884130Y-95035741D01*
X191873685Y-95042684D01*
X191863201Y-95049568D01*
X191852678Y-95056392D01*
X191842116Y-95063157D01*
X191831516Y-95069863D01*
X191820877Y-95076509D01*
X191810200Y-95083094D01*
X191799485Y-95089620D01*
X191788733Y-95096085D01*
X191777943Y-95102490D01*
X191767116Y-95108834D01*
X191756252Y-95115118D01*
X191745352Y-95121340D01*
X191734416Y-95127502D01*
X191723444Y-95133602D01*
X191712436Y-95139641D01*
X191701392Y-95145619D01*
X191690313Y-95151534D01*
X191679198Y-95157388D01*
X191668050Y-95163180D01*
X191656866Y-95168910D01*
X191645649Y-95174577D01*
X191634397Y-95180182D01*
X191623112Y-95185724D01*
X191611794Y-95191204D01*
X191600442Y-95196620D01*
X191589057Y-95201974D01*
X191577640Y-95207264D01*
X191566190Y-95212491D01*
X191554708Y-95217654D01*
X191543194Y-95222753D01*
X191531649Y-95227788D01*
X191520072Y-95232760D01*
X191508464Y-95237667D01*
X191496826Y-95242510D01*
X191485156Y-95247288D01*
X191473457Y-95252002D01*
X191461727Y-95256651D01*
X191449968Y-95261235D01*
X191438179Y-95265753D01*
X191426361Y-95270207D01*
X191414514Y-95274594D01*
X191402638Y-95278917D01*
X191390733Y-95283173D01*
X191378800Y-95287364D01*
X191366840Y-95291488D01*
X191354851Y-95295546D01*
X191342835Y-95299538D01*
X191324528Y-95305522D01*
X191306820Y-95311229D01*
X191289856Y-95316619D01*
X191273779Y-95321648D01*
X191258733Y-95326275D01*
X191244860Y-95330457D01*
X191232305Y-95334152D01*
X191221211Y-95337318D01*
X191211722Y-95339912D01*
X191203981Y-95341893D01*
X191198132Y-95343218D01*
X191194318Y-95343844D01*
X191192682Y-95343730D01*
X191193428Y-95341893D01*
X191197089Y-95338153D01*
X191203373Y-95332737D01*
X191211989Y-95325871D01*
X191222644Y-95317781D01*
X191235046Y-95308696D01*
X191248903Y-95298842D01*
X191263923Y-95288445D01*
X191270387Y-95283995D01*
X191277036Y-95279353D01*
X191283864Y-95274523D01*
X191290870Y-95269509D01*
X191298048Y-95264314D01*
X191305395Y-95258940D01*
X191312908Y-95253392D01*
X191320581Y-95247673D01*
X191328412Y-95241787D01*
X191336397Y-95235736D01*
X191344532Y-95229525D01*
X191352813Y-95223156D01*
X191361236Y-95216633D01*
X191369797Y-95209960D01*
X191378493Y-95203140D01*
X191387320Y-95196176D01*
X191396274Y-95189071D01*
X191405351Y-95181830D01*
X191414547Y-95174455D01*
X191423859Y-95166951D01*
X191433282Y-95159319D01*
X191442814Y-95151565D01*
X191452449Y-95143691D01*
X191462185Y-95135700D01*
X191472018Y-95127597D01*
X191481943Y-95119384D01*
X191491956Y-95111065D01*
X191502055Y-95102643D01*
X191512235Y-95094122D01*
X191522493Y-95085505D01*
X191532824Y-95076795D01*
X191543224Y-95067997D01*
X191553691Y-95059113D01*
X191564220Y-95050147D01*
X191574807Y-95041102D01*
X191585449Y-95031981D01*
X191596141Y-95022789D01*
X191606880Y-95013528D01*
X191617663Y-95004202D01*
X191628484Y-94994815D01*
X191639341Y-94985369D01*
X191650230Y-94975868D01*
X191661146Y-94966316D01*
X191672087Y-94956716D01*
X191683047Y-94947071D01*
X191694024Y-94937385D01*
X191705014Y-94927661D01*
X191716012Y-94917903D01*
X191727015Y-94908114D01*
X191738019Y-94898298D01*
X191749019Y-94888457D01*
X191760014Y-94878596D01*
X191770999Y-94868717D01*
X191781970Y-94858825D01*
X191792922Y-94848922D01*
X191803853Y-94839013D01*
X191814758Y-94829099D01*
X191825633Y-94819185D01*
X191836476Y-94809275D01*
X191847281Y-94799371D01*
X191858046Y-94789477D01*
X191868766Y-94779597D01*
X191879437Y-94769734D01*
X191890056Y-94759891D01*
X191900619Y-94750071D01*
X191911122Y-94740279D01*
X191921561Y-94730517D01*
X191931933Y-94720790D01*
X191942233Y-94711099D01*
X191952458Y-94701450D01*
X191962605Y-94691845D01*
X191972668Y-94682287D01*
X191982644Y-94672781D01*
X191992531Y-94663329D01*
X192002323Y-94653934D01*
X192012016Y-94644602D01*
X192021608Y-94635334D01*
X192031095Y-94626134D01*
X192040471Y-94617005D01*
X192049735Y-94607952D01*
X192058881Y-94598977D01*
X192067906Y-94590084D01*
X192076807Y-94581276D01*
X192085579Y-94572556D01*
X192094218Y-94563929D01*
X192102722Y-94555397D01*
X192111085Y-94546965D01*
X192119304Y-94538634D01*
X192127376Y-94530409D01*
X192135296Y-94522293D01*
X192143061Y-94514290D01*
X192150667Y-94506403D01*
X192158110Y-94498636D01*
X192165386Y-94490991D01*
X192172491Y-94483472D01*
X192179422Y-94476083D01*
X192186175Y-94468827D01*
X192192746Y-94461707D01*
X192199132Y-94454728D01*
X192205327Y-94447892D01*
X192211329Y-94441202D01*
X192217134Y-94434663D01*
X192229032Y-94421053D01*
X192240214Y-94408007D01*
X192250536Y-94395710D01*
X192259851Y-94384347D01*
X192268015Y-94374104D01*
X192274881Y-94365168D01*
X192280304Y-94357723D01*
X192284139Y-94351956D01*
X192286239Y-94348053D01*
X192286460Y-94346198D01*
X192284843Y-94346215D01*
X192281257Y-94347402D01*
X192275834Y-94349692D01*
X192268705Y-94353015D01*
X192260000Y-94357303D01*
X192249852Y-94362486D01*
X192238390Y-94368497D01*
X192225746Y-94375267D01*
X192212051Y-94382726D01*
X192197436Y-94390805D01*
X192182033Y-94399437D01*
X192165972Y-94408553D01*
X192149383Y-94418083D01*
X192141380Y-94422700D01*
X192133357Y-94427312D01*
X192125313Y-94431919D01*
X192117248Y-94436521D01*
X192109159Y-94441120D01*
X192101047Y-94445715D01*
X192092910Y-94450307D01*
X192084747Y-94454896D01*
X192076556Y-94459483D01*
X192068338Y-94464069D01*
X192060090Y-94468654D01*
X192051812Y-94473238D01*
X192043503Y-94477822D01*
X192035161Y-94482407D01*
X192026786Y-94486993D01*
X192018376Y-94491580D01*
X192009930Y-94496169D01*
X192001448Y-94500761D01*
X191992928Y-94505356D01*
X191984369Y-94509954D01*
X191975771Y-94514557D01*
X191967131Y-94519163D01*
X191958450Y-94523775D01*
X191949725Y-94528393D01*
X191940956Y-94533016D01*
X191932142Y-94537646D01*
X191923282Y-94542283D01*
X191914374Y-94546927D01*
X191905418Y-94551580D01*
X191896413Y-94556241D01*
X191887357Y-94560911D01*
X191878249Y-94565590D01*
X191869088Y-94570280D01*
X191859874Y-94574980D01*
X191850606Y-94579691D01*
X191841281Y-94584414D01*
X191831899Y-94589149D01*
X191822459Y-94593896D01*
X191812961Y-94598656D01*
X191803402Y-94603430D01*
X191793782Y-94608218D01*
X191784099Y-94613020D01*
X191774353Y-94617838D01*
X191764543Y-94622671D01*
X191754668Y-94627520D01*
X191744726Y-94632386D01*
X191734717Y-94637268D01*
X191724639Y-94642169D01*
X191714490Y-94647087D01*
X191704272Y-94652024D01*
X191693981Y-94656980D01*
X191683617Y-94661955D01*
X191673180Y-94666951D01*
X191662667Y-94671967D01*
X191652078Y-94677004D01*
X191641412Y-94682063D01*
X191630668Y-94687144D01*
X191619844Y-94692248D01*
X191608940Y-94697374D01*
X191597955Y-94702524D01*
X191586887Y-94707698D01*
X191575735Y-94712897D01*
X191564499Y-94718121D01*
X191553177Y-94723371D01*
X191541769Y-94728646D01*
X191530272Y-94733948D01*
X191518687Y-94739278D01*
X191507011Y-94744634D01*
X191495245Y-94750019D01*
X191483386Y-94755433D01*
X191471435Y-94760876D01*
X191459389Y-94766348D01*
X191447247Y-94771850D01*
X191435010Y-94777383D01*
X191422675Y-94782947D01*
X191410241Y-94788543D01*
X191397708Y-94794171D01*
X191385074Y-94799831D01*
X191372339Y-94805524D01*
X191359500Y-94811252D01*
X191346558Y-94817013D01*
X191333511Y-94822809D01*
X191320358Y-94828640D01*
X191307099Y-94834506D01*
X191293730Y-94840408D01*
X191280253Y-94846347D01*
X191266666Y-94852324D01*
X191252967Y-94858338D01*
X191239156Y-94864390D01*
X191225231Y-94870481D01*
X191211192Y-94876611D01*
X191197038Y-94882781D01*
X191182767Y-94888991D01*
X191168378Y-94895241D01*
X191153870Y-94901533D01*
X191139243Y-94907866D01*
X191124494Y-94914241D01*
X191109624Y-94920660D01*
X191094631Y-94927121D01*
X191079513Y-94933626D01*
X191064271Y-94940175D01*
X191048902Y-94946768D01*
X191033406Y-94953407D01*
X191017782Y-94960092D01*
X191002028Y-94966822D01*
X190986144Y-94973600D01*
X190970128Y-94980424D01*
X190953979Y-94987296D01*
X190937697Y-94994216D01*
X190921280Y-95001185D01*
X190904728Y-95008204D01*
X190888038Y-95015271D01*
X190871211Y-95022389D01*
X190854244Y-95029558D01*
X190837138Y-95036778D01*
X190819890Y-95044050D01*
X190803103Y-95051133D01*
X190786468Y-95058173D01*
X190769983Y-95065170D01*
X190753646Y-95072125D01*
X190737458Y-95079039D01*
X190721416Y-95085911D01*
X190705519Y-95092744D01*
X190689766Y-95099536D01*
X190674156Y-95106291D01*
X190658688Y-95113007D01*
X190643360Y-95119685D01*
X190628171Y-95126327D01*
X190613120Y-95132932D01*
X190598205Y-95139502D01*
X190583427Y-95146038D01*
X190568782Y-95152539D01*
X190554270Y-95159007D01*
X190539890Y-95165442D01*
X190525641Y-95171845D01*
X190511521Y-95178216D01*
X190497529Y-95184557D01*
X190483664Y-95190868D01*
X190469925Y-95197149D01*
X190456310Y-95203402D01*
X190442818Y-95209627D01*
X190429448Y-95215824D01*
X190416199Y-95221994D01*
X190403070Y-95228139D01*
X190390058Y-95234258D01*
X190377164Y-95240353D01*
X190364386Y-95246423D01*
X190351722Y-95252471D01*
X190339172Y-95258495D01*
X190326734Y-95264498D01*
X190314407Y-95270479D01*
X190302189Y-95276440D01*
X190290080Y-95282380D01*
X190278078Y-95288302D01*
X190266182Y-95294205D01*
X190254391Y-95300089D01*
X190242704Y-95305957D01*
X190231119Y-95311808D01*
X190219635Y-95317643D01*
X190208251Y-95323463D01*
X190196966Y-95329268D01*
X190185778Y-95335060D01*
X190174686Y-95340838D01*
X190163690Y-95346604D01*
X190152787Y-95352357D01*
X190141977Y-95358100D01*
X190131258Y-95363832D01*
X190120629Y-95369554D01*
X190110089Y-95375267D01*
X190099636Y-95380972D01*
X190089271Y-95386669D01*
X190078990Y-95392358D01*
X190068793Y-95398041D01*
X190058679Y-95403718D01*
X190048646Y-95409391D01*
X190038694Y-95415058D01*
X190028821Y-95420722D01*
X190019026Y-95426383D01*
X190009307Y-95432041D01*
X189999664Y-95437698D01*
X189990094Y-95443353D01*
X189980598Y-95449008D01*
X189971174Y-95454664D01*
X189961819Y-95460320D01*
X189952535Y-95465978D01*
X189943318Y-95471638D01*
X189934168Y-95477301D01*
X189925083Y-95482967D01*
X189916063Y-95488638D01*
X189907106Y-95494314D01*
X189898211Y-95499996D01*
X189889377Y-95505684D01*
X189880602Y-95511379D01*
X189871886Y-95517081D01*
X189863226Y-95522792D01*
X189854622Y-95528512D01*
X189846073Y-95534242D01*
X189837577Y-95539982D01*
X189829133Y-95545733D01*
X189820740Y-95551496D01*
X189812396Y-95557271D01*
X189804101Y-95563059D01*
X189795853Y-95568861D01*
X189787651Y-95574677D01*
X189779494Y-95580508D01*
X189771381Y-95586356D01*
X189763309Y-95592219D01*
X189755279Y-95598100D01*
X189747289Y-95603998D01*
X189739337Y-95609915D01*
X189731422Y-95615851D01*
X189723544Y-95621807D01*
X189715701Y-95627783D01*
X189707891Y-95633780D01*
X189700114Y-95639800D01*
X189692368Y-95645841D01*
X189684652Y-95651906D01*
X189676965Y-95657995D01*
X189669305Y-95664108D01*
X189661672Y-95670246D01*
X189654064Y-95676410D01*
X189646480Y-95682601D01*
X189638919Y-95688819D01*
X189631379Y-95695065D01*
X189623859Y-95701339D01*
X189609994Y-95712684D01*
X189600016Y-95720179D01*
X189593689Y-95723922D01*
X189590779Y-95724010D01*
X189591053Y-95720539D01*
X189594275Y-95713608D01*
X189594277Y-95713606D01*
X189595589Y-95711500D01*
X189597602Y-95708760D01*
X189600293Y-95705408D01*
X189603637Y-95701468D01*
X189607611Y-95696962D01*
X189612191Y-95691913D01*
X189617354Y-95686344D01*
X189623074Y-95680276D01*
X189629330Y-95673733D01*
X189636096Y-95666737D01*
X189643349Y-95659312D01*
X189651065Y-95651479D01*
X189659221Y-95643261D01*
X189667792Y-95634682D01*
X189676755Y-95625763D01*
X189686086Y-95616527D01*
X189695762Y-95606997D01*
X189705758Y-95597196D01*
X189716050Y-95587146D01*
X189726616Y-95576870D01*
X189737430Y-95566391D01*
X189748470Y-95555730D01*
X189759711Y-95544912D01*
X189771130Y-95533958D01*
X189782702Y-95522891D01*
X189794405Y-95511734D01*
X189806214Y-95500509D01*
X189818105Y-95489240D01*
X189830056Y-95477948D01*
X189842041Y-95466656D01*
X189854037Y-95455388D01*
X189866020Y-95444166D01*
X189877967Y-95433011D01*
X189889854Y-95421948D01*
X189901657Y-95410999D01*
X189913351Y-95400185D01*
X189924914Y-95389531D01*
X189936322Y-95379058D01*
X189947550Y-95368790D01*
X189958576Y-95358749D01*
X189969374Y-95348957D01*
X189979922Y-95339437D01*
X189990195Y-95330212D01*
X190000170Y-95321305D01*
X190009823Y-95312738D01*
X190019130Y-95304534D01*
X190028067Y-95296715D01*
X190036612Y-95289304D01*
X190044738Y-95282325D01*
X190052424Y-95275798D01*
X190059645Y-95269748D01*
X190066378Y-95264196D01*
X190075868Y-95256458D01*
X190085369Y-95248742D01*
X190094880Y-95241050D01*
X190104400Y-95233380D01*
X190113931Y-95225734D01*
X190123472Y-95218111D01*
X190133024Y-95210511D01*
X190142586Y-95202933D01*
X190152159Y-95195378D01*
X190161743Y-95187846D01*
X190171338Y-95180336D01*
X190180945Y-95172849D01*
X190190562Y-95165384D01*
X190200191Y-95157942D01*
X190209832Y-95150522D01*
X190219484Y-95143124D01*
X190229148Y-95135748D01*
X190238824Y-95128394D01*
X190248513Y-95121062D01*
X190258213Y-95113752D01*
X190267926Y-95106464D01*
X190277652Y-95099197D01*
X190287390Y-95091952D01*
X190297142Y-95084729D01*
X190306906Y-95077527D01*
X190316683Y-95070346D01*
X190326474Y-95063187D01*
X190336278Y-95056049D01*
X190346096Y-95048932D01*
X190355927Y-95041836D01*
X190365772Y-95034762D01*
X190375631Y-95027708D01*
X190385504Y-95020675D01*
X190395392Y-95013662D01*
X190405294Y-95006671D01*
X190415210Y-94999699D01*
X190425141Y-94992749D01*
X190435087Y-94985819D01*
X190445048Y-94978909D01*
X190455023Y-94972020D01*
X190465015Y-94965150D01*
X190475021Y-94958301D01*
X190485043Y-94951472D01*
X190495081Y-94944663D01*
X190505134Y-94937873D01*
X190515203Y-94931104D01*
X190525289Y-94924354D01*
X190535390Y-94917624D01*
X190545508Y-94910913D01*
X190555643Y-94904222D01*
X190565794Y-94897551D01*
X190575962Y-94890898D01*
X190586146Y-94884265D01*
X190596348Y-94877651D01*
X190606567Y-94871057D01*
X190616803Y-94864481D01*
X190627057Y-94857924D01*
X190637328Y-94851386D01*
X190647617Y-94844867D01*
X190657924Y-94838367D01*
X190668249Y-94831885D01*
X190678592Y-94825422D01*
X190688954Y-94818977D01*
X190699334Y-94812550D01*
X190709732Y-94806142D01*
X190720149Y-94799752D01*
X190730585Y-94793380D01*
X190741040Y-94787026D01*
X190751514Y-94780691D01*
X190762007Y-94774373D01*
X190772520Y-94768073D01*
X190783053Y-94761790D01*
X190793605Y-94755526D01*
X190804176Y-94749278D01*
X190814768Y-94743049D01*
X190825380Y-94736837D01*
X190836012Y-94730642D01*
X190846665Y-94724464D01*
X190857338Y-94718304D01*
X190868032Y-94712161D01*
X190878746Y-94706035D01*
X190889482Y-94699926D01*
X190900239Y-94693833D01*
X190911016Y-94687758D01*
X190921816Y-94681699D01*
X190932636Y-94675657D01*
X190943479Y-94669631D01*
X190954343Y-94663622D01*
X190965229Y-94657629D01*
X190976137Y-94651653D01*
X190987067Y-94645693D01*
X190998020Y-94639749D01*
X191008995Y-94633821D01*
X191019993Y-94627909D01*
X191031013Y-94622013D01*
X191042057Y-94616133D01*
X191053123Y-94610269D01*
X191064213Y-94604420D01*
X191075326Y-94598587D01*
X191086462Y-94592770D01*
X191097622Y-94586968D01*
X191108806Y-94581181D01*
X191120014Y-94575410D01*
X191131245Y-94569654D01*
X191142501Y-94563913D01*
X191153781Y-94558187D01*
X191165086Y-94552476D01*
X191176415Y-94546780D01*
X191187768Y-94541099D01*
X191199147Y-94535432D01*
X191210551Y-94529781D01*
X191221980Y-94524143D01*
X191233434Y-94518521D01*
X191244913Y-94512913D01*
X191256418Y-94507319D01*
X191267949Y-94501739D01*
X191279505Y-94496174D01*
X191291088Y-94490622D01*
X191302696Y-94485085D01*
X191314331Y-94479562D01*
X191325993Y-94474052D01*
X191337680Y-94468557D01*
X191349395Y-94463075D01*
X191361136Y-94457606D01*
X191372904Y-94452152D01*
X191384700Y-94446710D01*
X191396522Y-94441283D01*
X191408372Y-94435868D01*
X191420249Y-94430467D01*
X191432154Y-94425079D01*
X191444087Y-94419704D01*
X191456048Y-94414342D01*
X191468037Y-94408993D01*
X191480054Y-94403656D01*
X191492099Y-94398333D01*
X191504173Y-94393022D01*
X191516275Y-94387724D01*
X191528406Y-94382438D01*
X191540566Y-94377165D01*
X191552756Y-94371904D01*
X191564974Y-94366656D01*
X191577221Y-94361419D01*
X191589498Y-94356195D01*
X191601805Y-94350983D01*
X191614142Y-94345783D01*
X191626508Y-94340595D01*
X191638904Y-94335419D01*
X191651331Y-94330254D01*
X191663787Y-94325101D01*
X191676274Y-94319960D01*
X191688792Y-94314830D01*
X191701341Y-94309711D01*
X191713920Y-94304604D01*
X191726530Y-94299508D01*
X191739172Y-94294424D01*
X191751843Y-94289350D01*
X191764548Y-94284288D01*
X191777283Y-94279236D01*
X191790051Y-94274195D01*
X191802850Y-94269166D01*
X191815681Y-94264146D01*
X191828544Y-94259138D01*
X191841440Y-94254140D01*
X191854368Y-94249152D01*
X191867328Y-94244175D01*
X191879518Y-94239525D01*
X191892013Y-94234797D01*
X191904799Y-94229996D01*
X191917861Y-94225127D01*
X191931185Y-94220194D01*
X191944756Y-94215203D01*
X191958558Y-94210158D01*
X191972579Y-94205064D01*
X191986802Y-94199925D01*
X192001213Y-94194746D01*
X192015798Y-94189533D01*
X192030541Y-94184290D01*
X192045429Y-94179021D01*
X192060446Y-94173732D01*
X192075577Y-94168426D01*
X192090809Y-94163110D01*
X192106126Y-94157787D01*
X192121514Y-94152463D01*
X192136958Y-94147142D01*
X192152443Y-94141828D01*
X192167955Y-94136528D01*
X192183478Y-94131245D01*
X192198999Y-94125983D01*
X192214503Y-94120749D01*
X192229974Y-94115547D01*
X192245399Y-94110381D01*
X192260763Y-94105256D01*
X192276050Y-94100177D01*
X192291246Y-94095149D01*
X192306337Y-94090176D01*
X192321308Y-94085263D01*
X192336144Y-94080416D01*
X192350830Y-94075638D01*
X192365352Y-94070934D01*
X192379696Y-94066310D01*
X192393845Y-94061770D01*
X192407787Y-94057318D01*
X192421506Y-94052960D01*
X192434987Y-94048700D01*
X192448215Y-94044544D01*
X192461177Y-94040494D01*
X192473857Y-94036558D01*
X192486241Y-94032739D01*
X192498314Y-94029041D01*
X192510061Y-94025471D01*
X192521467Y-94022032D01*
X192532519Y-94018729D01*
X192543201Y-94015567D01*
X192553498Y-94012552D01*
X192563397Y-94009686D01*
X192572881Y-94006976D01*
X192581938Y-94004426D01*
X192590551Y-94002041D01*
X192598706Y-93999825D01*
X192606389Y-93997784D01*
X192613584Y-93995922D01*
X192620278Y-93994243D01*
X192626455Y-93992754D01*
X192632101Y-93991457D01*
X192637201Y-93990359D01*
X192641741Y-93989463D01*
X192645705Y-93988775D01*
X192649080Y-93988300D01*
X192651849Y-93988041D01*
X192654000Y-93988004D01*
X192655516Y-93988194D01*
G37*
%TD*%
D11*
%TO.C,J1*%
X206900000Y-97500000D03*
D12*
X209440000Y-97500000D03*
X206900000Y-100040000D03*
X209440000Y-100040000D03*
X206900000Y-102580000D03*
X209440000Y-102580000D03*
%TD*%
D13*
%TO.C,R2*%
X194274000Y-102670127D03*
X193764000Y-103553473D03*
%TD*%
D14*
%TO.C,J2*%
X200025000Y-92150000D03*
D15*
X197485000Y-89610000D03*
X197485000Y-94690000D03*
X202565000Y-89610000D03*
X202565000Y-94690000D03*
%TD*%
M02*
