%TF.GenerationSoftware,KiCad,Pcbnew,9.0.6*%
%TF.CreationDate,2026-06-14T18:39:00-04:00*%
%TF.ProjectId,tiav3_s14160,74696176-335f-4733-9134-3136302e6b69,rev?*%
%TF.SameCoordinates,Original*%
%TF.FileFunction,Paste,Bot*%
%TF.FilePolarity,Positive*%
%FSLAX46Y46*%
G04 Gerber Fmt 4.6, Leading zero omitted, Abs format (unit mm)*
G04 Created by KiCad (PCBNEW 9.0.6) date 2026-06-14 18:39:00*
%MOMM*%
%LPD*%
G01*
G04 APERTURE LIST*
G04 Aperture macros list*
%AMRoundRect*
0 Rectangle with rounded corners*
0 $1 Rounding radius*
0 $2 $3 $4 $5 $6 $7 $8 $9 X,Y pos of 4 corners*
0 Add a 4 corners polygon primitive as box body*
4,1,4,$2,$3,$4,$5,$6,$7,$8,$9,$2,$3,0*
0 Add four circle primitives for the rounded corners*
1,1,$1+$1,$2,$3*
1,1,$1+$1,$4,$5*
1,1,$1+$1,$6,$7*
1,1,$1+$1,$8,$9*
0 Add four rect primitives between the rounded corners*
20,1,$1+$1,$2,$3,$4,$5,0*
20,1,$1+$1,$4,$5,$6,$7,0*
20,1,$1+$1,$6,$7,$8,$9,0*
20,1,$1+$1,$8,$9,$2,$3,0*%
G04 Aperture macros list end*
%ADD10RoundRect,0.250000X-0.650000X0.325000X-0.650000X-0.325000X0.650000X-0.325000X0.650000X0.325000X0*%
%ADD11RoundRect,0.140000X0.170000X-0.140000X0.170000X0.140000X-0.170000X0.140000X-0.170000X-0.140000X0*%
%ADD12RoundRect,0.140000X0.140000X0.170000X-0.140000X0.170000X-0.140000X-0.170000X0.140000X-0.170000X0*%
%ADD13RoundRect,0.225000X0.250000X-0.225000X0.250000X0.225000X-0.250000X0.225000X-0.250000X-0.225000X0*%
%ADD14RoundRect,0.135000X-0.185000X0.135000X-0.185000X-0.135000X0.185000X-0.135000X0.185000X0.135000X0*%
%ADD15RoundRect,0.160000X0.197500X0.160000X-0.197500X0.160000X-0.197500X-0.160000X0.197500X-0.160000X0*%
%ADD16RoundRect,0.135000X0.135000X0.185000X-0.135000X0.185000X-0.135000X-0.185000X0.135000X-0.185000X0*%
%ADD17RoundRect,0.237500X-0.237500X0.287500X-0.237500X-0.287500X0.237500X-0.287500X0.237500X0.287500X0*%
%ADD18RoundRect,0.140000X-0.170000X0.140000X-0.170000X-0.140000X0.170000X-0.140000X0.170000X0.140000X0*%
%ADD19RoundRect,0.135000X0.185000X-0.135000X0.185000X0.135000X-0.185000X0.135000X-0.185000X-0.135000X0*%
%ADD20R,1.473200X0.558800*%
%ADD21C,0.700000*%
%ADD22RoundRect,0.218750X0.256250X-0.218750X0.256250X0.218750X-0.256250X0.218750X-0.256250X-0.218750X0*%
G04 APERTURE END LIST*
D10*
%TO.C,C1*%
X200400000Y-103475000D03*
X200400000Y-106425000D03*
%TD*%
D11*
%TO.C,C7*%
X192250000Y-98580000D03*
X192250000Y-97620000D03*
%TD*%
D12*
%TO.C,C5*%
X194859200Y-103063400D03*
X193899200Y-103063400D03*
%TD*%
D13*
%TO.C,C8*%
X193500000Y-98310000D03*
X193500000Y-96760000D03*
%TD*%
D14*
%TO.C,R3*%
X194750000Y-97560000D03*
X194750000Y-98580000D03*
%TD*%
D15*
%TO.C,R11*%
X206897500Y-106700000D03*
X205702500Y-106700000D03*
%TD*%
D16*
%TO.C,R23*%
X197385000Y-100020000D03*
X196365000Y-100020000D03*
%TD*%
D17*
%TO.C,L1*%
X197425000Y-103445000D03*
X197425000Y-105195000D03*
%TD*%
D16*
%TO.C,R1*%
X192760000Y-102758600D03*
X191740000Y-102758600D03*
%TD*%
D18*
%TO.C,C9*%
X191600000Y-100915000D03*
X191600000Y-101875000D03*
%TD*%
D19*
%TO.C,R5*%
X197418000Y-102130000D03*
X197418000Y-101110000D03*
%TD*%
D20*
%TO.C,U1*%
X192964800Y-101930001D03*
X192964800Y-100980000D03*
X192964800Y-100029999D03*
X195200000Y-100029999D03*
X195200000Y-100980000D03*
X195200000Y-101930001D03*
%TD*%
D19*
%TO.C,R7*%
X195900000Y-98570000D03*
X195900000Y-97550000D03*
%TD*%
D11*
%TO.C,C3*%
X190475000Y-99550000D03*
X190475000Y-98590000D03*
%TD*%
D21*
%TO.C,D2*%
X200000000Y-100000000D03*
X201100000Y-101100000D03*
X201100000Y-98900000D03*
X198900000Y-101100000D03*
X198900000Y-98900000D03*
%TD*%
D12*
%TO.C,C2*%
X190880000Y-103070000D03*
X189920000Y-103070000D03*
%TD*%
D18*
%TO.C,C6*%
X197090000Y-97570000D03*
X197090000Y-98530000D03*
%TD*%
D22*
%TO.C,L2*%
X190450000Y-102107500D03*
X190450000Y-100532500D03*
%TD*%
D10*
%TO.C,C4*%
X203000000Y-103475000D03*
X203000000Y-106425000D03*
%TD*%
M02*
