G04 #@! TF.GenerationSoftware,KiCad,Pcbnew,9.0.6*
G04 #@! TF.CreationDate,2026-05-25T14:22:23-04:00*
G04 #@! TF.ProjectId,tiav3_s14160,74696176-335f-4733-9134-3136302e6b69,rev?*
G04 #@! TF.SameCoordinates,Original*
G04 #@! TF.FileFunction,Copper,L2,Inr*
G04 #@! TF.FilePolarity,Positive*
%FSLAX46Y46*%
G04 Gerber Fmt 4.6, Leading zero omitted, Abs format (unit mm)*
G04 Created by KiCad (PCBNEW 9.0.6) date 2026-05-25 14:22:23*
%MOMM*%
%LPD*%
G01*
G04 APERTURE LIST*
G04 #@! TA.AperFunction,ComponentPad*
%ADD10R,1.700000X1.700000*%
G04 #@! TD*
G04 #@! TA.AperFunction,ComponentPad*
%ADD11O,1.700000X1.700000*%
G04 #@! TD*
G04 #@! TA.AperFunction,ComponentPad*
%ADD12C,2.240000*%
G04 #@! TD*
G04 #@! TA.AperFunction,ComponentPad*
%ADD13C,2.740000*%
G04 #@! TD*
G04 #@! TA.AperFunction,ViaPad*
%ADD14C,0.450000*%
G04 #@! TD*
G04 APERTURE END LIST*
D10*
X206900000Y-97500000D03*
D11*
X209440000Y-97500000D03*
X206900000Y-100040000D03*
X209440000Y-100040000D03*
X206900000Y-102580000D03*
X209440000Y-102580000D03*
D12*
X200025000Y-92150000D03*
D13*
X197485000Y-89610000D03*
X197485000Y-94690000D03*
X202565000Y-89610000D03*
X202565000Y-94690000D03*
D14*
X191636000Y-104100000D03*
X189552584Y-104499582D03*
X200450000Y-106400000D03*
X202950000Y-106400000D03*
X195675000Y-97700000D03*
X197450000Y-108350000D03*
X190400000Y-100025000D03*
X195050000Y-100750000D03*
X193414000Y-105320800D03*
X195000000Y-99550000D03*
X194894000Y-104504000D03*
X192100000Y-103100000D03*
X193394000Y-104014599D03*
X196650000Y-97125000D03*
X194750000Y-102200000D03*
G04 #@! TA.AperFunction,Conductor*
G36*
X197945191Y-100062907D02*
G01*
X197981155Y-100112407D01*
X197986000Y-100143000D01*
X197986000Y-102250000D01*
X201542000Y-102222000D01*
X201542000Y-100143000D01*
X201560907Y-100084809D01*
X201610407Y-100048845D01*
X201641000Y-100044000D01*
X207940000Y-100044000D01*
X207998191Y-100062907D01*
X208034155Y-100112407D01*
X208039000Y-100143000D01*
X208039000Y-101800595D01*
X208020093Y-101858786D01*
X207970593Y-101894750D01*
X207909407Y-101894750D01*
X207859908Y-101858786D01*
X207815694Y-101797932D01*
X207815692Y-101797930D01*
X207815690Y-101797927D01*
X207682073Y-101664310D01*
X207529199Y-101553240D01*
X207529198Y-101553239D01*
X207529196Y-101553238D01*
X207360832Y-101467453D01*
X207181113Y-101409058D01*
X206994484Y-101379500D01*
X206994481Y-101379500D01*
X206805519Y-101379500D01*
X206805516Y-101379500D01*
X206618886Y-101409058D01*
X206439167Y-101467453D01*
X206270803Y-101553238D01*
X206117928Y-101664309D01*
X205984309Y-101797928D01*
X205873238Y-101950803D01*
X205787453Y-102119167D01*
X205729058Y-102298886D01*
X205699500Y-102485515D01*
X205699500Y-102674484D01*
X205729058Y-102861113D01*
X205729060Y-102861118D01*
X205787453Y-103040832D01*
X205873240Y-103209199D01*
X205984310Y-103362073D01*
X206117927Y-103495690D01*
X206270801Y-103606760D01*
X206439168Y-103692547D01*
X206618882Y-103750940D01*
X206618883Y-103750940D01*
X206618886Y-103750941D01*
X206805516Y-103780500D01*
X206805519Y-103780500D01*
X206994484Y-103780500D01*
X207181113Y-103750941D01*
X207181114Y-103750940D01*
X207181118Y-103750940D01*
X207360832Y-103692547D01*
X207529199Y-103606760D01*
X207682073Y-103495690D01*
X207815690Y-103362073D01*
X207859908Y-103301212D01*
X207909408Y-103265249D01*
X207970593Y-103265249D01*
X208020093Y-103301213D01*
X208039000Y-103359404D01*
X208039000Y-107031000D01*
X208020093Y-107089191D01*
X207970593Y-107125155D01*
X207940000Y-107130000D01*
X203201145Y-107130000D01*
X203142954Y-107111093D01*
X203106990Y-107061593D01*
X203106990Y-107000407D01*
X203142954Y-106950907D01*
X203166517Y-106939668D01*
X203166143Y-106938763D01*
X203172129Y-106936282D01*
X203172135Y-106936281D01*
X203303365Y-106860515D01*
X203410515Y-106753365D01*
X203486281Y-106622135D01*
X203525500Y-106475766D01*
X203525500Y-106324234D01*
X203486281Y-106177865D01*
X203486279Y-106177862D01*
X203486279Y-106177860D01*
X203410518Y-106046639D01*
X203410516Y-106046637D01*
X203410515Y-106046635D01*
X203303365Y-105939485D01*
X203303362Y-105939483D01*
X203303360Y-105939481D01*
X203172138Y-105863720D01*
X203172140Y-105863720D01*
X203115347Y-105848503D01*
X203025766Y-105824500D01*
X202874234Y-105824500D01*
X202784652Y-105848503D01*
X202727860Y-105863720D01*
X202596639Y-105939481D01*
X202489481Y-106046639D01*
X202413720Y-106177860D01*
X202413719Y-106177865D01*
X202374500Y-106324234D01*
X202374500Y-106475766D01*
X202409086Y-106604847D01*
X202413720Y-106622139D01*
X202489481Y-106753360D01*
X202489483Y-106753362D01*
X202489485Y-106753365D01*
X202596635Y-106860515D01*
X202596637Y-106860516D01*
X202596639Y-106860518D01*
X202727861Y-106936279D01*
X202727862Y-106936279D01*
X202727865Y-106936281D01*
X202727867Y-106936281D01*
X202733857Y-106938763D01*
X202732975Y-106940891D01*
X202775793Y-106968698D01*
X202797719Y-107025820D01*
X202781883Y-107084920D01*
X202734332Y-107123425D01*
X202698855Y-107130000D01*
X200701145Y-107130000D01*
X200642954Y-107111093D01*
X200606990Y-107061593D01*
X200606990Y-107000407D01*
X200642954Y-106950907D01*
X200666517Y-106939668D01*
X200666143Y-106938763D01*
X200672129Y-106936282D01*
X200672135Y-106936281D01*
X200803365Y-106860515D01*
X200910515Y-106753365D01*
X200986281Y-106622135D01*
X201025500Y-106475766D01*
X201025500Y-106324234D01*
X200986281Y-106177865D01*
X200986279Y-106177862D01*
X200986279Y-106177860D01*
X200910518Y-106046639D01*
X200910516Y-106046637D01*
X200910515Y-106046635D01*
X200803365Y-105939485D01*
X200803362Y-105939483D01*
X200803360Y-105939481D01*
X200672138Y-105863720D01*
X200672140Y-105863720D01*
X200615347Y-105848503D01*
X200525766Y-105824500D01*
X200374234Y-105824500D01*
X200284652Y-105848503D01*
X200227860Y-105863720D01*
X200096639Y-105939481D01*
X199989481Y-106046639D01*
X199913720Y-106177860D01*
X199913719Y-106177865D01*
X199874500Y-106324234D01*
X199874500Y-106475766D01*
X199909086Y-106604847D01*
X199913720Y-106622139D01*
X199989481Y-106753360D01*
X199989483Y-106753362D01*
X199989485Y-106753365D01*
X200096635Y-106860515D01*
X200096637Y-106860516D01*
X200096639Y-106860518D01*
X200227861Y-106936279D01*
X200227862Y-106936279D01*
X200227865Y-106936281D01*
X200227867Y-106936281D01*
X200233857Y-106938763D01*
X200232975Y-106940891D01*
X200275793Y-106968698D01*
X200297719Y-107025820D01*
X200281883Y-107084920D01*
X200234332Y-107123425D01*
X200198855Y-107130000D01*
X198449000Y-107130000D01*
X198390809Y-107111093D01*
X198354845Y-107061593D01*
X198350000Y-107031000D01*
X198350000Y-104925001D01*
X198350000Y-104925000D01*
X196450000Y-104925000D01*
X196450000Y-104925001D01*
X196450000Y-107031000D01*
X196431093Y-107089191D01*
X196381593Y-107125155D01*
X196351000Y-107130000D01*
X194461000Y-107130000D01*
X194402809Y-107111093D01*
X194366845Y-107061593D01*
X194362000Y-107031000D01*
X194362000Y-104480000D01*
X194380907Y-104421809D01*
X194430407Y-104385845D01*
X194461000Y-104381000D01*
X195453999Y-104381000D01*
X195454000Y-104381000D01*
X195454000Y-102575001D01*
X195472907Y-102516810D01*
X195522407Y-102480846D01*
X195552995Y-102476001D01*
X196842043Y-102475997D01*
X196844000Y-101736800D01*
X196843999Y-101736800D01*
X195125241Y-101736800D01*
X195075740Y-101723536D01*
X194972137Y-101663720D01*
X194972136Y-101663719D01*
X194972135Y-101663719D01*
X194825766Y-101624500D01*
X194674234Y-101624500D01*
X194527865Y-101663719D01*
X194527864Y-101663719D01*
X194527862Y-101663720D01*
X194510501Y-101673744D01*
X194450652Y-101686466D01*
X194394757Y-101661580D01*
X194364164Y-101608592D01*
X194362000Y-101588008D01*
X194362000Y-101078823D01*
X194380907Y-101020632D01*
X194430407Y-100984668D01*
X194491593Y-100984668D01*
X194541093Y-101020632D01*
X194546736Y-101029323D01*
X194589481Y-101103360D01*
X194589483Y-101103362D01*
X194589485Y-101103365D01*
X194696635Y-101210515D01*
X194696637Y-101210516D01*
X194696639Y-101210518D01*
X194827861Y-101286279D01*
X194827859Y-101286279D01*
X194827863Y-101286280D01*
X194827865Y-101286281D01*
X194974234Y-101325500D01*
X194974236Y-101325500D01*
X195125764Y-101325500D01*
X195125766Y-101325500D01*
X195272135Y-101286281D01*
X195272137Y-101286279D01*
X195272139Y-101286279D01*
X195403360Y-101210518D01*
X195403360Y-101210517D01*
X195403365Y-101210515D01*
X195510515Y-101103365D01*
X195510518Y-101103360D01*
X195586279Y-100972139D01*
X195586279Y-100972137D01*
X195586281Y-100972135D01*
X195625500Y-100825766D01*
X195625500Y-100674234D01*
X195586281Y-100527865D01*
X195586279Y-100527862D01*
X195586279Y-100527860D01*
X195510518Y-100396639D01*
X195510516Y-100396637D01*
X195510515Y-100396635D01*
X195403365Y-100289485D01*
X195403362Y-100289483D01*
X195403360Y-100289481D01*
X195298147Y-100228736D01*
X195257206Y-100183267D01*
X195250810Y-100122416D01*
X195281403Y-100069428D01*
X195337299Y-100044542D01*
X195347647Y-100044000D01*
X197887000Y-100044000D01*
X197945191Y-100062907D01*
G37*
G04 #@! TD.AperFunction*
G04 #@! TA.AperFunction,Conductor*
G36*
X200357958Y-87341037D02*
G01*
X201061657Y-87380556D01*
X201067153Y-87381019D01*
X201767579Y-87459938D01*
X201773060Y-87460712D01*
X202467905Y-87578771D01*
X202473341Y-87579852D01*
X203160499Y-87736692D01*
X203165840Y-87738069D01*
X203843154Y-87933200D01*
X203848403Y-87934874D01*
X204513676Y-88167663D01*
X204518839Y-88169633D01*
X205170023Y-88439362D01*
X205175064Y-88441617D01*
X205810110Y-88747440D01*
X205815017Y-88749976D01*
X206280313Y-89007136D01*
X206431880Y-89090904D01*
X206436660Y-89093723D01*
X206673029Y-89242244D01*
X207033445Y-89468708D01*
X207038059Y-89471791D01*
X207058647Y-89486399D01*
X207612883Y-89879650D01*
X207617320Y-89882990D01*
X208168341Y-90322414D01*
X208172584Y-90325996D01*
X208679063Y-90778614D01*
X208698119Y-90795643D01*
X208702155Y-90799458D01*
X209200541Y-91297844D01*
X209204356Y-91301880D01*
X209674003Y-91827415D01*
X209677585Y-91831658D01*
X210117009Y-92382679D01*
X210120349Y-92387116D01*
X210528206Y-92961937D01*
X210531291Y-92966554D01*
X210906274Y-93563336D01*
X210909095Y-93568119D01*
X211250016Y-94184969D01*
X211252565Y-94189902D01*
X211558375Y-94824921D01*
X211560643Y-94829990D01*
X211830361Y-95481148D01*
X211832341Y-95486336D01*
X212065118Y-96151575D01*
X212066805Y-96156866D01*
X212261924Y-96834137D01*
X212263311Y-96839515D01*
X212420146Y-97526657D01*
X212421229Y-97532103D01*
X212539285Y-98226930D01*
X212540062Y-98232429D01*
X212618978Y-98932828D01*
X212619444Y-98938361D01*
X212658962Y-99642041D01*
X212659118Y-99647592D01*
X212659118Y-100352407D01*
X212658962Y-100357958D01*
X212619444Y-101061638D01*
X212618978Y-101067171D01*
X212540062Y-101767570D01*
X212539285Y-101773069D01*
X212421229Y-102467896D01*
X212420146Y-102473342D01*
X212263311Y-103160484D01*
X212261924Y-103165862D01*
X212066805Y-103843133D01*
X212065118Y-103848424D01*
X211832341Y-104513663D01*
X211830361Y-104518851D01*
X211560643Y-105170009D01*
X211558375Y-105175078D01*
X211252565Y-105810097D01*
X211250016Y-105815030D01*
X210909095Y-106431880D01*
X210906274Y-106436663D01*
X210531291Y-107033445D01*
X210528206Y-107038062D01*
X210120349Y-107612883D01*
X210117009Y-107617320D01*
X209677585Y-108168341D01*
X209674003Y-108172584D01*
X209204356Y-108698119D01*
X209200541Y-108702155D01*
X208702155Y-109200541D01*
X208698119Y-109204356D01*
X208172584Y-109674003D01*
X208168341Y-109677585D01*
X207617320Y-110117009D01*
X207612883Y-110120349D01*
X207038062Y-110528206D01*
X207033445Y-110531291D01*
X206436663Y-110906274D01*
X206431880Y-110909095D01*
X205815030Y-111250016D01*
X205810097Y-111252565D01*
X205175078Y-111558375D01*
X205170009Y-111560643D01*
X204518851Y-111830361D01*
X204513663Y-111832341D01*
X203848424Y-112065118D01*
X203843133Y-112066805D01*
X203165862Y-112261924D01*
X203160484Y-112263311D01*
X202473342Y-112420146D01*
X202467896Y-112421229D01*
X202058039Y-112490866D01*
X202041831Y-112492264D01*
X198047955Y-112507392D01*
X198030997Y-112505994D01*
X197532103Y-112421229D01*
X197526657Y-112420146D01*
X196839515Y-112263311D01*
X196834137Y-112261924D01*
X196156866Y-112066805D01*
X196151575Y-112065118D01*
X195486336Y-111832341D01*
X195481148Y-111830361D01*
X194829990Y-111560643D01*
X194824921Y-111558375D01*
X194189902Y-111252565D01*
X194184969Y-111250016D01*
X193568119Y-110909095D01*
X193563336Y-110906274D01*
X192966554Y-110531291D01*
X192961937Y-110528206D01*
X192387116Y-110120349D01*
X192382679Y-110117009D01*
X191831658Y-109677585D01*
X191827415Y-109674003D01*
X191301880Y-109204356D01*
X191297844Y-109200541D01*
X190799458Y-108702155D01*
X190795643Y-108698119D01*
X190325996Y-108172584D01*
X190322414Y-108168341D01*
X189882990Y-107617320D01*
X189879650Y-107612883D01*
X189506251Y-107086626D01*
X189471791Y-107038059D01*
X189468708Y-107033445D01*
X189093725Y-106436663D01*
X189090904Y-106431880D01*
X188749983Y-105815030D01*
X188747434Y-105810097D01*
X188675770Y-105661286D01*
X188441617Y-105175064D01*
X188439356Y-105170009D01*
X188433786Y-105156563D01*
X188169633Y-104518839D01*
X188167658Y-104513663D01*
X188143129Y-104443564D01*
X189127084Y-104443564D01*
X189127084Y-104555600D01*
X189152656Y-104651037D01*
X189156082Y-104663823D01*
X189212097Y-104760842D01*
X189212099Y-104760845D01*
X189291321Y-104840067D01*
X189291323Y-104840068D01*
X189388343Y-104896083D01*
X189388341Y-104896083D01*
X189388345Y-104896084D01*
X189388347Y-104896085D01*
X189496566Y-104925082D01*
X189496568Y-104925082D01*
X189608600Y-104925082D01*
X189608602Y-104925082D01*
X189716821Y-104896085D01*
X189716823Y-104896083D01*
X189716825Y-104896083D01*
X189751677Y-104875961D01*
X189813847Y-104840067D01*
X189893069Y-104760845D01*
X189949087Y-104663819D01*
X189978084Y-104555600D01*
X189978084Y-104443564D01*
X189949087Y-104335345D01*
X189949085Y-104335342D01*
X189949085Y-104335340D01*
X189893070Y-104238321D01*
X189893069Y-104238319D01*
X189813847Y-104159097D01*
X189751722Y-104123229D01*
X189751720Y-104123227D01*
X189716824Y-104103080D01*
X189716826Y-104103080D01*
X189659619Y-104087752D01*
X189608602Y-104074082D01*
X189496566Y-104074082D01*
X189445549Y-104087752D01*
X189388342Y-104103080D01*
X189291323Y-104159095D01*
X189212097Y-104238321D01*
X189156082Y-104335340D01*
X189156081Y-104335345D01*
X189127084Y-104443564D01*
X188143129Y-104443564D01*
X188003310Y-104043982D01*
X191210500Y-104043982D01*
X191210500Y-104156018D01*
X191224430Y-104208005D01*
X191239498Y-104264241D01*
X191280548Y-104335340D01*
X191295515Y-104361263D01*
X191374737Y-104440485D01*
X191374739Y-104440486D01*
X191471759Y-104496501D01*
X191471757Y-104496501D01*
X191471761Y-104496502D01*
X191471763Y-104496503D01*
X191579982Y-104525500D01*
X191579984Y-104525500D01*
X191692016Y-104525500D01*
X191692018Y-104525500D01*
X191800237Y-104496503D01*
X191800239Y-104496501D01*
X191800241Y-104496501D01*
X191829064Y-104479859D01*
X191897263Y-104440485D01*
X191976485Y-104361263D01*
X192032503Y-104264237D01*
X192054482Y-104182209D01*
X192087805Y-104130897D01*
X192144926Y-104108970D01*
X192204027Y-104124805D01*
X192242532Y-104172355D01*
X192249107Y-104208004D01*
X192248800Y-104386478D01*
X192248800Y-105232800D01*
X192889500Y-105232800D01*
X192947691Y-105251707D01*
X192983655Y-105301207D01*
X192988500Y-105331800D01*
X192988500Y-105376818D01*
X192996502Y-105406681D01*
X193017498Y-105485041D01*
X193073513Y-105582060D01*
X193073515Y-105582063D01*
X193152737Y-105661285D01*
X193152739Y-105661286D01*
X193249759Y-105717301D01*
X193249757Y-105717301D01*
X193249761Y-105717302D01*
X193249763Y-105717303D01*
X193357982Y-105746300D01*
X193357984Y-105746300D01*
X193470016Y-105746300D01*
X193470018Y-105746300D01*
X193578237Y-105717303D01*
X193578239Y-105717301D01*
X193578241Y-105717301D01*
X193607064Y-105700659D01*
X193675263Y-105661285D01*
X193754485Y-105582063D01*
X193810503Y-105485037D01*
X193811873Y-105479920D01*
X193845197Y-105428608D01*
X193902318Y-105406681D01*
X193961419Y-105422516D01*
X193999924Y-105470066D01*
X194006500Y-105505545D01*
X194006500Y-107031000D01*
X194006878Y-107035797D01*
X194010876Y-107086602D01*
X194010878Y-107086626D01*
X194015719Y-107117192D01*
X194015720Y-107117198D01*
X194026974Y-107165844D01*
X194079240Y-107270551D01*
X194092700Y-107289078D01*
X194115198Y-107320044D01*
X194115203Y-107320049D01*
X194115204Y-107320051D01*
X194189126Y-107395206D01*
X194292956Y-107449194D01*
X194351147Y-107468101D01*
X194381908Y-107472973D01*
X194460997Y-107485500D01*
X196351000Y-107485500D01*
X196409191Y-107504407D01*
X196445155Y-107553907D01*
X196450000Y-107584500D01*
X196450000Y-107975000D01*
X197003708Y-107975000D01*
X197061899Y-107993907D01*
X197097863Y-108043407D01*
X197097863Y-108104593D01*
X197089444Y-108123500D01*
X197053498Y-108185758D01*
X197053497Y-108185763D01*
X197024500Y-108293982D01*
X197024500Y-108406018D01*
X197050072Y-108501455D01*
X197053498Y-108514241D01*
X197109513Y-108611260D01*
X197109515Y-108611263D01*
X197188737Y-108690485D01*
X197208950Y-108702155D01*
X197285759Y-108746501D01*
X197285757Y-108746501D01*
X197285761Y-108746502D01*
X197285763Y-108746503D01*
X197393982Y-108775500D01*
X197393984Y-108775500D01*
X197506016Y-108775500D01*
X197506018Y-108775500D01*
X197614237Y-108746503D01*
X197614239Y-108746501D01*
X197614241Y-108746501D01*
X197663512Y-108718054D01*
X197711263Y-108690485D01*
X197790485Y-108611263D01*
X197846503Y-108514237D01*
X197875500Y-108406018D01*
X197875500Y-108293982D01*
X197846503Y-108185763D01*
X197846501Y-108185760D01*
X197846501Y-108185758D01*
X197810556Y-108123500D01*
X197797834Y-108063652D01*
X197822720Y-108007756D01*
X197875708Y-107977163D01*
X197896292Y-107975000D01*
X198349999Y-107975000D01*
X198350000Y-107975000D01*
X198350000Y-107584500D01*
X198368907Y-107526309D01*
X198418407Y-107490345D01*
X198449000Y-107485500D01*
X200198849Y-107485500D01*
X200198855Y-107485500D01*
X200263637Y-107479548D01*
X200299114Y-107472973D01*
X200356223Y-107457376D01*
X200401644Y-107431649D01*
X200461595Y-107419424D01*
X200496105Y-107429958D01*
X200533092Y-107449190D01*
X200533101Y-107449194D01*
X200591292Y-107468101D01*
X200622053Y-107472973D01*
X200701142Y-107485500D01*
X200701145Y-107485500D01*
X202698849Y-107485500D01*
X202698855Y-107485500D01*
X202763637Y-107479548D01*
X202799114Y-107472973D01*
X202856223Y-107457376D01*
X202901644Y-107431649D01*
X202961595Y-107419424D01*
X202996105Y-107429958D01*
X203033092Y-107449190D01*
X203033101Y-107449194D01*
X203091292Y-107468101D01*
X203122053Y-107472973D01*
X203201142Y-107485500D01*
X203201145Y-107485500D01*
X207939994Y-107485500D01*
X207940000Y-107485500D01*
X207995607Y-107481124D01*
X208026200Y-107476279D01*
X208074844Y-107465026D01*
X208179551Y-107412760D01*
X208229051Y-107376796D01*
X208304206Y-107302874D01*
X208358194Y-107199044D01*
X208377101Y-107140853D01*
X208391453Y-107050237D01*
X208394500Y-107031003D01*
X208394500Y-103359400D01*
X208377102Y-103249555D01*
X208377101Y-103249551D01*
X208358194Y-103191360D01*
X208311115Y-103097040D01*
X208299479Y-103085210D01*
X208299478Y-103085208D01*
X208229057Y-103013613D01*
X208229053Y-103013610D01*
X208229051Y-103013608D01*
X208179551Y-102977644D01*
X208086024Y-102929011D01*
X208008305Y-102916042D01*
X207954020Y-102887814D01*
X207926695Y-102833069D01*
X207927503Y-102799078D01*
X207950500Y-102683465D01*
X207950500Y-102476535D01*
X207950499Y-102476532D01*
X208389500Y-102476532D01*
X208389500Y-102683467D01*
X208429870Y-102886419D01*
X208429870Y-102886421D01*
X208470854Y-102985366D01*
X208470859Y-102985377D01*
X208509059Y-103077598D01*
X208544387Y-103130471D01*
X208544388Y-103130472D01*
X208623953Y-103249551D01*
X208624023Y-103249655D01*
X208770345Y-103395977D01*
X208942402Y-103510941D01*
X209133580Y-103590130D01*
X209336535Y-103630500D01*
X209336536Y-103630500D01*
X209543464Y-103630500D01*
X209543465Y-103630500D01*
X209746420Y-103590130D01*
X209937598Y-103510941D01*
X210109655Y-103395977D01*
X210255977Y-103249655D01*
X210370941Y-103077598D01*
X210450130Y-102886420D01*
X210490500Y-102683465D01*
X210490500Y-102476535D01*
X210450130Y-102273580D01*
X210370941Y-102082402D01*
X210255977Y-101910345D01*
X210109655Y-101764023D01*
X210109651Y-101764020D01*
X209937597Y-101649058D01*
X209746418Y-101569869D01*
X209543467Y-101529500D01*
X209543465Y-101529500D01*
X209336535Y-101529500D01*
X209336532Y-101529500D01*
X209133581Y-101569869D01*
X208942402Y-101649058D01*
X208770348Y-101764020D01*
X208624020Y-101910348D01*
X208541086Y-102034469D01*
X208493036Y-102072349D01*
X208450288Y-102074028D01*
X208453612Y-102079452D01*
X208467527Y-102093599D01*
X208469226Y-102104932D01*
X208475213Y-102114702D01*
X208473656Y-102134481D01*
X208476599Y-102154108D01*
X208470413Y-102175699D01*
X208429870Y-102273578D01*
X208429870Y-102273580D01*
X208389500Y-102476532D01*
X207950499Y-102476532D01*
X207927629Y-102361553D01*
X207934821Y-102300793D01*
X207976353Y-102255863D01*
X208010048Y-102244335D01*
X208074844Y-102234621D01*
X208179551Y-102182355D01*
X208229051Y-102146391D01*
X208304206Y-102072469D01*
X208304208Y-102072464D01*
X208309526Y-102067234D01*
X208319779Y-102062115D01*
X208327221Y-102053403D01*
X208346514Y-102048770D01*
X208364270Y-102039908D01*
X208375573Y-102041794D01*
X208380931Y-102040507D01*
X208359846Y-101983355D01*
X208364614Y-101948878D01*
X208377101Y-101910448D01*
X208377117Y-101910348D01*
X208394500Y-101800598D01*
X208394500Y-100692508D01*
X208413407Y-100634317D01*
X208462907Y-100598353D01*
X208524093Y-100598353D01*
X208573593Y-100634317D01*
X208575805Y-100637492D01*
X208624023Y-100709655D01*
X208770345Y-100855977D01*
X208942402Y-100970941D01*
X209133580Y-101050130D01*
X209336535Y-101090500D01*
X209336536Y-101090500D01*
X209543464Y-101090500D01*
X209543465Y-101090500D01*
X209746420Y-101050130D01*
X209937598Y-100970941D01*
X210109655Y-100855977D01*
X210255977Y-100709655D01*
X210370941Y-100537598D01*
X210450130Y-100346420D01*
X210490500Y-100143465D01*
X210490500Y-99936535D01*
X210450130Y-99733580D01*
X210370941Y-99542402D01*
X210255977Y-99370345D01*
X210109655Y-99224023D01*
X210109651Y-99224020D01*
X209937597Y-99109058D01*
X209746418Y-99029869D01*
X209543467Y-98989500D01*
X209543465Y-98989500D01*
X209336535Y-98989500D01*
X209336532Y-98989500D01*
X209133581Y-99029869D01*
X208942402Y-99109058D01*
X208770348Y-99224020D01*
X208624020Y-99370348D01*
X208509058Y-99542402D01*
X208429869Y-99733582D01*
X208429868Y-99733586D01*
X208422214Y-99772063D01*
X208392317Y-99825446D01*
X208336751Y-99851061D01*
X208276742Y-99839123D01*
X208254537Y-99822169D01*
X208211874Y-99778794D01*
X208108042Y-99724805D01*
X208108043Y-99724805D01*
X208049850Y-99705898D01*
X207942808Y-99688944D01*
X207888291Y-99661166D01*
X207866831Y-99629048D01*
X207830942Y-99542404D01*
X207798588Y-99493983D01*
X207715977Y-99370345D01*
X207569655Y-99224023D01*
X207569651Y-99224020D01*
X207397597Y-99109058D01*
X207206418Y-99029869D01*
X207003467Y-98989500D01*
X207003465Y-98989500D01*
X206796535Y-98989500D01*
X206796532Y-98989500D01*
X206593581Y-99029869D01*
X206402402Y-99109058D01*
X206230348Y-99224020D01*
X206084020Y-99370348D01*
X205969058Y-99542402D01*
X205933857Y-99627386D01*
X205894120Y-99673912D01*
X205842393Y-99688500D01*
X201641000Y-99688500D01*
X201582809Y-99669593D01*
X201546845Y-99620093D01*
X201542000Y-99589500D01*
X201542000Y-98000001D01*
X201542000Y-98000000D01*
X197986000Y-98000000D01*
X197986000Y-98000001D01*
X197986000Y-99589500D01*
X197967093Y-99647691D01*
X197917593Y-99683655D01*
X197887000Y-99688500D01*
X195524500Y-99688500D01*
X195466309Y-99669593D01*
X195430345Y-99620093D01*
X195425500Y-99589500D01*
X195425500Y-99493983D01*
X195425500Y-99493982D01*
X195396503Y-99385763D01*
X195396501Y-99385760D01*
X195396501Y-99385758D01*
X195340486Y-99288739D01*
X195340485Y-99288737D01*
X195261263Y-99209515D01*
X195261260Y-99209513D01*
X195164240Y-99153498D01*
X195164242Y-99153498D01*
X195122251Y-99142247D01*
X195056018Y-99124500D01*
X194943982Y-99124500D01*
X194877748Y-99142247D01*
X194835758Y-99153498D01*
X194738739Y-99209513D01*
X194659513Y-99288739D01*
X194603498Y-99385758D01*
X194574500Y-99493983D01*
X194574500Y-99589500D01*
X194555593Y-99647691D01*
X194506093Y-99683655D01*
X194475500Y-99688500D01*
X194461000Y-99688500D01*
X194405393Y-99692876D01*
X194405388Y-99692876D01*
X194405373Y-99692878D01*
X194374807Y-99697719D01*
X194374801Y-99697720D01*
X194326154Y-99708974D01*
X194221449Y-99761240D01*
X194221446Y-99761242D01*
X194171955Y-99797198D01*
X194171946Y-99797206D01*
X194096794Y-99871125D01*
X194042805Y-99974957D01*
X194023898Y-100033149D01*
X194006500Y-100142996D01*
X194006500Y-100421176D01*
X194006987Y-100439788D01*
X194007528Y-100450114D01*
X194008421Y-100462826D01*
X194008422Y-100462832D01*
X194027795Y-100537598D01*
X194037776Y-100576119D01*
X194062662Y-100632014D01*
X194101778Y-100693351D01*
X194117124Y-100752580D01*
X194099959Y-100799814D01*
X194100388Y-100800037D01*
X194098695Y-100803292D01*
X194097921Y-100805423D01*
X194096795Y-100806945D01*
X194042809Y-100910771D01*
X194042805Y-100910779D01*
X194023898Y-100968972D01*
X194006500Y-101078819D01*
X194006500Y-101588018D01*
X194007998Y-101616599D01*
X194008448Y-101625177D01*
X194008685Y-101627436D01*
X193995975Y-101687285D01*
X193950512Y-101728234D01*
X193910230Y-101736800D01*
X193190000Y-101736800D01*
X193190000Y-101736801D01*
X193190000Y-103583895D01*
X193183640Y-103603469D01*
X193181539Y-103623941D01*
X193174409Y-103631879D01*
X193171093Y-103642086D01*
X193140709Y-103669510D01*
X193140503Y-103669629D01*
X193140502Y-103669631D01*
X193140250Y-103669776D01*
X193140146Y-103669836D01*
X193132737Y-103674114D01*
X193132678Y-103674172D01*
X193127094Y-103677415D01*
X193103102Y-103682576D01*
X193079971Y-103690766D01*
X193077385Y-103690800D01*
X192250000Y-103690800D01*
X192249477Y-103993716D01*
X192230469Y-104051874D01*
X192180907Y-104087752D01*
X192119722Y-104087647D01*
X192070284Y-104051597D01*
X192054852Y-104019171D01*
X192032503Y-103935763D01*
X191976485Y-103838737D01*
X191897263Y-103759515D01*
X191897260Y-103759513D01*
X191800240Y-103703498D01*
X191800242Y-103703498D01*
X191752724Y-103690766D01*
X191692018Y-103674500D01*
X191579982Y-103674500D01*
X191519276Y-103690766D01*
X191471758Y-103703498D01*
X191374739Y-103759513D01*
X191295513Y-103838739D01*
X191239498Y-103935758D01*
X191239497Y-103935763D01*
X191210500Y-104043982D01*
X188003310Y-104043982D01*
X187934874Y-103848403D01*
X187933200Y-103843154D01*
X187738069Y-103165840D01*
X187736688Y-103160484D01*
X187722207Y-103097040D01*
X187579852Y-102473341D01*
X187578770Y-102467896D01*
X187545754Y-102273580D01*
X187460712Y-101773060D01*
X187459937Y-101767570D01*
X187381019Y-101067153D01*
X187380556Y-101061657D01*
X187341038Y-100357958D01*
X187340882Y-100352407D01*
X187340882Y-99968982D01*
X189974500Y-99968982D01*
X189974500Y-100081018D01*
X189991107Y-100142996D01*
X190003498Y-100189241D01*
X190059513Y-100286260D01*
X190059515Y-100286263D01*
X190138737Y-100365485D01*
X190138739Y-100365486D01*
X190235759Y-100421501D01*
X190235757Y-100421501D01*
X190235761Y-100421502D01*
X190235763Y-100421503D01*
X190343982Y-100450500D01*
X190343984Y-100450500D01*
X190456016Y-100450500D01*
X190456018Y-100450500D01*
X190564237Y-100421503D01*
X190564239Y-100421501D01*
X190564241Y-100421501D01*
X190593064Y-100404859D01*
X190661263Y-100365485D01*
X190740485Y-100286263D01*
X190796503Y-100189237D01*
X190825500Y-100081018D01*
X190825500Y-99968982D01*
X190796503Y-99860763D01*
X190796501Y-99860760D01*
X190796501Y-99860758D01*
X190740486Y-99763739D01*
X190740485Y-99763737D01*
X190661263Y-99684515D01*
X190661260Y-99684513D01*
X190564240Y-99628498D01*
X190564242Y-99628498D01*
X190522251Y-99617247D01*
X190456018Y-99599500D01*
X190343982Y-99599500D01*
X190277748Y-99617247D01*
X190235758Y-99628498D01*
X190138739Y-99684513D01*
X190059513Y-99763739D01*
X190003498Y-99860758D01*
X190000720Y-99871126D01*
X189974500Y-99968982D01*
X187340882Y-99968982D01*
X187340882Y-99647592D01*
X187341038Y-99642041D01*
X187346633Y-99542404D01*
X187380556Y-98938339D01*
X187381019Y-98932849D01*
X187459938Y-98232415D01*
X187460714Y-98226930D01*
X187477948Y-98125500D01*
X187559760Y-97643982D01*
X195249500Y-97643982D01*
X195249500Y-97756018D01*
X195275072Y-97851455D01*
X195278498Y-97864241D01*
X195334513Y-97961260D01*
X195334515Y-97961263D01*
X195413737Y-98040485D01*
X195413739Y-98040486D01*
X195510759Y-98096501D01*
X195510757Y-98096501D01*
X195510761Y-98096502D01*
X195510763Y-98096503D01*
X195618982Y-98125500D01*
X195618984Y-98125500D01*
X195731016Y-98125500D01*
X195731018Y-98125500D01*
X195839237Y-98096503D01*
X195839239Y-98096501D01*
X195839241Y-98096501D01*
X195868064Y-98079859D01*
X195936263Y-98040485D01*
X196015485Y-97961263D01*
X196071503Y-97864237D01*
X196100500Y-97756018D01*
X196100500Y-97643982D01*
X196071503Y-97535763D01*
X196071501Y-97535760D01*
X196071501Y-97535758D01*
X196015486Y-97438739D01*
X196015485Y-97438737D01*
X195936263Y-97359515D01*
X195936260Y-97359513D01*
X195839240Y-97303498D01*
X195839242Y-97303498D01*
X195797251Y-97292247D01*
X195731018Y-97274500D01*
X195618982Y-97274500D01*
X195552748Y-97292247D01*
X195510758Y-97303498D01*
X195413739Y-97359513D01*
X195334513Y-97438739D01*
X195278498Y-97535758D01*
X195278497Y-97535763D01*
X195249500Y-97643982D01*
X187559760Y-97643982D01*
X187578772Y-97532087D01*
X187579853Y-97526656D01*
X187580394Y-97524286D01*
X187684314Y-97068982D01*
X196224500Y-97068982D01*
X196224500Y-97181018D01*
X196249548Y-97274500D01*
X196253498Y-97289241D01*
X196309513Y-97386260D01*
X196309515Y-97386263D01*
X196388737Y-97465485D01*
X196388739Y-97465486D01*
X196485759Y-97521501D01*
X196485757Y-97521501D01*
X196485761Y-97521502D01*
X196485763Y-97521503D01*
X196593982Y-97550500D01*
X196593984Y-97550500D01*
X196706016Y-97550500D01*
X196706018Y-97550500D01*
X196814237Y-97521503D01*
X196814239Y-97521501D01*
X196814241Y-97521501D01*
X196843064Y-97504859D01*
X196911263Y-97465485D01*
X196990485Y-97386263D01*
X197029859Y-97318064D01*
X197046501Y-97289241D01*
X197046501Y-97289239D01*
X197046503Y-97289237D01*
X197075500Y-97181018D01*
X197075500Y-97068982D01*
X197046503Y-96960763D01*
X197046501Y-96960760D01*
X197046501Y-96960758D01*
X196990486Y-96863739D01*
X196990485Y-96863737D01*
X196911263Y-96784515D01*
X196911260Y-96784513D01*
X196814240Y-96728498D01*
X196814242Y-96728498D01*
X196801934Y-96725200D01*
X196706018Y-96699500D01*
X196593982Y-96699500D01*
X196527748Y-96717247D01*
X196485758Y-96728498D01*
X196388739Y-96784513D01*
X196309513Y-96863739D01*
X196253498Y-96960758D01*
X196253497Y-96960763D01*
X196224500Y-97068982D01*
X187684314Y-97068982D01*
X187736693Y-96839491D01*
X187738067Y-96834167D01*
X187796814Y-96630253D01*
X205849500Y-96630253D01*
X205849500Y-98369746D01*
X205849501Y-98369758D01*
X205861132Y-98428227D01*
X205861133Y-98428231D01*
X205905448Y-98494552D01*
X205971769Y-98538867D01*
X206016231Y-98547711D01*
X206030241Y-98550498D01*
X206030246Y-98550498D01*
X206030252Y-98550500D01*
X206030253Y-98550500D01*
X207769747Y-98550500D01*
X207769748Y-98550500D01*
X207828231Y-98538867D01*
X207894552Y-98494552D01*
X207938867Y-98428231D01*
X207950500Y-98369748D01*
X207950500Y-96630252D01*
X207938867Y-96571769D01*
X207894552Y-96505448D01*
X207894548Y-96505445D01*
X207828233Y-96461134D01*
X207828231Y-96461133D01*
X207828228Y-96461132D01*
X207828227Y-96461132D01*
X207769758Y-96449501D01*
X207769748Y-96449500D01*
X206030252Y-96449500D01*
X206030251Y-96449500D01*
X206030241Y-96449501D01*
X205971772Y-96461132D01*
X205971766Y-96461134D01*
X205905451Y-96505445D01*
X205905445Y-96505451D01*
X205861134Y-96571766D01*
X205861132Y-96571772D01*
X205849501Y-96630241D01*
X205849500Y-96630253D01*
X187796814Y-96630253D01*
X187933203Y-96156835D01*
X187934870Y-96151606D01*
X188167667Y-95486311D01*
X188169628Y-95481172D01*
X188439367Y-94829963D01*
X188441624Y-94824922D01*
X188566124Y-94566395D01*
X195914500Y-94566395D01*
X195914500Y-94813604D01*
X195953169Y-95057755D01*
X196029561Y-95292863D01*
X196126801Y-95483709D01*
X196141788Y-95513121D01*
X196287090Y-95713112D01*
X196461888Y-95887910D01*
X196661879Y-96033212D01*
X196882137Y-96145439D01*
X197117240Y-96221829D01*
X197117241Y-96221829D01*
X197117244Y-96221830D01*
X197361396Y-96260500D01*
X197361399Y-96260500D01*
X197608604Y-96260500D01*
X197852755Y-96221830D01*
X197852756Y-96221829D01*
X197852760Y-96221829D01*
X198087863Y-96145439D01*
X198308121Y-96033212D01*
X198508112Y-95887910D01*
X198682910Y-95713112D01*
X198828212Y-95513121D01*
X198940439Y-95292863D01*
X199016829Y-95057760D01*
X199016830Y-95057755D01*
X199055500Y-94813604D01*
X199055500Y-94566395D01*
X200994500Y-94566395D01*
X200994500Y-94813604D01*
X201033169Y-95057755D01*
X201109561Y-95292863D01*
X201206801Y-95483709D01*
X201221788Y-95513121D01*
X201367090Y-95713112D01*
X201541888Y-95887910D01*
X201741879Y-96033212D01*
X201962137Y-96145439D01*
X202197240Y-96221829D01*
X202197241Y-96221829D01*
X202197244Y-96221830D01*
X202441396Y-96260500D01*
X202441399Y-96260500D01*
X202688604Y-96260500D01*
X202932755Y-96221830D01*
X202932756Y-96221829D01*
X202932760Y-96221829D01*
X203167863Y-96145439D01*
X203388121Y-96033212D01*
X203588112Y-95887910D01*
X203762910Y-95713112D01*
X203908212Y-95513121D01*
X204020439Y-95292863D01*
X204096829Y-95057760D01*
X204096830Y-95057755D01*
X204135500Y-94813604D01*
X204135500Y-94566395D01*
X204096830Y-94322244D01*
X204096829Y-94322240D01*
X204020439Y-94087137D01*
X203908212Y-93866879D01*
X203762910Y-93666888D01*
X203588112Y-93492090D01*
X203388121Y-93346788D01*
X203388120Y-93346787D01*
X203388118Y-93346786D01*
X203167863Y-93234561D01*
X202932755Y-93158169D01*
X202688604Y-93119500D01*
X202688601Y-93119500D01*
X202441399Y-93119500D01*
X202441396Y-93119500D01*
X202197244Y-93158169D01*
X201962136Y-93234561D01*
X201741881Y-93346786D01*
X201541889Y-93492089D01*
X201367089Y-93666889D01*
X201221786Y-93866881D01*
X201109561Y-94087136D01*
X201033169Y-94322244D01*
X200994500Y-94566395D01*
X199055500Y-94566395D01*
X199016830Y-94322244D01*
X199016829Y-94322240D01*
X198940439Y-94087137D01*
X198828212Y-93866879D01*
X198682910Y-93666888D01*
X198508112Y-93492090D01*
X198308121Y-93346788D01*
X198308120Y-93346787D01*
X198308118Y-93346786D01*
X198087863Y-93234561D01*
X197852755Y-93158169D01*
X197608604Y-93119500D01*
X197608601Y-93119500D01*
X197361399Y-93119500D01*
X197361396Y-93119500D01*
X197117244Y-93158169D01*
X196882136Y-93234561D01*
X196661881Y-93346786D01*
X196461889Y-93492089D01*
X196287089Y-93666889D01*
X196141786Y-93866881D01*
X196029561Y-94087136D01*
X195953169Y-94322244D01*
X195914500Y-94566395D01*
X188566124Y-94566395D01*
X188747447Y-94189874D01*
X188749968Y-94184996D01*
X189090914Y-93568100D01*
X189093714Y-93563354D01*
X189468720Y-92966534D01*
X189471779Y-92961956D01*
X189879654Y-92387109D01*
X189882990Y-92382679D01*
X190151426Y-92046070D01*
X198704500Y-92046070D01*
X198704500Y-92253929D01*
X198737014Y-92459219D01*
X198737015Y-92459223D01*
X198801241Y-92656889D01*
X198801243Y-92656892D01*
X198801244Y-92656895D01*
X198801245Y-92656896D01*
X198895607Y-92842093D01*
X199017779Y-93010248D01*
X199164752Y-93157221D01*
X199332907Y-93279393D01*
X199518104Y-93373755D01*
X199518106Y-93373755D01*
X199518107Y-93373756D01*
X199518110Y-93373758D01*
X199715776Y-93437984D01*
X199715780Y-93437985D01*
X199921071Y-93470500D01*
X199921074Y-93470500D01*
X200128929Y-93470500D01*
X200334219Y-93437985D01*
X200334223Y-93437984D01*
X200531889Y-93373758D01*
X200531891Y-93373756D01*
X200531896Y-93373755D01*
X200717093Y-93279393D01*
X200885248Y-93157221D01*
X201032221Y-93010248D01*
X201154393Y-92842093D01*
X201248755Y-92656896D01*
X201248756Y-92656891D01*
X201248758Y-92656889D01*
X201312984Y-92459223D01*
X201312985Y-92459219D01*
X201345500Y-92253929D01*
X201345500Y-92046070D01*
X201312985Y-91840780D01*
X201312984Y-91840776D01*
X201248758Y-91643110D01*
X201248756Y-91643107D01*
X201248755Y-91643106D01*
X201248755Y-91643104D01*
X201154393Y-91457907D01*
X201032221Y-91289752D01*
X200885248Y-91142779D01*
X200717093Y-91020607D01*
X200717092Y-91020606D01*
X200717090Y-91020605D01*
X200531892Y-90926243D01*
X200531889Y-90926241D01*
X200334223Y-90862015D01*
X200334219Y-90862014D01*
X200128929Y-90829500D01*
X200128926Y-90829500D01*
X199921074Y-90829500D01*
X199921071Y-90829500D01*
X199715780Y-90862014D01*
X199715776Y-90862015D01*
X199518110Y-90926241D01*
X199518107Y-90926243D01*
X199332909Y-91020605D01*
X199164753Y-91142778D01*
X199017778Y-91289753D01*
X198895605Y-91457909D01*
X198801243Y-91643107D01*
X198801241Y-91643110D01*
X198737015Y-91840776D01*
X198737014Y-91840780D01*
X198704500Y-92046070D01*
X190151426Y-92046070D01*
X190322441Y-91831624D01*
X190325983Y-91827429D01*
X190795661Y-91301860D01*
X190799440Y-91297862D01*
X191297862Y-90799440D01*
X191301860Y-90795661D01*
X191827429Y-90325983D01*
X191831642Y-90322426D01*
X192382685Y-89882985D01*
X192387116Y-89879650D01*
X192941357Y-89486395D01*
X195914500Y-89486395D01*
X195914500Y-89733604D01*
X195953169Y-89977755D01*
X196029561Y-90212863D01*
X196086266Y-90324154D01*
X196141788Y-90433121D01*
X196287090Y-90633112D01*
X196461888Y-90807910D01*
X196661879Y-90953212D01*
X196882137Y-91065439D01*
X197117240Y-91141829D01*
X197117241Y-91141829D01*
X197117244Y-91141830D01*
X197361396Y-91180500D01*
X197361399Y-91180500D01*
X197608604Y-91180500D01*
X197852755Y-91141830D01*
X197852756Y-91141829D01*
X197852760Y-91141829D01*
X198087863Y-91065439D01*
X198308121Y-90953212D01*
X198508112Y-90807910D01*
X198682910Y-90633112D01*
X198828212Y-90433121D01*
X198940439Y-90212863D01*
X199016829Y-89977760D01*
X199055500Y-89733601D01*
X199055500Y-89486399D01*
X199055500Y-89486395D01*
X200994500Y-89486395D01*
X200994500Y-89733604D01*
X201033169Y-89977755D01*
X201109561Y-90212863D01*
X201166266Y-90324154D01*
X201221788Y-90433121D01*
X201367090Y-90633112D01*
X201541888Y-90807910D01*
X201741879Y-90953212D01*
X201962137Y-91065439D01*
X202197240Y-91141829D01*
X202197241Y-91141829D01*
X202197244Y-91141830D01*
X202441396Y-91180500D01*
X202441399Y-91180500D01*
X202688604Y-91180500D01*
X202932755Y-91141830D01*
X202932756Y-91141829D01*
X202932760Y-91141829D01*
X203167863Y-91065439D01*
X203388121Y-90953212D01*
X203588112Y-90807910D01*
X203762910Y-90633112D01*
X203908212Y-90433121D01*
X204020439Y-90212863D01*
X204096829Y-89977760D01*
X204135500Y-89733601D01*
X204135500Y-89486399D01*
X204135500Y-89486395D01*
X204096830Y-89242244D01*
X204048094Y-89092251D01*
X204020439Y-89007137D01*
X203908212Y-88786879D01*
X203762910Y-88586888D01*
X203588112Y-88412090D01*
X203388121Y-88266788D01*
X203388120Y-88266787D01*
X203388118Y-88266786D01*
X203167863Y-88154561D01*
X202932755Y-88078169D01*
X202688604Y-88039500D01*
X202688601Y-88039500D01*
X202441399Y-88039500D01*
X202441396Y-88039500D01*
X202197244Y-88078169D01*
X201962136Y-88154561D01*
X201741881Y-88266786D01*
X201541889Y-88412089D01*
X201367089Y-88586889D01*
X201221786Y-88786881D01*
X201109561Y-89007136D01*
X201033169Y-89242244D01*
X200994500Y-89486395D01*
X199055500Y-89486395D01*
X199016830Y-89242244D01*
X198968094Y-89092251D01*
X198940439Y-89007137D01*
X198828212Y-88786879D01*
X198682910Y-88586888D01*
X198508112Y-88412090D01*
X198308121Y-88266788D01*
X198308120Y-88266787D01*
X198308118Y-88266786D01*
X198087863Y-88154561D01*
X197852755Y-88078169D01*
X197608604Y-88039500D01*
X197608601Y-88039500D01*
X197361399Y-88039500D01*
X197361396Y-88039500D01*
X197117244Y-88078169D01*
X196882136Y-88154561D01*
X196661881Y-88266786D01*
X196461889Y-88412089D01*
X196287089Y-88586889D01*
X196141786Y-88786881D01*
X196029561Y-89007136D01*
X195953169Y-89242244D01*
X195914500Y-89486395D01*
X192941357Y-89486395D01*
X192961956Y-89471779D01*
X192966534Y-89468720D01*
X193563354Y-89093714D01*
X193568100Y-89090914D01*
X194184996Y-88749968D01*
X194189874Y-88747447D01*
X194824948Y-88441611D01*
X194829963Y-88439367D01*
X195481172Y-88169628D01*
X195486311Y-88167667D01*
X196151606Y-87934870D01*
X196156835Y-87933203D01*
X196834167Y-87738067D01*
X196839491Y-87736693D01*
X197526665Y-87579851D01*
X197532087Y-87578772D01*
X198226944Y-87460711D01*
X198232415Y-87459938D01*
X198932849Y-87381019D01*
X198938339Y-87380556D01*
X199642041Y-87341037D01*
X199647592Y-87340882D01*
X200352408Y-87340882D01*
X200357958Y-87341037D01*
G37*
G04 #@! TD.AperFunction*
M02*
