%TF.GenerationSoftware,KiCad,Pcbnew,9.0.6*%
%TF.CreationDate,2026-06-14T18:39:00-04:00*%
%TF.ProjectId,tiav3_s14160,74696176-335f-4733-9134-3136302e6b69,rev?*%
%TF.SameCoordinates,Original*%
%TF.FileFunction,Copper,L3,Inr*%
%TF.FilePolarity,Positive*%
%FSLAX46Y46*%
G04 Gerber Fmt 4.6, Leading zero omitted, Abs format (unit mm)*
G04 Created by KiCad (PCBNEW 9.0.6) date 2026-06-14 18:39:00*
%MOMM*%
%LPD*%
G01*
G04 APERTURE LIST*
%TA.AperFunction,ComponentPad*%
%ADD10R,1.700000X1.700000*%
%TD*%
%TA.AperFunction,ComponentPad*%
%ADD11O,1.700000X1.700000*%
%TD*%
%TA.AperFunction,ComponentPad*%
%ADD12C,2.240000*%
%TD*%
%TA.AperFunction,ComponentPad*%
%ADD13C,2.740000*%
%TD*%
%TA.AperFunction,ViaPad*%
%ADD14C,0.500000*%
%TD*%
G04 APERTURE END LIST*
D10*
%TO.N,+5V*%
%TO.C,J1*%
X206900000Y-97500000D03*
D11*
%TO.N,VSSA*%
X209440000Y-97500000D03*
%TO.N,VDDA*%
X206900000Y-100040000D03*
%TO.N,LINE*%
X209440000Y-100040000D03*
%TO.N,+VDC*%
X206900000Y-102580000D03*
%TO.N,GND*%
X209440000Y-102580000D03*
%TD*%
D12*
%TO.N,Net-(J2-In)*%
%TO.C,J2*%
X200025000Y-92150000D03*
D13*
%TO.N,GND*%
X197485000Y-89610000D03*
X197485000Y-94690000D03*
X202565000Y-89610000D03*
X202565000Y-94690000D03*
%TD*%
D14*
%TO.N,GND*%
X191330302Y-101636724D03*
X194820000Y-96850000D03*
X189290000Y-102755000D03*
X200450000Y-106400000D03*
X202950000Y-106400000D03*
X196410000Y-105335000D03*
X191580000Y-97600000D03*
X190550000Y-97865000D03*
X196950000Y-99040000D03*
X193470000Y-103565000D03*
%TO.N,VDDA*%
X194894000Y-102399000D03*
%TO.N,VSSA*%
X192100000Y-100995000D03*
%TO.N,/OUT*%
X193394000Y-101909599D03*
%TO.N,LINE*%
X196420000Y-96920000D03*
%TO.N,Net-(U1--)*%
X194750000Y-100095000D03*
%TD*%
%TA.AperFunction,Conductor*%
%TO.N,GND*%
G36*
X200357958Y-87341037D02*
G01*
X201061657Y-87380556D01*
X201067153Y-87381019D01*
X201767579Y-87459938D01*
X201773060Y-87460712D01*
X202467905Y-87578771D01*
X202473341Y-87579852D01*
X203160499Y-87736692D01*
X203165840Y-87738069D01*
X203843154Y-87933200D01*
X203848403Y-87934874D01*
X204513676Y-88167663D01*
X204518839Y-88169633D01*
X205170023Y-88439362D01*
X205175064Y-88441617D01*
X205810110Y-88747440D01*
X205815017Y-88749976D01*
X206393811Y-89069864D01*
X206431880Y-89090904D01*
X206436663Y-89093725D01*
X207033445Y-89468708D01*
X207038062Y-89471793D01*
X207612883Y-89879650D01*
X207617320Y-89882990D01*
X208168341Y-90322414D01*
X208172584Y-90325996D01*
X208679063Y-90778614D01*
X208698119Y-90795643D01*
X208702155Y-90799458D01*
X209200541Y-91297844D01*
X209204356Y-91301880D01*
X209674003Y-91827415D01*
X209677585Y-91831658D01*
X210117009Y-92382679D01*
X210120349Y-92387116D01*
X210528206Y-92961937D01*
X210531291Y-92966554D01*
X210906274Y-93563336D01*
X210909095Y-93568119D01*
X211250016Y-94184969D01*
X211252565Y-94189902D01*
X211558375Y-94824921D01*
X211560643Y-94829990D01*
X211830361Y-95481148D01*
X211832341Y-95486336D01*
X212065118Y-96151575D01*
X212066805Y-96156866D01*
X212261924Y-96834137D01*
X212263311Y-96839515D01*
X212420146Y-97526657D01*
X212421229Y-97532103D01*
X212539285Y-98226930D01*
X212540062Y-98232429D01*
X212618978Y-98932828D01*
X212619444Y-98938361D01*
X212658962Y-99642041D01*
X212659118Y-99647592D01*
X212659118Y-100352407D01*
X212658962Y-100357958D01*
X212619444Y-101061638D01*
X212618978Y-101067171D01*
X212540062Y-101767570D01*
X212539285Y-101773069D01*
X212421229Y-102467896D01*
X212420146Y-102473342D01*
X212263311Y-103160484D01*
X212261924Y-103165862D01*
X212066805Y-103843133D01*
X212065118Y-103848424D01*
X211832341Y-104513663D01*
X211830361Y-104518851D01*
X211560643Y-105170009D01*
X211558375Y-105175078D01*
X211252565Y-105810097D01*
X211250016Y-105815030D01*
X210909095Y-106431880D01*
X210906274Y-106436663D01*
X210531291Y-107033445D01*
X210528206Y-107038062D01*
X210120349Y-107612883D01*
X210117009Y-107617320D01*
X209677585Y-108168341D01*
X209674003Y-108172584D01*
X209204356Y-108698119D01*
X209200541Y-108702155D01*
X208702155Y-109200541D01*
X208698119Y-109204356D01*
X208172584Y-109674003D01*
X208168341Y-109677585D01*
X207617320Y-110117009D01*
X207612883Y-110120349D01*
X207038062Y-110528206D01*
X207033445Y-110531291D01*
X206436663Y-110906274D01*
X206431880Y-110909095D01*
X205815030Y-111250016D01*
X205810097Y-111252565D01*
X205175078Y-111558375D01*
X205170009Y-111560643D01*
X204518851Y-111830361D01*
X204513663Y-111832341D01*
X203848424Y-112065118D01*
X203843133Y-112066805D01*
X203165862Y-112261924D01*
X203160484Y-112263311D01*
X202473342Y-112420146D01*
X202467896Y-112421229D01*
X201773069Y-112539285D01*
X201767570Y-112540062D01*
X201067171Y-112618978D01*
X201061638Y-112619444D01*
X200357959Y-112658962D01*
X200352408Y-112659118D01*
X199647592Y-112659118D01*
X199642041Y-112658962D01*
X198938361Y-112619444D01*
X198932828Y-112618978D01*
X198232429Y-112540062D01*
X198226930Y-112539285D01*
X197532103Y-112421229D01*
X197526657Y-112420146D01*
X196839515Y-112263311D01*
X196834137Y-112261924D01*
X196156866Y-112066805D01*
X196151575Y-112065118D01*
X195486336Y-111832341D01*
X195481148Y-111830361D01*
X194829990Y-111560643D01*
X194824921Y-111558375D01*
X194189902Y-111252565D01*
X194184969Y-111250016D01*
X193568119Y-110909095D01*
X193563336Y-110906274D01*
X192966554Y-110531291D01*
X192961937Y-110528206D01*
X192387116Y-110120349D01*
X192382679Y-110117009D01*
X191831658Y-109677585D01*
X191827415Y-109674003D01*
X191301880Y-109204356D01*
X191297844Y-109200541D01*
X190799458Y-108702155D01*
X190795643Y-108698119D01*
X190325996Y-108172584D01*
X190322414Y-108168341D01*
X189882990Y-107617320D01*
X189879650Y-107612883D01*
X189471793Y-107038062D01*
X189468708Y-107033445D01*
X189093725Y-106436663D01*
X189090904Y-106431880D01*
X188835632Y-105970000D01*
X196440000Y-105970000D01*
X196440001Y-105970000D01*
X198339999Y-105970000D01*
X198340000Y-105970000D01*
X198340000Y-102790000D01*
X196440000Y-102790000D01*
X196440000Y-105970000D01*
X188835632Y-105970000D01*
X188749976Y-105815017D01*
X188747434Y-105810097D01*
X188441624Y-105175078D01*
X188439356Y-105170009D01*
X188169638Y-104518851D01*
X188167658Y-104513663D01*
X187934874Y-103848403D01*
X187933200Y-103843154D01*
X187738069Y-103165840D01*
X187736688Y-103160484D01*
X187729228Y-103127800D01*
X187579852Y-102473341D01*
X187578770Y-102467896D01*
X187577656Y-102461341D01*
X187460712Y-101773060D01*
X187459937Y-101767570D01*
X187381019Y-101067153D01*
X187380556Y-101061657D01*
X187373482Y-100935691D01*
X191649500Y-100935691D01*
X191649500Y-101054309D01*
X191676574Y-101155351D01*
X191680202Y-101168890D01*
X191739507Y-101271608D01*
X191739509Y-101271610D01*
X191739511Y-101271613D01*
X191823387Y-101355489D01*
X191823389Y-101355490D01*
X191823391Y-101355492D01*
X191926110Y-101414797D01*
X191926111Y-101414797D01*
X191926114Y-101414799D01*
X192040691Y-101445500D01*
X192040693Y-101445500D01*
X192151243Y-101445500D01*
X192209434Y-101464407D01*
X192245398Y-101513907D01*
X192245398Y-101544834D01*
X192250071Y-101544843D01*
X192250000Y-101585800D01*
X192248800Y-102281478D01*
X192248800Y-103127800D01*
X192248801Y-103127800D01*
X193140398Y-103127800D01*
X193156248Y-102439018D01*
X193176489Y-102381279D01*
X193226803Y-102346464D01*
X193280845Y-102345671D01*
X193334691Y-102360099D01*
X193334692Y-102360099D01*
X193453307Y-102360099D01*
X193453309Y-102360099D01*
X193567886Y-102329398D01*
X193637399Y-102289263D01*
X193686900Y-102276000D01*
X194344500Y-102276000D01*
X194402691Y-102294907D01*
X194438655Y-102344407D01*
X194443500Y-102375000D01*
X194443500Y-102458309D01*
X194448164Y-102475714D01*
X194474202Y-102572890D01*
X194533507Y-102675608D01*
X194533509Y-102675610D01*
X194533511Y-102675613D01*
X194617387Y-102759489D01*
X194617389Y-102759490D01*
X194617391Y-102759492D01*
X194720110Y-102818797D01*
X194720111Y-102818797D01*
X194720114Y-102818799D01*
X194834691Y-102849500D01*
X194834693Y-102849500D01*
X194953307Y-102849500D01*
X194953309Y-102849500D01*
X195067886Y-102818799D01*
X195067888Y-102818797D01*
X195067890Y-102818797D01*
X195170608Y-102759492D01*
X195170608Y-102759491D01*
X195170613Y-102759489D01*
X195254489Y-102675613D01*
X195313799Y-102572886D01*
X195339617Y-102476532D01*
X205849500Y-102476532D01*
X205849500Y-102683467D01*
X205889869Y-102886418D01*
X205969058Y-103077597D01*
X206084020Y-103249651D01*
X206084023Y-103249655D01*
X206230345Y-103395977D01*
X206402402Y-103510941D01*
X206593580Y-103590130D01*
X206796535Y-103630500D01*
X206796536Y-103630500D01*
X207003464Y-103630500D01*
X207003465Y-103630500D01*
X207206420Y-103590130D01*
X207397598Y-103510941D01*
X207569655Y-103395977D01*
X207715977Y-103249655D01*
X207830941Y-103077598D01*
X207910130Y-102886420D01*
X207950500Y-102683465D01*
X207950500Y-102476535D01*
X207910130Y-102273580D01*
X207830941Y-102082402D01*
X207715977Y-101910345D01*
X207569655Y-101764023D01*
X207397598Y-101649059D01*
X207397599Y-101649059D01*
X207397597Y-101649058D01*
X207206418Y-101569869D01*
X207003467Y-101529500D01*
X207003465Y-101529500D01*
X206796535Y-101529500D01*
X206796532Y-101529500D01*
X206593581Y-101569869D01*
X206402402Y-101649058D01*
X206230348Y-101764020D01*
X206084020Y-101910348D01*
X205969058Y-102082402D01*
X205889869Y-102273581D01*
X205849500Y-102476532D01*
X195339617Y-102476532D01*
X195344500Y-102458309D01*
X195344500Y-102374500D01*
X195344504Y-102374073D01*
X195354083Y-102345504D01*
X195363407Y-102316809D01*
X195363801Y-102316522D01*
X195363956Y-102316062D01*
X195388471Y-102298598D01*
X195412907Y-102280845D01*
X195413533Y-102280745D01*
X195413790Y-102280563D01*
X195414637Y-102280570D01*
X195443500Y-102276000D01*
X195453999Y-102276000D01*
X195454000Y-102276000D01*
X195454000Y-102030000D01*
X197970000Y-102030000D01*
X197970001Y-102030000D01*
X202029999Y-102030000D01*
X202030000Y-102030000D01*
X202030000Y-99936532D01*
X205849500Y-99936532D01*
X205849500Y-100143467D01*
X205889869Y-100346418D01*
X205969058Y-100537597D01*
X206084020Y-100709651D01*
X206084023Y-100709655D01*
X206230345Y-100855977D01*
X206402402Y-100970941D01*
X206593580Y-101050130D01*
X206796535Y-101090500D01*
X206796536Y-101090500D01*
X207003464Y-101090500D01*
X207003465Y-101090500D01*
X207206420Y-101050130D01*
X207397598Y-100970941D01*
X207569655Y-100855977D01*
X207715977Y-100709655D01*
X207830941Y-100537598D01*
X207910130Y-100346420D01*
X207950500Y-100143465D01*
X207950500Y-99936535D01*
X207950499Y-99936532D01*
X208389500Y-99936532D01*
X208389500Y-100143467D01*
X208429869Y-100346418D01*
X208509058Y-100537597D01*
X208624020Y-100709651D01*
X208624023Y-100709655D01*
X208770345Y-100855977D01*
X208942402Y-100970941D01*
X209133580Y-101050130D01*
X209336535Y-101090500D01*
X209336536Y-101090500D01*
X209543464Y-101090500D01*
X209543465Y-101090500D01*
X209746420Y-101050130D01*
X209937598Y-100970941D01*
X210109655Y-100855977D01*
X210255977Y-100709655D01*
X210370941Y-100537598D01*
X210450130Y-100346420D01*
X210490500Y-100143465D01*
X210490500Y-99936535D01*
X210450130Y-99733580D01*
X210370941Y-99542402D01*
X210255977Y-99370345D01*
X210109655Y-99224023D01*
X209937598Y-99109059D01*
X209937599Y-99109059D01*
X209937597Y-99109058D01*
X209746418Y-99029869D01*
X209543467Y-98989500D01*
X209543465Y-98989500D01*
X209336535Y-98989500D01*
X209336532Y-98989500D01*
X209133581Y-99029869D01*
X208942402Y-99109058D01*
X208770348Y-99224020D01*
X208624020Y-99370348D01*
X208509058Y-99542402D01*
X208429869Y-99733581D01*
X208389500Y-99936532D01*
X207950499Y-99936532D01*
X207910130Y-99733580D01*
X207830941Y-99542402D01*
X207715977Y-99370345D01*
X207569655Y-99224023D01*
X207397598Y-99109059D01*
X207397599Y-99109059D01*
X207397597Y-99109058D01*
X207206418Y-99029869D01*
X207003467Y-98989500D01*
X207003465Y-98989500D01*
X206796535Y-98989500D01*
X206796532Y-98989500D01*
X206593581Y-99029869D01*
X206402402Y-99109058D01*
X206230348Y-99224020D01*
X206084020Y-99370348D01*
X205969058Y-99542402D01*
X205889869Y-99733581D01*
X205849500Y-99936532D01*
X202030000Y-99936532D01*
X202030000Y-97970000D01*
X197970000Y-97970000D01*
X197970000Y-102030000D01*
X195454000Y-102030000D01*
X195454000Y-100470001D01*
X195472907Y-100411810D01*
X195522407Y-100375846D01*
X195552995Y-100371001D01*
X196842043Y-100370997D01*
X196844000Y-99631800D01*
X192980000Y-99631800D01*
X192980000Y-99631801D01*
X192980000Y-101486800D01*
X192961093Y-101544991D01*
X192911593Y-101580955D01*
X192881000Y-101585800D01*
X192347177Y-101585800D01*
X192288986Y-101566893D01*
X192253022Y-101517393D01*
X192253022Y-101456207D01*
X192288986Y-101406707D01*
X192297677Y-101401064D01*
X192376608Y-101355492D01*
X192376608Y-101355491D01*
X192376613Y-101355489D01*
X192460489Y-101271613D01*
X192519799Y-101168886D01*
X192550500Y-101054309D01*
X192550500Y-100935691D01*
X192519799Y-100821114D01*
X192519797Y-100821111D01*
X192519797Y-100821109D01*
X192460492Y-100718391D01*
X192460490Y-100718389D01*
X192460489Y-100718387D01*
X192376613Y-100634511D01*
X192376610Y-100634509D01*
X192376608Y-100634507D01*
X192273889Y-100575202D01*
X192273890Y-100575202D01*
X192260351Y-100571574D01*
X192159309Y-100544500D01*
X192040691Y-100544500D01*
X191970567Y-100563289D01*
X191926109Y-100575202D01*
X191823391Y-100634507D01*
X191739507Y-100718391D01*
X191680202Y-100821109D01*
X191680201Y-100821114D01*
X191649500Y-100935691D01*
X187373482Y-100935691D01*
X187342043Y-100375846D01*
X187341038Y-100357958D01*
X187340882Y-100352407D01*
X187340882Y-99647592D01*
X187341038Y-99642041D01*
X187341613Y-99631800D01*
X187380556Y-98938339D01*
X187381019Y-98932849D01*
X187459938Y-98232415D01*
X187460714Y-98226930D01*
X187460864Y-98226048D01*
X187578772Y-97532087D01*
X187579853Y-97526657D01*
X187609552Y-97396536D01*
X187731854Y-96860691D01*
X195969500Y-96860691D01*
X195969500Y-96979309D01*
X195975688Y-97002402D01*
X196000202Y-97093890D01*
X196059507Y-97196608D01*
X196059509Y-97196610D01*
X196059511Y-97196613D01*
X196143387Y-97280489D01*
X196143389Y-97280490D01*
X196143391Y-97280492D01*
X196246110Y-97339797D01*
X196246111Y-97339797D01*
X196246114Y-97339799D01*
X196360691Y-97370500D01*
X196360693Y-97370500D01*
X196479307Y-97370500D01*
X196479309Y-97370500D01*
X196593886Y-97339799D01*
X196593888Y-97339797D01*
X196593890Y-97339797D01*
X196696608Y-97280492D01*
X196696608Y-97280491D01*
X196696613Y-97280489D01*
X196780489Y-97196613D01*
X196839799Y-97093886D01*
X196870500Y-96979309D01*
X196870500Y-96860691D01*
X196839799Y-96746114D01*
X196839797Y-96746111D01*
X196839797Y-96746109D01*
X196798677Y-96674888D01*
X196780492Y-96643391D01*
X196780490Y-96643389D01*
X196780489Y-96643387D01*
X196767355Y-96630253D01*
X205849500Y-96630253D01*
X205849500Y-98369746D01*
X205849501Y-98369758D01*
X205861132Y-98428227D01*
X205861134Y-98428233D01*
X205905445Y-98494548D01*
X205905448Y-98494552D01*
X205971769Y-98538867D01*
X206016231Y-98547711D01*
X206030241Y-98550498D01*
X206030246Y-98550498D01*
X206030252Y-98550500D01*
X206030253Y-98550500D01*
X207769747Y-98550500D01*
X207769748Y-98550500D01*
X207828231Y-98538867D01*
X207894552Y-98494552D01*
X207938867Y-98428231D01*
X207950500Y-98369748D01*
X207950500Y-97396532D01*
X208389500Y-97396532D01*
X208389500Y-97603467D01*
X208429869Y-97806418D01*
X208509058Y-97997597D01*
X208509059Y-97997598D01*
X208624023Y-98169655D01*
X208770345Y-98315977D01*
X208942402Y-98430941D01*
X209133580Y-98510130D01*
X209336535Y-98550500D01*
X209336536Y-98550500D01*
X209543464Y-98550500D01*
X209543465Y-98550500D01*
X209746420Y-98510130D01*
X209937598Y-98430941D01*
X210109655Y-98315977D01*
X210255977Y-98169655D01*
X210370941Y-97997598D01*
X210450130Y-97806420D01*
X210490500Y-97603465D01*
X210490500Y-97396535D01*
X210450130Y-97193580D01*
X210370941Y-97002402D01*
X210255977Y-96830345D01*
X210109655Y-96684023D01*
X210109651Y-96684020D01*
X209937597Y-96569058D01*
X209746418Y-96489869D01*
X209543467Y-96449500D01*
X209543465Y-96449500D01*
X209336535Y-96449500D01*
X209336532Y-96449500D01*
X209133581Y-96489869D01*
X208942402Y-96569058D01*
X208770348Y-96684020D01*
X208624020Y-96830348D01*
X208509058Y-97002402D01*
X208429869Y-97193581D01*
X208389500Y-97396532D01*
X207950500Y-97396532D01*
X207950500Y-96630252D01*
X207938867Y-96571769D01*
X207894552Y-96505448D01*
X207886701Y-96500202D01*
X207828233Y-96461134D01*
X207828231Y-96461133D01*
X207828228Y-96461132D01*
X207828227Y-96461132D01*
X207769758Y-96449501D01*
X207769748Y-96449500D01*
X206030252Y-96449500D01*
X206030251Y-96449500D01*
X206030241Y-96449501D01*
X205971772Y-96461132D01*
X205971766Y-96461134D01*
X205905451Y-96505445D01*
X205905445Y-96505451D01*
X205861134Y-96571766D01*
X205861132Y-96571772D01*
X205849501Y-96630241D01*
X205849500Y-96630253D01*
X196767355Y-96630253D01*
X196696613Y-96559511D01*
X196696610Y-96559509D01*
X196696608Y-96559507D01*
X196593889Y-96500202D01*
X196593890Y-96500202D01*
X196555330Y-96489870D01*
X196479309Y-96469500D01*
X196360691Y-96469500D01*
X196290567Y-96488289D01*
X196246109Y-96500202D01*
X196143391Y-96559507D01*
X196059507Y-96643391D01*
X196000202Y-96746109D01*
X196000201Y-96746114D01*
X195969500Y-96860691D01*
X187731854Y-96860691D01*
X187736693Y-96839491D01*
X187738075Y-96834140D01*
X187738076Y-96834137D01*
X187933203Y-96156835D01*
X187934870Y-96151606D01*
X188167667Y-95486311D01*
X188169628Y-95481172D01*
X188439367Y-94829963D01*
X188441611Y-94824948D01*
X188747447Y-94189874D01*
X188749968Y-94184996D01*
X189090914Y-93568100D01*
X189093714Y-93563354D01*
X189468720Y-92966534D01*
X189471779Y-92961956D01*
X189879654Y-92387109D01*
X189882990Y-92382679D01*
X190151426Y-92046070D01*
X198704500Y-92046070D01*
X198704500Y-92253929D01*
X198737014Y-92459219D01*
X198737015Y-92459223D01*
X198801241Y-92656889D01*
X198801243Y-92656892D01*
X198801244Y-92656895D01*
X198801245Y-92656896D01*
X198895607Y-92842093D01*
X199017779Y-93010248D01*
X199164752Y-93157221D01*
X199332907Y-93279393D01*
X199518104Y-93373755D01*
X199518106Y-93373755D01*
X199518107Y-93373756D01*
X199518110Y-93373758D01*
X199715776Y-93437984D01*
X199715780Y-93437985D01*
X199921071Y-93470500D01*
X199921074Y-93470500D01*
X200128929Y-93470500D01*
X200334219Y-93437985D01*
X200334223Y-93437984D01*
X200531889Y-93373758D01*
X200531891Y-93373756D01*
X200531896Y-93373755D01*
X200717093Y-93279393D01*
X200885248Y-93157221D01*
X201032221Y-93010248D01*
X201154393Y-92842093D01*
X201248755Y-92656896D01*
X201248756Y-92656891D01*
X201248758Y-92656889D01*
X201312984Y-92459223D01*
X201312985Y-92459219D01*
X201345500Y-92253929D01*
X201345500Y-92046070D01*
X201312985Y-91840780D01*
X201312984Y-91840776D01*
X201248758Y-91643110D01*
X201248756Y-91643107D01*
X201248755Y-91643106D01*
X201248755Y-91643104D01*
X201154393Y-91457907D01*
X201032221Y-91289752D01*
X200885248Y-91142779D01*
X200717093Y-91020607D01*
X200717092Y-91020606D01*
X200717090Y-91020605D01*
X200531892Y-90926243D01*
X200531889Y-90926241D01*
X200334223Y-90862015D01*
X200334219Y-90862014D01*
X200128929Y-90829500D01*
X200128926Y-90829500D01*
X199921074Y-90829500D01*
X199921071Y-90829500D01*
X199715780Y-90862014D01*
X199715776Y-90862015D01*
X199518110Y-90926241D01*
X199518107Y-90926243D01*
X199332909Y-91020605D01*
X199164753Y-91142778D01*
X199017778Y-91289753D01*
X198895605Y-91457909D01*
X198801243Y-91643107D01*
X198801241Y-91643110D01*
X198737015Y-91840776D01*
X198737014Y-91840780D01*
X198704500Y-92046070D01*
X190151426Y-92046070D01*
X190322441Y-91831624D01*
X190325983Y-91827429D01*
X190795661Y-91301860D01*
X190799440Y-91297862D01*
X191297862Y-90799440D01*
X191301860Y-90795661D01*
X191827429Y-90325983D01*
X191831642Y-90322426D01*
X192382685Y-89882985D01*
X192387116Y-89879650D01*
X192961956Y-89471779D01*
X192966534Y-89468720D01*
X193563354Y-89093714D01*
X193568100Y-89090914D01*
X194184996Y-88749968D01*
X194189874Y-88747447D01*
X194824948Y-88441611D01*
X194829963Y-88439367D01*
X195481172Y-88169628D01*
X195486311Y-88167667D01*
X196151606Y-87934870D01*
X196156835Y-87933203D01*
X196834167Y-87738067D01*
X196839491Y-87736693D01*
X197526665Y-87579851D01*
X197532087Y-87578772D01*
X198226944Y-87460711D01*
X198232415Y-87459938D01*
X198932849Y-87381019D01*
X198938339Y-87380556D01*
X199642041Y-87341037D01*
X199647592Y-87340882D01*
X200352408Y-87340882D01*
X200357958Y-87341037D01*
G37*
%TD.AperFunction*%
%TD*%
M02*
