%TF.GenerationSoftware,KiCad,Pcbnew,9.0.6*%
%TF.CreationDate,2026-06-14T18:39:00-04:00*%
%TF.ProjectId,tiav3_s14160,74696176-335f-4733-9134-3136302e6b69,rev?*%
%TF.SameCoordinates,Original*%
%TF.FileFunction,Copper,L2,Inr*%
%TF.FilePolarity,Positive*%
%FSLAX46Y46*%
G04 Gerber Fmt 4.6, Leading zero omitted, Abs format (unit mm)*
G04 Created by KiCad (PCBNEW 9.0.6) date 2026-06-14 18:39:00*
%MOMM*%
%LPD*%
G01*
G04 APERTURE LIST*
%TA.AperFunction,ComponentPad*%
%ADD10R,1.700000X1.700000*%
%TD*%
%TA.AperFunction,ComponentPad*%
%ADD11O,1.700000X1.700000*%
%TD*%
%TA.AperFunction,ComponentPad*%
%ADD12C,2.240000*%
%TD*%
%TA.AperFunction,ComponentPad*%
%ADD13C,2.740000*%
%TD*%
%TA.AperFunction,ViaPad*%
%ADD14C,0.500000*%
%TD*%
G04 APERTURE END LIST*
D10*
%TO.N,+5V*%
%TO.C,J1*%
X206900000Y-97500000D03*
D11*
%TO.N,VSSA*%
X209440000Y-97500000D03*
%TO.N,VDDA*%
X206900000Y-100040000D03*
%TO.N,LINE*%
X209440000Y-100040000D03*
%TO.N,+VDC*%
X206900000Y-102580000D03*
%TO.N,GND*%
X209440000Y-102580000D03*
%TD*%
D12*
%TO.N,Net-(J2-In)*%
%TO.C,J2*%
X200025000Y-92150000D03*
D13*
%TO.N,GND*%
X197485000Y-89610000D03*
X197485000Y-94690000D03*
X202565000Y-89610000D03*
X202565000Y-94690000D03*
%TD*%
D14*
%TO.N,GND*%
X191330302Y-101636724D03*
X194820000Y-96850000D03*
X189290000Y-102755000D03*
X200450000Y-106400000D03*
X202950000Y-106400000D03*
X196410000Y-105335000D03*
X191580000Y-97600000D03*
X190550000Y-97865000D03*
X196950000Y-99040000D03*
X193470000Y-103565000D03*
%TO.N,VDDA*%
X194894000Y-102399000D03*
%TO.N,VSSA*%
X192100000Y-100995000D03*
%TO.N,/OUT*%
X193394000Y-101909599D03*
%TO.N,LINE*%
X196420000Y-96920000D03*
%TO.N,Net-(U1--)*%
X194750000Y-100095000D03*
%TD*%
%TA.AperFunction,Conductor*%
%TO.N,VDDA*%
G36*
X197929191Y-100062907D02*
G01*
X197965155Y-100112407D01*
X197970000Y-100143000D01*
X197970000Y-102030000D01*
X197970001Y-102030000D01*
X202029999Y-102030000D01*
X202030000Y-102030000D01*
X202030000Y-100143000D01*
X202048907Y-100084809D01*
X202098407Y-100048845D01*
X202129000Y-100044000D01*
X207940000Y-100044000D01*
X207998191Y-100062907D01*
X208034155Y-100112407D01*
X208039000Y-100143000D01*
X208039000Y-101800595D01*
X208020093Y-101858786D01*
X207970593Y-101894750D01*
X207909407Y-101894750D01*
X207859908Y-101858786D01*
X207815694Y-101797932D01*
X207815692Y-101797930D01*
X207815690Y-101797927D01*
X207682073Y-101664310D01*
X207529199Y-101553240D01*
X207529198Y-101553239D01*
X207529196Y-101553238D01*
X207360832Y-101467453D01*
X207181113Y-101409058D01*
X206994484Y-101379500D01*
X206994481Y-101379500D01*
X206805519Y-101379500D01*
X206805516Y-101379500D01*
X206618886Y-101409058D01*
X206439167Y-101467453D01*
X206270803Y-101553238D01*
X206117928Y-101664309D01*
X205984309Y-101797928D01*
X205873238Y-101950803D01*
X205787453Y-102119167D01*
X205729058Y-102298886D01*
X205699500Y-102485515D01*
X205699500Y-102674484D01*
X205729058Y-102861113D01*
X205729060Y-102861118D01*
X205787453Y-103040832D01*
X205873240Y-103209199D01*
X205984310Y-103362073D01*
X206117927Y-103495690D01*
X206270801Y-103606760D01*
X206439168Y-103692547D01*
X206618882Y-103750940D01*
X206618883Y-103750940D01*
X206618886Y-103750941D01*
X206805516Y-103780500D01*
X206805519Y-103780500D01*
X206994484Y-103780500D01*
X207181113Y-103750941D01*
X207181114Y-103750940D01*
X207181118Y-103750940D01*
X207360832Y-103692547D01*
X207529199Y-103606760D01*
X207682073Y-103495690D01*
X207815690Y-103362073D01*
X207859908Y-103301212D01*
X207909408Y-103265249D01*
X207970593Y-103265249D01*
X208020093Y-103301213D01*
X208039000Y-103359404D01*
X208039000Y-107031000D01*
X208020093Y-107089191D01*
X207970593Y-107125155D01*
X207940000Y-107130000D01*
X203256076Y-107130000D01*
X203197885Y-107111093D01*
X203161921Y-107061593D01*
X203161921Y-107000407D01*
X203197885Y-106950907D01*
X203206569Y-106945267D01*
X203318716Y-106880520D01*
X203430520Y-106768716D01*
X203509577Y-106631784D01*
X203550500Y-106479057D01*
X203550500Y-106320943D01*
X203509577Y-106168216D01*
X203430520Y-106031284D01*
X203318716Y-105919480D01*
X203181784Y-105840423D01*
X203029057Y-105799500D01*
X202870943Y-105799500D01*
X202718216Y-105840423D01*
X202581284Y-105919480D01*
X202469480Y-106031284D01*
X202390423Y-106168216D01*
X202349500Y-106320943D01*
X202349500Y-106479057D01*
X202390423Y-106631784D01*
X202469480Y-106768716D01*
X202581284Y-106880520D01*
X202693424Y-106945263D01*
X202734365Y-106990733D01*
X202740761Y-107051583D01*
X202710168Y-107104571D01*
X202654272Y-107129458D01*
X202643924Y-107130000D01*
X200756076Y-107130000D01*
X200697885Y-107111093D01*
X200661921Y-107061593D01*
X200661921Y-107000407D01*
X200697885Y-106950907D01*
X200706569Y-106945267D01*
X200818716Y-106880520D01*
X200930520Y-106768716D01*
X201009577Y-106631784D01*
X201050500Y-106479057D01*
X201050500Y-106320943D01*
X201009577Y-106168216D01*
X200930520Y-106031284D01*
X200818716Y-105919480D01*
X200681784Y-105840423D01*
X200529057Y-105799500D01*
X200370943Y-105799500D01*
X200218216Y-105840423D01*
X200081284Y-105919480D01*
X199969480Y-106031284D01*
X199890423Y-106168216D01*
X199849500Y-106320943D01*
X199849500Y-106479057D01*
X199890423Y-106631784D01*
X199969480Y-106768716D01*
X200081284Y-106880520D01*
X200193424Y-106945263D01*
X200234365Y-106990733D01*
X200240761Y-107051583D01*
X200210168Y-107104571D01*
X200154272Y-107129458D01*
X200143924Y-107130000D01*
X194461000Y-107130000D01*
X194402809Y-107111093D01*
X194366845Y-107061593D01*
X194362000Y-107031000D01*
X194362000Y-105255943D01*
X195809500Y-105255943D01*
X195809500Y-105414057D01*
X195850423Y-105566784D01*
X195929480Y-105703716D01*
X196041284Y-105815520D01*
X196178216Y-105894577D01*
X196330943Y-105935500D01*
X196364493Y-105935500D01*
X196422684Y-105954407D01*
X196434497Y-105964496D01*
X196440000Y-105969999D01*
X196440000Y-105970000D01*
X196440001Y-105970000D01*
X198339999Y-105970000D01*
X198340000Y-105970000D01*
X198340000Y-102790000D01*
X196440000Y-102790000D01*
X196440000Y-102790001D01*
X196440000Y-104635500D01*
X196421093Y-104693691D01*
X196371593Y-104729655D01*
X196341000Y-104734500D01*
X196330943Y-104734500D01*
X196178216Y-104775423D01*
X196041284Y-104854480D01*
X195929480Y-104966284D01*
X195850423Y-105103216D01*
X195809500Y-105255943D01*
X194362000Y-105255943D01*
X194362000Y-102375000D01*
X194380907Y-102316809D01*
X194430407Y-102280845D01*
X194461000Y-102276000D01*
X195453999Y-102276000D01*
X195454000Y-102276000D01*
X195454000Y-100470001D01*
X195472907Y-100411810D01*
X195522407Y-100375846D01*
X195552995Y-100371001D01*
X196842043Y-100370997D01*
X196842647Y-100142737D01*
X196861709Y-100084597D01*
X196911304Y-100048765D01*
X196941647Y-100044000D01*
X197871000Y-100044000D01*
X197929191Y-100062907D01*
G37*
%TD.AperFunction*%
%TD*%
%TA.AperFunction,Conductor*%
%TO.N,VSSA*%
G36*
X200357958Y-87341037D02*
G01*
X201061657Y-87380556D01*
X201067153Y-87381019D01*
X201767579Y-87459938D01*
X201773060Y-87460712D01*
X202467905Y-87578771D01*
X202473341Y-87579852D01*
X203160499Y-87736692D01*
X203165840Y-87738069D01*
X203843154Y-87933200D01*
X203848403Y-87934874D01*
X204513676Y-88167663D01*
X204518839Y-88169633D01*
X205170023Y-88439362D01*
X205175064Y-88441617D01*
X205810110Y-88747440D01*
X205815017Y-88749976D01*
X206280313Y-89007136D01*
X206431880Y-89090904D01*
X206436660Y-89093723D01*
X206673029Y-89242244D01*
X207033445Y-89468708D01*
X207038059Y-89471791D01*
X207058647Y-89486399D01*
X207612883Y-89879650D01*
X207617320Y-89882990D01*
X208168341Y-90322414D01*
X208172584Y-90325996D01*
X208679063Y-90778614D01*
X208698119Y-90795643D01*
X208702155Y-90799458D01*
X209200541Y-91297844D01*
X209204356Y-91301880D01*
X209674003Y-91827415D01*
X209677585Y-91831658D01*
X210117009Y-92382679D01*
X210120349Y-92387116D01*
X210528206Y-92961937D01*
X210531291Y-92966554D01*
X210906274Y-93563336D01*
X210909095Y-93568119D01*
X211250016Y-94184969D01*
X211252565Y-94189902D01*
X211558375Y-94824921D01*
X211560643Y-94829990D01*
X211830361Y-95481148D01*
X211832341Y-95486336D01*
X212065118Y-96151575D01*
X212066805Y-96156866D01*
X212261924Y-96834137D01*
X212263311Y-96839515D01*
X212420146Y-97526657D01*
X212421229Y-97532103D01*
X212539285Y-98226930D01*
X212540062Y-98232429D01*
X212618978Y-98932828D01*
X212619444Y-98938361D01*
X212658962Y-99642041D01*
X212659118Y-99647592D01*
X212659118Y-100352407D01*
X212658962Y-100357958D01*
X212619444Y-101061638D01*
X212618978Y-101067171D01*
X212540062Y-101767570D01*
X212539285Y-101773069D01*
X212421229Y-102467896D01*
X212420146Y-102473342D01*
X212263311Y-103160484D01*
X212261924Y-103165862D01*
X212066805Y-103843133D01*
X212065118Y-103848424D01*
X211832341Y-104513663D01*
X211830361Y-104518851D01*
X211560643Y-105170009D01*
X211558375Y-105175078D01*
X211252565Y-105810097D01*
X211250016Y-105815030D01*
X210909095Y-106431880D01*
X210906274Y-106436663D01*
X210531291Y-107033445D01*
X210528206Y-107038062D01*
X210120349Y-107612883D01*
X210117009Y-107617320D01*
X209677585Y-108168341D01*
X209674003Y-108172584D01*
X209204356Y-108698119D01*
X209200541Y-108702155D01*
X208702155Y-109200541D01*
X208698119Y-109204356D01*
X208172584Y-109674003D01*
X208168341Y-109677585D01*
X207617320Y-110117009D01*
X207612883Y-110120349D01*
X207038062Y-110528206D01*
X207033445Y-110531291D01*
X206436663Y-110906274D01*
X206431880Y-110909095D01*
X205815030Y-111250016D01*
X205810097Y-111252565D01*
X205175078Y-111558375D01*
X205170009Y-111560643D01*
X204518851Y-111830361D01*
X204513663Y-111832341D01*
X203848424Y-112065118D01*
X203843133Y-112066805D01*
X203165862Y-112261924D01*
X203160484Y-112263311D01*
X202473342Y-112420146D01*
X202467896Y-112421229D01*
X202058039Y-112490866D01*
X202041831Y-112492264D01*
X198047955Y-112507392D01*
X198030997Y-112505994D01*
X197532103Y-112421229D01*
X197526657Y-112420146D01*
X196839515Y-112263311D01*
X196834137Y-112261924D01*
X196156866Y-112066805D01*
X196151575Y-112065118D01*
X195486336Y-111832341D01*
X195481148Y-111830361D01*
X194829990Y-111560643D01*
X194824921Y-111558375D01*
X194189902Y-111252565D01*
X194184969Y-111250016D01*
X193568119Y-110909095D01*
X193563336Y-110906274D01*
X192966554Y-110531291D01*
X192961937Y-110528206D01*
X192387116Y-110120349D01*
X192382679Y-110117009D01*
X191831658Y-109677585D01*
X191827415Y-109674003D01*
X191301880Y-109204356D01*
X191297844Y-109200541D01*
X190799458Y-108702155D01*
X190795643Y-108698119D01*
X190325996Y-108172584D01*
X190322414Y-108168341D01*
X189882990Y-107617320D01*
X189879650Y-107612883D01*
X189506251Y-107086626D01*
X189471791Y-107038059D01*
X189468708Y-107033445D01*
X189093725Y-106436663D01*
X189090904Y-106431880D01*
X188749976Y-105815017D01*
X188747434Y-105810097D01*
X188441624Y-105175078D01*
X188439356Y-105170009D01*
X188169638Y-104518851D01*
X188167658Y-104513663D01*
X187934874Y-103848403D01*
X187933200Y-103843154D01*
X187738069Y-103165840D01*
X187736693Y-103160508D01*
X187630602Y-102695691D01*
X188839500Y-102695691D01*
X188839500Y-102814309D01*
X188859196Y-102887814D01*
X188870202Y-102928890D01*
X188929507Y-103031608D01*
X188929509Y-103031610D01*
X188929511Y-103031613D01*
X189013387Y-103115489D01*
X189013389Y-103115490D01*
X189013391Y-103115492D01*
X189116110Y-103174797D01*
X189116111Y-103174797D01*
X189116114Y-103174799D01*
X189230691Y-103205500D01*
X189230693Y-103205500D01*
X189349307Y-103205500D01*
X189349309Y-103205500D01*
X189463886Y-103174799D01*
X189463888Y-103174797D01*
X189463890Y-103174797D01*
X189566608Y-103115492D01*
X189566608Y-103115491D01*
X189566613Y-103115489D01*
X189650489Y-103031613D01*
X189650492Y-103031608D01*
X189709797Y-102928890D01*
X189709797Y-102928888D01*
X189709799Y-102928886D01*
X189740500Y-102814309D01*
X189740500Y-102695691D01*
X189709799Y-102581114D01*
X189709797Y-102581111D01*
X189709797Y-102581109D01*
X189650492Y-102478391D01*
X189650490Y-102478389D01*
X189650489Y-102478387D01*
X189566613Y-102394511D01*
X189566610Y-102394509D01*
X189519187Y-102367129D01*
X189519185Y-102367127D01*
X189463889Y-102335202D01*
X189463890Y-102335202D01*
X189442229Y-102329398D01*
X189349309Y-102304500D01*
X189230691Y-102304500D01*
X189160567Y-102323289D01*
X189116109Y-102335202D01*
X189013391Y-102394507D01*
X188929507Y-102478391D01*
X188870202Y-102581109D01*
X188870201Y-102581114D01*
X188839500Y-102695691D01*
X187630602Y-102695691D01*
X187579852Y-102473341D01*
X187578770Y-102467896D01*
X187566301Y-102394511D01*
X187547096Y-102281478D01*
X192248800Y-102281478D01*
X192248800Y-103127800D01*
X192248801Y-103127800D01*
X193031982Y-103127800D01*
X193090173Y-103146707D01*
X193126137Y-103196207D01*
X193126137Y-103257393D01*
X193110520Y-103287073D01*
X193109506Y-103288394D01*
X193050202Y-103391109D01*
X193050201Y-103391114D01*
X193019500Y-103505691D01*
X193019500Y-103624309D01*
X193021159Y-103630499D01*
X193050202Y-103738890D01*
X193109507Y-103841608D01*
X193109509Y-103841610D01*
X193109511Y-103841613D01*
X193193387Y-103925489D01*
X193193389Y-103925490D01*
X193193391Y-103925492D01*
X193296110Y-103984797D01*
X193296111Y-103984797D01*
X193296114Y-103984799D01*
X193410691Y-104015500D01*
X193410693Y-104015500D01*
X193529307Y-104015500D01*
X193529309Y-104015500D01*
X193643886Y-103984799D01*
X193643888Y-103984797D01*
X193643890Y-103984797D01*
X193746608Y-103925492D01*
X193746608Y-103925491D01*
X193746613Y-103925489D01*
X193830489Y-103841613D01*
X193830490Y-103841610D01*
X193835077Y-103837024D01*
X193836487Y-103838434D01*
X193879375Y-103808954D01*
X193940540Y-103810551D01*
X193989084Y-103847795D01*
X194006500Y-103903875D01*
X194006500Y-105302746D01*
X194006500Y-106367746D01*
X194006500Y-107031000D01*
X194006878Y-107035797D01*
X194010876Y-107086602D01*
X194010878Y-107086626D01*
X194015719Y-107117192D01*
X194015720Y-107117198D01*
X194026974Y-107165844D01*
X194079240Y-107270551D01*
X194092700Y-107289078D01*
X194115198Y-107320044D01*
X194115203Y-107320049D01*
X194115204Y-107320051D01*
X194189126Y-107395206D01*
X194292956Y-107449194D01*
X194351147Y-107468101D01*
X194395088Y-107475060D01*
X194460997Y-107485500D01*
X194461000Y-107485500D01*
X200143925Y-107485500D01*
X200144853Y-107485475D01*
X200162519Y-107485013D01*
X200172867Y-107484471D01*
X200185584Y-107483576D01*
X200298869Y-107454222D01*
X200354765Y-107429335D01*
X200394191Y-107404192D01*
X200453418Y-107388846D01*
X200493092Y-107399828D01*
X200588032Y-107449194D01*
X200646223Y-107468101D01*
X200690164Y-107475060D01*
X200756073Y-107485500D01*
X200756076Y-107485500D01*
X202643925Y-107485500D01*
X202644853Y-107485475D01*
X202662519Y-107485013D01*
X202672867Y-107484471D01*
X202685584Y-107483576D01*
X202798869Y-107454222D01*
X202854765Y-107429335D01*
X202894191Y-107404192D01*
X202953418Y-107388846D01*
X202993092Y-107399828D01*
X203088032Y-107449194D01*
X203146223Y-107468101D01*
X203190164Y-107475060D01*
X203256073Y-107485500D01*
X203256076Y-107485500D01*
X207939994Y-107485500D01*
X207940000Y-107485500D01*
X207995607Y-107481124D01*
X208026200Y-107476279D01*
X208074844Y-107465026D01*
X208179551Y-107412760D01*
X208229051Y-107376796D01*
X208304206Y-107302874D01*
X208358194Y-107199044D01*
X208377101Y-107140853D01*
X208391453Y-107050237D01*
X208394500Y-107031003D01*
X208394500Y-103359400D01*
X208377102Y-103249555D01*
X208369489Y-103226124D01*
X208358194Y-103191360D01*
X208311115Y-103097040D01*
X208299479Y-103085210D01*
X208299478Y-103085208D01*
X208229057Y-103013613D01*
X208229053Y-103013610D01*
X208229051Y-103013608D01*
X208179551Y-102977644D01*
X208086024Y-102929011D01*
X208008305Y-102916042D01*
X207954020Y-102887814D01*
X207926695Y-102833069D01*
X207927503Y-102799078D01*
X207950500Y-102683465D01*
X207950500Y-102476535D01*
X207950499Y-102476532D01*
X208389500Y-102476532D01*
X208389500Y-102683467D01*
X208429870Y-102886419D01*
X208429870Y-102886421D01*
X208470854Y-102985366D01*
X208470859Y-102985377D01*
X208509059Y-103077598D01*
X208544387Y-103130471D01*
X208544388Y-103130472D01*
X208623953Y-103249551D01*
X208624023Y-103249655D01*
X208770345Y-103395977D01*
X208942402Y-103510941D01*
X209133580Y-103590130D01*
X209336535Y-103630500D01*
X209336536Y-103630500D01*
X209543464Y-103630500D01*
X209543465Y-103630500D01*
X209746420Y-103590130D01*
X209937598Y-103510941D01*
X210109655Y-103395977D01*
X210255977Y-103249655D01*
X210370941Y-103077598D01*
X210450130Y-102886420D01*
X210490500Y-102683465D01*
X210490500Y-102476535D01*
X210450130Y-102273580D01*
X210370941Y-102082402D01*
X210255977Y-101910345D01*
X210109655Y-101764023D01*
X210109651Y-101764020D01*
X209937597Y-101649058D01*
X209746418Y-101569869D01*
X209543467Y-101529500D01*
X209543465Y-101529500D01*
X209336535Y-101529500D01*
X209336532Y-101529500D01*
X209133581Y-101569869D01*
X208942402Y-101649058D01*
X208770348Y-101764020D01*
X208624020Y-101910348D01*
X208541086Y-102034469D01*
X208493036Y-102072349D01*
X208450288Y-102074028D01*
X208453612Y-102079452D01*
X208467527Y-102093599D01*
X208469226Y-102104932D01*
X208475213Y-102114702D01*
X208473656Y-102134481D01*
X208476599Y-102154108D01*
X208470413Y-102175699D01*
X208429870Y-102273578D01*
X208429870Y-102273580D01*
X208389500Y-102476532D01*
X207950499Y-102476532D01*
X207927629Y-102361553D01*
X207934821Y-102300793D01*
X207976353Y-102255863D01*
X208010048Y-102244335D01*
X208074844Y-102234621D01*
X208179551Y-102182355D01*
X208229051Y-102146391D01*
X208304206Y-102072469D01*
X208304208Y-102072464D01*
X208309526Y-102067234D01*
X208319779Y-102062115D01*
X208327221Y-102053403D01*
X208346514Y-102048770D01*
X208364270Y-102039908D01*
X208375573Y-102041794D01*
X208380931Y-102040507D01*
X208359846Y-101983355D01*
X208364614Y-101948878D01*
X208377101Y-101910448D01*
X208377117Y-101910348D01*
X208394500Y-101800598D01*
X208394500Y-100692508D01*
X208413407Y-100634317D01*
X208462907Y-100598353D01*
X208524093Y-100598353D01*
X208573593Y-100634317D01*
X208575805Y-100637492D01*
X208624023Y-100709655D01*
X208770345Y-100855977D01*
X208942402Y-100970941D01*
X209133580Y-101050130D01*
X209336535Y-101090500D01*
X209336536Y-101090500D01*
X209543464Y-101090500D01*
X209543465Y-101090500D01*
X209746420Y-101050130D01*
X209937598Y-100970941D01*
X210109655Y-100855977D01*
X210255977Y-100709655D01*
X210370941Y-100537598D01*
X210450130Y-100346420D01*
X210490500Y-100143465D01*
X210490500Y-99936535D01*
X210450130Y-99733580D01*
X210370941Y-99542402D01*
X210255977Y-99370345D01*
X210109655Y-99224023D01*
X209937598Y-99109059D01*
X209937599Y-99109059D01*
X209937597Y-99109058D01*
X209746418Y-99029869D01*
X209543467Y-98989500D01*
X209543465Y-98989500D01*
X209336535Y-98989500D01*
X209336532Y-98989500D01*
X209133581Y-99029869D01*
X208942402Y-99109058D01*
X208770348Y-99224020D01*
X208624020Y-99370348D01*
X208509058Y-99542402D01*
X208429869Y-99733582D01*
X208429868Y-99733586D01*
X208422214Y-99772063D01*
X208392317Y-99825446D01*
X208336751Y-99851061D01*
X208276742Y-99839123D01*
X208254537Y-99822169D01*
X208211874Y-99778794D01*
X208108042Y-99724805D01*
X208108043Y-99724805D01*
X208049850Y-99705898D01*
X207942808Y-99688944D01*
X207888291Y-99661166D01*
X207866831Y-99629048D01*
X207830942Y-99542404D01*
X207808894Y-99509407D01*
X207715977Y-99370345D01*
X207569655Y-99224023D01*
X207397598Y-99109059D01*
X207397599Y-99109059D01*
X207397597Y-99109058D01*
X207206418Y-99029869D01*
X207003467Y-98989500D01*
X207003465Y-98989500D01*
X206796535Y-98989500D01*
X206796532Y-98989500D01*
X206593581Y-99029869D01*
X206402402Y-99109058D01*
X206230348Y-99224020D01*
X206084020Y-99370348D01*
X205969058Y-99542402D01*
X205933857Y-99627386D01*
X205894120Y-99673912D01*
X205842393Y-99688500D01*
X202129000Y-99688500D01*
X202070809Y-99669593D01*
X202034845Y-99620093D01*
X202030000Y-99589500D01*
X202030000Y-97970001D01*
X202030000Y-97970000D01*
X197970000Y-97970000D01*
X197970000Y-97970001D01*
X197970000Y-99589500D01*
X197951093Y-99647691D01*
X197901593Y-99683655D01*
X197871000Y-99688500D01*
X197015798Y-99688500D01*
X196957607Y-99669593D01*
X196921643Y-99620093D01*
X196921643Y-99558907D01*
X196957607Y-99509407D01*
X197002875Y-99491347D01*
X197009306Y-99490500D01*
X197009309Y-99490500D01*
X197123886Y-99459799D01*
X197123888Y-99459797D01*
X197123890Y-99459797D01*
X197226608Y-99400492D01*
X197226608Y-99400491D01*
X197226613Y-99400489D01*
X197310489Y-99316613D01*
X197310492Y-99316608D01*
X197369797Y-99213890D01*
X197369797Y-99213888D01*
X197369799Y-99213886D01*
X197400500Y-99099309D01*
X197400500Y-98980691D01*
X197369799Y-98866114D01*
X197369797Y-98866111D01*
X197369797Y-98866109D01*
X197310492Y-98763391D01*
X197310490Y-98763389D01*
X197310489Y-98763387D01*
X197226613Y-98679511D01*
X197226610Y-98679509D01*
X197226608Y-98679507D01*
X197123889Y-98620202D01*
X197123890Y-98620202D01*
X197110351Y-98616574D01*
X197009309Y-98589500D01*
X196890691Y-98589500D01*
X196820567Y-98608289D01*
X196776109Y-98620202D01*
X196673391Y-98679507D01*
X196589507Y-98763391D01*
X196530202Y-98866109D01*
X196530201Y-98866114D01*
X196499500Y-98980691D01*
X196499500Y-99099309D01*
X196502113Y-99109059D01*
X196530202Y-99213890D01*
X196589507Y-99316608D01*
X196589509Y-99316610D01*
X196589511Y-99316613D01*
X196673387Y-99400489D01*
X196673389Y-99400490D01*
X196673391Y-99400492D01*
X196754055Y-99447064D01*
X196794996Y-99492534D01*
X196801392Y-99553384D01*
X196770799Y-99606372D01*
X196714903Y-99631258D01*
X196704555Y-99631800D01*
X192980000Y-99631800D01*
X192980000Y-99631801D01*
X192980000Y-101486800D01*
X192961093Y-101544991D01*
X192911593Y-101580955D01*
X192881000Y-101585800D01*
X192250000Y-101585800D01*
X192248814Y-102273581D01*
X192248800Y-102281478D01*
X187547096Y-102281478D01*
X187460712Y-101773060D01*
X187459938Y-101767571D01*
X187446584Y-101649058D01*
X187438512Y-101577415D01*
X190879802Y-101577415D01*
X190879802Y-101696033D01*
X190906876Y-101797075D01*
X190910504Y-101810614D01*
X190969809Y-101913332D01*
X190969811Y-101913334D01*
X190969813Y-101913337D01*
X191053689Y-101997213D01*
X191053691Y-101997214D01*
X191053693Y-101997216D01*
X191156412Y-102056521D01*
X191156413Y-102056521D01*
X191156416Y-102056523D01*
X191270993Y-102087224D01*
X191270995Y-102087224D01*
X191389609Y-102087224D01*
X191389611Y-102087224D01*
X191504188Y-102056523D01*
X191504190Y-102056521D01*
X191504192Y-102056521D01*
X191606910Y-101997216D01*
X191606910Y-101997215D01*
X191606915Y-101997213D01*
X191690791Y-101913337D01*
X191692517Y-101910348D01*
X191750099Y-101810614D01*
X191750099Y-101810612D01*
X191750101Y-101810610D01*
X191780802Y-101696033D01*
X191780802Y-101577415D01*
X191750101Y-101462838D01*
X191750099Y-101462835D01*
X191750099Y-101462833D01*
X191690794Y-101360115D01*
X191690792Y-101360113D01*
X191690791Y-101360111D01*
X191606915Y-101276235D01*
X191606912Y-101276233D01*
X191606910Y-101276231D01*
X191504191Y-101216926D01*
X191504192Y-101216926D01*
X191490653Y-101213298D01*
X191389611Y-101186224D01*
X191270993Y-101186224D01*
X191200869Y-101205013D01*
X191156411Y-101216926D01*
X191053693Y-101276231D01*
X190969809Y-101360115D01*
X190910504Y-101462833D01*
X190910503Y-101462838D01*
X190879802Y-101577415D01*
X187438512Y-101577415D01*
X187381019Y-101067153D01*
X187380556Y-101061657D01*
X187341038Y-100357958D01*
X187340882Y-100352407D01*
X187340882Y-99647592D01*
X187341038Y-99642041D01*
X187346633Y-99542404D01*
X187380556Y-98938339D01*
X187381019Y-98932849D01*
X187459938Y-98232415D01*
X187460714Y-98226930D01*
X187460959Y-98225492D01*
X187532285Y-97805691D01*
X190099500Y-97805691D01*
X190099500Y-97924309D01*
X190125086Y-98019797D01*
X190130202Y-98038890D01*
X190189507Y-98141608D01*
X190189509Y-98141610D01*
X190189511Y-98141613D01*
X190273387Y-98225489D01*
X190273389Y-98225490D01*
X190273391Y-98225492D01*
X190376110Y-98284797D01*
X190376111Y-98284797D01*
X190376114Y-98284799D01*
X190490691Y-98315500D01*
X190490693Y-98315500D01*
X190609307Y-98315500D01*
X190609309Y-98315500D01*
X190723886Y-98284799D01*
X190723888Y-98284797D01*
X190723890Y-98284797D01*
X190826608Y-98225492D01*
X190826608Y-98225491D01*
X190826613Y-98225489D01*
X190910489Y-98141613D01*
X190969799Y-98038886D01*
X191000500Y-97924309D01*
X191000500Y-97866748D01*
X191019407Y-97808557D01*
X191068907Y-97772593D01*
X191130093Y-97772593D01*
X191179593Y-97808557D01*
X191185230Y-97817238D01*
X191219511Y-97876613D01*
X191303387Y-97960489D01*
X191303389Y-97960490D01*
X191303391Y-97960492D01*
X191406110Y-98019797D01*
X191406111Y-98019797D01*
X191406114Y-98019799D01*
X191520691Y-98050500D01*
X191520693Y-98050500D01*
X191639307Y-98050500D01*
X191639309Y-98050500D01*
X191753886Y-98019799D01*
X191753888Y-98019797D01*
X191753890Y-98019797D01*
X191856608Y-97960492D01*
X191856608Y-97960491D01*
X191856613Y-97960489D01*
X191940489Y-97876613D01*
X191999799Y-97773886D01*
X192030500Y-97659309D01*
X192030500Y-97540691D01*
X191999799Y-97426114D01*
X191999797Y-97426111D01*
X191999797Y-97426109D01*
X191940492Y-97323391D01*
X191940490Y-97323389D01*
X191940489Y-97323387D01*
X191856613Y-97239511D01*
X191856610Y-97239509D01*
X191856608Y-97239507D01*
X191753889Y-97180202D01*
X191753890Y-97180202D01*
X191740351Y-97176574D01*
X191639309Y-97149500D01*
X191520691Y-97149500D01*
X191450567Y-97168289D01*
X191406109Y-97180202D01*
X191303391Y-97239507D01*
X191219507Y-97323391D01*
X191160202Y-97426109D01*
X191155086Y-97445202D01*
X191133261Y-97526657D01*
X191129500Y-97540692D01*
X191129500Y-97598251D01*
X191110593Y-97656442D01*
X191061093Y-97692406D01*
X190999907Y-97692406D01*
X190950407Y-97656442D01*
X190944764Y-97647751D01*
X190910492Y-97588391D01*
X190910490Y-97588389D01*
X190910489Y-97588387D01*
X190826613Y-97504511D01*
X190826610Y-97504509D01*
X190826608Y-97504507D01*
X190723889Y-97445202D01*
X190723890Y-97445202D01*
X190710351Y-97441574D01*
X190609309Y-97414500D01*
X190490691Y-97414500D01*
X190420567Y-97433289D01*
X190376109Y-97445202D01*
X190273391Y-97504507D01*
X190189507Y-97588391D01*
X190130202Y-97691109D01*
X190113037Y-97755169D01*
X190099500Y-97805691D01*
X187532285Y-97805691D01*
X187578772Y-97532087D01*
X187579853Y-97526657D01*
X187584909Y-97504507D01*
X187736693Y-96839491D01*
X187738067Y-96834167D01*
X187750592Y-96790691D01*
X194369500Y-96790691D01*
X194369500Y-96909309D01*
X194388256Y-96979307D01*
X194400202Y-97023890D01*
X194459507Y-97126608D01*
X194459509Y-97126610D01*
X194459511Y-97126613D01*
X194543387Y-97210489D01*
X194543389Y-97210490D01*
X194543391Y-97210492D01*
X194646110Y-97269797D01*
X194646111Y-97269797D01*
X194646114Y-97269799D01*
X194760691Y-97300500D01*
X194760693Y-97300500D01*
X194879307Y-97300500D01*
X194879309Y-97300500D01*
X194993886Y-97269799D01*
X194993888Y-97269797D01*
X194993890Y-97269797D01*
X195096608Y-97210492D01*
X195096608Y-97210491D01*
X195096613Y-97210489D01*
X195180489Y-97126613D01*
X195239799Y-97023886D01*
X195270500Y-96909309D01*
X195270500Y-96860691D01*
X195969500Y-96860691D01*
X195969500Y-96979309D01*
X195981446Y-97023890D01*
X196000202Y-97093890D01*
X196059507Y-97196608D01*
X196059509Y-97196610D01*
X196059511Y-97196613D01*
X196143387Y-97280489D01*
X196143389Y-97280490D01*
X196143391Y-97280492D01*
X196246110Y-97339797D01*
X196246111Y-97339797D01*
X196246114Y-97339799D01*
X196360691Y-97370500D01*
X196360693Y-97370500D01*
X196479307Y-97370500D01*
X196479309Y-97370500D01*
X196593886Y-97339799D01*
X196593888Y-97339797D01*
X196593890Y-97339797D01*
X196696608Y-97280492D01*
X196696608Y-97280491D01*
X196696613Y-97280489D01*
X196780489Y-97196613D01*
X196839799Y-97093886D01*
X196870500Y-96979309D01*
X196870500Y-96860691D01*
X196839799Y-96746114D01*
X196839797Y-96746111D01*
X196839797Y-96746109D01*
X196798677Y-96674888D01*
X196780492Y-96643391D01*
X196780490Y-96643389D01*
X196780489Y-96643387D01*
X196767355Y-96630253D01*
X205849500Y-96630253D01*
X205849500Y-98369746D01*
X205849501Y-98369758D01*
X205861132Y-98428227D01*
X205861133Y-98428231D01*
X205905448Y-98494552D01*
X205971769Y-98538867D01*
X206016231Y-98547711D01*
X206030241Y-98550498D01*
X206030246Y-98550498D01*
X206030252Y-98550500D01*
X206030253Y-98550500D01*
X207769747Y-98550500D01*
X207769748Y-98550500D01*
X207828231Y-98538867D01*
X207894552Y-98494552D01*
X207938867Y-98428231D01*
X207950500Y-98369748D01*
X207950500Y-96630252D01*
X207938867Y-96571769D01*
X207894552Y-96505448D01*
X207886701Y-96500202D01*
X207828233Y-96461134D01*
X207828231Y-96461133D01*
X207828228Y-96461132D01*
X207828227Y-96461132D01*
X207769758Y-96449501D01*
X207769748Y-96449500D01*
X206030252Y-96449500D01*
X206030251Y-96449500D01*
X206030241Y-96449501D01*
X205971772Y-96461132D01*
X205971766Y-96461134D01*
X205905451Y-96505445D01*
X205905445Y-96505451D01*
X205861134Y-96571766D01*
X205861132Y-96571772D01*
X205849501Y-96630241D01*
X205849500Y-96630253D01*
X196767355Y-96630253D01*
X196696613Y-96559511D01*
X196696610Y-96559509D01*
X196696608Y-96559507D01*
X196593889Y-96500202D01*
X196593890Y-96500202D01*
X196580351Y-96496574D01*
X196479309Y-96469500D01*
X196360691Y-96469500D01*
X196290567Y-96488289D01*
X196246109Y-96500202D01*
X196143391Y-96559507D01*
X196059507Y-96643391D01*
X196000202Y-96746109D01*
X195988256Y-96790692D01*
X195969500Y-96860691D01*
X195270500Y-96860691D01*
X195270500Y-96790691D01*
X195239799Y-96676114D01*
X195239797Y-96676111D01*
X195239797Y-96676109D01*
X195180492Y-96573391D01*
X195180490Y-96573389D01*
X195180489Y-96573387D01*
X195096613Y-96489511D01*
X195096610Y-96489509D01*
X195096608Y-96489507D01*
X194993889Y-96430202D01*
X194993890Y-96430202D01*
X194980351Y-96426574D01*
X194879309Y-96399500D01*
X194760691Y-96399500D01*
X194690567Y-96418289D01*
X194646109Y-96430202D01*
X194543391Y-96489507D01*
X194459507Y-96573391D01*
X194400202Y-96676109D01*
X194400201Y-96676114D01*
X194369500Y-96790691D01*
X187750592Y-96790691D01*
X187933203Y-96156835D01*
X187934870Y-96151606D01*
X188167667Y-95486311D01*
X188169628Y-95481172D01*
X188439367Y-94829963D01*
X188441624Y-94824922D01*
X188566124Y-94566395D01*
X195914500Y-94566395D01*
X195914500Y-94813604D01*
X195953169Y-95057755D01*
X196029561Y-95292863D01*
X196126801Y-95483709D01*
X196141788Y-95513121D01*
X196287090Y-95713112D01*
X196461888Y-95887910D01*
X196661879Y-96033212D01*
X196882137Y-96145439D01*
X197117240Y-96221829D01*
X197117241Y-96221829D01*
X197117244Y-96221830D01*
X197361396Y-96260500D01*
X197361399Y-96260500D01*
X197608604Y-96260500D01*
X197852755Y-96221830D01*
X197852756Y-96221829D01*
X197852760Y-96221829D01*
X198087863Y-96145439D01*
X198308121Y-96033212D01*
X198508112Y-95887910D01*
X198682910Y-95713112D01*
X198828212Y-95513121D01*
X198940439Y-95292863D01*
X199016829Y-95057760D01*
X199016830Y-95057755D01*
X199055500Y-94813604D01*
X199055500Y-94566395D01*
X200994500Y-94566395D01*
X200994500Y-94813604D01*
X201033169Y-95057755D01*
X201109561Y-95292863D01*
X201206801Y-95483709D01*
X201221788Y-95513121D01*
X201367090Y-95713112D01*
X201541888Y-95887910D01*
X201741879Y-96033212D01*
X201962137Y-96145439D01*
X202197240Y-96221829D01*
X202197241Y-96221829D01*
X202197244Y-96221830D01*
X202441396Y-96260500D01*
X202441399Y-96260500D01*
X202688604Y-96260500D01*
X202932755Y-96221830D01*
X202932756Y-96221829D01*
X202932760Y-96221829D01*
X203167863Y-96145439D01*
X203388121Y-96033212D01*
X203588112Y-95887910D01*
X203762910Y-95713112D01*
X203908212Y-95513121D01*
X204020439Y-95292863D01*
X204096829Y-95057760D01*
X204096830Y-95057755D01*
X204135500Y-94813604D01*
X204135500Y-94566395D01*
X204096830Y-94322244D01*
X204096829Y-94322240D01*
X204020439Y-94087137D01*
X203908212Y-93866879D01*
X203762910Y-93666888D01*
X203588112Y-93492090D01*
X203388121Y-93346788D01*
X203388120Y-93346787D01*
X203388118Y-93346786D01*
X203167863Y-93234561D01*
X202932755Y-93158169D01*
X202688604Y-93119500D01*
X202688601Y-93119500D01*
X202441399Y-93119500D01*
X202441396Y-93119500D01*
X202197244Y-93158169D01*
X201962136Y-93234561D01*
X201741881Y-93346786D01*
X201541889Y-93492089D01*
X201367089Y-93666889D01*
X201221786Y-93866881D01*
X201109561Y-94087136D01*
X201033169Y-94322244D01*
X200994500Y-94566395D01*
X199055500Y-94566395D01*
X199016830Y-94322244D01*
X199016829Y-94322240D01*
X198940439Y-94087137D01*
X198828212Y-93866879D01*
X198682910Y-93666888D01*
X198508112Y-93492090D01*
X198308121Y-93346788D01*
X198308120Y-93346787D01*
X198308118Y-93346786D01*
X198087863Y-93234561D01*
X197852755Y-93158169D01*
X197608604Y-93119500D01*
X197608601Y-93119500D01*
X197361399Y-93119500D01*
X197361396Y-93119500D01*
X197117244Y-93158169D01*
X196882136Y-93234561D01*
X196661881Y-93346786D01*
X196461889Y-93492089D01*
X196287089Y-93666889D01*
X196141786Y-93866881D01*
X196029561Y-94087136D01*
X195953169Y-94322244D01*
X195914500Y-94566395D01*
X188566124Y-94566395D01*
X188747447Y-94189874D01*
X188749968Y-94184996D01*
X189090914Y-93568100D01*
X189093714Y-93563354D01*
X189468720Y-92966534D01*
X189471779Y-92961956D01*
X189879654Y-92387109D01*
X189882990Y-92382679D01*
X190151426Y-92046070D01*
X198704500Y-92046070D01*
X198704500Y-92253929D01*
X198737014Y-92459219D01*
X198737015Y-92459223D01*
X198801241Y-92656889D01*
X198801243Y-92656892D01*
X198801244Y-92656895D01*
X198801245Y-92656896D01*
X198895607Y-92842093D01*
X199017779Y-93010248D01*
X199164752Y-93157221D01*
X199332907Y-93279393D01*
X199518104Y-93373755D01*
X199518106Y-93373755D01*
X199518107Y-93373756D01*
X199518110Y-93373758D01*
X199715776Y-93437984D01*
X199715780Y-93437985D01*
X199921071Y-93470500D01*
X199921074Y-93470500D01*
X200128929Y-93470500D01*
X200334219Y-93437985D01*
X200334223Y-93437984D01*
X200531889Y-93373758D01*
X200531891Y-93373756D01*
X200531896Y-93373755D01*
X200717093Y-93279393D01*
X200885248Y-93157221D01*
X201032221Y-93010248D01*
X201154393Y-92842093D01*
X201248755Y-92656896D01*
X201248756Y-92656891D01*
X201248758Y-92656889D01*
X201312984Y-92459223D01*
X201312985Y-92459219D01*
X201345500Y-92253929D01*
X201345500Y-92046070D01*
X201312985Y-91840780D01*
X201312984Y-91840776D01*
X201248758Y-91643110D01*
X201248756Y-91643107D01*
X201248755Y-91643106D01*
X201248755Y-91643104D01*
X201154393Y-91457907D01*
X201032221Y-91289752D01*
X200885248Y-91142779D01*
X200717093Y-91020607D01*
X200717092Y-91020606D01*
X200717090Y-91020605D01*
X200531892Y-90926243D01*
X200531889Y-90926241D01*
X200334223Y-90862015D01*
X200334219Y-90862014D01*
X200128929Y-90829500D01*
X200128926Y-90829500D01*
X199921074Y-90829500D01*
X199921071Y-90829500D01*
X199715780Y-90862014D01*
X199715776Y-90862015D01*
X199518110Y-90926241D01*
X199518107Y-90926243D01*
X199332909Y-91020605D01*
X199164753Y-91142778D01*
X199017778Y-91289753D01*
X198895605Y-91457909D01*
X198801243Y-91643107D01*
X198801241Y-91643110D01*
X198737015Y-91840776D01*
X198737014Y-91840780D01*
X198704500Y-92046070D01*
X190151426Y-92046070D01*
X190322441Y-91831624D01*
X190325983Y-91827429D01*
X190795661Y-91301860D01*
X190799440Y-91297862D01*
X191297862Y-90799440D01*
X191301860Y-90795661D01*
X191827429Y-90325983D01*
X191831642Y-90322426D01*
X192382685Y-89882985D01*
X192387116Y-89879650D01*
X192941357Y-89486395D01*
X195914500Y-89486395D01*
X195914500Y-89733604D01*
X195953169Y-89977755D01*
X196029561Y-90212863D01*
X196086266Y-90324154D01*
X196141788Y-90433121D01*
X196287090Y-90633112D01*
X196461888Y-90807910D01*
X196661879Y-90953212D01*
X196882137Y-91065439D01*
X197117240Y-91141829D01*
X197117241Y-91141829D01*
X197117244Y-91141830D01*
X197361396Y-91180500D01*
X197361399Y-91180500D01*
X197608604Y-91180500D01*
X197852755Y-91141830D01*
X197852756Y-91141829D01*
X197852760Y-91141829D01*
X198087863Y-91065439D01*
X198308121Y-90953212D01*
X198508112Y-90807910D01*
X198682910Y-90633112D01*
X198828212Y-90433121D01*
X198940439Y-90212863D01*
X199016829Y-89977760D01*
X199055500Y-89733601D01*
X199055500Y-89486399D01*
X199055500Y-89486395D01*
X200994500Y-89486395D01*
X200994500Y-89733604D01*
X201033169Y-89977755D01*
X201109561Y-90212863D01*
X201166266Y-90324154D01*
X201221788Y-90433121D01*
X201367090Y-90633112D01*
X201541888Y-90807910D01*
X201741879Y-90953212D01*
X201962137Y-91065439D01*
X202197240Y-91141829D01*
X202197241Y-91141829D01*
X202197244Y-91141830D01*
X202441396Y-91180500D01*
X202441399Y-91180500D01*
X202688604Y-91180500D01*
X202932755Y-91141830D01*
X202932756Y-91141829D01*
X202932760Y-91141829D01*
X203167863Y-91065439D01*
X203388121Y-90953212D01*
X203588112Y-90807910D01*
X203762910Y-90633112D01*
X203908212Y-90433121D01*
X204020439Y-90212863D01*
X204096829Y-89977760D01*
X204135500Y-89733601D01*
X204135500Y-89486399D01*
X204135500Y-89486395D01*
X204096830Y-89242244D01*
X204048094Y-89092251D01*
X204020439Y-89007137D01*
X203908212Y-88786879D01*
X203762910Y-88586888D01*
X203588112Y-88412090D01*
X203388121Y-88266788D01*
X203388120Y-88266787D01*
X203388118Y-88266786D01*
X203167863Y-88154561D01*
X202932755Y-88078169D01*
X202688604Y-88039500D01*
X202688601Y-88039500D01*
X202441399Y-88039500D01*
X202441396Y-88039500D01*
X202197244Y-88078169D01*
X201962136Y-88154561D01*
X201741881Y-88266786D01*
X201541889Y-88412089D01*
X201367089Y-88586889D01*
X201221786Y-88786881D01*
X201109561Y-89007136D01*
X201033169Y-89242244D01*
X200994500Y-89486395D01*
X199055500Y-89486395D01*
X199016830Y-89242244D01*
X198968094Y-89092251D01*
X198940439Y-89007137D01*
X198828212Y-88786879D01*
X198682910Y-88586888D01*
X198508112Y-88412090D01*
X198308121Y-88266788D01*
X198308120Y-88266787D01*
X198308118Y-88266786D01*
X198087863Y-88154561D01*
X197852755Y-88078169D01*
X197608604Y-88039500D01*
X197608601Y-88039500D01*
X197361399Y-88039500D01*
X197361396Y-88039500D01*
X197117244Y-88078169D01*
X196882136Y-88154561D01*
X196661881Y-88266786D01*
X196461889Y-88412089D01*
X196287089Y-88586889D01*
X196141786Y-88786881D01*
X196029561Y-89007136D01*
X195953169Y-89242244D01*
X195914500Y-89486395D01*
X192941357Y-89486395D01*
X192961956Y-89471779D01*
X192966534Y-89468720D01*
X193563354Y-89093714D01*
X193568100Y-89090914D01*
X194184996Y-88749968D01*
X194189874Y-88747447D01*
X194824948Y-88441611D01*
X194829963Y-88439367D01*
X195481172Y-88169628D01*
X195486311Y-88167667D01*
X196151606Y-87934870D01*
X196156835Y-87933203D01*
X196834167Y-87738067D01*
X196839491Y-87736693D01*
X197526665Y-87579851D01*
X197532087Y-87578772D01*
X198226944Y-87460711D01*
X198232415Y-87459938D01*
X198932849Y-87381019D01*
X198938339Y-87380556D01*
X199642041Y-87341037D01*
X199647592Y-87340882D01*
X200352408Y-87340882D01*
X200357958Y-87341037D01*
G37*
%TD.AperFunction*%
%TD*%
M02*
