M48
; DRILL file {KiCad 9.0.6} date 2026-06-14T18:39:03-0400
; FORMAT={-:-/ absolute / metric / decimal}
; #@! TF.CreationDate,2026-06-14T18:39:03-04:00
; #@! TF.GenerationSoftware,Kicad,Pcbnew,9.0.6
; #@! TF.FileFunction,Plated,1,4,PTH
FMAT,2
METRIC
; #@! TA.AperFunction,Plated,PTH,ViaDrill
T1C0.300
; #@! TA.AperFunction,Plated,PTH,ComponentDrill
T2C1.000
; #@! TA.AperFunction,Plated,PTH,ComponentDrill
T3C1.200
; #@! TA.AperFunction,Plated,PTH,ComponentDrill
T4C1.700
%
G90
G05
T1
X189.29Y-102.755
X190.55Y-97.865
X191.33Y-101.637
X191.58Y-97.6
X192.1Y-100.995
X193.394Y-101.91
X193.47Y-103.565
X194.75Y-100.095
X194.82Y-96.85
X194.894Y-102.399
X196.41Y-105.335
X196.42Y-96.92
X196.95Y-99.04
X200.45Y-106.4
X202.95Y-106.4
T2
X206.9Y-97.5
X206.9Y-100.04
X206.9Y-102.58
X209.44Y-97.5
X209.44Y-100.04
X209.44Y-102.58
T3
X200.025Y-92.15
T4
X197.485Y-89.61
X197.485Y-94.69
X202.565Y-89.61
X202.565Y-94.69
M30
