%TF.GenerationSoftware,KiCad,Pcbnew,9.0.6*%
%TF.CreationDate,2026-05-26T22:54:22-04:00*%
%TF.ProjectId,psu,7073752e-6b69-4636-9164-5f7063625858,rev?*%
%TF.SameCoordinates,Original*%
%TF.FileFunction,Soldermask,Top*%
%TF.FilePolarity,Negative*%
%FSLAX46Y46*%
G04 Gerber Fmt 4.6, Leading zero omitted, Abs format (unit mm)*
G04 Created by KiCad (PCBNEW 9.0.6) date 2026-05-26 22:54:22*
%MOMM*%
%LPD*%
G01*
G04 APERTURE LIST*
G04 Aperture macros list*
%AMRoundRect*
0 Rectangle with rounded corners*
0 $1 Rounding radius*
0 $2 $3 $4 $5 $6 $7 $8 $9 X,Y pos of 4 corners*
0 Add a 4 corners polygon primitive as box body*
4,1,4,$2,$3,$4,$5,$6,$7,$8,$9,$2,$3,0*
0 Add four circle primitives for the rounded corners*
1,1,$1+$1,$2,$3*
1,1,$1+$1,$4,$5*
1,1,$1+$1,$6,$7*
1,1,$1+$1,$8,$9*
0 Add four rect primitives between the rounded corners*
20,1,$1+$1,$2,$3,$4,$5,0*
20,1,$1+$1,$4,$5,$6,$7,0*
20,1,$1+$1,$6,$7,$8,$9,0*
20,1,$1+$1,$8,$9,$2,$3,0*%
G04 Aperture macros list end*
%ADD10C,0.000000*%
%ADD11RoundRect,0.218750X-0.218750X-0.256250X0.218750X-0.256250X0.218750X0.256250X-0.218750X0.256250X0*%
%ADD12R,1.473200X0.558800*%
%ADD13R,1.700000X1.700000*%
%ADD14O,1.700000X1.700000*%
%ADD15RoundRect,0.218750X0.256250X-0.218750X0.256250X0.218750X-0.256250X0.218750X-0.256250X-0.218750X0*%
%ADD16RoundRect,0.218750X-0.256250X0.218750X-0.256250X-0.218750X0.256250X-0.218750X0.256250X0.218750X0*%
%ADD17R,1.041400X0.609600*%
G04 APERTURE END LIST*
D10*
%TO.C,J1*%
G36*
X207257956Y-106016044D02*
G01*
X207267427Y-106017517D01*
X207276908Y-106019801D01*
X207286364Y-106022913D01*
X207295761Y-106026870D01*
X207305063Y-106031689D01*
X207314236Y-106037387D01*
X207323244Y-106043982D01*
X207332053Y-106051490D01*
X207340465Y-106059738D01*
X207348008Y-106068238D01*
X207354696Y-106076956D01*
X207360544Y-106085859D01*
X207365565Y-106094913D01*
X207369774Y-106104084D01*
X207373184Y-106113338D01*
X207375809Y-106122642D01*
X207377664Y-106131962D01*
X207378762Y-106141264D01*
X207379117Y-106150515D01*
X207378744Y-106159681D01*
X207377656Y-106168728D01*
X207375868Y-106177623D01*
X207373393Y-106186332D01*
X207370246Y-106194820D01*
X207366440Y-106203056D01*
X207361990Y-106211004D01*
X207356909Y-106218632D01*
X207351211Y-106225905D01*
X207344911Y-106232789D01*
X207338023Y-106239252D01*
X207330559Y-106245259D01*
X207322536Y-106250777D01*
X207313966Y-106255772D01*
X207304863Y-106260210D01*
X207295242Y-106264058D01*
X207285116Y-106267282D01*
X207274500Y-106269848D01*
X207263408Y-106271722D01*
X207251853Y-106272872D01*
X207239850Y-106273262D01*
X207227208Y-106272917D01*
X207216144Y-106271753D01*
X207206233Y-106269581D01*
X207197052Y-106266210D01*
X207188177Y-106261449D01*
X207179186Y-106255108D01*
X207169654Y-106246996D01*
X207159158Y-106236922D01*
X207148923Y-106226275D01*
X207140736Y-106216670D01*
X207134387Y-106207629D01*
X207129666Y-106198671D01*
X207126363Y-106189318D01*
X207124267Y-106179090D01*
X207123168Y-106167507D01*
X207122857Y-106154089D01*
X207123269Y-106142059D01*
X207124459Y-106130463D01*
X207126393Y-106119317D01*
X207129035Y-106108640D01*
X207132351Y-106098449D01*
X207136305Y-106088760D01*
X207140864Y-106079590D01*
X207145991Y-106070957D01*
X207151653Y-106062878D01*
X207157813Y-106055370D01*
X207164438Y-106048450D01*
X207171492Y-106042135D01*
X207178940Y-106036443D01*
X207186747Y-106031390D01*
X207194880Y-106026994D01*
X207203301Y-106023271D01*
X207211977Y-106020240D01*
X207220874Y-106017916D01*
X207229954Y-106016317D01*
X207239185Y-106015461D01*
X207248531Y-106015364D01*
X207257956Y-106016044D01*
G37*
G36*
X206303778Y-108995028D02*
G01*
X206315935Y-109006786D01*
X206328184Y-109018639D01*
X206340508Y-109030569D01*
X206352891Y-109042559D01*
X206365315Y-109054595D01*
X206377764Y-109066658D01*
X206390221Y-109078733D01*
X206402669Y-109090803D01*
X206415091Y-109102851D01*
X206427469Y-109114862D01*
X206439788Y-109126818D01*
X206452030Y-109138703D01*
X206464178Y-109150501D01*
X206476216Y-109162195D01*
X206488126Y-109173768D01*
X206499891Y-109185205D01*
X206511496Y-109196488D01*
X206522921Y-109207601D01*
X206534152Y-109218528D01*
X206545170Y-109229252D01*
X206555959Y-109239757D01*
X206566502Y-109250026D01*
X206576782Y-109260043D01*
X206586783Y-109269791D01*
X206596486Y-109279254D01*
X206605876Y-109288415D01*
X206614935Y-109297258D01*
X206623647Y-109305766D01*
X206631994Y-109313923D01*
X206639960Y-109321712D01*
X206647528Y-109329117D01*
X206654680Y-109336121D01*
X206661400Y-109342709D01*
X206667671Y-109348862D01*
X206673476Y-109354566D01*
X206678799Y-109359803D01*
X206683621Y-109364556D01*
X206687927Y-109368811D01*
X206691699Y-109372549D01*
X206694920Y-109375754D01*
X206697574Y-109378411D01*
X206699643Y-109380502D01*
X206701112Y-109382011D01*
X206701961Y-109382921D01*
X206702176Y-109383217D01*
X206700000Y-109382326D01*
X206694392Y-109379863D01*
X206685728Y-109375998D01*
X206674386Y-109370902D01*
X206660743Y-109364747D01*
X206645178Y-109357702D01*
X206628067Y-109349940D01*
X206609787Y-109341631D01*
X206609787Y-109341677D01*
X206604076Y-109339070D01*
X206597809Y-109336194D01*
X206591001Y-109333056D01*
X206583668Y-109329665D01*
X206575827Y-109326027D01*
X206567494Y-109322151D01*
X206558684Y-109318044D01*
X206549413Y-109313713D01*
X206539698Y-109309166D01*
X206529553Y-109304411D01*
X206518996Y-109299456D01*
X206508042Y-109294308D01*
X206496706Y-109288974D01*
X206485006Y-109283463D01*
X206472956Y-109277781D01*
X206460573Y-109271937D01*
X206447873Y-109265938D01*
X206434871Y-109259792D01*
X206421583Y-109253506D01*
X206408026Y-109247088D01*
X206394216Y-109240546D01*
X206380167Y-109233886D01*
X206365897Y-109227118D01*
X206351421Y-109220248D01*
X206336755Y-109213284D01*
X206321914Y-109206234D01*
X206306916Y-109199105D01*
X206291776Y-109191904D01*
X206276509Y-109184641D01*
X206261132Y-109177321D01*
X206245660Y-109169953D01*
X206230110Y-109162545D01*
X206214498Y-109155103D01*
X206198838Y-109147636D01*
X206183148Y-109140151D01*
X206167444Y-109132656D01*
X206151740Y-109125159D01*
X206136054Y-109117666D01*
X206120400Y-109110186D01*
X206104795Y-109102726D01*
X206089256Y-109095294D01*
X206073797Y-109087898D01*
X206058434Y-109080544D01*
X206043185Y-109073242D01*
X206028063Y-109065998D01*
X206013087Y-109058819D01*
X205998270Y-109051714D01*
X205983631Y-109044691D01*
X205969183Y-109037756D01*
X205954943Y-109030918D01*
X205940928Y-109024183D01*
X205927152Y-109017560D01*
X205913633Y-109011057D01*
X205900385Y-109004680D01*
X205887426Y-108998438D01*
X205874769Y-108992338D01*
X205862433Y-108986387D01*
X205850432Y-108980594D01*
X205838783Y-108974966D01*
X205827501Y-108969510D01*
X205816603Y-108964235D01*
X205806103Y-108959147D01*
X205796019Y-108954255D01*
X205786366Y-108949566D01*
X205777161Y-108945087D01*
X205768418Y-108940827D01*
X205760154Y-108936792D01*
X205752385Y-108932991D01*
X205745126Y-108929431D01*
X205738395Y-108926120D01*
X205732206Y-108923065D01*
X205726575Y-108920274D01*
X205721519Y-108917754D01*
X205717053Y-108915514D01*
X205713194Y-108913560D01*
X205709957Y-108911901D01*
X205707358Y-108910544D01*
X205705413Y-108909496D01*
X205704139Y-108908766D01*
X205703550Y-108908360D01*
X205702019Y-108906629D01*
X205701069Y-108905026D01*
X205700779Y-108903544D01*
X205701223Y-108902179D01*
X205702480Y-108900926D01*
X205704626Y-108899778D01*
X205707738Y-108898732D01*
X205711893Y-108897782D01*
X205717167Y-108896922D01*
X205723638Y-108896147D01*
X205731382Y-108895453D01*
X205740477Y-108894833D01*
X205750998Y-108894283D01*
X205763024Y-108893797D01*
X205776630Y-108893371D01*
X205791894Y-108892998D01*
X205808893Y-108892674D01*
X205827702Y-108892393D01*
X205848400Y-108892150D01*
X205871063Y-108891940D01*
X205895768Y-108891758D01*
X205922592Y-108891599D01*
X205951611Y-108891457D01*
X206195499Y-108890314D01*
X206303778Y-108995028D01*
G37*
G36*
X207833673Y-105974106D02*
G01*
X207835464Y-105974435D01*
X207838176Y-105974977D01*
X207841782Y-105975724D01*
X207846251Y-105976670D01*
X207851556Y-105977808D01*
X207857666Y-105979132D01*
X207864554Y-105980635D01*
X207872190Y-105982311D01*
X207880546Y-105984153D01*
X207889592Y-105986155D01*
X207899299Y-105988310D01*
X207909639Y-105990612D01*
X207920583Y-105993054D01*
X207932101Y-105995629D01*
X207944166Y-105998331D01*
X207956747Y-106001154D01*
X207969817Y-106004091D01*
X207983345Y-106007135D01*
X207997304Y-106010281D01*
X208011663Y-106013521D01*
X208026396Y-106016848D01*
X208041471Y-106020257D01*
X208056861Y-106023741D01*
X208072537Y-106027294D01*
X208088469Y-106030908D01*
X208104629Y-106034577D01*
X208120988Y-106038295D01*
X208137517Y-106042055D01*
X208154187Y-106045852D01*
X208170969Y-106049677D01*
X208187833Y-106053525D01*
X208204752Y-106057389D01*
X208221697Y-106061262D01*
X208238638Y-106065139D01*
X208255546Y-106069012D01*
X208272393Y-106072876D01*
X208289149Y-106076722D01*
X208305786Y-106080546D01*
X208322275Y-106084341D01*
X208338586Y-106088099D01*
X208357866Y-106092613D01*
X208376291Y-106097060D01*
X208393653Y-106101384D01*
X208409746Y-106105526D01*
X208424363Y-106109430D01*
X208437299Y-106113036D01*
X208448346Y-106116288D01*
X208457298Y-106119129D01*
X208463947Y-106121499D01*
X208468089Y-106123343D01*
X208469516Y-106124602D01*
X208467716Y-106126427D01*
X208462559Y-106129200D01*
X208454405Y-106132784D01*
X208443615Y-106137043D01*
X208430553Y-106141838D01*
X208415578Y-106147034D01*
X208399054Y-106152492D01*
X208381341Y-106158076D01*
X208375121Y-106159997D01*
X208368126Y-106162166D01*
X208360396Y-106164572D01*
X208351971Y-106167202D01*
X208342891Y-106170042D01*
X208333195Y-106173081D01*
X208322924Y-106176306D01*
X208312118Y-106179704D01*
X208300815Y-106183263D01*
X208289056Y-106186970D01*
X208276881Y-106190812D01*
X208264330Y-106194778D01*
X208251442Y-106198853D01*
X208238257Y-106203026D01*
X208224815Y-106207285D01*
X208211156Y-106211615D01*
X208197320Y-106216006D01*
X208183346Y-106220444D01*
X208169275Y-106224917D01*
X208155146Y-106229412D01*
X208140998Y-106233916D01*
X208126873Y-106238418D01*
X208112809Y-106242903D01*
X208098847Y-106247361D01*
X208085026Y-106251778D01*
X208062735Y-106258897D01*
X208040882Y-106265861D01*
X208019468Y-106272670D01*
X207998496Y-106279322D01*
X207977969Y-106285818D01*
X207957887Y-106292155D01*
X207938255Y-106298334D01*
X207919074Y-106304355D01*
X207900345Y-106310216D01*
X207882073Y-106315916D01*
X207864258Y-106321455D01*
X207846904Y-106326833D01*
X207830012Y-106332048D01*
X207813585Y-106337101D01*
X207797625Y-106341989D01*
X207782134Y-106346714D01*
X207767115Y-106351273D01*
X207752570Y-106355667D01*
X207738501Y-106359895D01*
X207724911Y-106363955D01*
X207711801Y-106367848D01*
X207699175Y-106371573D01*
X207687034Y-106375128D01*
X207675380Y-106378514D01*
X207664217Y-106381730D01*
X207653546Y-106384775D01*
X207643369Y-106387648D01*
X207633689Y-106390349D01*
X207624508Y-106392877D01*
X207615829Y-106395231D01*
X207607653Y-106397411D01*
X207599984Y-106399416D01*
X207592822Y-106401245D01*
X207586171Y-106402898D01*
X207580033Y-106404374D01*
X207574410Y-106405673D01*
X207569305Y-106406793D01*
X207564719Y-106407734D01*
X207560656Y-106408496D01*
X207557116Y-106409077D01*
X207554103Y-106409478D01*
X207551619Y-106409697D01*
X207549666Y-106409733D01*
X207548247Y-106409587D01*
X207547363Y-106409257D01*
X207547018Y-106408743D01*
X207547212Y-106408044D01*
X207547218Y-106408044D01*
X207549798Y-106403758D01*
X207553085Y-106398470D01*
X207557036Y-106392241D01*
X207561610Y-106385133D01*
X207566764Y-106377209D01*
X207572455Y-106368529D01*
X207578641Y-106359156D01*
X207585280Y-106349153D01*
X207592330Y-106338580D01*
X207599749Y-106327501D01*
X207607493Y-106315977D01*
X207615522Y-106304070D01*
X207623792Y-106291842D01*
X207632261Y-106279355D01*
X207640888Y-106266672D01*
X207649629Y-106253853D01*
X207658442Y-106240962D01*
X207667286Y-106228060D01*
X207676117Y-106215209D01*
X207684894Y-106202472D01*
X207693575Y-106189910D01*
X207702116Y-106177585D01*
X207710476Y-106165559D01*
X207718612Y-106153894D01*
X207726483Y-106142653D01*
X207734045Y-106131897D01*
X207741257Y-106121689D01*
X207748077Y-106112090D01*
X207754461Y-106103162D01*
X207760368Y-106094967D01*
X207765755Y-106087568D01*
X207775855Y-106073594D01*
X207785449Y-106059959D01*
X207794405Y-106046872D01*
X207802593Y-106034541D01*
X207809882Y-106023175D01*
X207816139Y-106012984D01*
X207821235Y-106004175D01*
X207825037Y-105996957D01*
X207827414Y-105991541D01*
X207828236Y-105988133D01*
X207829587Y-105978149D01*
X207832833Y-105973994D01*
X207833673Y-105974106D01*
G37*
G36*
X204907616Y-108926320D02*
G01*
X204923734Y-108927795D01*
X204928490Y-108928264D01*
X204934305Y-108928726D01*
X204941127Y-108929179D01*
X204948903Y-108929621D01*
X204957580Y-108930051D01*
X204967105Y-108930469D01*
X204977425Y-108930873D01*
X204988488Y-108931261D01*
X205000240Y-108931632D01*
X205012629Y-108931985D01*
X205025602Y-108932319D01*
X205039105Y-108932633D01*
X205053087Y-108932924D01*
X205067495Y-108933192D01*
X205082274Y-108933436D01*
X205097373Y-108933654D01*
X205112739Y-108933845D01*
X205128319Y-108934007D01*
X205144060Y-108934140D01*
X205159909Y-108934242D01*
X205175814Y-108934312D01*
X205191720Y-108934348D01*
X205403593Y-108934602D01*
X205438894Y-108974682D01*
X205441527Y-108977681D01*
X205444768Y-108981391D01*
X205448596Y-108985785D01*
X205452986Y-108990836D01*
X205457917Y-108996519D01*
X205463367Y-109002807D01*
X205469312Y-109009674D01*
X205475730Y-109017093D01*
X205482598Y-109025039D01*
X205489894Y-109033485D01*
X205497595Y-109042405D01*
X205505679Y-109051772D01*
X205514123Y-109061560D01*
X205522904Y-109071743D01*
X205532000Y-109082294D01*
X205541388Y-109093188D01*
X205551045Y-109104398D01*
X205560950Y-109115898D01*
X205571079Y-109127661D01*
X205581410Y-109139661D01*
X205591919Y-109151872D01*
X205602586Y-109164268D01*
X205613387Y-109176822D01*
X205624299Y-109189508D01*
X205635300Y-109202299D01*
X205646368Y-109215170D01*
X205657479Y-109228094D01*
X205668611Y-109241045D01*
X205679741Y-109253997D01*
X205690848Y-109266923D01*
X205701907Y-109279797D01*
X205712898Y-109292592D01*
X205723796Y-109305283D01*
X205734580Y-109317843D01*
X205745227Y-109330246D01*
X205755715Y-109342465D01*
X205766020Y-109354475D01*
X205776120Y-109366248D01*
X205785992Y-109377760D01*
X205795615Y-109388982D01*
X205804965Y-109399890D01*
X205814020Y-109410456D01*
X205822757Y-109420656D01*
X205831153Y-109430461D01*
X205839186Y-109439846D01*
X205846834Y-109448785D01*
X205854074Y-109457251D01*
X205860882Y-109465219D01*
X205867238Y-109472661D01*
X205873117Y-109479551D01*
X205878498Y-109485864D01*
X205883357Y-109491573D01*
X205887673Y-109496652D01*
X205891423Y-109501074D01*
X205894583Y-109504812D01*
X205897132Y-109507842D01*
X205908153Y-109521737D01*
X205915857Y-109532969D01*
X205919542Y-109540390D01*
X205918509Y-109542851D01*
X205915549Y-109541900D01*
X205910075Y-109539483D01*
X205902361Y-109535741D01*
X205892676Y-109530819D01*
X205881293Y-109524858D01*
X205868483Y-109518001D01*
X205854518Y-109510392D01*
X205839669Y-109502173D01*
X205824209Y-109493487D01*
X205824209Y-109493494D01*
X205816830Y-109489314D01*
X205809200Y-109484984D01*
X205801324Y-109480507D01*
X205793209Y-109475887D01*
X205784863Y-109471129D01*
X205776293Y-109466236D01*
X205767504Y-109461212D01*
X205758505Y-109456062D01*
X205749301Y-109450789D01*
X205739901Y-109445398D01*
X205730310Y-109439892D01*
X205720536Y-109434275D01*
X205710586Y-109428552D01*
X205700466Y-109422726D01*
X205690184Y-109416802D01*
X205679745Y-109410784D01*
X205669158Y-109404675D01*
X205658429Y-109398479D01*
X205647566Y-109392201D01*
X205636573Y-109385845D01*
X205625460Y-109379414D01*
X205614233Y-109372913D01*
X205602898Y-109366345D01*
X205591462Y-109359715D01*
X205579934Y-109353027D01*
X205568318Y-109346285D01*
X205556622Y-109339492D01*
X205544854Y-109332653D01*
X205533019Y-109325772D01*
X205521125Y-109318852D01*
X205509179Y-109311898D01*
X205497188Y-109304914D01*
X205485158Y-109297904D01*
X205473096Y-109290872D01*
X205461010Y-109283821D01*
X205448906Y-109276757D01*
X205436792Y-109269682D01*
X205424673Y-109262601D01*
X205412558Y-109255518D01*
X205400452Y-109248437D01*
X205388363Y-109241362D01*
X205376297Y-109234297D01*
X205364262Y-109227246D01*
X205352265Y-109220213D01*
X205340312Y-109213202D01*
X205328410Y-109206217D01*
X205316566Y-109199262D01*
X205304787Y-109192341D01*
X205293081Y-109185459D01*
X205281453Y-109178618D01*
X205269910Y-109171823D01*
X205258461Y-109165079D01*
X205247111Y-109158389D01*
X205235867Y-109151757D01*
X205224736Y-109145187D01*
X205213726Y-109138684D01*
X205202843Y-109132250D01*
X205192094Y-109125891D01*
X205181486Y-109119610D01*
X205171026Y-109113412D01*
X205160720Y-109107299D01*
X205150576Y-109101278D01*
X205140600Y-109095350D01*
X205125437Y-109086347D01*
X205110376Y-109077427D01*
X205095464Y-109068617D01*
X205080748Y-109059943D01*
X205066274Y-109051434D01*
X205052090Y-109043116D01*
X205038242Y-109035016D01*
X205024777Y-109027161D01*
X205011743Y-109019579D01*
X204999186Y-109012296D01*
X204987153Y-109005340D01*
X204975691Y-108998737D01*
X204964846Y-108992515D01*
X204954667Y-108986700D01*
X204945199Y-108981320D01*
X204936489Y-108976402D01*
X204928585Y-108971973D01*
X204921534Y-108968060D01*
X204915382Y-108964689D01*
X204910175Y-108961889D01*
X204905962Y-108959686D01*
X204902789Y-108958107D01*
X204890113Y-108951651D01*
X204880427Y-108945829D01*
X204873705Y-108940677D01*
X204869924Y-108936229D01*
X204869059Y-108932521D01*
X204871085Y-108929588D01*
X204875978Y-108927467D01*
X204883714Y-108926191D01*
X204894268Y-108925797D01*
X204907616Y-108926320D01*
G37*
G36*
X204941848Y-108579776D02*
G01*
X204941200Y-108581150D01*
X204939447Y-108583310D01*
X204936639Y-108586219D01*
X204932829Y-108589836D01*
X204928066Y-108594123D01*
X204922402Y-108599042D01*
X204915887Y-108604553D01*
X204908572Y-108610619D01*
X204900510Y-108617200D01*
X204891749Y-108624257D01*
X204882342Y-108631753D01*
X204872339Y-108639647D01*
X204861791Y-108647903D01*
X204850750Y-108656480D01*
X204839265Y-108665340D01*
X204827388Y-108674444D01*
X204815171Y-108683754D01*
X204802663Y-108693231D01*
X204789916Y-108702836D01*
X204776981Y-108712531D01*
X204763908Y-108722276D01*
X204750750Y-108732034D01*
X204737555Y-108741765D01*
X204724377Y-108751430D01*
X204711264Y-108760992D01*
X204698269Y-108770411D01*
X204685443Y-108779648D01*
X204672835Y-108788665D01*
X204660498Y-108797424D01*
X204648482Y-108805884D01*
X204636839Y-108814009D01*
X204625618Y-108821758D01*
X204614871Y-108829093D01*
X204604649Y-108835977D01*
X204600118Y-108838996D01*
X204595442Y-108842095D01*
X204590622Y-108845273D01*
X204585658Y-108848530D01*
X204580551Y-108851866D01*
X204575302Y-108855280D01*
X204569911Y-108858772D01*
X204564379Y-108862341D01*
X204558706Y-108865987D01*
X204552894Y-108869711D01*
X204546941Y-108873510D01*
X204540850Y-108877386D01*
X204534621Y-108881337D01*
X204528255Y-108885364D01*
X204521751Y-108889465D01*
X204515111Y-108893642D01*
X204508336Y-108897892D01*
X204501425Y-108902217D01*
X204494380Y-108906614D01*
X204487200Y-108911085D01*
X204479888Y-108915629D01*
X204472443Y-108920245D01*
X204464866Y-108924934D01*
X204457157Y-108929694D01*
X204449317Y-108934525D01*
X204441347Y-108939427D01*
X204433248Y-108944400D01*
X204425019Y-108949444D01*
X204416663Y-108954557D01*
X204408178Y-108959739D01*
X204399566Y-108964991D01*
X204390827Y-108970312D01*
X204381963Y-108975701D01*
X204372973Y-108981158D01*
X204363858Y-108986683D01*
X204354619Y-108992275D01*
X204345257Y-108997935D01*
X204335771Y-109003661D01*
X204326163Y-109009453D01*
X204316434Y-109015311D01*
X204306583Y-109021235D01*
X204296612Y-109027224D01*
X204286521Y-109033278D01*
X204276311Y-109039396D01*
X204265982Y-109045578D01*
X204255534Y-109051824D01*
X204244970Y-109058134D01*
X204234288Y-109064506D01*
X204223490Y-109070941D01*
X204212577Y-109077439D01*
X204201549Y-109083998D01*
X204190406Y-109090619D01*
X204179149Y-109097302D01*
X204167779Y-109104045D01*
X204156296Y-109110848D01*
X204144702Y-109117712D01*
X204132996Y-109124636D01*
X204121179Y-109131619D01*
X204109252Y-109138660D01*
X204097215Y-109145761D01*
X204085070Y-109152920D01*
X204072816Y-109160137D01*
X204060455Y-109167412D01*
X204047986Y-109174744D01*
X204035410Y-109182132D01*
X204022729Y-109189577D01*
X204009943Y-109197079D01*
X203997052Y-109204636D01*
X203984056Y-109212249D01*
X203970957Y-109219916D01*
X203957756Y-109227639D01*
X203944452Y-109235415D01*
X203931046Y-109243246D01*
X203917540Y-109251131D01*
X203903932Y-109259068D01*
X203890225Y-109267059D01*
X203876419Y-109275102D01*
X203862514Y-109283197D01*
X203848512Y-109291344D01*
X203834411Y-109299543D01*
X203820214Y-109307792D01*
X203805921Y-109316093D01*
X203791532Y-109324444D01*
X203777048Y-109332844D01*
X203762470Y-109341295D01*
X203747798Y-109349795D01*
X203733033Y-109358343D01*
X203718176Y-109366940D01*
X203703226Y-109375586D01*
X203688185Y-109384279D01*
X203673054Y-109393020D01*
X203657832Y-109401808D01*
X203642521Y-109410642D01*
X203627121Y-109419523D01*
X203611632Y-109428450D01*
X203596056Y-109437423D01*
X203580393Y-109446441D01*
X203564644Y-109455504D01*
X203548808Y-109464612D01*
X203532888Y-109473763D01*
X203516882Y-109482959D01*
X203500793Y-109492198D01*
X203484014Y-109501813D01*
X203467645Y-109511159D01*
X203451773Y-109520187D01*
X203436487Y-109528848D01*
X203421872Y-109537094D01*
X203408017Y-109544877D01*
X203395009Y-109552149D01*
X203382935Y-109558860D01*
X203371883Y-109564964D01*
X203361939Y-109570410D01*
X203353192Y-109575152D01*
X203345728Y-109579139D01*
X203339635Y-109582325D01*
X203335000Y-109584661D01*
X203331911Y-109586098D01*
X203330454Y-109586587D01*
X203330271Y-109584268D01*
X203334143Y-109577953D01*
X203341386Y-109568607D01*
X203351316Y-109557194D01*
X203351316Y-109557192D01*
X203353182Y-109555043D01*
X203355609Y-109552078D01*
X203358578Y-109548325D01*
X203362069Y-109543810D01*
X203366065Y-109538559D01*
X203370544Y-109532601D01*
X203375488Y-109525960D01*
X203380878Y-109518665D01*
X203386695Y-109510743D01*
X203392918Y-109502219D01*
X203399530Y-109493121D01*
X203406510Y-109483476D01*
X203413840Y-109473311D01*
X203421500Y-109462652D01*
X203429471Y-109451526D01*
X203437733Y-109439961D01*
X203446268Y-109427982D01*
X203455056Y-109415617D01*
X203464078Y-109402892D01*
X203473315Y-109389835D01*
X203482747Y-109376473D01*
X203492355Y-109362831D01*
X203502120Y-109348938D01*
X203512022Y-109334819D01*
X203522043Y-109320502D01*
X203532163Y-109306013D01*
X203542363Y-109291380D01*
X203552623Y-109276628D01*
X203563253Y-109261343D01*
X203573799Y-109246203D01*
X203584241Y-109231239D01*
X203594557Y-109216481D01*
X203604726Y-109201957D01*
X203614728Y-109187697D01*
X203624541Y-109173730D01*
X203634145Y-109160086D01*
X203643518Y-109146795D01*
X203652640Y-109133884D01*
X203661490Y-109121385D01*
X203670047Y-109109325D01*
X203678289Y-109097736D01*
X203686196Y-109086645D01*
X203693747Y-109076083D01*
X203700921Y-109066079D01*
X203707697Y-109056661D01*
X203714054Y-109047861D01*
X203719971Y-109039706D01*
X203725427Y-109032226D01*
X203730402Y-109025451D01*
X203734874Y-109019410D01*
X203738822Y-109014133D01*
X203742225Y-109009648D01*
X203745063Y-109005986D01*
X203747315Y-109003175D01*
X203748958Y-109001245D01*
X203753102Y-108997308D01*
X203758609Y-108993155D01*
X203765432Y-108988809D01*
X203773525Y-108984289D01*
X203782841Y-108979616D01*
X203793331Y-108974811D01*
X203804950Y-108969896D01*
X203817650Y-108964889D01*
X203831383Y-108959814D01*
X203846103Y-108954689D01*
X203861762Y-108949535D01*
X203878313Y-108944375D01*
X203891220Y-108940447D01*
X203904174Y-108936491D01*
X203917170Y-108932507D01*
X203930208Y-108928495D01*
X203943284Y-108924457D01*
X203956397Y-108920394D01*
X203969543Y-108916305D01*
X203982720Y-108912194D01*
X203995925Y-108908059D01*
X204009157Y-108903902D01*
X204022413Y-108899724D01*
X204035689Y-108895526D01*
X204048984Y-108891308D01*
X204062296Y-108887072D01*
X204075621Y-108882818D01*
X204088957Y-108878547D01*
X204102303Y-108874260D01*
X204115654Y-108869958D01*
X204129009Y-108865642D01*
X204142366Y-108861312D01*
X204155721Y-108856970D01*
X204169073Y-108852616D01*
X204182418Y-108848251D01*
X204195755Y-108843876D01*
X204209081Y-108839492D01*
X204222393Y-108835100D01*
X204235689Y-108830701D01*
X204248967Y-108826295D01*
X204262223Y-108821883D01*
X204275456Y-108817466D01*
X204288663Y-108813046D01*
X204301842Y-108808622D01*
X204314990Y-108804196D01*
X204328104Y-108799769D01*
X204341182Y-108795342D01*
X204354222Y-108790914D01*
X204367220Y-108786488D01*
X204380176Y-108782064D01*
X204393085Y-108777643D01*
X204405947Y-108773226D01*
X204418757Y-108768813D01*
X204431514Y-108764406D01*
X204444216Y-108760006D01*
X204456859Y-108755612D01*
X204469441Y-108751227D01*
X204481960Y-108746851D01*
X204494413Y-108742484D01*
X204506798Y-108738128D01*
X204519113Y-108733784D01*
X204531354Y-108729452D01*
X204543520Y-108725134D01*
X204555607Y-108720829D01*
X204567614Y-108716540D01*
X204579538Y-108712267D01*
X204591376Y-108708010D01*
X204603126Y-108703771D01*
X204614785Y-108699550D01*
X204626352Y-108695348D01*
X204637823Y-108691167D01*
X204649196Y-108687007D01*
X204660468Y-108682869D01*
X204671638Y-108678753D01*
X204682702Y-108674661D01*
X204693658Y-108670594D01*
X204704504Y-108666552D01*
X204715237Y-108662536D01*
X204725854Y-108658547D01*
X204736354Y-108654586D01*
X204746733Y-108650654D01*
X204756990Y-108646751D01*
X204767121Y-108642879D01*
X204777124Y-108639039D01*
X204786997Y-108635230D01*
X204796738Y-108631455D01*
X204806343Y-108627714D01*
X204815810Y-108624007D01*
X204825137Y-108620336D01*
X204834322Y-108616702D01*
X204843361Y-108613105D01*
X204852253Y-108609547D01*
X204860995Y-108606027D01*
X204869583Y-108602548D01*
X204878017Y-108599109D01*
X204886294Y-108595712D01*
X204894410Y-108592358D01*
X204902364Y-108589047D01*
X204917877Y-108583135D01*
X204930493Y-108579416D01*
X204938915Y-108578195D01*
X204941848Y-108579776D01*
G37*
G36*
X205088549Y-107817918D02*
G01*
X205088817Y-107819308D01*
X205087729Y-107821509D01*
X205085316Y-107824509D01*
X205083422Y-107826596D01*
X205080766Y-107829504D01*
X205077377Y-107833201D01*
X205073283Y-107837657D01*
X205068513Y-107842842D01*
X205063094Y-107848724D01*
X205057056Y-107855274D01*
X205050426Y-107862461D01*
X205043232Y-107870253D01*
X205035504Y-107878621D01*
X205027269Y-107887534D01*
X205018556Y-107896960D01*
X205009393Y-107906871D01*
X204999808Y-107917234D01*
X204989829Y-107928019D01*
X204979486Y-107939196D01*
X204968806Y-107950734D01*
X204957817Y-107962603D01*
X204946549Y-107974771D01*
X204935028Y-107987208D01*
X204923284Y-107999884D01*
X204911345Y-108012768D01*
X204899239Y-108025829D01*
X204886994Y-108039036D01*
X204874639Y-108052360D01*
X204860680Y-108067432D01*
X204847009Y-108082231D01*
X204833662Y-108096717D01*
X204820676Y-108110849D01*
X204808088Y-108124586D01*
X204795934Y-108137888D01*
X204784250Y-108150714D01*
X204773073Y-108163024D01*
X204762439Y-108174776D01*
X204752384Y-108185930D01*
X204742944Y-108196446D01*
X204734157Y-108206283D01*
X204726059Y-108215400D01*
X204718685Y-108223757D01*
X204712073Y-108231313D01*
X204706258Y-108238028D01*
X204701278Y-108243860D01*
X204697168Y-108248769D01*
X204693964Y-108252715D01*
X204691704Y-108255657D01*
X204690424Y-108257554D01*
X204690159Y-108258365D01*
X204691147Y-108258904D01*
X204692806Y-108259229D01*
X204695123Y-108259345D01*
X204698081Y-108259257D01*
X204701665Y-108258968D01*
X204705861Y-108258484D01*
X204710653Y-108257808D01*
X204716026Y-108256944D01*
X204721964Y-108255898D01*
X204728454Y-108254673D01*
X204735479Y-108253274D01*
X204743024Y-108251706D01*
X204751074Y-108249971D01*
X204759615Y-108248076D01*
X204768630Y-108246023D01*
X204778105Y-108243818D01*
X204788025Y-108241465D01*
X204798374Y-108238969D01*
X204809137Y-108236332D01*
X204820299Y-108233561D01*
X204831845Y-108230659D01*
X204843760Y-108227630D01*
X204856029Y-108224479D01*
X204868636Y-108221211D01*
X204881566Y-108217829D01*
X204894804Y-108214338D01*
X204908335Y-108210743D01*
X204922144Y-108207047D01*
X204936216Y-108203255D01*
X204950535Y-108199371D01*
X204965086Y-108195400D01*
X204979854Y-108191346D01*
X204994825Y-108187213D01*
X205009982Y-108183006D01*
X205025311Y-108178729D01*
X205040796Y-108174387D01*
X205056423Y-108169983D01*
X205072176Y-108165522D01*
X205088040Y-108161009D01*
X205103999Y-108156447D01*
X205120040Y-108151842D01*
X205136146Y-108147196D01*
X205152302Y-108142516D01*
X205168494Y-108137805D01*
X205184705Y-108133067D01*
X205200921Y-108128307D01*
X205217128Y-108123529D01*
X205233308Y-108118738D01*
X205249448Y-108113937D01*
X205265533Y-108109132D01*
X205281546Y-108104326D01*
X205297473Y-108099524D01*
X205313300Y-108094731D01*
X205329009Y-108089950D01*
X205344587Y-108085185D01*
X205360019Y-108080442D01*
X205375288Y-108075725D01*
X205390381Y-108071037D01*
X205405281Y-108066384D01*
X205419974Y-108061769D01*
X205434444Y-108057198D01*
X205448677Y-108052673D01*
X205462657Y-108048200D01*
X205476369Y-108043784D01*
X205489797Y-108039427D01*
X205502927Y-108035135D01*
X205515744Y-108030913D01*
X205528232Y-108026763D01*
X205540377Y-108022691D01*
X205552162Y-108018702D01*
X205563573Y-108014798D01*
X205574595Y-108010986D01*
X205585213Y-108007268D01*
X205595410Y-108003650D01*
X205605173Y-108000136D01*
X205614486Y-107996730D01*
X205623334Y-107993436D01*
X205631702Y-107990259D01*
X205639574Y-107987203D01*
X205646936Y-107984273D01*
X205656552Y-107980467D01*
X205665070Y-107977261D01*
X205672478Y-107974670D01*
X205678764Y-107972706D01*
X205683914Y-107971385D01*
X205687918Y-107970720D01*
X205690762Y-107970725D01*
X205692434Y-107971414D01*
X205692922Y-107972801D01*
X205692214Y-107974901D01*
X205690296Y-107977727D01*
X205687157Y-107981293D01*
X205682785Y-107985613D01*
X205677167Y-107990702D01*
X205670290Y-107996573D01*
X205662143Y-108003241D01*
X205652713Y-108010719D01*
X205641987Y-108019021D01*
X205629954Y-108028162D01*
X205616601Y-108038155D01*
X205601916Y-108049015D01*
X205585886Y-108060755D01*
X205568499Y-108073390D01*
X205559373Y-108079977D01*
X205550213Y-108086544D01*
X205541020Y-108093093D01*
X205531791Y-108099621D01*
X205522528Y-108106131D01*
X205513231Y-108112621D01*
X205503899Y-108119092D01*
X205494531Y-108125544D01*
X205485129Y-108131977D01*
X205475691Y-108138392D01*
X205466217Y-108144787D01*
X205456708Y-108151164D01*
X205447163Y-108157522D01*
X205437582Y-108163862D01*
X205427964Y-108170184D01*
X205418310Y-108176487D01*
X205408619Y-108182772D01*
X205398892Y-108189039D01*
X205389128Y-108195287D01*
X205379326Y-108201518D01*
X205369488Y-108207731D01*
X205359611Y-108213926D01*
X205349697Y-108220104D01*
X205339746Y-108226263D01*
X205329756Y-108232406D01*
X205319728Y-108238531D01*
X205309662Y-108244638D01*
X205299557Y-108250729D01*
X205289413Y-108256802D01*
X205279231Y-108262858D01*
X205269010Y-108268897D01*
X205258749Y-108274920D01*
X205248449Y-108280925D01*
X205238109Y-108286914D01*
X205227730Y-108292886D01*
X205217311Y-108298842D01*
X205206851Y-108304781D01*
X205196351Y-108310704D01*
X205185811Y-108316611D01*
X205175231Y-108322501D01*
X205164609Y-108328376D01*
X205153947Y-108334234D01*
X205143243Y-108340077D01*
X205132498Y-108345903D01*
X205121712Y-108351714D01*
X205110883Y-108357510D01*
X205100013Y-108363290D01*
X205089101Y-108369054D01*
X205078147Y-108374803D01*
X205067151Y-108380537D01*
X205056112Y-108386255D01*
X205045030Y-108391958D01*
X205033905Y-108397647D01*
X205022737Y-108403320D01*
X205011527Y-108408979D01*
X205000272Y-108414623D01*
X204988974Y-108420252D01*
X204977632Y-108425867D01*
X204966247Y-108431467D01*
X204954817Y-108437053D01*
X204943343Y-108442625D01*
X204931824Y-108448182D01*
X204920261Y-108453725D01*
X204908653Y-108459254D01*
X204897000Y-108464769D01*
X204885302Y-108470271D01*
X204873559Y-108475759D01*
X204861770Y-108481232D01*
X204849936Y-108486693D01*
X204838055Y-108492140D01*
X204826129Y-108497573D01*
X204814156Y-108502993D01*
X204802137Y-108508400D01*
X204790071Y-108513794D01*
X204777959Y-108519175D01*
X204765800Y-108524543D01*
X204753594Y-108529898D01*
X204741340Y-108535240D01*
X204729039Y-108540569D01*
X204716691Y-108545886D01*
X204704294Y-108551190D01*
X204691850Y-108556482D01*
X204679358Y-108561762D01*
X204666817Y-108567029D01*
X204654228Y-108572284D01*
X204641590Y-108577527D01*
X204628904Y-108582759D01*
X204616168Y-108587978D01*
X204603383Y-108593185D01*
X204590549Y-108598381D01*
X204577666Y-108603565D01*
X204564732Y-108608738D01*
X204551749Y-108613899D01*
X204538716Y-108619049D01*
X204525633Y-108624187D01*
X204512499Y-108629314D01*
X204499315Y-108634431D01*
X204486079Y-108639536D01*
X204472793Y-108644630D01*
X204459456Y-108649714D01*
X204446068Y-108654787D01*
X204432628Y-108659849D01*
X204419137Y-108664900D01*
X204405594Y-108669942D01*
X204391999Y-108674972D01*
X204382264Y-108678556D01*
X204372308Y-108682203D01*
X204362137Y-108685913D01*
X204351754Y-108689684D01*
X204341163Y-108693516D01*
X204330369Y-108697406D01*
X204319375Y-108701354D01*
X204308185Y-108705358D01*
X204296804Y-108709417D01*
X204285236Y-108713529D01*
X204273485Y-108717693D01*
X204261554Y-108721909D01*
X204249449Y-108726174D01*
X204237172Y-108730487D01*
X204224729Y-108734847D01*
X204212123Y-108739253D01*
X204199358Y-108743703D01*
X204186439Y-108748196D01*
X204173370Y-108752731D01*
X204160154Y-108757306D01*
X204146795Y-108761921D01*
X204133299Y-108766573D01*
X204119668Y-108771261D01*
X204105908Y-108775985D01*
X204092021Y-108780742D01*
X204078013Y-108785532D01*
X204063887Y-108790353D01*
X204049647Y-108795204D01*
X204035298Y-108800083D01*
X204020843Y-108804990D01*
X204006287Y-108809923D01*
X203991634Y-108814880D01*
X203976887Y-108819861D01*
X203962052Y-108824863D01*
X203947131Y-108829886D01*
X203932130Y-108834929D01*
X203917052Y-108839990D01*
X203901901Y-108845067D01*
X203886681Y-108850160D01*
X203871397Y-108855267D01*
X203856052Y-108860386D01*
X203840651Y-108865517D01*
X203825198Y-108870659D01*
X203809697Y-108875809D01*
X203794152Y-108880966D01*
X203778566Y-108886130D01*
X203762945Y-108891299D01*
X203747292Y-108896471D01*
X203731611Y-108901646D01*
X203715907Y-108906822D01*
X203700183Y-108911997D01*
X203684443Y-108917170D01*
X203668693Y-108922341D01*
X203652935Y-108927507D01*
X203637174Y-108932668D01*
X203621414Y-108937822D01*
X203605659Y-108942967D01*
X203589913Y-108948103D01*
X203574180Y-108953228D01*
X203558464Y-108958341D01*
X203542770Y-108963441D01*
X203527102Y-108968525D01*
X203511463Y-108973594D01*
X203495857Y-108978645D01*
X203480290Y-108983677D01*
X203464764Y-108988689D01*
X203449284Y-108993680D01*
X203433855Y-108998648D01*
X203418479Y-109003592D01*
X203403162Y-109008511D01*
X203387907Y-109013403D01*
X203372718Y-109018268D01*
X203357600Y-109023103D01*
X203342557Y-109027907D01*
X203327592Y-109032679D01*
X203312710Y-109037419D01*
X203297914Y-109042123D01*
X203283210Y-109046792D01*
X203268601Y-109051424D01*
X203254091Y-109056018D01*
X203239684Y-109060571D01*
X203225385Y-109065084D01*
X203211197Y-109069554D01*
X203197124Y-109073980D01*
X203183171Y-109078361D01*
X203169342Y-109082696D01*
X203155641Y-109086984D01*
X203142071Y-109091222D01*
X203128638Y-109095410D01*
X203115344Y-109099546D01*
X203102195Y-109103630D01*
X203089193Y-109107659D01*
X203076345Y-109111633D01*
X203063652Y-109115550D01*
X203051121Y-109119409D01*
X203038753Y-109123208D01*
X203026555Y-109126946D01*
X203014529Y-109130623D01*
X203002680Y-109134236D01*
X202991012Y-109137784D01*
X202979530Y-109141266D01*
X202968236Y-109144681D01*
X202957136Y-109148027D01*
X202946233Y-109151303D01*
X202935531Y-109154507D01*
X202925035Y-109157639D01*
X202914749Y-109160698D01*
X202904676Y-109163681D01*
X202894821Y-109166587D01*
X202885188Y-109169415D01*
X202875782Y-109172165D01*
X202866605Y-109174833D01*
X202857662Y-109177420D01*
X202848958Y-109179924D01*
X202840496Y-109182343D01*
X202832280Y-109184677D01*
X202824315Y-109186923D01*
X202816604Y-109189082D01*
X202809153Y-109191150D01*
X202801964Y-109193127D01*
X202795042Y-109195012D01*
X202788391Y-109196804D01*
X202782015Y-109198500D01*
X202775919Y-109200100D01*
X202770105Y-109201603D01*
X202764579Y-109203006D01*
X202759345Y-109204310D01*
X202754406Y-109205512D01*
X202749766Y-109206611D01*
X202745431Y-109207606D01*
X202741403Y-109208495D01*
X202737687Y-109209278D01*
X202734287Y-109209952D01*
X202731208Y-109210517D01*
X202728452Y-109210972D01*
X202726025Y-109211314D01*
X202723930Y-109211543D01*
X202722172Y-109211657D01*
X202720754Y-109211655D01*
X202710912Y-109210651D01*
X202710484Y-109208617D01*
X202719306Y-109204734D01*
X202719306Y-109204738D01*
X202721292Y-109203860D01*
X202724567Y-109202251D01*
X202729074Y-109199941D01*
X202734755Y-109196964D01*
X202741553Y-109193349D01*
X202749410Y-109189129D01*
X202758269Y-109184335D01*
X202768072Y-109178999D01*
X202778762Y-109173153D01*
X202790280Y-109166829D01*
X202802571Y-109160057D01*
X202815575Y-109152870D01*
X202829236Y-109145299D01*
X202843496Y-109137376D01*
X202858297Y-109129132D01*
X202873582Y-109120600D01*
X202889294Y-109111810D01*
X202905375Y-109102794D01*
X202921767Y-109093585D01*
X202938413Y-109084213D01*
X202948405Y-109078584D01*
X202958660Y-109072812D01*
X202969156Y-109066909D01*
X202979875Y-109060885D01*
X202990797Y-109054751D01*
X203001902Y-109048519D01*
X203013170Y-109042199D01*
X203024582Y-109035802D01*
X203036117Y-109029339D01*
X203047757Y-109022822D01*
X203059481Y-109016261D01*
X203071270Y-109009667D01*
X203083105Y-109003052D01*
X203094964Y-108996426D01*
X203106830Y-108989800D01*
X203118681Y-108983185D01*
X203130499Y-108976592D01*
X203142263Y-108970033D01*
X203153954Y-108963518D01*
X203165553Y-108957057D01*
X203177039Y-108950663D01*
X203188392Y-108944347D01*
X203199594Y-108938118D01*
X203210624Y-108931988D01*
X203221463Y-108925969D01*
X203232091Y-108920070D01*
X203242488Y-108914304D01*
X203252635Y-108908681D01*
X203262512Y-108903212D01*
X203272098Y-108897907D01*
X203281376Y-108892779D01*
X203290324Y-108887838D01*
X203298923Y-108883095D01*
X203307153Y-108878561D01*
X203316454Y-108873437D01*
X203326115Y-108868109D01*
X203336112Y-108862590D01*
X203346417Y-108856895D01*
X203357007Y-108851039D01*
X203367853Y-108845035D01*
X203378932Y-108838897D01*
X203390217Y-108832641D01*
X203401682Y-108826281D01*
X203413302Y-108819830D01*
X203425051Y-108813304D01*
X203436903Y-108806717D01*
X203448832Y-108800083D01*
X203460813Y-108793416D01*
X203472819Y-108786730D01*
X203484826Y-108780041D01*
X203496807Y-108773363D01*
X203508736Y-108766709D01*
X203520588Y-108760094D01*
X203532337Y-108753533D01*
X203543957Y-108747039D01*
X203555422Y-108740628D01*
X203566707Y-108734313D01*
X203577786Y-108728109D01*
X203588633Y-108722031D01*
X203599222Y-108716092D01*
X203609528Y-108710307D01*
X203619524Y-108704691D01*
X203629186Y-108699257D01*
X203638486Y-108694020D01*
X203651018Y-108686963D01*
X203663732Y-108679810D01*
X203676580Y-108672589D01*
X203689513Y-108665325D01*
X203702484Y-108658047D01*
X203715445Y-108650780D01*
X203728348Y-108643552D01*
X203741144Y-108636389D01*
X203753785Y-108629319D01*
X203766224Y-108622367D01*
X203778413Y-108615562D01*
X203790302Y-108608929D01*
X203801845Y-108602496D01*
X203812993Y-108596288D01*
X203823698Y-108590335D01*
X203833912Y-108584661D01*
X203843587Y-108579293D01*
X203852676Y-108574260D01*
X203861128Y-108569587D01*
X203868898Y-108565301D01*
X203875936Y-108561430D01*
X203882196Y-108557999D01*
X203897789Y-108549341D01*
X203912174Y-108541102D01*
X203925048Y-108533474D01*
X203936108Y-108526649D01*
X203945050Y-108520818D01*
X203951571Y-108516174D01*
X203955367Y-108512909D01*
X203956136Y-108511213D01*
X203954202Y-108510896D01*
X203949764Y-108511151D01*
X203943021Y-108511946D01*
X203934173Y-108513244D01*
X203923419Y-108515010D01*
X203910957Y-108517209D01*
X203896986Y-108519807D01*
X203881705Y-108522767D01*
X203865314Y-108526054D01*
X203848012Y-108529634D01*
X203829996Y-108533471D01*
X203820962Y-108535402D01*
X203811257Y-108537436D01*
X203800912Y-108539569D01*
X203789960Y-108541794D01*
X203778430Y-108544107D01*
X203766355Y-108546502D01*
X203753766Y-108548974D01*
X203740694Y-108551517D01*
X203727170Y-108554125D01*
X203713225Y-108556794D01*
X203698891Y-108559517D01*
X203684199Y-108562289D01*
X203669181Y-108565106D01*
X203653867Y-108567961D01*
X203638288Y-108570849D01*
X203622477Y-108573764D01*
X203606465Y-108576701D01*
X203590282Y-108579655D01*
X203573959Y-108582620D01*
X203557529Y-108585591D01*
X203541023Y-108588561D01*
X203524471Y-108591527D01*
X203507905Y-108594482D01*
X203491357Y-108597421D01*
X203474857Y-108600338D01*
X203458436Y-108603228D01*
X203442127Y-108606086D01*
X203425960Y-108608905D01*
X203409967Y-108611681D01*
X203394179Y-108614409D01*
X203378627Y-108617082D01*
X203363342Y-108619695D01*
X203348356Y-108622243D01*
X203333700Y-108624720D01*
X203319405Y-108627122D01*
X203305502Y-108629441D01*
X203292024Y-108631674D01*
X203279000Y-108633814D01*
X203266463Y-108635856D01*
X203254443Y-108637795D01*
X203242972Y-108639624D01*
X203232081Y-108641340D01*
X203221802Y-108642936D01*
X203212165Y-108644406D01*
X203203202Y-108645746D01*
X203194945Y-108646950D01*
X203187424Y-108648012D01*
X203180670Y-108648927D01*
X203174716Y-108649689D01*
X203169592Y-108650294D01*
X203165329Y-108650735D01*
X203161959Y-108651008D01*
X203159514Y-108651106D01*
X203158023Y-108651024D01*
X203157520Y-108650757D01*
X203157708Y-108650152D01*
X203158272Y-108649402D01*
X203159210Y-108648506D01*
X203160518Y-108647467D01*
X203162194Y-108646285D01*
X203164236Y-108644961D01*
X203166641Y-108643496D01*
X203169408Y-108641892D01*
X203172533Y-108640149D01*
X203176014Y-108638268D01*
X203179849Y-108636251D01*
X203184034Y-108634099D01*
X203188569Y-108631812D01*
X203193450Y-108629392D01*
X203198675Y-108626839D01*
X203204242Y-108624155D01*
X203210147Y-108621340D01*
X203216389Y-108618397D01*
X203222966Y-108615325D01*
X203229874Y-108612126D01*
X203237111Y-108608801D01*
X203244675Y-108605351D01*
X203252564Y-108601777D01*
X203260775Y-108598080D01*
X203269305Y-108594261D01*
X203278152Y-108590320D01*
X203287314Y-108586261D01*
X203296789Y-108582082D01*
X203306573Y-108577785D01*
X203316665Y-108573372D01*
X203327061Y-108568843D01*
X203337760Y-108564200D01*
X203348760Y-108559442D01*
X203360056Y-108554573D01*
X203371648Y-108549591D01*
X203383533Y-108544499D01*
X203395709Y-108539298D01*
X203408172Y-108533988D01*
X203420920Y-108528571D01*
X203433952Y-108523048D01*
X203447264Y-108517419D01*
X203460855Y-108511686D01*
X203474721Y-108505850D01*
X203488861Y-108499912D01*
X203503271Y-108493872D01*
X203517950Y-108487733D01*
X203532895Y-108481494D01*
X203548103Y-108475158D01*
X203563573Y-108468724D01*
X203579301Y-108462195D01*
X203595286Y-108455571D01*
X203611524Y-108448853D01*
X203628014Y-108442042D01*
X203644753Y-108435139D01*
X203661738Y-108428146D01*
X203678968Y-108421063D01*
X203696439Y-108413891D01*
X203714149Y-108406632D01*
X203732097Y-108399286D01*
X203750278Y-108391855D01*
X203768691Y-108384339D01*
X203787334Y-108376740D01*
X203806204Y-108369059D01*
X203825299Y-108361296D01*
X203844616Y-108353453D01*
X203864152Y-108345530D01*
X203883906Y-108337530D01*
X203903875Y-108329452D01*
X203924056Y-108321298D01*
X203944448Y-108313069D01*
X203965046Y-108304766D01*
X203985850Y-108296390D01*
X204003533Y-108289272D01*
X204020995Y-108282236D01*
X204038239Y-108275281D01*
X204055267Y-108268406D01*
X204072081Y-108261611D01*
X204088685Y-108254893D01*
X204105082Y-108248252D01*
X204121273Y-108241686D01*
X204137262Y-108235195D01*
X204153052Y-108228777D01*
X204168644Y-108222431D01*
X204184043Y-108216156D01*
X204199249Y-108209950D01*
X204214267Y-108203814D01*
X204229098Y-108197744D01*
X204243746Y-108191741D01*
X204258213Y-108185802D01*
X204272502Y-108179928D01*
X204286615Y-108174116D01*
X204300556Y-108168366D01*
X204314326Y-108162676D01*
X204327929Y-108157046D01*
X204341368Y-108151473D01*
X204354644Y-108145957D01*
X204367761Y-108140497D01*
X204380721Y-108135092D01*
X204393527Y-108129740D01*
X204406182Y-108124440D01*
X204418688Y-108119191D01*
X204431049Y-108113992D01*
X204443266Y-108108842D01*
X204455342Y-108103740D01*
X204467281Y-108098684D01*
X204479084Y-108093673D01*
X204490755Y-108088706D01*
X204502296Y-108083782D01*
X204513710Y-108078900D01*
X204525000Y-108074058D01*
X204536168Y-108069256D01*
X204547216Y-108064492D01*
X204558149Y-108059765D01*
X204568967Y-108055074D01*
X204579675Y-108050417D01*
X204590274Y-108045795D01*
X204600768Y-108041204D01*
X204611158Y-108036646D01*
X204621449Y-108032117D01*
X204631641Y-108027617D01*
X204641739Y-108023144D01*
X204651745Y-108018699D01*
X204661661Y-108014279D01*
X204671490Y-108009883D01*
X204681236Y-108005510D01*
X204690899Y-108001159D01*
X204700484Y-107996829D01*
X204709993Y-107992518D01*
X204719428Y-107988226D01*
X204728793Y-107983952D01*
X204738090Y-107979693D01*
X204747321Y-107975449D01*
X204756490Y-107971219D01*
X204765598Y-107967002D01*
X204774650Y-107962796D01*
X204783646Y-107958600D01*
X204792591Y-107954414D01*
X204801487Y-107950236D01*
X204810336Y-107946064D01*
X204819141Y-107941898D01*
X204827905Y-107937736D01*
X204836631Y-107933578D01*
X204845320Y-107929422D01*
X204853977Y-107925267D01*
X204862603Y-107921111D01*
X204871202Y-107916954D01*
X204879775Y-107912795D01*
X204888326Y-107908632D01*
X204896857Y-107904464D01*
X204905372Y-107900291D01*
X204913872Y-107896110D01*
X204922360Y-107891920D01*
X204930840Y-107887721D01*
X204939313Y-107883512D01*
X204947783Y-107879291D01*
X204968459Y-107869015D01*
X204987382Y-107859710D01*
X205004582Y-107851364D01*
X205020090Y-107843963D01*
X205033935Y-107837497D01*
X205046150Y-107831952D01*
X205056764Y-107827316D01*
X205065807Y-107823578D01*
X205073312Y-107820725D01*
X205079308Y-107818744D01*
X205083825Y-107817625D01*
X205086896Y-107817353D01*
X205088549Y-107817918D01*
G37*
G36*
X206837201Y-105473462D02*
G01*
X206850889Y-105473611D01*
X206864466Y-105473860D01*
X206877933Y-105474211D01*
X206891292Y-105474664D01*
X206904544Y-105475219D01*
X206917691Y-105475876D01*
X206930733Y-105476637D01*
X206943674Y-105477502D01*
X206956513Y-105478471D01*
X206969252Y-105479545D01*
X206981893Y-105480723D01*
X206994437Y-105482008D01*
X207006886Y-105483399D01*
X207019240Y-105484897D01*
X207031501Y-105486502D01*
X207043671Y-105488214D01*
X207055751Y-105490035D01*
X207067742Y-105491965D01*
X207079646Y-105494004D01*
X207091465Y-105496153D01*
X207103199Y-105498412D01*
X207114849Y-105500782D01*
X207126418Y-105503263D01*
X207137907Y-105505856D01*
X207149317Y-105508561D01*
X207160650Y-105511379D01*
X207171906Y-105514310D01*
X207183088Y-105517355D01*
X207194197Y-105520514D01*
X207205234Y-105523789D01*
X207216200Y-105527178D01*
X207227097Y-105530683D01*
X207237926Y-105534305D01*
X207248689Y-105538043D01*
X207259387Y-105541899D01*
X207270022Y-105545873D01*
X207280595Y-105549964D01*
X207291106Y-105554175D01*
X207301559Y-105558505D01*
X207311953Y-105562955D01*
X207322291Y-105567525D01*
X207332574Y-105572216D01*
X207342803Y-105577028D01*
X207352980Y-105581963D01*
X207363106Y-105587019D01*
X207373182Y-105592199D01*
X207383210Y-105597501D01*
X207393191Y-105602928D01*
X207403127Y-105608479D01*
X207413019Y-105614154D01*
X207422868Y-105619956D01*
X207432676Y-105625883D01*
X207442444Y-105631936D01*
X207452174Y-105638116D01*
X207461867Y-105644424D01*
X207471524Y-105650859D01*
X207481147Y-105657423D01*
X207490737Y-105664116D01*
X207500296Y-105670938D01*
X207509824Y-105677890D01*
X207519324Y-105684972D01*
X207528797Y-105692185D01*
X207538244Y-105699530D01*
X207547666Y-105707006D01*
X207557065Y-105714615D01*
X207566443Y-105722357D01*
X207575800Y-105730232D01*
X207585139Y-105738241D01*
X207594460Y-105746385D01*
X207603765Y-105754663D01*
X207613055Y-105763077D01*
X207622331Y-105771627D01*
X207631596Y-105780313D01*
X207640851Y-105789136D01*
X207650096Y-105798096D01*
X207659334Y-105807195D01*
X207668565Y-105816432D01*
X207681842Y-105829889D01*
X207694641Y-105842994D01*
X207706860Y-105855637D01*
X207718396Y-105867706D01*
X207729150Y-105879090D01*
X207739018Y-105889680D01*
X207747901Y-105899364D01*
X207755695Y-105908032D01*
X207762300Y-105915573D01*
X207767614Y-105921876D01*
X207771535Y-105926830D01*
X207773962Y-105930325D01*
X207774794Y-105932251D01*
X207773695Y-105933998D01*
X207770513Y-105936743D01*
X207765420Y-105940394D01*
X207758587Y-105944861D01*
X207750186Y-105950054D01*
X207740388Y-105955881D01*
X207729366Y-105962252D01*
X207717290Y-105969077D01*
X207704334Y-105976266D01*
X207690667Y-105983727D01*
X207676463Y-105991370D01*
X207661892Y-105999104D01*
X207647126Y-106006840D01*
X207632337Y-106014486D01*
X207617697Y-106021952D01*
X207603377Y-106029148D01*
X207589550Y-106035983D01*
X207576386Y-106042365D01*
X207564057Y-106048206D01*
X207552735Y-106053414D01*
X207542592Y-106057899D01*
X207533799Y-106061570D01*
X207526528Y-106064337D01*
X207520951Y-106066109D01*
X207508184Y-106067991D01*
X207499871Y-106065962D01*
X207496903Y-106060241D01*
X207495996Y-106055792D01*
X207493375Y-106050347D01*
X207489183Y-106044029D01*
X207483567Y-106036963D01*
X207476673Y-106029272D01*
X207468646Y-106021080D01*
X207459633Y-106012510D01*
X207449778Y-106003686D01*
X207439227Y-105994731D01*
X207428127Y-105985770D01*
X207416623Y-105976926D01*
X207404860Y-105968322D01*
X207392984Y-105960083D01*
X207381142Y-105952332D01*
X207369478Y-105945192D01*
X207358138Y-105938788D01*
X207347269Y-105933243D01*
X207336547Y-105928374D01*
X207325697Y-105923981D01*
X207314731Y-105920061D01*
X207303663Y-105916612D01*
X207292504Y-105913632D01*
X207281269Y-105911118D01*
X207269968Y-105909069D01*
X207258616Y-105907482D01*
X207247225Y-105906354D01*
X207235807Y-105905684D01*
X207224375Y-105905469D01*
X207212942Y-105905706D01*
X207201521Y-105906395D01*
X207190124Y-105907531D01*
X207178764Y-105909114D01*
X207167454Y-105911140D01*
X207156206Y-105913608D01*
X207145033Y-105916515D01*
X207133949Y-105919859D01*
X207122964Y-105923638D01*
X207112093Y-105927849D01*
X207101348Y-105932490D01*
X207090741Y-105937559D01*
X207080286Y-105943053D01*
X207069995Y-105948971D01*
X207059880Y-105955309D01*
X207049955Y-105962066D01*
X207040232Y-105969240D01*
X207030724Y-105976828D01*
X207021443Y-105984828D01*
X207012403Y-105993237D01*
X207005921Y-105999833D01*
X206998844Y-106007638D01*
X206991304Y-106016479D01*
X206983429Y-106026181D01*
X206975351Y-106036569D01*
X206967198Y-106047471D01*
X206959103Y-106058712D01*
X206951194Y-106070117D01*
X206943601Y-106081513D01*
X206936456Y-106092726D01*
X206929888Y-106103581D01*
X206924950Y-106111756D01*
X206919697Y-106120003D01*
X206914134Y-106128316D01*
X206908267Y-106136691D01*
X206902102Y-106145121D01*
X206895644Y-106153602D01*
X206888900Y-106162128D01*
X206881874Y-106170694D01*
X206874573Y-106179296D01*
X206867003Y-106187927D01*
X206859168Y-106196582D01*
X206851074Y-106205257D01*
X206842728Y-106213946D01*
X206834135Y-106222644D01*
X206825300Y-106231345D01*
X206816229Y-106240044D01*
X206806929Y-106248737D01*
X206797404Y-106257417D01*
X206787660Y-106266080D01*
X206777703Y-106274720D01*
X206767539Y-106283333D01*
X206757173Y-106291912D01*
X206746611Y-106300453D01*
X206735858Y-106308950D01*
X206724921Y-106317398D01*
X206713805Y-106325793D01*
X206702516Y-106334128D01*
X206691058Y-106342398D01*
X206679439Y-106350599D01*
X206667664Y-106358725D01*
X206655738Y-106366770D01*
X206643666Y-106374730D01*
X206631456Y-106382599D01*
X206619112Y-106390373D01*
X206613492Y-106393847D01*
X206607624Y-106397429D01*
X206601510Y-106401118D01*
X206595156Y-106404911D01*
X206588565Y-106408807D01*
X206581741Y-106412802D01*
X206574688Y-106416896D01*
X206567411Y-106421086D01*
X206559913Y-106425370D01*
X206552199Y-106429746D01*
X206544272Y-106434213D01*
X206536136Y-106438767D01*
X206527796Y-106443407D01*
X206519256Y-106448132D01*
X206510520Y-106452938D01*
X206501591Y-106457824D01*
X206492474Y-106462788D01*
X206483173Y-106467828D01*
X206473692Y-106472942D01*
X206464035Y-106478127D01*
X206454207Y-106483382D01*
X206444210Y-106488705D01*
X206434049Y-106494094D01*
X206423729Y-106499546D01*
X206413253Y-106505060D01*
X206402625Y-106510634D01*
X206391850Y-106516265D01*
X206380931Y-106521952D01*
X206369873Y-106527692D01*
X206358679Y-106533484D01*
X206347354Y-106539325D01*
X206335901Y-106545213D01*
X206324326Y-106551147D01*
X206312631Y-106557124D01*
X206300821Y-106563143D01*
X206288900Y-106569201D01*
X206276872Y-106575296D01*
X206264741Y-106581427D01*
X206252511Y-106587590D01*
X206240186Y-106593785D01*
X206227770Y-106600009D01*
X206215268Y-106606260D01*
X206202682Y-106612536D01*
X206190019Y-106618836D01*
X206177280Y-106625156D01*
X206164471Y-106631495D01*
X206151596Y-106637851D01*
X206138658Y-106644222D01*
X206125662Y-106650606D01*
X206112612Y-106657001D01*
X206099511Y-106663405D01*
X206086365Y-106669815D01*
X206073176Y-106676231D01*
X206059949Y-106682649D01*
X206046688Y-106689067D01*
X206033397Y-106695485D01*
X206020080Y-106701899D01*
X206006741Y-106708307D01*
X205993385Y-106714709D01*
X205980015Y-106721100D01*
X205966635Y-106727481D01*
X205953249Y-106733848D01*
X205939862Y-106740199D01*
X205926478Y-106746533D01*
X205913100Y-106752847D01*
X205899732Y-106759139D01*
X205886379Y-106765408D01*
X205873045Y-106771651D01*
X205859734Y-106777867D01*
X205846450Y-106784052D01*
X205833196Y-106790206D01*
X205819978Y-106796326D01*
X205806798Y-106802411D01*
X205793662Y-106808457D01*
X205780573Y-106814463D01*
X205767534Y-106820428D01*
X205754551Y-106826349D01*
X205741628Y-106832223D01*
X205728767Y-106838050D01*
X205715975Y-106843826D01*
X205703253Y-106849550D01*
X205690607Y-106855221D01*
X205681229Y-106859422D01*
X205671622Y-106863733D01*
X205661793Y-106868151D01*
X205651745Y-106872674D01*
X205641485Y-106877300D01*
X205631018Y-106882025D01*
X205620348Y-106886848D01*
X205609480Y-106891767D01*
X205598420Y-106896778D01*
X205587174Y-106901880D01*
X205575746Y-106907070D01*
X205564140Y-106912346D01*
X205552362Y-106917705D01*
X205540418Y-106923145D01*
X205528312Y-106928664D01*
X205516050Y-106934258D01*
X205503636Y-106939927D01*
X205491076Y-106945667D01*
X205478375Y-106951476D01*
X205465539Y-106957351D01*
X205452571Y-106963291D01*
X205439477Y-106969293D01*
X205426263Y-106975354D01*
X205412934Y-106981472D01*
X205399494Y-106987645D01*
X205385949Y-106993870D01*
X205372303Y-107000145D01*
X205358563Y-107006467D01*
X205344733Y-107012835D01*
X205330818Y-107019245D01*
X205316823Y-107025696D01*
X205302754Y-107032185D01*
X205288615Y-107038709D01*
X205274412Y-107045266D01*
X205260149Y-107051854D01*
X205245833Y-107058471D01*
X205231468Y-107065113D01*
X205217058Y-107071780D01*
X205202610Y-107078467D01*
X205188129Y-107085173D01*
X205173619Y-107091896D01*
X205159085Y-107098632D01*
X205144533Y-107105381D01*
X205129969Y-107112138D01*
X205115396Y-107118903D01*
X205100820Y-107125672D01*
X205086246Y-107132443D01*
X205071680Y-107139214D01*
X205057126Y-107145982D01*
X205042589Y-107152745D01*
X205028076Y-107159501D01*
X205013590Y-107166247D01*
X204999137Y-107172980D01*
X204984722Y-107179700D01*
X204970350Y-107186402D01*
X204956026Y-107193084D01*
X204941756Y-107199745D01*
X204927544Y-107206382D01*
X204913396Y-107212992D01*
X204899316Y-107219573D01*
X204885311Y-107226123D01*
X204871384Y-107232639D01*
X204857541Y-107239119D01*
X204843788Y-107245561D01*
X204830129Y-107251961D01*
X204816569Y-107258318D01*
X204803114Y-107264630D01*
X204789769Y-107270894D01*
X204776538Y-107277107D01*
X204763427Y-107283267D01*
X204750441Y-107289372D01*
X204737586Y-107295420D01*
X204724865Y-107301407D01*
X204712285Y-107307332D01*
X204699851Y-107313193D01*
X204687567Y-107318986D01*
X204675438Y-107324709D01*
X204663471Y-107330361D01*
X204651669Y-107335938D01*
X204640039Y-107341439D01*
X204628585Y-107346860D01*
X204617312Y-107352200D01*
X204606225Y-107357456D01*
X204595330Y-107362626D01*
X204584632Y-107367707D01*
X204574135Y-107372697D01*
X204563845Y-107377593D01*
X204553768Y-107382394D01*
X204543907Y-107387096D01*
X204534269Y-107391698D01*
X204524858Y-107396197D01*
X204515679Y-107400591D01*
X204506738Y-107404876D01*
X204498040Y-107409052D01*
X204489589Y-107413115D01*
X204481392Y-107417063D01*
X204473453Y-107420893D01*
X204465776Y-107424604D01*
X204458368Y-107428193D01*
X204451234Y-107431657D01*
X204444378Y-107434995D01*
X204437805Y-107438203D01*
X204431522Y-107441279D01*
X204425532Y-107444221D01*
X204419841Y-107447027D01*
X204414455Y-107449694D01*
X204409377Y-107452220D01*
X204404614Y-107454602D01*
X204400170Y-107456838D01*
X204396051Y-107458926D01*
X204392262Y-107460863D01*
X204388808Y-107462647D01*
X204385693Y-107464275D01*
X204382923Y-107465745D01*
X204363612Y-107475932D01*
X204348062Y-107483749D01*
X204336035Y-107489270D01*
X204327293Y-107492566D01*
X204321599Y-107493713D01*
X204318715Y-107492783D01*
X204318404Y-107489848D01*
X204320427Y-107484983D01*
X204320427Y-107484972D01*
X204321132Y-107483899D01*
X204322378Y-107482294D01*
X204324154Y-107480170D01*
X204326449Y-107477536D01*
X204329252Y-107474404D01*
X204332553Y-107470786D01*
X204336340Y-107466691D01*
X204340603Y-107462131D01*
X204345330Y-107457117D01*
X204350512Y-107451660D01*
X204356136Y-107445771D01*
X204362193Y-107439461D01*
X204368671Y-107432741D01*
X204375559Y-107425623D01*
X204382847Y-107418117D01*
X204390524Y-107410234D01*
X204398579Y-107401985D01*
X204407000Y-107393381D01*
X204415778Y-107384434D01*
X204424901Y-107375154D01*
X204434358Y-107365553D01*
X204444139Y-107355641D01*
X204454233Y-107345429D01*
X204464628Y-107334929D01*
X204475315Y-107324151D01*
X204486281Y-107313107D01*
X204497517Y-107301807D01*
X204509011Y-107290263D01*
X204520752Y-107278486D01*
X204532730Y-107266486D01*
X204544934Y-107254275D01*
X204557353Y-107241864D01*
X204569976Y-107229263D01*
X204582792Y-107216485D01*
X204595790Y-107203539D01*
X204608960Y-107190436D01*
X204622291Y-107177189D01*
X204635771Y-107163808D01*
X204649390Y-107150304D01*
X204663137Y-107136687D01*
X204677001Y-107122970D01*
X204689932Y-107110188D01*
X204702745Y-107097537D01*
X204715440Y-107085016D01*
X204728019Y-107072622D01*
X204740483Y-107060354D01*
X204752833Y-107048212D01*
X204765072Y-107036194D01*
X204777201Y-107024299D01*
X204789220Y-107012526D01*
X204801132Y-107000872D01*
X204812938Y-106989337D01*
X204824639Y-106977920D01*
X204836237Y-106966620D01*
X204847734Y-106955434D01*
X204859129Y-106944362D01*
X204870426Y-106933402D01*
X204881625Y-106922554D01*
X204892729Y-106911816D01*
X204903737Y-106901186D01*
X204914653Y-106890663D01*
X204925477Y-106880247D01*
X204936210Y-106869935D01*
X204946854Y-106859727D01*
X204957411Y-106849621D01*
X204967882Y-106839615D01*
X204978269Y-106829710D01*
X204988572Y-106819902D01*
X204998794Y-106810192D01*
X205008935Y-106800577D01*
X205018997Y-106791057D01*
X205028982Y-106781630D01*
X205038891Y-106772295D01*
X205048726Y-106763050D01*
X205058487Y-106753895D01*
X205068177Y-106744828D01*
X205077796Y-106735847D01*
X205087347Y-106726952D01*
X205096830Y-106718141D01*
X205106247Y-106709413D01*
X205115600Y-106700767D01*
X205124890Y-106692201D01*
X205134118Y-106683713D01*
X205143286Y-106675304D01*
X205152395Y-106666971D01*
X205161447Y-106658713D01*
X205170443Y-106650529D01*
X205179385Y-106642418D01*
X205188273Y-106634378D01*
X205197110Y-106626408D01*
X205205897Y-106618506D01*
X205214635Y-106610672D01*
X205223326Y-106602904D01*
X205231971Y-106595202D01*
X205240571Y-106587562D01*
X205249129Y-106579985D01*
X205257645Y-106572469D01*
X205266121Y-106565013D01*
X205274558Y-106557615D01*
X205282958Y-106550274D01*
X205291322Y-106542989D01*
X205299652Y-106535759D01*
X205307949Y-106528581D01*
X205316214Y-106521456D01*
X205324449Y-106514382D01*
X205332656Y-106507357D01*
X205340835Y-106500380D01*
X205348989Y-106493450D01*
X205357119Y-106486566D01*
X205365225Y-106479726D01*
X205373310Y-106472928D01*
X205381375Y-106466173D01*
X205389422Y-106459458D01*
X205397451Y-106452782D01*
X205405465Y-106446144D01*
X205413464Y-106439542D01*
X205421451Y-106432976D01*
X205429426Y-106426444D01*
X205437391Y-106419944D01*
X205445347Y-106413476D01*
X205453297Y-106407038D01*
X205461241Y-106400629D01*
X205469180Y-106394247D01*
X205477117Y-106387892D01*
X205485052Y-106381562D01*
X205492988Y-106375255D01*
X205500925Y-106368971D01*
X205508865Y-106362708D01*
X205516809Y-106356464D01*
X205524759Y-106350240D01*
X205532716Y-106344032D01*
X205540682Y-106337841D01*
X205548658Y-106331664D01*
X205556646Y-106325500D01*
X205564647Y-106319349D01*
X205572662Y-106313209D01*
X205580693Y-106307078D01*
X205588741Y-106300955D01*
X205596807Y-106294839D01*
X205604894Y-106288729D01*
X205613003Y-106282624D01*
X205621134Y-106276521D01*
X205630457Y-106269558D01*
X205640092Y-106262402D01*
X205650021Y-106255068D01*
X205660224Y-106247568D01*
X205670681Y-106239916D01*
X205681373Y-106232126D01*
X205692281Y-106224211D01*
X205703385Y-106216184D01*
X205714666Y-106208058D01*
X205726104Y-106199848D01*
X205737680Y-106191567D01*
X205749375Y-106183227D01*
X205761170Y-106174843D01*
X205773043Y-106166428D01*
X205784978Y-106157995D01*
X205796953Y-106149558D01*
X205808949Y-106141130D01*
X205820948Y-106132724D01*
X205832929Y-106124355D01*
X205844874Y-106116035D01*
X205856762Y-106107778D01*
X205868575Y-106099597D01*
X205880293Y-106091505D01*
X205891897Y-106083517D01*
X205903366Y-106075646D01*
X205914682Y-106067905D01*
X205925826Y-106060307D01*
X205936778Y-106052865D01*
X205947518Y-106045595D01*
X205958027Y-106038507D01*
X205968286Y-106031617D01*
X205978275Y-106024938D01*
X205987975Y-106018482D01*
X205997366Y-106012264D01*
X206006430Y-106006297D01*
X206015146Y-106000594D01*
X206023495Y-105995169D01*
X206031458Y-105990034D01*
X206039015Y-105985205D01*
X206046147Y-105980693D01*
X206052834Y-105976513D01*
X206059058Y-105972678D01*
X206064799Y-105969200D01*
X206070036Y-105966095D01*
X206112788Y-105941067D01*
X206016596Y-105947506D01*
X206003430Y-105948406D01*
X205989896Y-105949368D01*
X205976028Y-105950389D01*
X205961860Y-105951466D01*
X205947424Y-105952594D01*
X205932756Y-105953772D01*
X205917888Y-105954994D01*
X205902855Y-105956258D01*
X205887689Y-105957561D01*
X205872426Y-105958898D01*
X205857099Y-105960266D01*
X205841740Y-105961662D01*
X205826385Y-105963082D01*
X205811067Y-105964523D01*
X205795819Y-105965982D01*
X205780676Y-105967454D01*
X205765671Y-105968937D01*
X205750838Y-105970426D01*
X205736210Y-105971919D01*
X205721822Y-105973412D01*
X205707707Y-105974902D01*
X205693898Y-105976384D01*
X205680430Y-105977856D01*
X205667337Y-105979314D01*
X205654651Y-105980755D01*
X205642408Y-105982175D01*
X205630640Y-105983570D01*
X205619381Y-105984938D01*
X205608665Y-105986274D01*
X205598526Y-105987576D01*
X205588998Y-105988839D01*
X205580114Y-105990061D01*
X205571908Y-105991238D01*
X205564413Y-105992365D01*
X205557664Y-105993441D01*
X205551695Y-105994461D01*
X205546538Y-105995422D01*
X205542228Y-105996321D01*
X205527295Y-105999451D01*
X205513974Y-106001856D01*
X205503107Y-106003415D01*
X205495535Y-106004006D01*
X205492102Y-106003509D01*
X205492806Y-106002137D01*
X205495789Y-105999095D01*
X205500885Y-105994517D01*
X205507928Y-105988536D01*
X205516750Y-105981287D01*
X205527186Y-105972903D01*
X205539068Y-105963518D01*
X205552230Y-105953267D01*
X205566505Y-105942282D01*
X205581727Y-105930699D01*
X205597728Y-105918650D01*
X205608947Y-105910288D01*
X205620170Y-105902004D01*
X205631396Y-105893800D01*
X205642625Y-105885676D01*
X205653858Y-105877630D01*
X205665094Y-105869664D01*
X205676333Y-105861777D01*
X205687576Y-105853970D01*
X205698822Y-105846242D01*
X205710071Y-105838593D01*
X205721324Y-105831023D01*
X205732579Y-105823533D01*
X205743838Y-105816122D01*
X205755101Y-105808790D01*
X205766367Y-105801538D01*
X205777635Y-105794365D01*
X205788908Y-105787271D01*
X205800183Y-105780257D01*
X205811462Y-105773322D01*
X205822744Y-105766466D01*
X205834029Y-105759690D01*
X205845317Y-105752993D01*
X205856608Y-105746375D01*
X205867903Y-105739837D01*
X205879201Y-105733378D01*
X205890502Y-105726998D01*
X205901806Y-105720698D01*
X205913114Y-105714477D01*
X205924424Y-105708336D01*
X205935738Y-105702273D01*
X205947055Y-105696291D01*
X205958375Y-105690387D01*
X205969698Y-105684563D01*
X205981024Y-105678819D01*
X205992354Y-105673153D01*
X206003686Y-105667567D01*
X206015022Y-105662061D01*
X206026360Y-105656634D01*
X206037702Y-105651286D01*
X206049047Y-105646018D01*
X206060395Y-105640829D01*
X206071745Y-105635720D01*
X206083099Y-105630689D01*
X206094456Y-105625739D01*
X206105816Y-105620868D01*
X206117179Y-105616076D01*
X206128545Y-105611363D01*
X206139914Y-105606730D01*
X206151287Y-105602177D01*
X206162662Y-105597703D01*
X206174040Y-105593308D01*
X206185421Y-105588993D01*
X206196805Y-105584757D01*
X206208191Y-105580600D01*
X206219581Y-105576523D01*
X206230974Y-105572526D01*
X206242370Y-105568608D01*
X206253769Y-105564769D01*
X206265170Y-105561010D01*
X206276575Y-105557331D01*
X206287982Y-105553730D01*
X206299393Y-105550210D01*
X206310806Y-105546768D01*
X206322222Y-105543407D01*
X206333641Y-105540124D01*
X206345063Y-105536921D01*
X206356487Y-105533798D01*
X206367915Y-105530754D01*
X206379345Y-105527790D01*
X206390779Y-105524905D01*
X206402215Y-105522100D01*
X206413654Y-105519374D01*
X206425095Y-105516727D01*
X206436540Y-105514160D01*
X206447987Y-105511673D01*
X206459437Y-105509265D01*
X206470890Y-105506937D01*
X206482346Y-105504688D01*
X206493804Y-105502518D01*
X206505265Y-105500429D01*
X206516729Y-105498418D01*
X206528196Y-105496488D01*
X206539665Y-105494636D01*
X206551137Y-105492865D01*
X206562612Y-105491173D01*
X206574089Y-105489560D01*
X206585570Y-105488027D01*
X206597052Y-105486573D01*
X206608538Y-105485199D01*
X206620026Y-105483905D01*
X206631517Y-105482690D01*
X206643011Y-105481555D01*
X206654507Y-105480499D01*
X206666006Y-105479523D01*
X206677508Y-105478626D01*
X206689012Y-105477809D01*
X206700519Y-105477072D01*
X206712028Y-105476414D01*
X206723540Y-105475835D01*
X206738165Y-105475197D01*
X206752668Y-105474655D01*
X206767051Y-105474210D01*
X206781314Y-105473863D01*
X206795459Y-105473614D01*
X206809488Y-105473464D01*
X206823402Y-105473413D01*
X206837201Y-105473462D01*
G37*
G36*
X207807178Y-106456478D02*
G01*
X207806645Y-106460824D01*
X207804470Y-106467696D01*
X207800788Y-106476789D01*
X207795729Y-106487797D01*
X207789426Y-106500416D01*
X207782013Y-106514341D01*
X207773620Y-106529268D01*
X207767528Y-106539946D01*
X207761647Y-106550487D01*
X207755974Y-106560902D01*
X207750509Y-106571205D01*
X207745247Y-106581410D01*
X207740188Y-106591530D01*
X207735328Y-106601576D01*
X207730666Y-106611564D01*
X207726199Y-106621505D01*
X207721925Y-106631414D01*
X207717841Y-106641303D01*
X207713944Y-106651185D01*
X207710234Y-106661073D01*
X207706707Y-106670982D01*
X207703362Y-106680923D01*
X207700195Y-106690910D01*
X207697204Y-106700956D01*
X207694387Y-106711075D01*
X207691743Y-106721278D01*
X207689268Y-106731581D01*
X207686959Y-106741995D01*
X207684816Y-106752534D01*
X207682835Y-106763211D01*
X207681015Y-106774040D01*
X207679352Y-106785033D01*
X207677845Y-106796203D01*
X207676490Y-106807564D01*
X207675287Y-106819128D01*
X207674232Y-106830910D01*
X207673324Y-106842922D01*
X207672559Y-106855177D01*
X207671936Y-106867688D01*
X207671452Y-106880469D01*
X207671105Y-106893533D01*
X207670893Y-106906893D01*
X207670813Y-106920562D01*
X207670863Y-106934553D01*
X207671040Y-106948879D01*
X207671343Y-106963554D01*
X207671768Y-106978590D01*
X207672315Y-106994002D01*
X207672979Y-107009801D01*
X207673760Y-107026001D01*
X207674654Y-107042616D01*
X207675660Y-107059658D01*
X207676774Y-107077141D01*
X207678015Y-107096158D01*
X207679187Y-107114585D01*
X207680292Y-107132440D01*
X207681329Y-107149745D01*
X207682298Y-107166518D01*
X207683200Y-107182779D01*
X207684033Y-107198548D01*
X207684799Y-107213843D01*
X207685498Y-107228686D01*
X207686129Y-107243095D01*
X207686692Y-107257089D01*
X207687188Y-107270690D01*
X207687616Y-107283915D01*
X207687977Y-107296785D01*
X207688271Y-107309319D01*
X207688497Y-107321538D01*
X207688656Y-107333459D01*
X207688748Y-107345104D01*
X207688773Y-107356492D01*
X207688731Y-107367642D01*
X207688622Y-107378573D01*
X207688445Y-107389306D01*
X207688202Y-107399861D01*
X207687892Y-107410256D01*
X207687515Y-107420511D01*
X207687071Y-107430646D01*
X207686560Y-107440680D01*
X207685982Y-107450634D01*
X207685338Y-107460526D01*
X207684628Y-107470377D01*
X207683850Y-107480205D01*
X207683006Y-107490031D01*
X207682096Y-107499873D01*
X207681119Y-107509753D01*
X207680076Y-107519688D01*
X207678966Y-107529700D01*
X207677790Y-107539806D01*
X207676196Y-107552690D01*
X207674496Y-107565529D01*
X207672690Y-107578323D01*
X207670777Y-107591072D01*
X207668758Y-107603776D01*
X207666634Y-107616433D01*
X207664403Y-107629045D01*
X207662067Y-107641610D01*
X207659625Y-107654128D01*
X207657078Y-107666599D01*
X207654426Y-107679023D01*
X207651668Y-107691399D01*
X207648806Y-107703727D01*
X207645839Y-107716006D01*
X207642767Y-107728238D01*
X207639590Y-107740420D01*
X207636309Y-107752553D01*
X207632924Y-107764637D01*
X207629435Y-107776671D01*
X207625841Y-107788655D01*
X207622144Y-107800589D01*
X207618343Y-107812472D01*
X207614439Y-107824304D01*
X207610431Y-107836084D01*
X207606319Y-107847814D01*
X207602105Y-107859491D01*
X207597787Y-107871117D01*
X207593367Y-107882689D01*
X207588844Y-107894210D01*
X207584218Y-107905677D01*
X207579490Y-107917091D01*
X207574659Y-107928451D01*
X207569726Y-107939758D01*
X207564691Y-107951010D01*
X207559554Y-107962208D01*
X207554315Y-107973351D01*
X207548975Y-107984438D01*
X207543533Y-107995471D01*
X207537990Y-108006448D01*
X207532345Y-108017369D01*
X207526600Y-108028233D01*
X207520753Y-108039041D01*
X207514805Y-108049792D01*
X207508757Y-108060486D01*
X207502608Y-108071123D01*
X207496359Y-108081702D01*
X207490010Y-108092222D01*
X207483560Y-108102685D01*
X207477011Y-108113089D01*
X207470361Y-108123433D01*
X207463612Y-108133719D01*
X207456763Y-108143945D01*
X207449815Y-108154111D01*
X207442767Y-108164217D01*
X207435620Y-108174263D01*
X207428374Y-108184248D01*
X207421029Y-108194172D01*
X207413586Y-108204035D01*
X207406044Y-108213836D01*
X207398403Y-108223575D01*
X207390664Y-108233252D01*
X207382826Y-108242866D01*
X207374891Y-108252418D01*
X207366858Y-108261907D01*
X207358727Y-108271332D01*
X207350498Y-108280693D01*
X207342171Y-108289991D01*
X207333748Y-108299224D01*
X207325227Y-108308393D01*
X207316608Y-108317496D01*
X207307752Y-108326678D01*
X207298792Y-108335792D01*
X207289729Y-108344838D01*
X207280567Y-108353814D01*
X207271307Y-108362719D01*
X207261952Y-108371552D01*
X207252504Y-108380312D01*
X207242966Y-108388996D01*
X207233339Y-108397604D01*
X207223626Y-108406134D01*
X207213829Y-108414586D01*
X207203951Y-108422957D01*
X207193994Y-108431247D01*
X207183959Y-108439453D01*
X207173850Y-108447576D01*
X207163668Y-108455613D01*
X207153416Y-108463563D01*
X207143096Y-108471425D01*
X207132711Y-108479197D01*
X207122262Y-108486879D01*
X207111752Y-108494468D01*
X207101183Y-108501964D01*
X207090557Y-108509365D01*
X207079878Y-108516670D01*
X207069146Y-108523877D01*
X207058365Y-108530986D01*
X207047536Y-108537994D01*
X207036662Y-108544901D01*
X207025745Y-108551706D01*
X207014787Y-108558406D01*
X207003791Y-108565001D01*
X206992759Y-108571489D01*
X206981693Y-108577869D01*
X206970596Y-108584139D01*
X206959469Y-108590299D01*
X206948316Y-108596347D01*
X206937137Y-108602282D01*
X206925936Y-108608102D01*
X206914715Y-108613806D01*
X206903476Y-108619393D01*
X206892221Y-108624861D01*
X206880953Y-108630209D01*
X206869674Y-108635435D01*
X206858386Y-108640540D01*
X206847092Y-108645520D01*
X206835793Y-108650375D01*
X206824492Y-108655103D01*
X206813191Y-108659704D01*
X206801893Y-108664175D01*
X206790600Y-108668516D01*
X206779314Y-108672725D01*
X206768037Y-108676800D01*
X206756772Y-108680741D01*
X206745520Y-108684547D01*
X206734285Y-108688215D01*
X206723069Y-108691745D01*
X206711873Y-108695134D01*
X206700700Y-108698383D01*
X206689552Y-108701489D01*
X206678432Y-108704452D01*
X206667341Y-108707269D01*
X206656283Y-108709940D01*
X206645259Y-108712463D01*
X206634272Y-108714838D01*
X206618721Y-108717994D01*
X206604813Y-108720614D01*
X206592607Y-108722707D01*
X206582164Y-108724281D01*
X206573543Y-108725344D01*
X206566805Y-108725907D01*
X206562008Y-108725978D01*
X206559213Y-108725565D01*
X206558480Y-108724678D01*
X206559869Y-108723325D01*
X206563439Y-108721515D01*
X206569251Y-108719257D01*
X206577364Y-108716560D01*
X206587838Y-108713433D01*
X206600734Y-108709885D01*
X206609178Y-108707522D01*
X206617913Y-108704853D01*
X206626923Y-108701884D01*
X206636195Y-108698626D01*
X206645714Y-108695086D01*
X206655465Y-108691273D01*
X206665434Y-108687196D01*
X206675607Y-108682864D01*
X206685970Y-108678284D01*
X206696507Y-108673466D01*
X206707204Y-108668418D01*
X206718048Y-108663149D01*
X206729023Y-108657667D01*
X206740116Y-108651981D01*
X206751311Y-108646100D01*
X206762595Y-108640032D01*
X206773953Y-108633786D01*
X206785370Y-108627370D01*
X206796832Y-108620793D01*
X206808325Y-108614064D01*
X206819835Y-108607191D01*
X206831346Y-108600183D01*
X206842845Y-108593048D01*
X206854318Y-108585795D01*
X206865748Y-108578433D01*
X206877123Y-108570971D01*
X206888428Y-108563416D01*
X206899649Y-108555777D01*
X206910770Y-108548064D01*
X206921778Y-108540284D01*
X206932658Y-108532447D01*
X206943396Y-108524560D01*
X206953978Y-108516633D01*
X206964388Y-108508675D01*
X206974613Y-108500692D01*
X206984638Y-108492696D01*
X206994449Y-108484693D01*
X207004032Y-108476692D01*
X207013371Y-108468703D01*
X207022452Y-108460733D01*
X207031262Y-108452792D01*
X207041168Y-108443681D01*
X207050952Y-108434564D01*
X207060617Y-108425441D01*
X207070162Y-108416311D01*
X207079589Y-108407172D01*
X207088899Y-108398023D01*
X207098091Y-108388862D01*
X207107167Y-108379689D01*
X207116128Y-108370501D01*
X207124974Y-108361298D01*
X207133706Y-108352079D01*
X207142324Y-108342842D01*
X207150830Y-108333585D01*
X207159224Y-108324308D01*
X207167508Y-108315009D01*
X207175680Y-108305687D01*
X207183743Y-108296340D01*
X207191698Y-108286968D01*
X207199544Y-108277568D01*
X207207283Y-108268141D01*
X207214915Y-108258683D01*
X207222441Y-108249195D01*
X207229862Y-108239674D01*
X207237178Y-108230120D01*
X207244391Y-108220531D01*
X207251501Y-108210905D01*
X207258509Y-108201242D01*
X207265415Y-108191541D01*
X207272220Y-108181799D01*
X207278925Y-108172016D01*
X207285531Y-108162190D01*
X207292039Y-108152321D01*
X207298448Y-108142406D01*
X207304761Y-108132444D01*
X207310977Y-108122434D01*
X207317097Y-108112376D01*
X207323123Y-108102266D01*
X207329055Y-108092105D01*
X207334893Y-108081891D01*
X207340638Y-108071623D01*
X207346292Y-108061299D01*
X207351854Y-108050917D01*
X207357326Y-108040478D01*
X207362708Y-108029978D01*
X207368001Y-108019418D01*
X207373206Y-108008796D01*
X207378323Y-107998110D01*
X207383354Y-107987359D01*
X207388298Y-107976543D01*
X207393157Y-107965658D01*
X207397932Y-107954705D01*
X207402623Y-107943682D01*
X207407231Y-107932588D01*
X207411756Y-107921421D01*
X207416200Y-107910180D01*
X207420563Y-107898864D01*
X207424845Y-107887471D01*
X207429049Y-107876000D01*
X207433173Y-107864451D01*
X207437220Y-107852820D01*
X207441190Y-107841109D01*
X207445083Y-107829314D01*
X207448900Y-107817434D01*
X207452642Y-107805469D01*
X207456310Y-107793417D01*
X207459905Y-107781277D01*
X207463426Y-107769047D01*
X207466876Y-107756726D01*
X207470254Y-107744313D01*
X207473562Y-107731807D01*
X207476800Y-107719206D01*
X207479969Y-107706509D01*
X207483069Y-107693714D01*
X207486102Y-107680821D01*
X207489068Y-107667827D01*
X207491968Y-107654733D01*
X207494802Y-107641536D01*
X207497572Y-107628234D01*
X207499869Y-107616534D01*
X207502119Y-107604102D01*
X207504316Y-107591021D01*
X207506455Y-107577368D01*
X207508530Y-107563223D01*
X207510535Y-107548666D01*
X207512466Y-107533776D01*
X207514316Y-107518634D01*
X207516080Y-107503318D01*
X207517752Y-107487907D01*
X207519326Y-107472481D01*
X207520798Y-107457121D01*
X207522162Y-107441904D01*
X207523411Y-107426911D01*
X207524541Y-107412221D01*
X207525545Y-107397914D01*
X207526419Y-107384070D01*
X207527156Y-107370767D01*
X207527751Y-107358085D01*
X207528199Y-107346104D01*
X207528494Y-107334903D01*
X207528629Y-107324562D01*
X207528601Y-107315160D01*
X207528403Y-107306776D01*
X207528029Y-107299491D01*
X207527474Y-107293384D01*
X207526733Y-107288533D01*
X207525799Y-107285020D01*
X207524668Y-107282922D01*
X207523333Y-107282320D01*
X207521790Y-107283293D01*
X207519442Y-107286592D01*
X207516101Y-107292385D01*
X207511900Y-107300395D01*
X207506970Y-107310344D01*
X207501444Y-107321956D01*
X207495453Y-107334953D01*
X207489129Y-107349058D01*
X207482604Y-107363995D01*
X207476011Y-107379486D01*
X207472080Y-107388655D01*
X207467724Y-107398466D01*
X207462988Y-107408832D01*
X207457918Y-107419662D01*
X207452558Y-107430867D01*
X207446955Y-107442358D01*
X207441154Y-107454047D01*
X207435200Y-107465843D01*
X207429138Y-107477658D01*
X207423014Y-107489402D01*
X207416873Y-107500987D01*
X207410761Y-107512323D01*
X207404723Y-107523321D01*
X207398804Y-107533891D01*
X207393050Y-107543946D01*
X207387506Y-107553395D01*
X207381732Y-107563038D01*
X207375899Y-107572658D01*
X207370006Y-107582254D01*
X207364055Y-107591824D01*
X207358045Y-107601371D01*
X207351977Y-107610893D01*
X207345850Y-107620390D01*
X207339665Y-107629862D01*
X207333422Y-107639309D01*
X207327120Y-107648730D01*
X207320762Y-107658127D01*
X207314345Y-107667498D01*
X207307871Y-107676844D01*
X207301340Y-107686164D01*
X207294752Y-107695458D01*
X207288106Y-107704727D01*
X207281404Y-107713969D01*
X207274645Y-107723186D01*
X207267830Y-107732376D01*
X207260958Y-107741540D01*
X207254031Y-107750677D01*
X207247047Y-107759788D01*
X207240007Y-107768872D01*
X207232912Y-107777929D01*
X207225761Y-107786959D01*
X207218555Y-107795962D01*
X207211294Y-107804938D01*
X207203977Y-107813887D01*
X207196606Y-107822808D01*
X207189180Y-107831702D01*
X207181699Y-107840568D01*
X207174164Y-107849407D01*
X207166575Y-107858217D01*
X207158931Y-107866999D01*
X207151234Y-107875753D01*
X207143483Y-107884479D01*
X207135678Y-107893177D01*
X207127820Y-107901846D01*
X207119908Y-107910486D01*
X207111943Y-107919098D01*
X207103926Y-107927681D01*
X207095855Y-107936235D01*
X207087732Y-107944759D01*
X207079556Y-107953255D01*
X207071329Y-107961721D01*
X207063048Y-107970157D01*
X207054716Y-107978564D01*
X207046332Y-107986942D01*
X207037896Y-107995289D01*
X207029409Y-108003607D01*
X207020870Y-108011894D01*
X207012281Y-108020152D01*
X207003640Y-108028379D01*
X206994948Y-108036575D01*
X206986205Y-108044741D01*
X206977412Y-108052877D01*
X206968568Y-108060981D01*
X206959674Y-108069055D01*
X206950730Y-108077097D01*
X206941736Y-108085109D01*
X206932693Y-108093089D01*
X206923599Y-108101038D01*
X206914456Y-108108955D01*
X206905264Y-108116841D01*
X206896023Y-108124695D01*
X206886732Y-108132517D01*
X206877393Y-108140307D01*
X206868005Y-108148065D01*
X206858569Y-108155791D01*
X206849084Y-108163484D01*
X206839551Y-108171145D01*
X206829970Y-108178773D01*
X206820342Y-108186369D01*
X206810665Y-108193932D01*
X206800941Y-108201461D01*
X206791169Y-108208958D01*
X206781351Y-108216422D01*
X206771485Y-108223852D01*
X206761572Y-108231249D01*
X206751613Y-108238612D01*
X206741606Y-108245942D01*
X206731554Y-108253237D01*
X206721455Y-108260499D01*
X206711310Y-108267727D01*
X206701119Y-108274921D01*
X206690882Y-108282080D01*
X206680600Y-108289205D01*
X206670272Y-108296296D01*
X206659899Y-108303352D01*
X206649480Y-108310373D01*
X206639017Y-108317359D01*
X206628509Y-108324311D01*
X206617956Y-108331227D01*
X206607358Y-108338108D01*
X206596717Y-108344953D01*
X206586031Y-108351763D01*
X206575300Y-108358538D01*
X206564527Y-108365277D01*
X206553709Y-108371980D01*
X206542847Y-108378647D01*
X206531943Y-108385278D01*
X206520995Y-108391873D01*
X206510004Y-108398431D01*
X206498970Y-108404953D01*
X206487893Y-108411439D01*
X206476774Y-108417887D01*
X206465612Y-108424299D01*
X206454408Y-108430675D01*
X206443161Y-108437013D01*
X206431873Y-108443314D01*
X206420543Y-108449577D01*
X206409171Y-108455804D01*
X206397758Y-108461992D01*
X206386303Y-108468143D01*
X206374808Y-108474257D01*
X206363271Y-108480332D01*
X206351693Y-108486370D01*
X206340075Y-108492369D01*
X206328416Y-108498330D01*
X206316716Y-108504253D01*
X206304977Y-108510137D01*
X206293197Y-108515983D01*
X206281378Y-108521790D01*
X206269519Y-108527558D01*
X206257620Y-108533288D01*
X206245681Y-108538978D01*
X206233704Y-108544629D01*
X206221687Y-108550240D01*
X206209632Y-108555813D01*
X206197537Y-108561345D01*
X206185404Y-108566838D01*
X206173233Y-108572291D01*
X206161023Y-108577705D01*
X206148775Y-108583078D01*
X206136489Y-108588411D01*
X206124165Y-108593704D01*
X206111804Y-108598956D01*
X206099405Y-108604168D01*
X206086968Y-108609339D01*
X206074495Y-108614470D01*
X206061984Y-108619560D01*
X206049437Y-108624608D01*
X206036853Y-108629616D01*
X206024232Y-108634582D01*
X206011575Y-108639507D01*
X205998881Y-108644391D01*
X205986152Y-108649232D01*
X205973386Y-108654033D01*
X205960585Y-108658791D01*
X205947749Y-108663507D01*
X205934876Y-108668182D01*
X205921969Y-108672814D01*
X205909026Y-108677403D01*
X205896049Y-108681951D01*
X205883036Y-108686456D01*
X205872150Y-108690160D01*
X205860828Y-108693933D01*
X205849101Y-108697767D01*
X205836998Y-108701654D01*
X205824549Y-108705587D01*
X205811784Y-108709556D01*
X205798732Y-108713556D01*
X205785423Y-108717577D01*
X205771887Y-108721613D01*
X205758153Y-108725655D01*
X205744251Y-108729696D01*
X205730211Y-108733728D01*
X205716062Y-108737743D01*
X205701835Y-108741733D01*
X205687559Y-108745691D01*
X205673263Y-108749609D01*
X205658977Y-108753479D01*
X205644732Y-108757293D01*
X205630556Y-108761044D01*
X205616480Y-108764724D01*
X205602532Y-108768324D01*
X205588745Y-108771838D01*
X205575145Y-108775258D01*
X205561763Y-108778575D01*
X205548629Y-108781782D01*
X205535773Y-108784872D01*
X205523224Y-108787836D01*
X205511012Y-108790666D01*
X205499166Y-108793356D01*
X205487717Y-108795897D01*
X205476695Y-108798281D01*
X205466128Y-108800501D01*
X205456046Y-108802549D01*
X205446479Y-108804417D01*
X205437458Y-108806097D01*
X205429011Y-108807582D01*
X205421168Y-108808863D01*
X205413960Y-108809934D01*
X205407415Y-108810786D01*
X205353974Y-108817162D01*
X205418061Y-108783987D01*
X205432650Y-108776420D01*
X205447070Y-108768902D01*
X205461322Y-108761432D01*
X205475409Y-108754007D01*
X205489332Y-108746627D01*
X205503094Y-108739290D01*
X205516698Y-108731995D01*
X205530144Y-108724739D01*
X205543436Y-108717522D01*
X205556575Y-108710342D01*
X205569563Y-108703198D01*
X205582403Y-108696088D01*
X205595096Y-108689010D01*
X205607646Y-108681963D01*
X205620054Y-108674946D01*
X205632322Y-108667957D01*
X205644453Y-108660994D01*
X205656448Y-108654057D01*
X205668309Y-108647143D01*
X205680040Y-108640252D01*
X205691641Y-108633381D01*
X205703115Y-108626529D01*
X205714464Y-108619695D01*
X205725691Y-108612878D01*
X205736797Y-108606075D01*
X205747784Y-108599285D01*
X205758655Y-108592507D01*
X205769412Y-108585739D01*
X205780057Y-108578980D01*
X205790592Y-108572228D01*
X205801019Y-108565482D01*
X205811341Y-108558741D01*
X205821559Y-108552002D01*
X205831675Y-108545264D01*
X205841692Y-108538527D01*
X205851613Y-108531788D01*
X205861438Y-108525045D01*
X205871170Y-108518298D01*
X205880812Y-108511545D01*
X205890365Y-108504785D01*
X205899831Y-108498015D01*
X205909213Y-108491235D01*
X205918513Y-108484442D01*
X205927733Y-108477636D01*
X205936875Y-108470815D01*
X205945941Y-108463978D01*
X205954934Y-108457123D01*
X205963855Y-108450248D01*
X205972707Y-108443352D01*
X205981491Y-108436434D01*
X205990210Y-108429491D01*
X205998867Y-108422524D01*
X206007462Y-108415529D01*
X206015999Y-108408506D01*
X206024479Y-108401453D01*
X206032905Y-108394369D01*
X206041278Y-108387252D01*
X206049601Y-108380101D01*
X206057876Y-108372913D01*
X206066105Y-108365689D01*
X206074291Y-108358425D01*
X206082435Y-108351122D01*
X206090539Y-108343776D01*
X206098606Y-108336387D01*
X206106637Y-108328954D01*
X206114636Y-108321474D01*
X206122603Y-108313947D01*
X206130542Y-108306370D01*
X206138454Y-108298743D01*
X206146342Y-108291063D01*
X206154206Y-108283330D01*
X206162051Y-108275541D01*
X206169878Y-108267696D01*
X206177688Y-108259793D01*
X206185485Y-108251830D01*
X206193269Y-108243806D01*
X206202469Y-108234220D01*
X206211594Y-108224590D01*
X206220644Y-108214917D01*
X206229620Y-108205201D01*
X206238520Y-108195442D01*
X206247344Y-108185642D01*
X206256093Y-108175799D01*
X206264766Y-108165916D01*
X206273362Y-108155992D01*
X206281882Y-108146028D01*
X206290326Y-108136025D01*
X206298692Y-108125982D01*
X206306981Y-108115900D01*
X206315193Y-108105780D01*
X206323327Y-108095623D01*
X206331383Y-108085428D01*
X206339362Y-108075196D01*
X206347261Y-108064927D01*
X206355082Y-108054623D01*
X206362824Y-108044283D01*
X206370487Y-108033908D01*
X206378071Y-108023498D01*
X206385575Y-108013055D01*
X206393000Y-108002577D01*
X206400344Y-107992067D01*
X206407608Y-107981524D01*
X206414791Y-107970948D01*
X206421893Y-107960341D01*
X206428915Y-107949703D01*
X206435855Y-107939033D01*
X206442714Y-107928334D01*
X206449491Y-107917604D01*
X206456186Y-107906845D01*
X206462798Y-107896056D01*
X206469328Y-107885240D01*
X206475776Y-107874395D01*
X206482140Y-107863522D01*
X206488422Y-107852623D01*
X206494620Y-107841697D01*
X206500734Y-107830744D01*
X206506764Y-107819766D01*
X206512710Y-107808762D01*
X206518572Y-107797734D01*
X206524349Y-107786681D01*
X206530041Y-107775605D01*
X206535648Y-107764505D01*
X206541169Y-107753382D01*
X206546605Y-107742236D01*
X206551956Y-107731069D01*
X206557220Y-107719880D01*
X206562397Y-107708669D01*
X206567488Y-107697438D01*
X206572493Y-107686187D01*
X206577410Y-107674917D01*
X206582240Y-107663627D01*
X206586983Y-107652318D01*
X206591637Y-107640991D01*
X206596204Y-107629646D01*
X206600682Y-107618283D01*
X206605072Y-107606904D01*
X206609373Y-107595508D01*
X206613586Y-107584096D01*
X206617709Y-107572669D01*
X206621742Y-107561226D01*
X206625686Y-107549769D01*
X206629540Y-107538298D01*
X206633303Y-107526814D01*
X206636977Y-107515316D01*
X206640559Y-107503805D01*
X206644051Y-107492282D01*
X206647452Y-107480747D01*
X206650761Y-107469201D01*
X206653978Y-107457643D01*
X206657104Y-107446076D01*
X206660137Y-107434498D01*
X206663079Y-107422911D01*
X206665927Y-107411314D01*
X206668683Y-107399710D01*
X206671346Y-107388097D01*
X206673915Y-107376476D01*
X206676391Y-107364848D01*
X206678773Y-107353214D01*
X206681061Y-107341573D01*
X206683255Y-107329927D01*
X206685354Y-107318275D01*
X206687359Y-107306618D01*
X206689268Y-107294957D01*
X206691083Y-107283292D01*
X206692721Y-107271967D01*
X206694274Y-107260220D01*
X206695740Y-107248085D01*
X206697119Y-107235596D01*
X206698412Y-107222786D01*
X206699617Y-107209688D01*
X206700734Y-107196337D01*
X206701762Y-107182764D01*
X206702702Y-107169004D01*
X206703553Y-107155091D01*
X206704314Y-107141057D01*
X206704985Y-107126937D01*
X206705566Y-107112763D01*
X206706056Y-107098570D01*
X206706455Y-107084390D01*
X206706763Y-107070257D01*
X206706978Y-107056204D01*
X206707101Y-107042266D01*
X206707132Y-107028475D01*
X206707069Y-107014864D01*
X206706912Y-107001469D01*
X206706662Y-106988320D01*
X206706317Y-106975454D01*
X206705877Y-106962902D01*
X206705342Y-106950698D01*
X206704711Y-106938875D01*
X206703985Y-106927468D01*
X206703162Y-106916510D01*
X206702242Y-106906033D01*
X206701225Y-106896072D01*
X206700110Y-106886660D01*
X206698897Y-106877830D01*
X206697586Y-106869617D01*
X206696175Y-106862052D01*
X206693228Y-106846571D01*
X206690863Y-106832345D01*
X206689151Y-106819975D01*
X206688166Y-106810066D01*
X206687981Y-106803219D01*
X206688670Y-106800038D01*
X206690886Y-106800470D01*
X206695706Y-106803163D01*
X206702770Y-106807832D01*
X206711719Y-106814188D01*
X206722193Y-106821943D01*
X206733833Y-106830810D01*
X206746280Y-106840502D01*
X206759175Y-106850731D01*
X206772157Y-106861210D01*
X206784868Y-106871650D01*
X206796949Y-106881765D01*
X206808040Y-106891266D01*
X206817782Y-106899867D01*
X206825816Y-106907280D01*
X206831782Y-106913216D01*
X206835320Y-106917390D01*
X206835912Y-106917574D01*
X206837184Y-106917417D01*
X206839126Y-106916925D01*
X206841723Y-106916103D01*
X206844964Y-106914957D01*
X206848835Y-106913494D01*
X206853324Y-106911720D01*
X206858417Y-106909640D01*
X206864103Y-106907260D01*
X206870368Y-106904587D01*
X206877200Y-106901626D01*
X206884585Y-106898384D01*
X206892512Y-106894866D01*
X206900966Y-106891078D01*
X206909937Y-106887027D01*
X206919410Y-106882718D01*
X206929373Y-106878157D01*
X206939813Y-106873351D01*
X206950718Y-106868305D01*
X206962074Y-106863025D01*
X206973870Y-106857517D01*
X206986091Y-106851788D01*
X206998726Y-106845842D01*
X207011762Y-106839687D01*
X207025185Y-106833328D01*
X207038984Y-106826772D01*
X207053145Y-106820023D01*
X207067655Y-106813089D01*
X207082502Y-106805974D01*
X207097674Y-106798686D01*
X207113156Y-106791230D01*
X207128937Y-106783612D01*
X207145004Y-106775837D01*
X207161344Y-106767913D01*
X207177944Y-106759845D01*
X207194792Y-106751639D01*
X207211874Y-106743301D01*
X207229178Y-106734836D01*
X207246691Y-106726252D01*
X207264401Y-106717553D01*
X207282294Y-106708747D01*
X207300358Y-106699838D01*
X207318581Y-106690833D01*
X207336806Y-106681822D01*
X207354879Y-106672893D01*
X207372787Y-106664053D01*
X207390517Y-106655308D01*
X207408056Y-106646665D01*
X207425391Y-106638130D01*
X207442510Y-106629708D01*
X207459399Y-106621407D01*
X207476046Y-106613232D01*
X207492438Y-106605190D01*
X207508561Y-106597286D01*
X207524404Y-106589528D01*
X207539953Y-106581920D01*
X207555195Y-106574471D01*
X207570117Y-106567185D01*
X207584707Y-106560069D01*
X207598952Y-106553129D01*
X207612839Y-106546372D01*
X207626354Y-106539804D01*
X207639486Y-106533430D01*
X207652221Y-106527258D01*
X207664546Y-106521292D01*
X207676448Y-106515541D01*
X207687915Y-106510009D01*
X207698934Y-106504704D01*
X207709492Y-106499630D01*
X207719575Y-106494795D01*
X207729172Y-106490205D01*
X207738269Y-106485866D01*
X207746853Y-106481784D01*
X207754911Y-106477966D01*
X207762431Y-106474417D01*
X207769400Y-106471144D01*
X207775805Y-106468154D01*
X207781633Y-106465451D01*
X207786871Y-106463044D01*
X207791506Y-106460937D01*
X207795525Y-106459137D01*
X207798916Y-106457650D01*
X207801666Y-106456483D01*
X207803761Y-106455642D01*
X207805189Y-106455132D01*
X207805937Y-106454961D01*
X207807178Y-106456478D01*
G37*
G36*
X206505516Y-106678194D02*
G01*
X206506384Y-106678616D01*
X206507763Y-106680806D01*
X206509052Y-106684473D01*
X206510249Y-106689536D01*
X206511356Y-106695913D01*
X206512374Y-106703524D01*
X206513302Y-106712287D01*
X206514141Y-106722121D01*
X206514890Y-106732945D01*
X206515552Y-106744679D01*
X206516126Y-106757241D01*
X206516611Y-106770549D01*
X206517010Y-106784523D01*
X206517322Y-106799082D01*
X206517547Y-106814144D01*
X206517686Y-106829629D01*
X206517739Y-106845455D01*
X206517707Y-106861542D01*
X206517589Y-106877808D01*
X206517387Y-106894171D01*
X206517101Y-106910552D01*
X206516731Y-106926869D01*
X206516277Y-106943040D01*
X206515740Y-106958985D01*
X206515121Y-106974623D01*
X206514419Y-106989872D01*
X206513635Y-107004651D01*
X206512769Y-107018880D01*
X206511822Y-107032477D01*
X206510794Y-107045361D01*
X206509685Y-107057451D01*
X206508497Y-107068666D01*
X206507228Y-107078925D01*
X206505880Y-107088146D01*
X206504454Y-107096249D01*
X206501980Y-107108698D01*
X206499455Y-107120937D01*
X206496873Y-107132983D01*
X206494229Y-107144850D01*
X206491516Y-107156556D01*
X206488731Y-107168117D01*
X206485867Y-107179547D01*
X206482918Y-107190864D01*
X206479879Y-107202084D01*
X206476745Y-107213222D01*
X206473511Y-107224295D01*
X206470170Y-107235319D01*
X206466717Y-107246309D01*
X206463147Y-107257282D01*
X206459454Y-107268254D01*
X206455633Y-107279241D01*
X206451678Y-107290259D01*
X206447583Y-107301324D01*
X206443344Y-107312452D01*
X206438955Y-107323659D01*
X206434410Y-107334961D01*
X206429703Y-107346375D01*
X206424830Y-107357915D01*
X206419784Y-107369600D01*
X206414561Y-107381443D01*
X206409155Y-107393462D01*
X206403560Y-107405673D01*
X206397770Y-107418091D01*
X206391781Y-107430733D01*
X206385587Y-107443614D01*
X206380029Y-107455000D01*
X206374450Y-107466246D01*
X206368845Y-107477356D01*
X206363212Y-107488337D01*
X206357546Y-107499194D01*
X206351844Y-107509932D01*
X206346101Y-107520556D01*
X206340313Y-107531071D01*
X206334477Y-107541485D01*
X206328589Y-107551800D01*
X206322644Y-107562024D01*
X206316640Y-107572161D01*
X206310571Y-107582217D01*
X206304435Y-107592196D01*
X206298227Y-107602105D01*
X206291944Y-107611949D01*
X206285581Y-107621733D01*
X206279134Y-107631462D01*
X206272600Y-107641142D01*
X206265976Y-107650778D01*
X206259256Y-107660376D01*
X206252437Y-107669940D01*
X206245515Y-107679477D01*
X206238487Y-107688991D01*
X206231348Y-107698488D01*
X206224094Y-107707974D01*
X206216722Y-107717453D01*
X206209228Y-107726931D01*
X206201607Y-107736414D01*
X206193857Y-107745906D01*
X206185973Y-107755414D01*
X206177950Y-107764942D01*
X206169786Y-107774495D01*
X206161477Y-107784080D01*
X206153017Y-107793702D01*
X206144405Y-107803365D01*
X206135635Y-107813076D01*
X206126704Y-107822839D01*
X206117608Y-107832660D01*
X206108343Y-107842545D01*
X206098905Y-107852498D01*
X206089290Y-107862526D01*
X206079495Y-107872632D01*
X206069515Y-107882824D01*
X206059347Y-107893106D01*
X206049993Y-107902436D01*
X206040241Y-107912005D01*
X206030125Y-107921786D01*
X206019679Y-107931750D01*
X206008937Y-107941869D01*
X205997934Y-107952116D01*
X205986703Y-107962462D01*
X205975280Y-107972879D01*
X205963697Y-107983339D01*
X205951990Y-107993815D01*
X205940192Y-108004277D01*
X205928338Y-108014698D01*
X205916462Y-108025050D01*
X205904598Y-108035304D01*
X205892781Y-108045434D01*
X205881044Y-108055410D01*
X205869421Y-108065205D01*
X205857948Y-108074791D01*
X205846658Y-108084139D01*
X205835585Y-108093221D01*
X205824763Y-108102010D01*
X205814228Y-108110477D01*
X205804012Y-108118595D01*
X205794150Y-108126335D01*
X205784677Y-108133669D01*
X205775626Y-108140569D01*
X205767032Y-108147007D01*
X205758930Y-108152956D01*
X205751352Y-108158386D01*
X205744333Y-108163270D01*
X205737908Y-108167581D01*
X205732111Y-108171289D01*
X205726976Y-108174367D01*
X205722537Y-108176786D01*
X205718829Y-108178519D01*
X205715885Y-108179538D01*
X205713740Y-108179814D01*
X205712427Y-108179320D01*
X205711982Y-108178028D01*
X205713759Y-108172673D01*
X205718597Y-108165230D01*
X205725754Y-108156682D01*
X205734492Y-108148015D01*
X205737873Y-108144750D01*
X205741702Y-108140674D01*
X205745958Y-108135824D01*
X205750616Y-108130233D01*
X205755656Y-108123937D01*
X205761054Y-108116972D01*
X205766788Y-108109371D01*
X205772836Y-108101170D01*
X205779175Y-108092404D01*
X205785782Y-108083109D01*
X205792636Y-108073318D01*
X205799713Y-108063067D01*
X205806991Y-108052391D01*
X205814449Y-108041325D01*
X205822063Y-108029904D01*
X205829810Y-108018164D01*
X205837669Y-108006138D01*
X205845617Y-107993862D01*
X205853632Y-107981371D01*
X205861691Y-107968700D01*
X205869771Y-107955884D01*
X205877850Y-107942958D01*
X205885906Y-107929957D01*
X205893917Y-107916916D01*
X205901859Y-107903870D01*
X205909710Y-107890855D01*
X205917448Y-107877904D01*
X205925051Y-107865053D01*
X205932495Y-107852337D01*
X205939759Y-107839791D01*
X205946820Y-107827451D01*
X205953656Y-107815350D01*
X205960244Y-107803524D01*
X205966561Y-107792009D01*
X205972585Y-107780838D01*
X205978295Y-107770047D01*
X205983666Y-107759672D01*
X205989091Y-107748927D01*
X205994711Y-107737532D01*
X206000501Y-107725549D01*
X206006434Y-107713041D01*
X206012486Y-107700070D01*
X206018632Y-107686697D01*
X206024846Y-107672984D01*
X206031103Y-107658994D01*
X206037378Y-107644788D01*
X206043646Y-107630429D01*
X206049881Y-107615979D01*
X206056058Y-107601498D01*
X206062152Y-107587051D01*
X206068137Y-107572698D01*
X206073988Y-107558501D01*
X206079681Y-107544523D01*
X206085189Y-107530826D01*
X206090488Y-107517473D01*
X206095552Y-107504522D01*
X206100357Y-107492039D01*
X206104875Y-107480084D01*
X206109084Y-107468720D01*
X206112956Y-107458009D01*
X206116468Y-107448012D01*
X206119593Y-107438792D01*
X206122307Y-107430411D01*
X206124584Y-107422931D01*
X206126399Y-107416413D01*
X206127727Y-107410920D01*
X206128542Y-107406514D01*
X206128819Y-107403256D01*
X206127730Y-107402599D01*
X206124578Y-107404036D01*
X206119538Y-107407420D01*
X206112783Y-107412603D01*
X206104487Y-107419438D01*
X206094825Y-107427779D01*
X206083970Y-107437479D01*
X206072095Y-107448390D01*
X206059376Y-107460365D01*
X206045986Y-107473257D01*
X206036940Y-107482011D01*
X206027846Y-107490711D01*
X206018705Y-107499356D01*
X206009517Y-107507947D01*
X206000282Y-107516483D01*
X205990999Y-107524964D01*
X205981671Y-107533390D01*
X205972296Y-107541761D01*
X205962876Y-107550078D01*
X205953410Y-107558338D01*
X205943898Y-107566544D01*
X205934341Y-107574693D01*
X205924740Y-107582787D01*
X205915093Y-107590824D01*
X205905403Y-107598806D01*
X205895668Y-107606731D01*
X205885890Y-107614599D01*
X205876068Y-107622411D01*
X205866202Y-107630166D01*
X205856294Y-107637865D01*
X205846343Y-107645506D01*
X205836349Y-107653089D01*
X205826313Y-107660616D01*
X205816235Y-107668084D01*
X205806115Y-107675495D01*
X205795954Y-107682848D01*
X205785751Y-107690143D01*
X205775508Y-107697380D01*
X205765224Y-107704558D01*
X205754899Y-107711678D01*
X205744534Y-107718739D01*
X205734130Y-107725741D01*
X205723685Y-107732684D01*
X205713201Y-107739568D01*
X205702678Y-107746392D01*
X205692116Y-107753157D01*
X205681516Y-107759863D01*
X205670877Y-107766509D01*
X205660200Y-107773094D01*
X205649485Y-107779620D01*
X205638733Y-107786085D01*
X205627943Y-107792490D01*
X205617116Y-107798834D01*
X205606252Y-107805118D01*
X205595352Y-107811340D01*
X205584416Y-107817502D01*
X205573444Y-107823602D01*
X205562436Y-107829641D01*
X205551392Y-107835619D01*
X205540313Y-107841534D01*
X205529198Y-107847388D01*
X205518050Y-107853180D01*
X205506866Y-107858910D01*
X205495649Y-107864577D01*
X205484397Y-107870182D01*
X205473112Y-107875724D01*
X205461794Y-107881204D01*
X205450442Y-107886620D01*
X205439057Y-107891974D01*
X205427640Y-107897264D01*
X205416190Y-107902491D01*
X205404708Y-107907654D01*
X205393194Y-107912753D01*
X205381649Y-107917788D01*
X205370072Y-107922760D01*
X205358464Y-107927667D01*
X205346826Y-107932510D01*
X205335156Y-107937288D01*
X205323457Y-107942002D01*
X205311727Y-107946651D01*
X205299968Y-107951235D01*
X205288179Y-107955753D01*
X205276361Y-107960207D01*
X205264514Y-107964594D01*
X205252638Y-107968917D01*
X205240733Y-107973173D01*
X205228800Y-107977364D01*
X205216840Y-107981488D01*
X205204851Y-107985546D01*
X205192835Y-107989538D01*
X205174528Y-107995522D01*
X205156820Y-108001229D01*
X205139856Y-108006619D01*
X205123779Y-108011648D01*
X205108733Y-108016275D01*
X205094860Y-108020457D01*
X205082305Y-108024152D01*
X205071211Y-108027318D01*
X205061722Y-108029912D01*
X205053981Y-108031893D01*
X205048132Y-108033218D01*
X205044318Y-108033844D01*
X205042682Y-108033730D01*
X205043428Y-108031893D01*
X205047089Y-108028153D01*
X205053373Y-108022737D01*
X205061989Y-108015871D01*
X205072644Y-108007781D01*
X205085046Y-107998696D01*
X205098903Y-107988842D01*
X205113923Y-107978445D01*
X205120387Y-107973995D01*
X205127036Y-107969353D01*
X205133864Y-107964523D01*
X205140870Y-107959509D01*
X205148048Y-107954314D01*
X205155395Y-107948940D01*
X205162908Y-107943392D01*
X205170581Y-107937673D01*
X205178412Y-107931787D01*
X205186397Y-107925736D01*
X205194532Y-107919525D01*
X205202813Y-107913156D01*
X205211236Y-107906633D01*
X205219797Y-107899960D01*
X205228493Y-107893140D01*
X205237320Y-107886176D01*
X205246274Y-107879071D01*
X205255351Y-107871830D01*
X205264547Y-107864455D01*
X205273859Y-107856951D01*
X205283282Y-107849319D01*
X205292814Y-107841565D01*
X205302449Y-107833691D01*
X205312185Y-107825700D01*
X205322018Y-107817597D01*
X205331943Y-107809384D01*
X205341956Y-107801065D01*
X205352055Y-107792643D01*
X205362235Y-107784122D01*
X205372493Y-107775505D01*
X205382824Y-107766795D01*
X205393224Y-107757997D01*
X205403691Y-107749113D01*
X205414220Y-107740147D01*
X205424807Y-107731102D01*
X205435449Y-107721981D01*
X205446141Y-107712789D01*
X205456880Y-107703528D01*
X205467663Y-107694202D01*
X205478484Y-107684815D01*
X205489341Y-107675369D01*
X205500230Y-107665868D01*
X205511146Y-107656316D01*
X205522087Y-107646716D01*
X205533047Y-107637071D01*
X205544024Y-107627385D01*
X205555014Y-107617661D01*
X205566012Y-107607903D01*
X205577015Y-107598114D01*
X205588019Y-107588298D01*
X205599019Y-107578457D01*
X205610014Y-107568596D01*
X205620999Y-107558717D01*
X205631970Y-107548825D01*
X205642922Y-107538922D01*
X205653853Y-107529013D01*
X205664758Y-107519099D01*
X205675633Y-107509185D01*
X205686476Y-107499275D01*
X205697281Y-107489371D01*
X205708046Y-107479477D01*
X205718766Y-107469597D01*
X205729437Y-107459734D01*
X205740056Y-107449891D01*
X205750619Y-107440071D01*
X205761122Y-107430279D01*
X205771561Y-107420517D01*
X205781933Y-107410790D01*
X205792233Y-107401099D01*
X205802458Y-107391450D01*
X205812605Y-107381845D01*
X205822668Y-107372287D01*
X205832644Y-107362781D01*
X205842531Y-107353329D01*
X205852323Y-107343934D01*
X205862016Y-107334602D01*
X205871608Y-107325334D01*
X205881095Y-107316134D01*
X205890471Y-107307005D01*
X205899735Y-107297952D01*
X205908881Y-107288977D01*
X205917906Y-107280084D01*
X205926807Y-107271276D01*
X205935579Y-107262556D01*
X205944218Y-107253929D01*
X205952722Y-107245397D01*
X205961085Y-107236965D01*
X205969304Y-107228634D01*
X205977376Y-107220409D01*
X205985296Y-107212293D01*
X205993061Y-107204290D01*
X206000667Y-107196403D01*
X206008110Y-107188636D01*
X206015386Y-107180991D01*
X206022491Y-107173472D01*
X206029422Y-107166083D01*
X206036175Y-107158827D01*
X206042746Y-107151707D01*
X206049132Y-107144728D01*
X206055327Y-107137892D01*
X206061329Y-107131202D01*
X206067134Y-107124663D01*
X206079032Y-107111053D01*
X206090214Y-107098007D01*
X206100536Y-107085710D01*
X206109851Y-107074347D01*
X206118015Y-107064104D01*
X206124881Y-107055168D01*
X206130304Y-107047723D01*
X206134139Y-107041956D01*
X206136239Y-107038053D01*
X206136460Y-107036198D01*
X206134843Y-107036215D01*
X206131257Y-107037402D01*
X206125834Y-107039692D01*
X206118705Y-107043015D01*
X206110000Y-107047303D01*
X206099852Y-107052486D01*
X206088390Y-107058497D01*
X206075746Y-107065267D01*
X206062051Y-107072726D01*
X206047436Y-107080805D01*
X206032033Y-107089437D01*
X206015972Y-107098553D01*
X205999383Y-107108083D01*
X205991380Y-107112700D01*
X205983357Y-107117312D01*
X205975313Y-107121919D01*
X205967248Y-107126521D01*
X205959159Y-107131120D01*
X205951047Y-107135715D01*
X205942910Y-107140307D01*
X205934747Y-107144896D01*
X205926556Y-107149483D01*
X205918338Y-107154069D01*
X205910090Y-107158654D01*
X205901812Y-107163238D01*
X205893503Y-107167822D01*
X205885161Y-107172407D01*
X205876786Y-107176993D01*
X205868376Y-107181580D01*
X205859930Y-107186169D01*
X205851448Y-107190761D01*
X205842928Y-107195356D01*
X205834369Y-107199954D01*
X205825771Y-107204557D01*
X205817131Y-107209163D01*
X205808450Y-107213775D01*
X205799725Y-107218393D01*
X205790956Y-107223016D01*
X205782142Y-107227646D01*
X205773282Y-107232283D01*
X205764374Y-107236927D01*
X205755418Y-107241580D01*
X205746413Y-107246241D01*
X205737357Y-107250911D01*
X205728249Y-107255590D01*
X205719088Y-107260280D01*
X205709874Y-107264980D01*
X205700606Y-107269691D01*
X205691281Y-107274414D01*
X205681899Y-107279149D01*
X205672459Y-107283896D01*
X205662961Y-107288656D01*
X205653402Y-107293430D01*
X205643782Y-107298218D01*
X205634099Y-107303020D01*
X205624353Y-107307838D01*
X205614543Y-107312671D01*
X205604668Y-107317520D01*
X205594726Y-107322386D01*
X205584717Y-107327268D01*
X205574639Y-107332169D01*
X205564490Y-107337087D01*
X205554272Y-107342024D01*
X205543981Y-107346980D01*
X205533617Y-107351955D01*
X205523180Y-107356951D01*
X205512667Y-107361967D01*
X205502078Y-107367004D01*
X205491412Y-107372063D01*
X205480668Y-107377144D01*
X205469844Y-107382248D01*
X205458940Y-107387374D01*
X205447955Y-107392524D01*
X205436887Y-107397698D01*
X205425735Y-107402897D01*
X205414499Y-107408121D01*
X205403177Y-107413371D01*
X205391769Y-107418646D01*
X205380272Y-107423948D01*
X205368687Y-107429278D01*
X205357011Y-107434634D01*
X205345245Y-107440019D01*
X205333386Y-107445433D01*
X205321435Y-107450876D01*
X205309389Y-107456348D01*
X205297247Y-107461850D01*
X205285010Y-107467383D01*
X205272675Y-107472947D01*
X205260241Y-107478543D01*
X205247708Y-107484171D01*
X205235074Y-107489831D01*
X205222339Y-107495524D01*
X205209500Y-107501252D01*
X205196558Y-107507013D01*
X205183511Y-107512809D01*
X205170358Y-107518640D01*
X205157099Y-107524506D01*
X205143730Y-107530408D01*
X205130253Y-107536347D01*
X205116666Y-107542324D01*
X205102967Y-107548338D01*
X205089156Y-107554390D01*
X205075231Y-107560481D01*
X205061192Y-107566611D01*
X205047038Y-107572781D01*
X205032767Y-107578991D01*
X205018378Y-107585241D01*
X205003870Y-107591533D01*
X204989243Y-107597866D01*
X204974494Y-107604241D01*
X204959624Y-107610660D01*
X204944631Y-107617121D01*
X204929513Y-107623626D01*
X204914271Y-107630175D01*
X204898902Y-107636768D01*
X204883406Y-107643407D01*
X204867782Y-107650092D01*
X204852028Y-107656822D01*
X204836144Y-107663600D01*
X204820128Y-107670424D01*
X204803979Y-107677296D01*
X204787697Y-107684216D01*
X204771280Y-107691185D01*
X204754728Y-107698204D01*
X204738038Y-107705271D01*
X204721211Y-107712389D01*
X204704244Y-107719558D01*
X204687138Y-107726778D01*
X204669890Y-107734050D01*
X204653103Y-107741133D01*
X204636468Y-107748173D01*
X204619983Y-107755170D01*
X204603646Y-107762125D01*
X204587458Y-107769039D01*
X204571416Y-107775911D01*
X204555519Y-107782744D01*
X204539766Y-107789536D01*
X204524156Y-107796291D01*
X204508688Y-107803007D01*
X204493360Y-107809685D01*
X204478171Y-107816327D01*
X204463120Y-107822932D01*
X204448205Y-107829502D01*
X204433427Y-107836038D01*
X204418782Y-107842539D01*
X204404270Y-107849007D01*
X204389890Y-107855442D01*
X204375641Y-107861845D01*
X204361521Y-107868216D01*
X204347529Y-107874557D01*
X204333664Y-107880868D01*
X204319925Y-107887149D01*
X204306310Y-107893402D01*
X204292818Y-107899627D01*
X204279448Y-107905824D01*
X204266199Y-107911994D01*
X204253070Y-107918139D01*
X204240058Y-107924258D01*
X204227164Y-107930353D01*
X204214386Y-107936423D01*
X204201722Y-107942471D01*
X204189172Y-107948495D01*
X204176734Y-107954498D01*
X204164407Y-107960479D01*
X204152189Y-107966440D01*
X204140080Y-107972380D01*
X204128078Y-107978302D01*
X204116182Y-107984205D01*
X204104391Y-107990089D01*
X204092704Y-107995957D01*
X204081119Y-108001808D01*
X204069635Y-108007643D01*
X204058251Y-108013463D01*
X204046966Y-108019268D01*
X204035778Y-108025060D01*
X204024686Y-108030838D01*
X204013690Y-108036604D01*
X204002787Y-108042357D01*
X203991977Y-108048100D01*
X203981258Y-108053832D01*
X203970629Y-108059554D01*
X203960089Y-108065267D01*
X203949636Y-108070972D01*
X203939271Y-108076669D01*
X203928990Y-108082358D01*
X203918793Y-108088041D01*
X203908679Y-108093718D01*
X203898646Y-108099391D01*
X203888694Y-108105058D01*
X203878821Y-108110722D01*
X203869026Y-108116383D01*
X203859307Y-108122041D01*
X203849664Y-108127698D01*
X203840094Y-108133353D01*
X203830598Y-108139008D01*
X203821174Y-108144664D01*
X203811819Y-108150320D01*
X203802535Y-108155978D01*
X203793318Y-108161638D01*
X203784168Y-108167301D01*
X203775083Y-108172967D01*
X203766063Y-108178638D01*
X203757106Y-108184314D01*
X203748211Y-108189996D01*
X203739377Y-108195684D01*
X203730602Y-108201379D01*
X203721886Y-108207081D01*
X203713226Y-108212792D01*
X203704622Y-108218512D01*
X203696073Y-108224242D01*
X203687577Y-108229982D01*
X203679133Y-108235733D01*
X203670740Y-108241496D01*
X203662396Y-108247271D01*
X203654101Y-108253059D01*
X203645853Y-108258861D01*
X203637651Y-108264677D01*
X203629494Y-108270508D01*
X203621381Y-108276356D01*
X203613309Y-108282219D01*
X203605279Y-108288100D01*
X203597289Y-108293998D01*
X203589337Y-108299915D01*
X203581422Y-108305851D01*
X203573544Y-108311807D01*
X203565701Y-108317783D01*
X203557891Y-108323780D01*
X203550114Y-108329800D01*
X203542368Y-108335841D01*
X203534652Y-108341906D01*
X203526965Y-108347995D01*
X203519305Y-108354108D01*
X203511672Y-108360246D01*
X203504064Y-108366410D01*
X203496480Y-108372601D01*
X203488919Y-108378819D01*
X203481379Y-108385065D01*
X203473859Y-108391339D01*
X203459994Y-108402684D01*
X203450016Y-108410179D01*
X203443689Y-108413922D01*
X203440779Y-108414010D01*
X203441053Y-108410539D01*
X203444275Y-108403608D01*
X203444277Y-108403606D01*
X203445589Y-108401500D01*
X203447602Y-108398760D01*
X203450293Y-108395408D01*
X203453637Y-108391468D01*
X203457611Y-108386962D01*
X203462191Y-108381913D01*
X203467354Y-108376344D01*
X203473074Y-108370276D01*
X203479330Y-108363733D01*
X203486096Y-108356737D01*
X203493349Y-108349312D01*
X203501065Y-108341479D01*
X203509221Y-108333261D01*
X203517792Y-108324682D01*
X203526755Y-108315763D01*
X203536086Y-108306527D01*
X203545762Y-108296997D01*
X203555758Y-108287196D01*
X203566050Y-108277146D01*
X203576616Y-108266870D01*
X203587430Y-108256391D01*
X203598470Y-108245730D01*
X203609711Y-108234912D01*
X203621130Y-108223958D01*
X203632702Y-108212891D01*
X203644405Y-108201734D01*
X203656214Y-108190509D01*
X203668105Y-108179240D01*
X203680056Y-108167948D01*
X203692041Y-108156656D01*
X203704037Y-108145388D01*
X203716020Y-108134166D01*
X203727967Y-108123011D01*
X203739854Y-108111948D01*
X203751657Y-108100999D01*
X203763351Y-108090185D01*
X203774914Y-108079531D01*
X203786322Y-108069058D01*
X203797550Y-108058790D01*
X203808576Y-108048749D01*
X203819374Y-108038957D01*
X203829922Y-108029437D01*
X203840195Y-108020212D01*
X203850170Y-108011305D01*
X203859823Y-108002738D01*
X203869130Y-107994534D01*
X203878067Y-107986715D01*
X203886612Y-107979304D01*
X203894738Y-107972325D01*
X203902424Y-107965798D01*
X203909645Y-107959748D01*
X203916378Y-107954196D01*
X203925868Y-107946458D01*
X203935369Y-107938742D01*
X203944880Y-107931050D01*
X203954400Y-107923380D01*
X203963931Y-107915734D01*
X203973472Y-107908111D01*
X203983024Y-107900511D01*
X203992586Y-107892933D01*
X204002159Y-107885378D01*
X204011743Y-107877846D01*
X204021338Y-107870336D01*
X204030945Y-107862849D01*
X204040562Y-107855384D01*
X204050191Y-107847942D01*
X204059832Y-107840522D01*
X204069484Y-107833124D01*
X204079148Y-107825748D01*
X204088824Y-107818394D01*
X204098513Y-107811062D01*
X204108213Y-107803752D01*
X204117926Y-107796464D01*
X204127652Y-107789197D01*
X204137390Y-107781952D01*
X204147142Y-107774729D01*
X204156906Y-107767527D01*
X204166683Y-107760346D01*
X204176474Y-107753187D01*
X204186278Y-107746049D01*
X204196096Y-107738932D01*
X204205927Y-107731836D01*
X204215772Y-107724762D01*
X204225631Y-107717708D01*
X204235504Y-107710675D01*
X204245392Y-107703662D01*
X204255294Y-107696671D01*
X204265210Y-107689699D01*
X204275141Y-107682749D01*
X204285087Y-107675819D01*
X204295048Y-107668909D01*
X204305023Y-107662020D01*
X204315015Y-107655150D01*
X204325021Y-107648301D01*
X204335043Y-107641472D01*
X204345081Y-107634663D01*
X204355134Y-107627873D01*
X204365203Y-107621104D01*
X204375289Y-107614354D01*
X204385390Y-107607624D01*
X204395508Y-107600913D01*
X204405643Y-107594222D01*
X204415794Y-107587551D01*
X204425962Y-107580898D01*
X204436146Y-107574265D01*
X204446348Y-107567651D01*
X204456567Y-107561057D01*
X204466803Y-107554481D01*
X204477057Y-107547924D01*
X204487328Y-107541386D01*
X204497617Y-107534867D01*
X204507924Y-107528367D01*
X204518249Y-107521885D01*
X204528592Y-107515422D01*
X204538954Y-107508977D01*
X204549334Y-107502550D01*
X204559732Y-107496142D01*
X204570149Y-107489752D01*
X204580585Y-107483380D01*
X204591040Y-107477026D01*
X204601514Y-107470691D01*
X204612007Y-107464373D01*
X204622520Y-107458073D01*
X204633053Y-107451790D01*
X204643605Y-107445526D01*
X204654176Y-107439278D01*
X204664768Y-107433049D01*
X204675380Y-107426837D01*
X204686012Y-107420642D01*
X204696665Y-107414464D01*
X204707338Y-107408304D01*
X204718032Y-107402161D01*
X204728746Y-107396035D01*
X204739482Y-107389926D01*
X204750239Y-107383833D01*
X204761016Y-107377758D01*
X204771816Y-107371699D01*
X204782636Y-107365657D01*
X204793479Y-107359631D01*
X204804343Y-107353622D01*
X204815229Y-107347629D01*
X204826137Y-107341653D01*
X204837067Y-107335693D01*
X204848020Y-107329749D01*
X204858995Y-107323821D01*
X204869993Y-107317909D01*
X204881013Y-107312013D01*
X204892057Y-107306133D01*
X204903123Y-107300269D01*
X204914213Y-107294420D01*
X204925326Y-107288587D01*
X204936462Y-107282770D01*
X204947622Y-107276968D01*
X204958806Y-107271181D01*
X204970014Y-107265410D01*
X204981245Y-107259654D01*
X204992501Y-107253913D01*
X205003781Y-107248187D01*
X205015086Y-107242476D01*
X205026415Y-107236780D01*
X205037768Y-107231099D01*
X205049147Y-107225432D01*
X205060551Y-107219781D01*
X205071980Y-107214143D01*
X205083434Y-107208521D01*
X205094913Y-107202913D01*
X205106418Y-107197319D01*
X205117949Y-107191739D01*
X205129505Y-107186174D01*
X205141088Y-107180622D01*
X205152696Y-107175085D01*
X205164331Y-107169562D01*
X205175993Y-107164052D01*
X205187680Y-107158557D01*
X205199395Y-107153075D01*
X205211136Y-107147606D01*
X205222904Y-107142152D01*
X205234700Y-107136710D01*
X205246522Y-107131283D01*
X205258372Y-107125868D01*
X205270249Y-107120467D01*
X205282154Y-107115079D01*
X205294087Y-107109704D01*
X205306048Y-107104342D01*
X205318037Y-107098993D01*
X205330054Y-107093656D01*
X205342099Y-107088333D01*
X205354173Y-107083022D01*
X205366275Y-107077724D01*
X205378406Y-107072438D01*
X205390566Y-107067165D01*
X205402756Y-107061904D01*
X205414974Y-107056656D01*
X205427221Y-107051419D01*
X205439498Y-107046195D01*
X205451805Y-107040983D01*
X205464142Y-107035783D01*
X205476508Y-107030595D01*
X205488904Y-107025419D01*
X205501331Y-107020254D01*
X205513787Y-107015101D01*
X205526274Y-107009960D01*
X205538792Y-107004830D01*
X205551341Y-106999711D01*
X205563920Y-106994604D01*
X205576530Y-106989508D01*
X205589172Y-106984424D01*
X205601843Y-106979350D01*
X205614548Y-106974288D01*
X205627283Y-106969236D01*
X205640051Y-106964195D01*
X205652850Y-106959166D01*
X205665681Y-106954146D01*
X205678544Y-106949138D01*
X205691440Y-106944140D01*
X205704368Y-106939152D01*
X205717328Y-106934175D01*
X205729518Y-106929525D01*
X205742013Y-106924797D01*
X205754799Y-106919996D01*
X205767861Y-106915127D01*
X205781185Y-106910194D01*
X205794756Y-106905203D01*
X205808558Y-106900158D01*
X205822579Y-106895064D01*
X205836802Y-106889925D01*
X205851213Y-106884746D01*
X205865798Y-106879533D01*
X205880541Y-106874290D01*
X205895429Y-106869021D01*
X205910446Y-106863732D01*
X205925577Y-106858426D01*
X205940809Y-106853110D01*
X205956126Y-106847787D01*
X205971514Y-106842463D01*
X205986958Y-106837142D01*
X206002443Y-106831828D01*
X206017955Y-106826528D01*
X206033478Y-106821245D01*
X206048999Y-106815983D01*
X206064503Y-106810749D01*
X206079974Y-106805547D01*
X206095399Y-106800381D01*
X206110763Y-106795256D01*
X206126050Y-106790177D01*
X206141246Y-106785149D01*
X206156337Y-106780176D01*
X206171308Y-106775263D01*
X206186144Y-106770416D01*
X206200830Y-106765638D01*
X206215352Y-106760934D01*
X206229696Y-106756310D01*
X206243845Y-106751770D01*
X206257787Y-106747318D01*
X206271506Y-106742960D01*
X206284987Y-106738700D01*
X206298215Y-106734544D01*
X206311177Y-106730494D01*
X206323857Y-106726558D01*
X206336241Y-106722739D01*
X206348314Y-106719041D01*
X206360061Y-106715471D01*
X206371467Y-106712032D01*
X206382519Y-106708729D01*
X206393201Y-106705567D01*
X206403498Y-106702552D01*
X206413397Y-106699686D01*
X206422881Y-106696976D01*
X206431938Y-106694426D01*
X206440551Y-106692041D01*
X206448706Y-106689825D01*
X206456389Y-106687784D01*
X206463584Y-106685922D01*
X206470278Y-106684243D01*
X206476455Y-106682754D01*
X206482101Y-106681457D01*
X206487201Y-106680359D01*
X206491741Y-106679463D01*
X206495705Y-106678775D01*
X206499080Y-106678300D01*
X206501849Y-106678041D01*
X206504000Y-106678004D01*
X206505516Y-106678194D01*
G37*
%TD*%
D11*
%TO.C,C17*%
X197862500Y-110675000D03*
X199437500Y-110675000D03*
%TD*%
D12*
%TO.C,U5*%
X197517350Y-107262498D03*
X197517350Y-108212499D03*
X197517350Y-109162500D03*
X199752550Y-109162500D03*
X199752550Y-107262498D03*
%TD*%
D13*
%TO.C,J3*%
X207410000Y-98060000D03*
D14*
X209950000Y-98060000D03*
X207410000Y-100600000D03*
X209950000Y-100600000D03*
X207410000Y-103140000D03*
X209950000Y-103140000D03*
%TD*%
D15*
%TO.C,C2*%
X195900000Y-108287500D03*
X195900000Y-106712500D03*
%TD*%
%TO.C,C1*%
X195894600Y-99855001D03*
X195894600Y-98280001D03*
%TD*%
%TO.C,C3*%
X201375000Y-108687500D03*
X201375000Y-107112500D03*
%TD*%
%TO.C,C8*%
X190025000Y-101506001D03*
X190025000Y-99931001D03*
%TD*%
D16*
%TO.C,C15*%
X195894600Y-100820001D03*
X195894600Y-102395001D03*
%TD*%
D11*
%TO.C,R9*%
X198780100Y-105162501D03*
X200355100Y-105162501D03*
%TD*%
D15*
%TO.C,R8*%
X202317600Y-103650001D03*
X202317600Y-102075001D03*
%TD*%
D17*
%TO.C,U1*%
X194117600Y-101262501D03*
X194117600Y-100312500D03*
X194117600Y-99362499D03*
X191417600Y-99362499D03*
X191417600Y-100312500D03*
X191417600Y-101262501D03*
%TD*%
D11*
%TO.C,C5*%
X198901500Y-100390000D03*
X200476500Y-100390000D03*
%TD*%
D12*
%TO.C,U3*%
X198100000Y-101675000D03*
X198100000Y-102625001D03*
X198100000Y-103575002D03*
X200335200Y-103575002D03*
X200335200Y-101675000D03*
%TD*%
D11*
%TO.C,C6*%
X198902500Y-98970000D03*
X200477500Y-98970000D03*
%TD*%
M02*
