G04 #@! TF.GenerationSoftware,KiCad,Pcbnew,9.0.6*
G04 #@! TF.CreationDate,2026-05-25T15:05:49-04:00*
G04 #@! TF.ProjectId,psu,7073752e-6b69-4636-9164-5f7063625858,rev?*
G04 #@! TF.SameCoordinates,Original*
G04 #@! TF.FileFunction,Copper,L1,Top*
G04 #@! TF.FilePolarity,Positive*
%FSLAX46Y46*%
G04 Gerber Fmt 4.6, Leading zero omitted, Abs format (unit mm)*
G04 Created by KiCad (PCBNEW 9.0.6) date 2026-05-25 15:05:49*
%MOMM*%
%LPD*%
G01*
G04 APERTURE LIST*
G04 Aperture macros list*
%AMRoundRect*
0 Rectangle with rounded corners*
0 $1 Rounding radius*
0 $2 $3 $4 $5 $6 $7 $8 $9 X,Y pos of 4 corners*
0 Add a 4 corners polygon primitive as box body*
4,1,4,$2,$3,$4,$5,$6,$7,$8,$9,$2,$3,0*
0 Add four circle primitives for the rounded corners*
1,1,$1+$1,$2,$3*
1,1,$1+$1,$4,$5*
1,1,$1+$1,$6,$7*
1,1,$1+$1,$8,$9*
0 Add four rect primitives between the rounded corners*
20,1,$1+$1,$2,$3,$4,$5,0*
20,1,$1+$1,$4,$5,$6,$7,0*
20,1,$1+$1,$6,$7,$8,$9,0*
20,1,$1+$1,$8,$9,$2,$3,0*%
G04 Aperture macros list end*
G04 #@! TA.AperFunction,SMDPad,CuDef*
%ADD10RoundRect,0.218750X-0.218750X-0.256250X0.218750X-0.256250X0.218750X0.256250X-0.218750X0.256250X0*%
G04 #@! TD*
G04 #@! TA.AperFunction,SMDPad,CuDef*
%ADD11R,1.473200X0.558800*%
G04 #@! TD*
G04 #@! TA.AperFunction,ComponentPad*
%ADD12R,1.700000X1.700000*%
G04 #@! TD*
G04 #@! TA.AperFunction,ComponentPad*
%ADD13O,1.700000X1.700000*%
G04 #@! TD*
G04 #@! TA.AperFunction,SMDPad,CuDef*
%ADD14RoundRect,0.218750X0.256250X-0.218750X0.256250X0.218750X-0.256250X0.218750X-0.256250X-0.218750X0*%
G04 #@! TD*
G04 #@! TA.AperFunction,SMDPad,CuDef*
%ADD15RoundRect,0.218750X-0.256250X0.218750X-0.256250X-0.218750X0.256250X-0.218750X0.256250X0.218750X0*%
G04 #@! TD*
G04 #@! TA.AperFunction,SMDPad,CuDef*
%ADD16R,1.041400X0.609600*%
G04 #@! TD*
G04 #@! TA.AperFunction,ViaPad*
%ADD17C,0.600000*%
G04 #@! TD*
G04 #@! TA.AperFunction,ViaPad*
%ADD18C,0.800000*%
G04 #@! TD*
G04 #@! TA.AperFunction,Conductor*
%ADD19C,0.250000*%
G04 #@! TD*
G04 #@! TA.AperFunction,Conductor*
%ADD20C,0.500000*%
G04 #@! TD*
G04 #@! TA.AperFunction,Conductor*
%ADD21C,0.200000*%
G04 #@! TD*
G04 #@! TA.AperFunction,Conductor*
%ADD22C,0.300000*%
G04 #@! TD*
G04 #@! TA.AperFunction,Conductor*
%ADD23C,0.400000*%
G04 #@! TD*
G04 APERTURE END LIST*
D10*
X197862500Y-110675000D03*
X199437500Y-110675000D03*
D11*
X197517350Y-107262498D03*
X197517350Y-108212499D03*
X197517350Y-109162500D03*
X199752550Y-109162500D03*
X199752550Y-107262498D03*
D12*
X207410000Y-98060000D03*
D13*
X209950000Y-98060000D03*
X207410000Y-100600000D03*
X209950000Y-100600000D03*
X207410000Y-103140000D03*
X209950000Y-103140000D03*
D14*
X195900000Y-108287500D03*
X195900000Y-106712500D03*
X195894600Y-99855001D03*
X195894600Y-98280001D03*
X201375000Y-108687500D03*
X201375000Y-107112500D03*
X190025000Y-101506001D03*
X190025000Y-99931001D03*
D15*
X195894600Y-100820001D03*
X195894600Y-102395001D03*
D10*
X198780100Y-105162501D03*
X200355100Y-105162501D03*
D14*
X202317600Y-103650001D03*
X202317600Y-102075001D03*
D16*
X194117600Y-101262501D03*
X194117600Y-100312500D03*
X194117600Y-99362499D03*
X191417600Y-99362499D03*
X191417600Y-100312500D03*
X191417600Y-101262501D03*
D10*
X198901500Y-100390000D03*
X200476500Y-100390000D03*
D11*
X198100000Y-101675000D03*
X198100000Y-102625001D03*
X198100000Y-103575002D03*
X200335200Y-103575002D03*
X200335200Y-101675000D03*
D10*
X198902500Y-98970000D03*
X200477500Y-98970000D03*
D17*
X197975000Y-108200000D03*
X198075000Y-105162501D03*
X192825000Y-98450001D03*
X198090000Y-100320000D03*
X201850000Y-109300000D03*
X194417600Y-104212501D03*
X197200000Y-110600000D03*
X198310000Y-98920000D03*
X194800000Y-100337501D03*
X191417600Y-102762501D03*
X205800000Y-98840000D03*
X201200000Y-109300000D03*
X207180000Y-96480000D03*
X203067600Y-104762501D03*
X193460000Y-100350000D03*
X204500000Y-95930000D03*
D18*
X196600000Y-97700001D03*
D17*
X196700000Y-109225000D03*
X195240000Y-106880000D03*
D19*
X194878600Y-100337501D02*
X194142601Y-100337501D01*
D20*
X198062499Y-101712501D02*
X198100000Y-101675000D01*
D19*
X196021600Y-100820001D02*
X195361100Y-100820001D01*
X194142601Y-100337501D02*
X194117600Y-100312500D01*
D20*
X197517350Y-108212499D02*
X196284950Y-108212499D01*
D19*
X196021600Y-99855001D02*
X195361100Y-99855001D01*
X195361100Y-99855001D02*
X194878600Y-100337501D01*
X195361100Y-100820001D02*
X194878600Y-100337501D01*
X195894600Y-99855001D02*
X195894600Y-100820001D01*
D21*
X194430100Y-104200001D02*
X194417600Y-104212501D01*
X199100000Y-100300000D02*
X198067600Y-100312501D01*
D19*
X203067600Y-104762501D02*
X203067600Y-104650001D01*
X198075000Y-105162501D02*
X198780100Y-105162501D01*
D21*
X198017600Y-100262501D02*
X198017600Y-101592600D01*
X201375000Y-108687500D02*
X200887500Y-108200000D01*
X199080100Y-100301501D02*
X199044100Y-100337501D01*
X199080100Y-98612501D02*
X199080100Y-100301501D01*
X198017600Y-101592600D02*
X198100000Y-101675000D01*
X197517349Y-107262499D02*
X197517350Y-107262498D01*
D20*
X191417600Y-99362499D02*
X192817602Y-99362499D01*
X192817602Y-99362499D02*
X194117600Y-99362499D01*
X192675000Y-104962503D02*
X192675000Y-99362499D01*
X194917600Y-105712500D02*
X194067600Y-105712500D01*
X192675000Y-105250000D02*
X193137500Y-105712500D01*
X194237502Y-99362499D02*
X195320000Y-98280001D01*
X192675000Y-104962503D02*
X192675000Y-105250000D01*
D21*
X197517350Y-109162500D02*
X198087500Y-109162500D01*
D20*
X195025000Y-105712500D02*
X195900000Y-106587500D01*
X194917600Y-105712500D02*
X195025000Y-105712500D01*
X194117600Y-99362499D02*
X194237502Y-99362499D01*
D21*
X198087500Y-109162500D02*
X198123351Y-109162500D01*
D20*
X196300000Y-106600000D02*
X196974998Y-107274998D01*
D22*
X195894600Y-98430001D02*
X196600000Y-97700001D01*
D21*
X198012498Y-107262498D02*
X197517350Y-107262498D01*
D22*
X195320000Y-98280001D02*
X195894600Y-98280001D01*
D20*
X193137500Y-105712500D02*
X193924998Y-105712500D01*
X194067600Y-105712500D02*
X193924998Y-105712500D01*
D21*
X198062500Y-107312500D02*
X198012498Y-107262498D01*
X199752550Y-107262498D02*
X200209750Y-107262498D01*
X199752550Y-107262498D02*
X200022451Y-107262498D01*
D22*
X203650621Y-105300000D02*
X203650621Y-105259379D01*
D19*
X205500000Y-102510000D02*
X205595000Y-102415000D01*
D21*
X207657599Y-100572501D02*
X207567600Y-100662500D01*
D19*
X205595000Y-102415000D02*
X207410000Y-100600000D01*
X205500000Y-103410000D02*
X205500000Y-102510000D01*
D22*
X201274998Y-107262498D02*
X201337500Y-107325000D01*
X199752550Y-107262498D02*
X201274998Y-107262498D01*
X201337500Y-107325000D02*
X201625621Y-107325000D01*
X201625621Y-107325000D02*
X203650621Y-105300000D01*
X203650621Y-105259379D02*
X205500000Y-103410000D01*
D21*
X207667599Y-100572501D02*
X207657599Y-100572501D01*
D22*
X194889100Y-101262501D02*
X196021600Y-102395001D01*
X194117600Y-101262501D02*
X194889100Y-101262501D01*
X196625100Y-102395001D02*
X196021600Y-102395001D01*
X196855100Y-102625001D02*
X196625100Y-102395001D01*
X196855100Y-102625001D02*
X198100000Y-102625001D01*
X197030101Y-103575002D02*
X198100000Y-103575002D01*
X196855100Y-103400001D02*
X197030101Y-103575002D01*
X196855100Y-102625001D02*
X196855100Y-103400001D01*
D21*
X202317600Y-101825001D02*
X200485201Y-101825001D01*
D19*
X200476500Y-100390000D02*
X200476500Y-98971000D01*
X200335200Y-101675000D02*
X200335200Y-100531300D01*
X200476500Y-98971000D02*
X200477500Y-98970000D01*
X205170000Y-96440000D02*
X205870000Y-95740000D01*
X208430000Y-95740000D02*
X209950000Y-97260000D01*
X204650000Y-98970000D02*
X205170000Y-98450000D01*
X200335200Y-100531300D02*
X200476500Y-100390000D01*
X205170000Y-98450000D02*
X205170000Y-96440000D01*
D21*
X200485201Y-101825001D02*
X200335200Y-101675000D01*
D19*
X209950000Y-97260000D02*
X209950000Y-98060000D01*
D21*
X200655100Y-98612501D02*
X200762500Y-98612501D01*
D19*
X200477500Y-98970000D02*
X204650000Y-98970000D01*
X205870000Y-95740000D02*
X208430000Y-95740000D01*
D23*
X191417600Y-100312500D02*
X189855100Y-100312500D01*
X189800000Y-101262501D02*
X191417600Y-101262501D01*
D22*
X199437500Y-109477550D02*
X199752550Y-109162500D01*
X199437500Y-110675000D02*
X199437500Y-109477550D01*
D21*
X202142599Y-103575002D02*
X202317600Y-103400001D01*
X202317600Y-103400001D02*
X202317600Y-103837501D01*
X200992600Y-105162501D02*
X200355100Y-105162501D01*
X200335200Y-103575002D02*
X202142599Y-103575002D01*
X202317600Y-103837501D02*
X200992600Y-105162501D01*
D22*
X200887500Y-108200000D02*
X197975000Y-108200000D01*
G04 #@! TA.AperFunction,Conductor*
G36*
X195612752Y-90027805D02*
G01*
X195637540Y-90083745D01*
X195638060Y-90094758D01*
X195615367Y-92772615D01*
X195614527Y-92871713D01*
X195614407Y-92871890D01*
X195614498Y-92875110D01*
X195614483Y-92876960D01*
X195614483Y-92876963D01*
X195614342Y-92893609D01*
X195615140Y-92897425D01*
X195620276Y-93075952D01*
X195620276Y-93075958D01*
X195620277Y-93075961D01*
X195645081Y-93281643D01*
X195668344Y-93474554D01*
X195668346Y-93474566D01*
X195752612Y-93867104D01*
X195872375Y-94250313D01*
X196026636Y-94620992D01*
X196026640Y-94620999D01*
X196214102Y-94976029D01*
X196433196Y-95312447D01*
X196433197Y-95312448D01*
X196433201Y-95312453D01*
X196682112Y-95627471D01*
X196682116Y-95627475D01*
X196682119Y-95627479D01*
X196682120Y-95627480D01*
X196958732Y-95918424D01*
X196958742Y-95918433D01*
X196958750Y-95918442D01*
X197260804Y-96182933D01*
X197480057Y-96342038D01*
X197585738Y-96418728D01*
X197585743Y-96418731D01*
X197585750Y-96418736D01*
X197930872Y-96623878D01*
X198293286Y-96796647D01*
X198669962Y-96935597D01*
X199057754Y-97039568D01*
X199453421Y-97107691D01*
X199853655Y-97139397D01*
X200255112Y-97134420D01*
X200654437Y-97092803D01*
X201048293Y-97014892D01*
X201433388Y-96901340D01*
X201806505Y-96753094D01*
X202157762Y-96574827D01*
X202164511Y-96571402D01*
X202164515Y-96571399D01*
X202164524Y-96571395D01*
X202504455Y-96357760D01*
X202504470Y-96357747D01*
X202504477Y-96357744D01*
X202733221Y-96182933D01*
X202823455Y-96113975D01*
X203118860Y-95842076D01*
X203388200Y-95544338D01*
X203629225Y-95223246D01*
X203839921Y-94881486D01*
X204018526Y-94521913D01*
X204163548Y-94147532D01*
X204273775Y-93761472D01*
X204348285Y-93366958D01*
X204386457Y-92967289D01*
X204387252Y-92766878D01*
X204387258Y-92766170D01*
X204422321Y-90118470D01*
X204441997Y-90060536D01*
X204491969Y-90025231D01*
X204553149Y-90026041D01*
X204561954Y-90029509D01*
X204953797Y-90205970D01*
X205020514Y-90236015D01*
X205025698Y-90238534D01*
X205616561Y-90547391D01*
X205621565Y-90550197D01*
X206001123Y-90777810D01*
X206193325Y-90893070D01*
X206198204Y-90896194D01*
X206748893Y-91271900D01*
X206753581Y-91275303D01*
X207281369Y-91682591D01*
X207285851Y-91686263D01*
X207788913Y-92123727D01*
X207793152Y-92127636D01*
X208036415Y-92365554D01*
X208269772Y-92593784D01*
X208273793Y-92597954D01*
X208722317Y-93091167D01*
X208726088Y-93095566D01*
X209144990Y-93614164D01*
X209148497Y-93618775D01*
X209536353Y-94160997D01*
X209539584Y-94165805D01*
X209895066Y-94729795D01*
X209898010Y-94734785D01*
X210219875Y-95318566D01*
X210222523Y-95323718D01*
X210509712Y-95925372D01*
X210512053Y-95930671D01*
X210763543Y-96548058D01*
X210765571Y-96553486D01*
X210980526Y-97184556D01*
X210982232Y-97190091D01*
X211066576Y-97495118D01*
X211063861Y-97556243D01*
X211025737Y-97604099D01*
X210966764Y-97620405D01*
X210909470Y-97598935D01*
X210884629Y-97565944D01*
X210883234Y-97566691D01*
X210880943Y-97562406D01*
X210880942Y-97562404D01*
X210880941Y-97562402D01*
X210765977Y-97390345D01*
X210619655Y-97244023D01*
X210604047Y-97233594D01*
X210447597Y-97129058D01*
X210256418Y-97049869D01*
X210256415Y-97049868D01*
X210215687Y-97041766D01*
X210165002Y-97014674D01*
X210146406Y-96996079D01*
X210146404Y-96996078D01*
X209390464Y-96240138D01*
X208629862Y-95479535D01*
X208629859Y-95479533D01*
X208629857Y-95479531D01*
X208555642Y-95436683D01*
X208555644Y-95436683D01*
X208523521Y-95428076D01*
X208472853Y-95414500D01*
X205827147Y-95414500D01*
X205744362Y-95436682D01*
X205670138Y-95479535D01*
X204909531Y-96240142D01*
X204866682Y-96314360D01*
X204866681Y-96314360D01*
X204866682Y-96314361D01*
X204844500Y-96397147D01*
X204844500Y-98274165D01*
X204825593Y-98332356D01*
X204815504Y-98344169D01*
X204544169Y-98615504D01*
X204489652Y-98643281D01*
X204474165Y-98644500D01*
X201191998Y-98644500D01*
X201133807Y-98625593D01*
X201106487Y-98587995D01*
X201103489Y-98589523D01*
X201055726Y-98495784D01*
X201039658Y-98464249D01*
X200945751Y-98370342D01*
X200945748Y-98370340D01*
X200933737Y-98364219D01*
X200933737Y-98364220D01*
X200931424Y-98363041D01*
X200878489Y-98332480D01*
X200863627Y-98328497D01*
X200854356Y-98323773D01*
X200854355Y-98323772D01*
X200827420Y-98310049D01*
X200729249Y-98294500D01*
X200729246Y-98294500D01*
X200225754Y-98294500D01*
X200225751Y-98294500D01*
X200127580Y-98310049D01*
X200127576Y-98310050D01*
X200009250Y-98370341D01*
X199915341Y-98464250D01*
X199855050Y-98582576D01*
X199855049Y-98582580D01*
X199839500Y-98680751D01*
X199839500Y-99259248D01*
X199855049Y-99357419D01*
X199855050Y-99357423D01*
X199887122Y-99420366D01*
X199915342Y-99475751D01*
X200009249Y-99569658D01*
X200031668Y-99581081D01*
X200052187Y-99591536D01*
X200095451Y-99634800D01*
X200105022Y-99695233D01*
X200077244Y-99749749D01*
X200052187Y-99767954D01*
X200008250Y-99790341D01*
X199914341Y-99884250D01*
X199854050Y-100002576D01*
X199854049Y-100002580D01*
X199838500Y-100100751D01*
X199838500Y-100679248D01*
X199854049Y-100777419D01*
X199854050Y-100777423D01*
X199902323Y-100872163D01*
X199914342Y-100895751D01*
X199980705Y-100962114D01*
X199984330Y-100969229D01*
X199990793Y-100973925D01*
X199997956Y-100995973D01*
X200008481Y-101016629D01*
X200009700Y-101032116D01*
X200009700Y-101096100D01*
X199990793Y-101154291D01*
X199941293Y-101190255D01*
X199910700Y-101195100D01*
X199578852Y-101195100D01*
X199578851Y-101195100D01*
X199578841Y-101195101D01*
X199520372Y-101206732D01*
X199520366Y-101206734D01*
X199454051Y-101251045D01*
X199454045Y-101251051D01*
X199409734Y-101317366D01*
X199409732Y-101317372D01*
X199398101Y-101375841D01*
X199398100Y-101375853D01*
X199398100Y-101974146D01*
X199398101Y-101974158D01*
X199409732Y-102032627D01*
X199409734Y-102032633D01*
X199447732Y-102089500D01*
X199454048Y-102098952D01*
X199520369Y-102143267D01*
X199564831Y-102152111D01*
X199578841Y-102154898D01*
X199578846Y-102154898D01*
X199578852Y-102154900D01*
X199578853Y-102154900D01*
X201091547Y-102154900D01*
X201091548Y-102154900D01*
X201150031Y-102143267D01*
X201151650Y-102142184D01*
X201155357Y-102141060D01*
X201159040Y-102139535D01*
X201159190Y-102139897D01*
X201206651Y-102125501D01*
X201543100Y-102125501D01*
X201601291Y-102144408D01*
X201637255Y-102193908D01*
X201642100Y-102224501D01*
X201642100Y-102326749D01*
X201657649Y-102424920D01*
X201657650Y-102424924D01*
X201680795Y-102470348D01*
X201717942Y-102543252D01*
X201811849Y-102637159D01*
X201930180Y-102697452D01*
X201996730Y-102707992D01*
X202028351Y-102713001D01*
X202028354Y-102713001D01*
X202606849Y-102713001D01*
X202635403Y-102708477D01*
X202705020Y-102697452D01*
X202823351Y-102637159D01*
X202917258Y-102543252D01*
X202977551Y-102424921D01*
X202993100Y-102326747D01*
X202993100Y-101823255D01*
X202989800Y-101802422D01*
X202988091Y-101791631D01*
X202977551Y-101725081D01*
X202917258Y-101606750D01*
X202823351Y-101512843D01*
X202815728Y-101508959D01*
X202705023Y-101452551D01*
X202705020Y-101452550D01*
X202680476Y-101448662D01*
X202606849Y-101437001D01*
X202606846Y-101437001D01*
X202028354Y-101437001D01*
X202028351Y-101437001D01*
X201930180Y-101452550D01*
X201930176Y-101452551D01*
X201836516Y-101500274D01*
X201811849Y-101512843D01*
X201811848Y-101512843D01*
X201810148Y-101513710D01*
X201765202Y-101524501D01*
X201371300Y-101524501D01*
X201313109Y-101505594D01*
X201277145Y-101456094D01*
X201272300Y-101425501D01*
X201272300Y-101375853D01*
X201272298Y-101375841D01*
X201269511Y-101361831D01*
X201260667Y-101317369D01*
X201216352Y-101251048D01*
X201216348Y-101251045D01*
X201150033Y-101206734D01*
X201150031Y-101206733D01*
X201150028Y-101206732D01*
X201150027Y-101206732D01*
X201091558Y-101195101D01*
X201091548Y-101195100D01*
X201091547Y-101195100D01*
X200953913Y-101195100D01*
X200895722Y-101176193D01*
X200859758Y-101126693D01*
X200859758Y-101065507D01*
X200895722Y-101016007D01*
X200908967Y-101007891D01*
X200910229Y-101007247D01*
X200944751Y-100989658D01*
X201038658Y-100895751D01*
X201098951Y-100777420D01*
X201114500Y-100679246D01*
X201114500Y-100100754D01*
X201098951Y-100002580D01*
X201038658Y-99884249D01*
X200944751Y-99790342D01*
X200942243Y-99789064D01*
X200901812Y-99768463D01*
X200858548Y-99725198D01*
X200848977Y-99664766D01*
X200876755Y-99610249D01*
X200901808Y-99592047D01*
X200945751Y-99569658D01*
X201039658Y-99475751D01*
X201094131Y-99368842D01*
X201103489Y-99350477D01*
X201106488Y-99352005D01*
X201133815Y-99314402D01*
X201191998Y-99295500D01*
X204692851Y-99295500D01*
X204692853Y-99295500D01*
X204775639Y-99273318D01*
X204775641Y-99273316D01*
X204775643Y-99273316D01*
X204849857Y-99230468D01*
X204849857Y-99230467D01*
X204849862Y-99230465D01*
X205430465Y-98649862D01*
X205473318Y-98575639D01*
X205495500Y-98492853D01*
X205495500Y-98407147D01*
X205495500Y-97190253D01*
X206359500Y-97190253D01*
X206359500Y-98929746D01*
X206359501Y-98929758D01*
X206371132Y-98988227D01*
X206371134Y-98988233D01*
X206404348Y-99037940D01*
X206415448Y-99054552D01*
X206481769Y-99098867D01*
X206526231Y-99107711D01*
X206540241Y-99110498D01*
X206540246Y-99110498D01*
X206540252Y-99110500D01*
X206540253Y-99110500D01*
X208279747Y-99110500D01*
X208279748Y-99110500D01*
X208338231Y-99098867D01*
X208404552Y-99054552D01*
X208448867Y-98988231D01*
X208460500Y-98929748D01*
X208460500Y-97190252D01*
X208448867Y-97131769D01*
X208404552Y-97065448D01*
X208403575Y-97064795D01*
X208338233Y-97021134D01*
X208338231Y-97021133D01*
X208338228Y-97021132D01*
X208338227Y-97021132D01*
X208279758Y-97009501D01*
X208279748Y-97009500D01*
X206540252Y-97009500D01*
X206540251Y-97009500D01*
X206540241Y-97009501D01*
X206481772Y-97021132D01*
X206481766Y-97021134D01*
X206415451Y-97065445D01*
X206415445Y-97065451D01*
X206371134Y-97131766D01*
X206371132Y-97131772D01*
X206359501Y-97190241D01*
X206359500Y-97190253D01*
X205495500Y-97190253D01*
X205495500Y-96615835D01*
X205514407Y-96557644D01*
X205524496Y-96545831D01*
X205975831Y-96094496D01*
X206030348Y-96066719D01*
X206045835Y-96065500D01*
X208254165Y-96065500D01*
X208312356Y-96084407D01*
X208324169Y-96094496D01*
X208845508Y-96615835D01*
X209310951Y-97081277D01*
X209338728Y-97135794D01*
X209329157Y-97196226D01*
X209295952Y-97233594D01*
X209280347Y-97244021D01*
X209280336Y-97244030D01*
X209134022Y-97390345D01*
X209019058Y-97562402D01*
X208939869Y-97753581D01*
X208899500Y-97956532D01*
X208899500Y-98163467D01*
X208939869Y-98366418D01*
X209019058Y-98557597D01*
X209134020Y-98729651D01*
X209134023Y-98729655D01*
X209280345Y-98875977D01*
X209452402Y-98990941D01*
X209643580Y-99070130D01*
X209846535Y-99110500D01*
X209846536Y-99110500D01*
X210053464Y-99110500D01*
X210053465Y-99110500D01*
X210256420Y-99070130D01*
X210447598Y-98990941D01*
X210619655Y-98875977D01*
X210765977Y-98729655D01*
X210880941Y-98557598D01*
X210960130Y-98366420D01*
X211000500Y-98163465D01*
X211000500Y-98022308D01*
X211019407Y-97964117D01*
X211068907Y-97928153D01*
X211130093Y-97928153D01*
X211179593Y-97964117D01*
X211196299Y-98001550D01*
X211301061Y-98490086D01*
X211302110Y-98495784D01*
X211403528Y-99154698D01*
X211404241Y-99160447D01*
X211466941Y-99824141D01*
X211467317Y-99829922D01*
X211491088Y-100496160D01*
X211491125Y-100501953D01*
X211475886Y-101168440D01*
X211475584Y-101174226D01*
X211421387Y-101838662D01*
X211420748Y-101844419D01*
X211327774Y-102504583D01*
X211326798Y-102510294D01*
X211232472Y-102979380D01*
X211202464Y-103032701D01*
X211146846Y-103058201D01*
X211086861Y-103046139D01*
X211045422Y-103001122D01*
X211037634Y-102975350D01*
X211022915Y-102882420D01*
X210969411Y-102717751D01*
X210890804Y-102563475D01*
X210890802Y-102563471D01*
X210789037Y-102423403D01*
X210666596Y-102300962D01*
X210526528Y-102199197D01*
X210526524Y-102199195D01*
X210372248Y-102120588D01*
X210207579Y-102067084D01*
X210075000Y-102046085D01*
X210075000Y-102655855D01*
X210015826Y-102640000D01*
X209884174Y-102640000D01*
X209825000Y-102655855D01*
X209825000Y-102046086D01*
X209824999Y-102046085D01*
X209692420Y-102067084D01*
X209527751Y-102120588D01*
X209373475Y-102199195D01*
X209373471Y-102199197D01*
X209233403Y-102300962D01*
X209110962Y-102423403D01*
X209009197Y-102563471D01*
X209009195Y-102563475D01*
X208930588Y-102717751D01*
X208877084Y-102882420D01*
X208856085Y-103014999D01*
X208856086Y-103015000D01*
X209465856Y-103015000D01*
X209450000Y-103074174D01*
X209450000Y-103205826D01*
X209465856Y-103265000D01*
X208856085Y-103265000D01*
X208877084Y-103397579D01*
X208930588Y-103562248D01*
X209009195Y-103716524D01*
X209009197Y-103716528D01*
X209110962Y-103856596D01*
X209233403Y-103979037D01*
X209373471Y-104080802D01*
X209373475Y-104080804D01*
X209527751Y-104159411D01*
X209692420Y-104212915D01*
X209825000Y-104233913D01*
X209825000Y-103624144D01*
X209884174Y-103640000D01*
X210015826Y-103640000D01*
X210075000Y-103624144D01*
X210075000Y-104233912D01*
X210207579Y-104212915D01*
X210372248Y-104159411D01*
X210526524Y-104080804D01*
X210526528Y-104080802D01*
X210666596Y-103979037D01*
X210789037Y-103856596D01*
X210823061Y-103809766D01*
X210872560Y-103773802D01*
X210933746Y-103773801D01*
X210983246Y-103809764D01*
X211002154Y-103867955D01*
X210997268Y-103898674D01*
X210816149Y-104453583D01*
X210814191Y-104459036D01*
X210570615Y-105079619D01*
X210568341Y-105084947D01*
X210288898Y-105690188D01*
X210286317Y-105695375D01*
X209971935Y-106283262D01*
X209969055Y-106288288D01*
X209620824Y-106856782D01*
X209617654Y-106861631D01*
X209236787Y-107408753D01*
X209233340Y-107413409D01*
X208821099Y-107937344D01*
X208817385Y-107941790D01*
X208375217Y-108440700D01*
X208371249Y-108444922D01*
X207900646Y-108917123D01*
X207896438Y-108921105D01*
X207399030Y-109364963D01*
X207394597Y-109368692D01*
X206872066Y-109782704D01*
X206867422Y-109786167D01*
X206321579Y-110168899D01*
X206316740Y-110172085D01*
X205749436Y-110522240D01*
X205744419Y-110525137D01*
X205157622Y-110841499D01*
X205152445Y-110844098D01*
X204548134Y-111125601D01*
X204542813Y-111127893D01*
X203923060Y-111373571D01*
X203917614Y-111375547D01*
X203284564Y-111584549D01*
X203279012Y-111586203D01*
X202634832Y-111757816D01*
X202629193Y-111759143D01*
X201976069Y-111892783D01*
X201970362Y-111893778D01*
X201310528Y-111988988D01*
X201304772Y-111989647D01*
X200640522Y-112046096D01*
X200634738Y-112046418D01*
X199968291Y-112063919D01*
X199962497Y-112063901D01*
X199296200Y-112042389D01*
X199290418Y-112042033D01*
X198626498Y-111981583D01*
X198620747Y-111980889D01*
X197961515Y-111881710D01*
X197955814Y-111880681D01*
X197303498Y-111743109D01*
X197297866Y-111741748D01*
X196654722Y-111566257D01*
X196649180Y-111564569D01*
X196017400Y-111351759D01*
X196011967Y-111349750D01*
X195393727Y-111100354D01*
X195388420Y-111098031D01*
X194861024Y-110848481D01*
X194785809Y-110812891D01*
X194780647Y-110810261D01*
X194761888Y-110800001D01*
X197175000Y-110800001D01*
X197175000Y-110987728D01*
X197177968Y-111019375D01*
X197177970Y-111019384D01*
X197224638Y-111152753D01*
X197224641Y-111152759D01*
X197308546Y-111266446D01*
X197308553Y-111266453D01*
X197422240Y-111350358D01*
X197422246Y-111350361D01*
X197555615Y-111397029D01*
X197555624Y-111397031D01*
X197587271Y-111399999D01*
X197587276Y-111400000D01*
X197737499Y-111400000D01*
X197737500Y-111399999D01*
X197737500Y-110800001D01*
X197987500Y-110800001D01*
X197987500Y-111399999D01*
X197987501Y-111400000D01*
X198137724Y-111400000D01*
X198137728Y-111399999D01*
X198169375Y-111397031D01*
X198169384Y-111397029D01*
X198302753Y-111350361D01*
X198302759Y-111350358D01*
X198416446Y-111266453D01*
X198416453Y-111266446D01*
X198500358Y-111152759D01*
X198500361Y-111152753D01*
X198547029Y-111019384D01*
X198547031Y-111019375D01*
X198549999Y-110987728D01*
X198550000Y-110987723D01*
X198550000Y-110800001D01*
X198549999Y-110800000D01*
X197987501Y-110800000D01*
X197987500Y-110800001D01*
X197737500Y-110800001D01*
X197737499Y-110800000D01*
X197175001Y-110800000D01*
X197175000Y-110800001D01*
X194761888Y-110800001D01*
X194195744Y-110490360D01*
X194190744Y-110487432D01*
X194121152Y-110443897D01*
X194121150Y-110443895D01*
X193990671Y-110362271D01*
X197175000Y-110362271D01*
X197175000Y-110549999D01*
X197175001Y-110550000D01*
X197737499Y-110550000D01*
X197737500Y-110549999D01*
X197737500Y-109950001D01*
X197987500Y-109950001D01*
X197987500Y-110549999D01*
X197987501Y-110550000D01*
X198549999Y-110550000D01*
X198550000Y-110549999D01*
X198550000Y-110385751D01*
X198799500Y-110385751D01*
X198799500Y-110964248D01*
X198815049Y-111062419D01*
X198815050Y-111062423D01*
X198848409Y-111127893D01*
X198875342Y-111180751D01*
X198969249Y-111274658D01*
X199087580Y-111334951D01*
X199154130Y-111345491D01*
X199185751Y-111350500D01*
X199185754Y-111350500D01*
X199689249Y-111350500D01*
X199717803Y-111345976D01*
X199787420Y-111334951D01*
X199905751Y-111274658D01*
X199999658Y-111180751D01*
X200059951Y-111062420D01*
X200075500Y-110964246D01*
X200075500Y-110385754D01*
X200059951Y-110287580D01*
X199999658Y-110169249D01*
X199905751Y-110075342D01*
X199905748Y-110075340D01*
X199905749Y-110075340D01*
X199842054Y-110042886D01*
X199798790Y-109999621D01*
X199788000Y-109954677D01*
X199788000Y-109741400D01*
X199806907Y-109683209D01*
X199856407Y-109647245D01*
X199887000Y-109642400D01*
X200508897Y-109642400D01*
X200508898Y-109642400D01*
X200567381Y-109630767D01*
X200633702Y-109586452D01*
X200678017Y-109520131D01*
X200689650Y-109461648D01*
X200689650Y-109368257D01*
X200708557Y-109310066D01*
X200758057Y-109274102D01*
X200819243Y-109274102D01*
X200847438Y-109288602D01*
X200897240Y-109325358D01*
X200897246Y-109325361D01*
X201030615Y-109372029D01*
X201030624Y-109372031D01*
X201062271Y-109374999D01*
X201062276Y-109375000D01*
X201249999Y-109375000D01*
X201250000Y-109374999D01*
X201250000Y-108812501D01*
X201500000Y-108812501D01*
X201500000Y-109374999D01*
X201500001Y-109375000D01*
X201687724Y-109375000D01*
X201687728Y-109374999D01*
X201719375Y-109372031D01*
X201719384Y-109372029D01*
X201852753Y-109325361D01*
X201852759Y-109325358D01*
X201966446Y-109241453D01*
X201966453Y-109241446D01*
X202050358Y-109127759D01*
X202050361Y-109127753D01*
X202097029Y-108994384D01*
X202097031Y-108994375D01*
X202099999Y-108962728D01*
X202100000Y-108962723D01*
X202100000Y-108812501D01*
X202099999Y-108812500D01*
X201500001Y-108812500D01*
X201500000Y-108812501D01*
X201250000Y-108812501D01*
X201249999Y-108812500D01*
X200736032Y-108812500D01*
X200677841Y-108793593D01*
X200653717Y-108768502D01*
X200633704Y-108738551D01*
X200633702Y-108738548D01*
X200633698Y-108738545D01*
X200626807Y-108731654D01*
X200629701Y-108728759D01*
X200603671Y-108695672D01*
X200602646Y-108668893D01*
X200581593Y-108684190D01*
X200531685Y-108687132D01*
X200508908Y-108682601D01*
X200508898Y-108682600D01*
X198996202Y-108682600D01*
X198996201Y-108682600D01*
X198996191Y-108682601D01*
X198937722Y-108694232D01*
X198937716Y-108694234D01*
X198871401Y-108738545D01*
X198871395Y-108738551D01*
X198827084Y-108804866D01*
X198827082Y-108804872D01*
X198815451Y-108863341D01*
X198815450Y-108863353D01*
X198815450Y-109461646D01*
X198815451Y-109461658D01*
X198827082Y-109520127D01*
X198827084Y-109520133D01*
X198851501Y-109556675D01*
X198871398Y-109586452D01*
X198937719Y-109630767D01*
X198967091Y-109636609D01*
X198996194Y-109642399D01*
X198996199Y-109642399D01*
X198996202Y-109642400D01*
X198996204Y-109642400D01*
X198997694Y-109642547D01*
X198998326Y-109642823D01*
X199000973Y-109643350D01*
X199000857Y-109643930D01*
X199053754Y-109667061D01*
X199084698Y-109719845D01*
X199087000Y-109741071D01*
X199087000Y-109954677D01*
X199068093Y-110012868D01*
X199032946Y-110042886D01*
X198969251Y-110075340D01*
X198875341Y-110169250D01*
X198815050Y-110287576D01*
X198815049Y-110287580D01*
X198799500Y-110385751D01*
X198550000Y-110385751D01*
X198550000Y-110362276D01*
X198549999Y-110362271D01*
X198547031Y-110330624D01*
X198547029Y-110330615D01*
X198500361Y-110197246D01*
X198500358Y-110197240D01*
X198416453Y-110083553D01*
X198416446Y-110083546D01*
X198302759Y-109999641D01*
X198302753Y-109999638D01*
X198169384Y-109952970D01*
X198169375Y-109952968D01*
X198137728Y-109950000D01*
X197987501Y-109950000D01*
X197987500Y-109950001D01*
X197737500Y-109950001D01*
X197737499Y-109950000D01*
X197587271Y-109950000D01*
X197555624Y-109952968D01*
X197555615Y-109952970D01*
X197422246Y-109999638D01*
X197422240Y-109999641D01*
X197308553Y-110083546D01*
X197308546Y-110083553D01*
X197224641Y-110197240D01*
X197224638Y-110197246D01*
X197177970Y-110330615D01*
X197177968Y-110330624D01*
X197175000Y-110362271D01*
X193990671Y-110362271D01*
X193625576Y-110133879D01*
X193620756Y-110130664D01*
X193077224Y-109744649D01*
X193072601Y-109741158D01*
X192552574Y-109324009D01*
X192548173Y-109320262D01*
X192053412Y-108873386D01*
X192049264Y-108869413D01*
X191865312Y-108682600D01*
X191627368Y-108440954D01*
X191627368Y-108440953D01*
X191599351Y-108412501D01*
X195175000Y-108412501D01*
X195175000Y-108562728D01*
X195177968Y-108594375D01*
X195177970Y-108594384D01*
X195224638Y-108727753D01*
X195224641Y-108727759D01*
X195308546Y-108841446D01*
X195308553Y-108841453D01*
X195422240Y-108925358D01*
X195422246Y-108925361D01*
X195555615Y-108972029D01*
X195555624Y-108972031D01*
X195587271Y-108974999D01*
X195587276Y-108975000D01*
X195774999Y-108975000D01*
X195775000Y-108974999D01*
X195775000Y-108412501D01*
X196025000Y-108412501D01*
X196025000Y-108974999D01*
X196025001Y-108975000D01*
X196119812Y-108975000D01*
X196178003Y-108993907D01*
X196213967Y-109043407D01*
X196215439Y-109099622D01*
X196199500Y-109159108D01*
X196199500Y-109290892D01*
X196229579Y-109403151D01*
X196233609Y-109418190D01*
X196299496Y-109532309D01*
X196299498Y-109532311D01*
X196299500Y-109532314D01*
X196392686Y-109625500D01*
X196392688Y-109625501D01*
X196392690Y-109625503D01*
X196506810Y-109691390D01*
X196506808Y-109691390D01*
X196506812Y-109691391D01*
X196506814Y-109691392D01*
X196634108Y-109725500D01*
X196634110Y-109725500D01*
X196765890Y-109725500D01*
X196765892Y-109725500D01*
X196893186Y-109691392D01*
X196955068Y-109655663D01*
X197004569Y-109642400D01*
X198273697Y-109642400D01*
X198273698Y-109642400D01*
X198332181Y-109630767D01*
X198398502Y-109586452D01*
X198442817Y-109520131D01*
X198454450Y-109461648D01*
X198454450Y-108863352D01*
X198442817Y-108804869D01*
X198430910Y-108787050D01*
X198414301Y-108728163D01*
X198430910Y-108677046D01*
X198489443Y-108589447D01*
X198489443Y-108589445D01*
X198503949Y-108516523D01*
X198503950Y-108516521D01*
X198503950Y-108412271D01*
X200650000Y-108412271D01*
X200650000Y-108578313D01*
X200692800Y-108562572D01*
X200696587Y-108562500D01*
X201249999Y-108562500D01*
X201250000Y-108562499D01*
X201250000Y-108000001D01*
X201500000Y-108000001D01*
X201500000Y-108562499D01*
X201500001Y-108562500D01*
X202099999Y-108562500D01*
X202100000Y-108562499D01*
X202100000Y-108412276D01*
X202099999Y-108412271D01*
X202097031Y-108380624D01*
X202097029Y-108380615D01*
X202050361Y-108247246D01*
X202050358Y-108247240D01*
X201966453Y-108133553D01*
X201966446Y-108133546D01*
X201852759Y-108049641D01*
X201852753Y-108049638D01*
X201719384Y-108002970D01*
X201719375Y-108002968D01*
X201687728Y-108000000D01*
X201500001Y-108000000D01*
X201500000Y-108000001D01*
X201250000Y-108000001D01*
X201249999Y-108000000D01*
X201062271Y-108000000D01*
X201030624Y-108002968D01*
X201030615Y-108002970D01*
X200897246Y-108049638D01*
X200897240Y-108049641D01*
X200783553Y-108133546D01*
X200783546Y-108133553D01*
X200699641Y-108247240D01*
X200699638Y-108247246D01*
X200652970Y-108380615D01*
X200652968Y-108380624D01*
X200650000Y-108412271D01*
X198503950Y-108412271D01*
X198503950Y-108337500D01*
X198503949Y-108337499D01*
X196730001Y-108337499D01*
X196719389Y-108348110D01*
X196714880Y-108366085D01*
X196712180Y-108368343D01*
X196711093Y-108371691D01*
X196688942Y-108387784D01*
X196667952Y-108405345D01*
X196663617Y-108406184D01*
X196661593Y-108407655D01*
X196656022Y-108407655D01*
X196631000Y-108412500D01*
X196025001Y-108412500D01*
X196025000Y-108412501D01*
X195775000Y-108412501D01*
X195774999Y-108412500D01*
X195175001Y-108412500D01*
X195175000Y-108412501D01*
X191599351Y-108412501D01*
X191581504Y-108394377D01*
X191577561Y-108390131D01*
X191301801Y-108075183D01*
X191246717Y-108012271D01*
X195175000Y-108012271D01*
X195175000Y-108162499D01*
X195175001Y-108162500D01*
X195774999Y-108162500D01*
X195775000Y-108162499D01*
X195775000Y-107600001D01*
X195774999Y-107600000D01*
X195587271Y-107600000D01*
X195555624Y-107602968D01*
X195555615Y-107602970D01*
X195422246Y-107649638D01*
X195422240Y-107649641D01*
X195308553Y-107733546D01*
X195308546Y-107733553D01*
X195224641Y-107847240D01*
X195224638Y-107847246D01*
X195177970Y-107980615D01*
X195177968Y-107980624D01*
X195175000Y-108012271D01*
X191246717Y-108012271D01*
X191238573Y-108002970D01*
X191138394Y-107888555D01*
X191134724Y-107884107D01*
X190725645Y-107357698D01*
X190722225Y-107353021D01*
X190344647Y-106803598D01*
X190341508Y-106798730D01*
X189996709Y-106228158D01*
X189993858Y-106223114D01*
X189683023Y-105633345D01*
X189680477Y-105628151D01*
X189644928Y-105549921D01*
X189404667Y-105021201D01*
X189402438Y-105015889D01*
X189162603Y-104393847D01*
X189160680Y-104388389D01*
X189128581Y-104288001D01*
X189022418Y-103955977D01*
X188957645Y-103753399D01*
X188956043Y-103747832D01*
X188835052Y-103275854D01*
X188790499Y-103102055D01*
X188789226Y-103096406D01*
X188787557Y-103087842D01*
X188661737Y-102442046D01*
X188660797Y-102436334D01*
X188659055Y-102423403D01*
X188571799Y-101775620D01*
X188571199Y-101769899D01*
X188521000Y-101105108D01*
X188520734Y-101099327D01*
X188520382Y-101078398D01*
X188509508Y-100432736D01*
X188509579Y-100426997D01*
X188537364Y-99760865D01*
X188537772Y-99755128D01*
X188545401Y-99679252D01*
X189349500Y-99679252D01*
X189349500Y-100182749D01*
X189365049Y-100280920D01*
X189365050Y-100280924D01*
X189386748Y-100323508D01*
X189425342Y-100399252D01*
X189425343Y-100399254D01*
X189459990Y-100433901D01*
X189478476Y-100461567D01*
X189478648Y-100461468D01*
X189480162Y-100464090D01*
X189481450Y-100466018D01*
X189481894Y-100467090D01*
X189509556Y-100515001D01*
X189534620Y-100558413D01*
X189609187Y-100632980D01*
X189700513Y-100685707D01*
X189700516Y-100685708D01*
X189704315Y-100687282D01*
X189750841Y-100727018D01*
X189765125Y-100786513D01*
X189741710Y-100843041D01*
X189689542Y-100875011D01*
X189681918Y-100876527D01*
X189637578Y-100883550D01*
X189519250Y-100943842D01*
X189425341Y-101037751D01*
X189365050Y-101156077D01*
X189365049Y-101156081D01*
X189349500Y-101254252D01*
X189349500Y-101757749D01*
X189351879Y-101772770D01*
X189362315Y-101838662D01*
X189365049Y-101855920D01*
X189365050Y-101855924D01*
X189401138Y-101926750D01*
X189425342Y-101974252D01*
X189519249Y-102068159D01*
X189637580Y-102128452D01*
X189704130Y-102138992D01*
X189735751Y-102144001D01*
X189735754Y-102144001D01*
X190314249Y-102144001D01*
X190343795Y-102139321D01*
X190412420Y-102128452D01*
X190530751Y-102068159D01*
X190624658Y-101974252D01*
X190684951Y-101855921D01*
X190688365Y-101834363D01*
X190716139Y-101779851D01*
X190770655Y-101752071D01*
X190808648Y-101756569D01*
X190809107Y-101754266D01*
X190877141Y-101767799D01*
X190877146Y-101767799D01*
X190877152Y-101767801D01*
X190877153Y-101767801D01*
X191958047Y-101767801D01*
X191958048Y-101767801D01*
X192016531Y-101756168D01*
X192070500Y-101720105D01*
X192129385Y-101703498D01*
X192186789Y-101724675D01*
X192220783Y-101775548D01*
X192224500Y-101802422D01*
X192224500Y-105309311D01*
X192244058Y-105382299D01*
X192244059Y-105382303D01*
X192255198Y-105423881D01*
X192255202Y-105423889D01*
X192314507Y-105526609D01*
X192314508Y-105526610D01*
X192314509Y-105526611D01*
X192314511Y-105526614D01*
X192860886Y-106072990D01*
X192963613Y-106132299D01*
X192987820Y-106138784D01*
X192987825Y-106138787D01*
X192987826Y-106138786D01*
X193078188Y-106162999D01*
X193078190Y-106163000D01*
X193078191Y-106163000D01*
X193865689Y-106163000D01*
X194008291Y-106163000D01*
X194797389Y-106163000D01*
X194804986Y-106165468D01*
X194812876Y-106164219D01*
X194833531Y-106174743D01*
X194855580Y-106181907D01*
X194867393Y-106191996D01*
X194982331Y-106306934D01*
X195010108Y-106361451D01*
X195000537Y-106421883D01*
X194961828Y-106462674D01*
X194932688Y-106479498D01*
X194839496Y-106572690D01*
X194773609Y-106686809D01*
X194773608Y-106686814D01*
X194739500Y-106814108D01*
X194739500Y-106945892D01*
X194769579Y-107058151D01*
X194773609Y-107073190D01*
X194839496Y-107187309D01*
X194839498Y-107187311D01*
X194839500Y-107187314D01*
X194932686Y-107280500D01*
X194932688Y-107280501D01*
X194932690Y-107280503D01*
X195046810Y-107346390D01*
X195046808Y-107346390D01*
X195046812Y-107346391D01*
X195046814Y-107346392D01*
X195174108Y-107380500D01*
X195174110Y-107380500D01*
X195305890Y-107380500D01*
X195305892Y-107380500D01*
X195433186Y-107346392D01*
X195436276Y-107344607D01*
X195438780Y-107344075D01*
X195439184Y-107343908D01*
X195439214Y-107343982D01*
X195496122Y-107331880D01*
X195504882Y-107333741D01*
X195504884Y-107333732D01*
X195610751Y-107350500D01*
X195610754Y-107350500D01*
X196189249Y-107350500D01*
X196238333Y-107342725D01*
X196287420Y-107334951D01*
X196296487Y-107330330D01*
X196328689Y-107325230D01*
X196356914Y-107320759D01*
X196356916Y-107320760D01*
X196356917Y-107320760D01*
X196411434Y-107348537D01*
X196551254Y-107488357D01*
X196579031Y-107542874D01*
X196580250Y-107558361D01*
X196580250Y-107561644D01*
X196580251Y-107561656D01*
X196585710Y-107589098D01*
X196578520Y-107649859D01*
X196536988Y-107694789D01*
X196476978Y-107706727D01*
X196429825Y-107688068D01*
X196377759Y-107649641D01*
X196377753Y-107649638D01*
X196244384Y-107602970D01*
X196244375Y-107602968D01*
X196212728Y-107600000D01*
X196025001Y-107600000D01*
X196025000Y-107600001D01*
X196025000Y-108162499D01*
X196025001Y-108162500D01*
X196425749Y-108162500D01*
X196436360Y-108151888D01*
X196440870Y-108133914D01*
X196443569Y-108131655D01*
X196444657Y-108128308D01*
X196466807Y-108112214D01*
X196487798Y-108094654D01*
X196491308Y-108094413D01*
X196494157Y-108092344D01*
X196524750Y-108087499D01*
X198503949Y-108087499D01*
X198503950Y-108087498D01*
X198503950Y-107908476D01*
X198503949Y-107908474D01*
X198489443Y-107835552D01*
X198489443Y-107835550D01*
X198430910Y-107747951D01*
X198414301Y-107689063D01*
X198430910Y-107637947D01*
X198442817Y-107620129D01*
X198454450Y-107561646D01*
X198454450Y-106963351D01*
X198815450Y-106963351D01*
X198815450Y-107561644D01*
X198815451Y-107561656D01*
X198827082Y-107620125D01*
X198827084Y-107620131D01*
X198871395Y-107686446D01*
X198871398Y-107686450D01*
X198937719Y-107730765D01*
X198982181Y-107739609D01*
X198996191Y-107742396D01*
X198996196Y-107742396D01*
X198996202Y-107742398D01*
X198996203Y-107742398D01*
X200508897Y-107742398D01*
X200508898Y-107742398D01*
X200567381Y-107730765D01*
X200633702Y-107686450D01*
X200653383Y-107656996D01*
X200667178Y-107646120D01*
X200677507Y-107631905D01*
X200690612Y-107627646D01*
X200701433Y-107619117D01*
X200735698Y-107612998D01*
X200766581Y-107612998D01*
X200824772Y-107631905D01*
X200836584Y-107641994D01*
X200869246Y-107674656D01*
X200869247Y-107674656D01*
X200869249Y-107674658D01*
X200987580Y-107734951D01*
X201054130Y-107745491D01*
X201085751Y-107750500D01*
X201085754Y-107750500D01*
X201664249Y-107750500D01*
X201692803Y-107745976D01*
X201762420Y-107734951D01*
X201880751Y-107674658D01*
X201974658Y-107580751D01*
X202034951Y-107462420D01*
X202039529Y-107433511D01*
X202067303Y-107378999D01*
X202067302Y-107378999D01*
X203931090Y-105515213D01*
X203977235Y-105435288D01*
X203977235Y-105435284D01*
X203980063Y-105430388D01*
X203995792Y-105409888D01*
X205780470Y-103625212D01*
X205826614Y-103545288D01*
X205850499Y-103456144D01*
X205850499Y-103363856D01*
X205828872Y-103283142D01*
X205825500Y-103257522D01*
X205825500Y-103036532D01*
X206359500Y-103036532D01*
X206359500Y-103243467D01*
X206399869Y-103446418D01*
X206479058Y-103637597D01*
X206479059Y-103637598D01*
X206594023Y-103809655D01*
X206740345Y-103955977D01*
X206912402Y-104070941D01*
X207103580Y-104150130D01*
X207306535Y-104190500D01*
X207306536Y-104190500D01*
X207513464Y-104190500D01*
X207513465Y-104190500D01*
X207716420Y-104150130D01*
X207907598Y-104070941D01*
X208079655Y-103955977D01*
X208225977Y-103809655D01*
X208340941Y-103637598D01*
X208420130Y-103446420D01*
X208460500Y-103243465D01*
X208460500Y-103036535D01*
X208420130Y-102833580D01*
X208340941Y-102642402D01*
X208225977Y-102470345D01*
X208079655Y-102324023D01*
X208079651Y-102324020D01*
X207907597Y-102209058D01*
X207716418Y-102129869D01*
X207513467Y-102089500D01*
X207513465Y-102089500D01*
X207306535Y-102089500D01*
X207306532Y-102089500D01*
X207103581Y-102129869D01*
X206912402Y-102209058D01*
X206740348Y-102324020D01*
X206594020Y-102470348D01*
X206479058Y-102642402D01*
X206399869Y-102833581D01*
X206359500Y-103036532D01*
X205825500Y-103036532D01*
X205825500Y-102685834D01*
X205844407Y-102627643D01*
X205854490Y-102615836D01*
X205855465Y-102614862D01*
X205855465Y-102614861D01*
X206884709Y-101585616D01*
X206939224Y-101557841D01*
X206992593Y-101564157D01*
X207103580Y-101610130D01*
X207306535Y-101650500D01*
X207306536Y-101650500D01*
X207513464Y-101650500D01*
X207513465Y-101650500D01*
X207716420Y-101610130D01*
X207907598Y-101530941D01*
X208079655Y-101415977D01*
X208225977Y-101269655D01*
X208340941Y-101097598D01*
X208420130Y-100906420D01*
X208460500Y-100703465D01*
X208460500Y-100496535D01*
X208460499Y-100496532D01*
X208899500Y-100496532D01*
X208899500Y-100703467D01*
X208939869Y-100906418D01*
X209019058Y-101097597D01*
X209133586Y-101269001D01*
X209134023Y-101269655D01*
X209280345Y-101415977D01*
X209452402Y-101530941D01*
X209643580Y-101610130D01*
X209846535Y-101650500D01*
X209846536Y-101650500D01*
X210053464Y-101650500D01*
X210053465Y-101650500D01*
X210256420Y-101610130D01*
X210447598Y-101530941D01*
X210619655Y-101415977D01*
X210765977Y-101269655D01*
X210880941Y-101097598D01*
X210960130Y-100906420D01*
X211000500Y-100703465D01*
X211000500Y-100496535D01*
X210960130Y-100293580D01*
X210880941Y-100102402D01*
X210765977Y-99930345D01*
X210619655Y-99784023D01*
X210595606Y-99767954D01*
X210447597Y-99669058D01*
X210256418Y-99589869D01*
X210053467Y-99549500D01*
X210053465Y-99549500D01*
X209846535Y-99549500D01*
X209846532Y-99549500D01*
X209643581Y-99589869D01*
X209452402Y-99669058D01*
X209280348Y-99784020D01*
X209134020Y-99930348D01*
X209019058Y-100102402D01*
X208939869Y-100293581D01*
X208899500Y-100496532D01*
X208460499Y-100496532D01*
X208420130Y-100293580D01*
X208340941Y-100102402D01*
X208225977Y-99930345D01*
X208079655Y-99784023D01*
X208055606Y-99767954D01*
X207907597Y-99669058D01*
X207716418Y-99589869D01*
X207513467Y-99549500D01*
X207513465Y-99549500D01*
X207306535Y-99549500D01*
X207306532Y-99549500D01*
X207103581Y-99589869D01*
X206912402Y-99669058D01*
X206740348Y-99784020D01*
X206594020Y-99930348D01*
X206479058Y-100102402D01*
X206399869Y-100293581D01*
X206359500Y-100496532D01*
X206359500Y-100703467D01*
X206376019Y-100786513D01*
X206397747Y-100895749D01*
X206399870Y-100906419D01*
X206399870Y-100906421D01*
X206445840Y-101017402D01*
X206450641Y-101078398D01*
X206424380Y-101125291D01*
X206133695Y-101415977D01*
X205395138Y-102154534D01*
X205395138Y-102154535D01*
X205395137Y-102154534D01*
X205239535Y-102310137D01*
X205239531Y-102310142D01*
X205196682Y-102384360D01*
X205196681Y-102384360D01*
X205196682Y-102384361D01*
X205174500Y-102467147D01*
X205174500Y-103198810D01*
X205155593Y-103257001D01*
X205145504Y-103268814D01*
X203370146Y-105044172D01*
X203348133Y-105082303D01*
X203348131Y-105082307D01*
X203321179Y-105128987D01*
X203305448Y-105149489D01*
X201947408Y-106507530D01*
X201892891Y-106535307D01*
X201832459Y-106525736D01*
X201762420Y-106490049D01*
X201664249Y-106474500D01*
X201664246Y-106474500D01*
X201085754Y-106474500D01*
X201085751Y-106474500D01*
X200987580Y-106490049D01*
X200987576Y-106490050D01*
X200869250Y-106550341D01*
X200775341Y-106644250D01*
X200716090Y-106760535D01*
X200672825Y-106803799D01*
X200612393Y-106813370D01*
X200572882Y-106797906D01*
X200567385Y-106794233D01*
X200567382Y-106794232D01*
X200567381Y-106794231D01*
X200567378Y-106794230D01*
X200567377Y-106794230D01*
X200508908Y-106782599D01*
X200508898Y-106782598D01*
X198996202Y-106782598D01*
X198996201Y-106782598D01*
X198996191Y-106782599D01*
X198937722Y-106794230D01*
X198937716Y-106794232D01*
X198871401Y-106838543D01*
X198871395Y-106838549D01*
X198827084Y-106904864D01*
X198827082Y-106904870D01*
X198815451Y-106963339D01*
X198815450Y-106963351D01*
X198454450Y-106963351D01*
X198454450Y-106963350D01*
X198442817Y-106904867D01*
X198398502Y-106838546D01*
X198398498Y-106838543D01*
X198332183Y-106794232D01*
X198332181Y-106794231D01*
X198332178Y-106794230D01*
X198332177Y-106794230D01*
X198273708Y-106782599D01*
X198273698Y-106782598D01*
X198273697Y-106782598D01*
X197160709Y-106782598D01*
X197102518Y-106763691D01*
X197090705Y-106753602D01*
X196844633Y-106507530D01*
X196576614Y-106239511D01*
X196576611Y-106239509D01*
X196576610Y-106239508D01*
X196576609Y-106239507D01*
X196473890Y-106180202D01*
X196473888Y-106180201D01*
X196447220Y-106173055D01*
X196413166Y-106153394D01*
X196412056Y-106154923D01*
X196405753Y-106150344D01*
X196405751Y-106150342D01*
X196347672Y-106120749D01*
X196287423Y-106090050D01*
X196287420Y-106090049D01*
X196262876Y-106086161D01*
X196189249Y-106074500D01*
X196189246Y-106074500D01*
X196065111Y-106074500D01*
X196006920Y-106055593D01*
X195995107Y-106045504D01*
X195703550Y-105753947D01*
X195301614Y-105352011D01*
X195301611Y-105352009D01*
X195301610Y-105352008D01*
X195301609Y-105352007D01*
X195267354Y-105332230D01*
X195198890Y-105292702D01*
X195198886Y-105292700D01*
X195179487Y-105287502D01*
X198092600Y-105287502D01*
X198092600Y-105475229D01*
X198095568Y-105506876D01*
X198095570Y-105506885D01*
X198142238Y-105640254D01*
X198142241Y-105640260D01*
X198226146Y-105753947D01*
X198226153Y-105753954D01*
X198339840Y-105837859D01*
X198339846Y-105837862D01*
X198473215Y-105884530D01*
X198473224Y-105884532D01*
X198504871Y-105887500D01*
X198504876Y-105887501D01*
X198655099Y-105887501D01*
X198655100Y-105887500D01*
X198655100Y-105287502D01*
X198905100Y-105287502D01*
X198905100Y-105887500D01*
X198905101Y-105887501D01*
X199055324Y-105887501D01*
X199055328Y-105887500D01*
X199086975Y-105884532D01*
X199086984Y-105884530D01*
X199220353Y-105837862D01*
X199220359Y-105837859D01*
X199334046Y-105753954D01*
X199334053Y-105753947D01*
X199417958Y-105640260D01*
X199417961Y-105640254D01*
X199464629Y-105506885D01*
X199464631Y-105506876D01*
X199467599Y-105475229D01*
X199467600Y-105475224D01*
X199467600Y-105287502D01*
X199467599Y-105287501D01*
X198905101Y-105287501D01*
X198905100Y-105287502D01*
X198655100Y-105287502D01*
X198655099Y-105287501D01*
X198092601Y-105287501D01*
X198092600Y-105287502D01*
X195179487Y-105287502D01*
X195174673Y-105286212D01*
X195174673Y-105286213D01*
X195084309Y-105262000D01*
X195084307Y-105262000D01*
X193365112Y-105262000D01*
X193357514Y-105259531D01*
X193349625Y-105260781D01*
X193328969Y-105250256D01*
X193306921Y-105243093D01*
X193295108Y-105233004D01*
X193154496Y-105092392D01*
X193126719Y-105037875D01*
X193125500Y-105022388D01*
X193125500Y-104849772D01*
X198092600Y-104849772D01*
X198092600Y-105037500D01*
X198092601Y-105037501D01*
X198655099Y-105037501D01*
X198655100Y-105037500D01*
X198655100Y-104437502D01*
X198905100Y-104437502D01*
X198905100Y-105037500D01*
X198905101Y-105037501D01*
X199467599Y-105037501D01*
X199467600Y-105037500D01*
X199467600Y-104849777D01*
X199467599Y-104849772D01*
X199464631Y-104818125D01*
X199464629Y-104818116D01*
X199417961Y-104684747D01*
X199417958Y-104684741D01*
X199334053Y-104571054D01*
X199334046Y-104571047D01*
X199220359Y-104487142D01*
X199220353Y-104487139D01*
X199086984Y-104440471D01*
X199086975Y-104440469D01*
X199055328Y-104437501D01*
X198905101Y-104437501D01*
X198905100Y-104437502D01*
X198655100Y-104437502D01*
X198655099Y-104437501D01*
X198504871Y-104437501D01*
X198473224Y-104440469D01*
X198473215Y-104440471D01*
X198339846Y-104487139D01*
X198339840Y-104487142D01*
X198226153Y-104571047D01*
X198226146Y-104571054D01*
X198142241Y-104684741D01*
X198142238Y-104684747D01*
X198095570Y-104818116D01*
X198095568Y-104818125D01*
X198092600Y-104849772D01*
X193125500Y-104849772D01*
X193125500Y-100437501D01*
X193346900Y-100437501D01*
X193346900Y-100641924D01*
X193361406Y-100714846D01*
X193361407Y-100714848D01*
X193402967Y-100777047D01*
X193419576Y-100835935D01*
X193408764Y-100869219D01*
X193411764Y-100870462D01*
X193408032Y-100879469D01*
X193396400Y-100937950D01*
X193396400Y-101587047D01*
X193396401Y-101587059D01*
X193408032Y-101645528D01*
X193408034Y-101645534D01*
X193428348Y-101675935D01*
X193452348Y-101711853D01*
X193452351Y-101711855D01*
X193515822Y-101754266D01*
X193518669Y-101756168D01*
X193563131Y-101765012D01*
X193577141Y-101767799D01*
X193577146Y-101767799D01*
X193577152Y-101767801D01*
X193577153Y-101767801D01*
X194658047Y-101767801D01*
X194658048Y-101767801D01*
X194716531Y-101756168D01*
X194751215Y-101732991D01*
X194810100Y-101716383D01*
X194867504Y-101737559D01*
X194876220Y-101745303D01*
X195190961Y-102060044D01*
X195218738Y-102114561D01*
X195218742Y-102139321D01*
X195219405Y-102139374D01*
X195219100Y-102143251D01*
X195219100Y-102646749D01*
X195234649Y-102744920D01*
X195234650Y-102744924D01*
X195279524Y-102832993D01*
X195294942Y-102863252D01*
X195388849Y-102957159D01*
X195507180Y-103017452D01*
X195570937Y-103027550D01*
X195605351Y-103033001D01*
X195605354Y-103033001D01*
X196183849Y-103033001D01*
X196218256Y-103027551D01*
X196282020Y-103017452D01*
X196360656Y-102977384D01*
X196421086Y-102967813D01*
X196475603Y-102995590D01*
X196503381Y-103050106D01*
X196504600Y-103065594D01*
X196504600Y-103446144D01*
X196523315Y-103515990D01*
X196528484Y-103535284D01*
X196528485Y-103535285D01*
X196528486Y-103535289D01*
X196574630Y-103615213D01*
X196814889Y-103855472D01*
X196894813Y-103901616D01*
X196983957Y-103925502D01*
X197076245Y-103925502D01*
X197116852Y-103925502D01*
X197175043Y-103944409D01*
X197199167Y-103969500D01*
X197205539Y-103979037D01*
X197218848Y-103998954D01*
X197285169Y-104043269D01*
X197329631Y-104052113D01*
X197343641Y-104054900D01*
X197343646Y-104054900D01*
X197343652Y-104054902D01*
X197343653Y-104054902D01*
X198856347Y-104054902D01*
X198856348Y-104054902D01*
X198914831Y-104043269D01*
X198981152Y-103998954D01*
X199025467Y-103932633D01*
X199037100Y-103874150D01*
X199037100Y-103275855D01*
X199398100Y-103275855D01*
X199398100Y-103874148D01*
X199398101Y-103874160D01*
X199409732Y-103932629D01*
X199409734Y-103932635D01*
X199454045Y-103998950D01*
X199454048Y-103998954D01*
X199520369Y-104043269D01*
X199564831Y-104052113D01*
X199578841Y-104054900D01*
X199578846Y-104054900D01*
X199578852Y-104054902D01*
X199578853Y-104054902D01*
X201091547Y-104054902D01*
X201091548Y-104054902D01*
X201150031Y-104043269D01*
X201216352Y-103998954D01*
X201260667Y-103932633D01*
X201260667Y-103932632D01*
X201266084Y-103924526D01*
X201268158Y-103925912D01*
X201298756Y-103890089D01*
X201350481Y-103875502D01*
X201553389Y-103875502D01*
X201560337Y-103877759D01*
X201567538Y-103876518D01*
X201588915Y-103887045D01*
X201611580Y-103894409D01*
X201615875Y-103900320D01*
X201622429Y-103903548D01*
X201632895Y-103923747D01*
X201647544Y-103943909D01*
X201650949Y-103957680D01*
X201651069Y-103958376D01*
X201657649Y-103999921D01*
X201658531Y-104001652D01*
X201660101Y-104010757D01*
X201656695Y-104034342D01*
X201656695Y-104058172D01*
X201652194Y-104065517D01*
X201651357Y-104071314D01*
X201644023Y-104078850D01*
X201632545Y-104097583D01*
X201064918Y-104665210D01*
X201010401Y-104692987D01*
X200949969Y-104683416D01*
X200923888Y-104661138D01*
X200922767Y-104662260D01*
X200917259Y-104656752D01*
X200917258Y-104656750D01*
X200823351Y-104562843D01*
X200819231Y-104560744D01*
X200705023Y-104502551D01*
X200705020Y-104502550D01*
X200680476Y-104498662D01*
X200606849Y-104487001D01*
X200606846Y-104487001D01*
X200103354Y-104487001D01*
X200103351Y-104487001D01*
X200005180Y-104502550D01*
X200005176Y-104502551D01*
X199886850Y-104562842D01*
X199792941Y-104656751D01*
X199732650Y-104775077D01*
X199732649Y-104775081D01*
X199717100Y-104873252D01*
X199717100Y-105451749D01*
X199732649Y-105549920D01*
X199732650Y-105549924D01*
X199775160Y-105633353D01*
X199792942Y-105668252D01*
X199886849Y-105762159D01*
X200005180Y-105822452D01*
X200071730Y-105832992D01*
X200103351Y-105838001D01*
X200103354Y-105838001D01*
X200606849Y-105838001D01*
X200635403Y-105833477D01*
X200705020Y-105822452D01*
X200823351Y-105762159D01*
X200917258Y-105668252D01*
X200977551Y-105549921D01*
X200979450Y-105537929D01*
X201007226Y-105483413D01*
X201051605Y-105457791D01*
X201108589Y-105442522D01*
X201177111Y-105402961D01*
X201233060Y-105347012D01*
X202263075Y-104316997D01*
X202317592Y-104289220D01*
X202333079Y-104288001D01*
X202606849Y-104288001D01*
X202635403Y-104283477D01*
X202705020Y-104272452D01*
X202823351Y-104212159D01*
X202917258Y-104118252D01*
X202977551Y-103999921D01*
X202993100Y-103901747D01*
X202993100Y-103398255D01*
X202977551Y-103300081D01*
X202917258Y-103181750D01*
X202823351Y-103087843D01*
X202765176Y-103058201D01*
X202705023Y-103027551D01*
X202705020Y-103027550D01*
X202680476Y-103023662D01*
X202606849Y-103012001D01*
X202606846Y-103012001D01*
X202028354Y-103012001D01*
X202028351Y-103012001D01*
X201930180Y-103027550D01*
X201930176Y-103027551D01*
X201811850Y-103087842D01*
X201717940Y-103181752D01*
X201717939Y-103181754D01*
X201698224Y-103220447D01*
X201654960Y-103263712D01*
X201610015Y-103274502D01*
X201350481Y-103274502D01*
X201292290Y-103255595D01*
X201267697Y-103224399D01*
X201266084Y-103225478D01*
X201226810Y-103166702D01*
X201216352Y-103151050D01*
X201216348Y-103151047D01*
X201150033Y-103106736D01*
X201150031Y-103106735D01*
X201150028Y-103106734D01*
X201150027Y-103106734D01*
X201091558Y-103095103D01*
X201091548Y-103095102D01*
X199578852Y-103095102D01*
X199578851Y-103095102D01*
X199578841Y-103095103D01*
X199520372Y-103106734D01*
X199520366Y-103106736D01*
X199454051Y-103151047D01*
X199454045Y-103151053D01*
X199409734Y-103217368D01*
X199409732Y-103217374D01*
X199398101Y-103275843D01*
X199398100Y-103275855D01*
X199037100Y-103275855D01*
X199037100Y-103275854D01*
X199025467Y-103217371D01*
X198983792Y-103155002D01*
X198967184Y-103096115D01*
X198983791Y-103045002D01*
X199025467Y-102982632D01*
X199037100Y-102924149D01*
X199037100Y-102325853D01*
X199036735Y-102324020D01*
X199026146Y-102270784D01*
X199025467Y-102267370D01*
X199013560Y-102249551D01*
X198996951Y-102190664D01*
X199013560Y-102139547D01*
X199072093Y-102051948D01*
X199072093Y-102051946D01*
X199086599Y-101979024D01*
X199086600Y-101979022D01*
X199086600Y-101800001D01*
X199086599Y-101800000D01*
X197113401Y-101800000D01*
X197113400Y-101800001D01*
X197113400Y-101979024D01*
X197127906Y-102051946D01*
X197127907Y-102051948D01*
X197173711Y-102120499D01*
X197177450Y-102133759D01*
X197185551Y-102144908D01*
X197185551Y-102162478D01*
X197190320Y-102179388D01*
X197185551Y-102192314D01*
X197185551Y-102206094D01*
X197175222Y-102220310D01*
X197169142Y-102236791D01*
X197157687Y-102244444D01*
X197149587Y-102255594D01*
X197132876Y-102261023D01*
X197118269Y-102270784D01*
X197091396Y-102274501D01*
X197041290Y-102274501D01*
X196983099Y-102255594D01*
X196971287Y-102245505D01*
X196840314Y-102114533D01*
X196840312Y-102114531D01*
X196760388Y-102068387D01*
X196760387Y-102068386D01*
X196760386Y-102068386D01*
X196749465Y-102065460D01*
X196749465Y-102065459D01*
X196677159Y-102046086D01*
X196671244Y-102044501D01*
X196671243Y-102044501D01*
X196614922Y-102044501D01*
X196556731Y-102025594D01*
X196526713Y-101990447D01*
X196494258Y-101926750D01*
X196400351Y-101832843D01*
X196340647Y-101802422D01*
X196282023Y-101772551D01*
X196282020Y-101772550D01*
X196252023Y-101767799D01*
X196183849Y-101757001D01*
X196183846Y-101757001D01*
X195920290Y-101757001D01*
X195912692Y-101754532D01*
X195904803Y-101755782D01*
X195884147Y-101745257D01*
X195862099Y-101738094D01*
X195850286Y-101728005D01*
X195769694Y-101647413D01*
X195741917Y-101592896D01*
X195751488Y-101532464D01*
X195769600Y-101507536D01*
X195769600Y-100945002D01*
X196019600Y-100945002D01*
X196019600Y-101507500D01*
X196019601Y-101507501D01*
X196207324Y-101507501D01*
X196207328Y-101507500D01*
X196238975Y-101504532D01*
X196238984Y-101504530D01*
X196372353Y-101457862D01*
X196372359Y-101457859D01*
X196486046Y-101373954D01*
X196486054Y-101373946D01*
X196488247Y-101370975D01*
X197113400Y-101370975D01*
X197113400Y-101549999D01*
X197113401Y-101550000D01*
X197974999Y-101550000D01*
X197975000Y-101549999D01*
X197975000Y-101145601D01*
X197974999Y-101145600D01*
X197338775Y-101145600D01*
X197265853Y-101160106D01*
X197265851Y-101160107D01*
X197183162Y-101215358D01*
X197183158Y-101215362D01*
X197127907Y-101298051D01*
X197127906Y-101298053D01*
X197113400Y-101370975D01*
X196488247Y-101370975D01*
X196535224Y-101307324D01*
X196569958Y-101260260D01*
X196569961Y-101260254D01*
X196616629Y-101126885D01*
X196616631Y-101126876D01*
X196619599Y-101095229D01*
X196619600Y-101095224D01*
X196619600Y-100945002D01*
X196619599Y-100945001D01*
X196019601Y-100945001D01*
X196019600Y-100945002D01*
X195769600Y-100945002D01*
X195769599Y-100945001D01*
X195163494Y-100945001D01*
X195121423Y-100966436D01*
X195076495Y-100963175D01*
X195065977Y-100959898D01*
X195024388Y-100935887D01*
X194935244Y-100912001D01*
X194912215Y-100912001D01*
X194897833Y-100907521D01*
X194884558Y-100898121D01*
X194869085Y-100893094D01*
X194860213Y-100880883D01*
X194847898Y-100872163D01*
X194842683Y-100856755D01*
X194833121Y-100843594D01*
X194833121Y-100828501D01*
X194828283Y-100814207D01*
X194833121Y-100798675D01*
X194833121Y-100782408D01*
X194844960Y-100758000D01*
X194873793Y-100714847D01*
X194873793Y-100714846D01*
X194888299Y-100641924D01*
X194888300Y-100641922D01*
X194888300Y-100437501D01*
X194888299Y-100437500D01*
X193346901Y-100437500D01*
X193346900Y-100437501D01*
X193125500Y-100437501D01*
X193125500Y-99911999D01*
X193144407Y-99853808D01*
X193193907Y-99817844D01*
X193224500Y-99812999D01*
X193260099Y-99812999D01*
X193318290Y-99831906D01*
X193354254Y-99881406D01*
X193357196Y-99931314D01*
X193346901Y-99983065D01*
X193346900Y-99983077D01*
X193346900Y-100187499D01*
X193346901Y-100187500D01*
X194888299Y-100187500D01*
X194888300Y-100187499D01*
X194888300Y-99983077D01*
X194888299Y-99983067D01*
X194887689Y-99980002D01*
X195169600Y-99980002D01*
X195169600Y-100130229D01*
X195172568Y-100161876D01*
X195172570Y-100161884D01*
X195221690Y-100302259D01*
X195219187Y-100303134D01*
X195227590Y-100351540D01*
X195220801Y-100372432D01*
X195221690Y-100372743D01*
X195172570Y-100513117D01*
X195172568Y-100513125D01*
X195169600Y-100544772D01*
X195169600Y-100695000D01*
X195169601Y-100695001D01*
X195769599Y-100695001D01*
X195769600Y-100695000D01*
X195769600Y-99980002D01*
X196019600Y-99980002D01*
X196019600Y-100695000D01*
X196019601Y-100695001D01*
X196619599Y-100695001D01*
X196619600Y-100695000D01*
X196619600Y-100544777D01*
X196619599Y-100544772D01*
X196616807Y-100515001D01*
X198214000Y-100515001D01*
X198214000Y-100702728D01*
X198216968Y-100734375D01*
X198216970Y-100734384D01*
X198263638Y-100867753D01*
X198263641Y-100867759D01*
X198351955Y-100987420D01*
X198349234Y-100989428D01*
X198370473Y-101031113D01*
X198360902Y-101091545D01*
X198317637Y-101134810D01*
X198272692Y-101145600D01*
X198225001Y-101145600D01*
X198225000Y-101145601D01*
X198225000Y-101549999D01*
X198225001Y-101550000D01*
X199086599Y-101550000D01*
X199086600Y-101549999D01*
X199086600Y-101370977D01*
X199086599Y-101370975D01*
X199072093Y-101298053D01*
X199072093Y-101298052D01*
X199052682Y-101269001D01*
X199036074Y-101210113D01*
X199057252Y-101152709D01*
X199108126Y-101118717D01*
X199134998Y-101115000D01*
X199176724Y-101115000D01*
X199176728Y-101114999D01*
X199208375Y-101112031D01*
X199208384Y-101112029D01*
X199341753Y-101065361D01*
X199341759Y-101065358D01*
X199455446Y-100981453D01*
X199455453Y-100981446D01*
X199539358Y-100867759D01*
X199539361Y-100867753D01*
X199586029Y-100734384D01*
X199586031Y-100734375D01*
X199588999Y-100702728D01*
X199589000Y-100702723D01*
X199589000Y-100515001D01*
X199588999Y-100515000D01*
X198214001Y-100515000D01*
X198214000Y-100515001D01*
X196616807Y-100515001D01*
X196616631Y-100513125D01*
X196616630Y-100513118D01*
X196614478Y-100506968D01*
X196566262Y-100370476D01*
X196565660Y-100346819D01*
X196561603Y-100323508D01*
X196564817Y-100313615D01*
X196564708Y-100309310D01*
X196567564Y-100305160D01*
X196568405Y-100302573D01*
X196567510Y-100302260D01*
X196616629Y-100161885D01*
X196616631Y-100161876D01*
X196619599Y-100130229D01*
X196619600Y-100130224D01*
X196619600Y-100077271D01*
X198214000Y-100077271D01*
X198214000Y-100264999D01*
X198214001Y-100265000D01*
X198776499Y-100265000D01*
X198776500Y-100264999D01*
X198776500Y-99761070D01*
X199026500Y-99761070D01*
X199026500Y-100264999D01*
X199026501Y-100265000D01*
X199588999Y-100265000D01*
X199589000Y-100264999D01*
X199589000Y-100077276D01*
X199588999Y-100077271D01*
X199586031Y-100045624D01*
X199586029Y-100045615D01*
X199539361Y-99912246D01*
X199539358Y-99912240D01*
X199455453Y-99798553D01*
X199455446Y-99798546D01*
X199403250Y-99760024D01*
X199367657Y-99710257D01*
X199368115Y-99649073D01*
X199403250Y-99600714D01*
X199456446Y-99561453D01*
X199456453Y-99561446D01*
X199540358Y-99447759D01*
X199540361Y-99447753D01*
X199587029Y-99314384D01*
X199587031Y-99314375D01*
X199589999Y-99282728D01*
X199590000Y-99282723D01*
X199590000Y-99095001D01*
X199589999Y-99095000D01*
X199027501Y-99095000D01*
X199027500Y-99095001D01*
X199027500Y-99757993D01*
X199026500Y-99761070D01*
X198776500Y-99761070D01*
X198776500Y-99602007D01*
X198777500Y-99598929D01*
X198777500Y-99095001D01*
X198777499Y-99095000D01*
X198215001Y-99095000D01*
X198215000Y-99095001D01*
X198215000Y-99282728D01*
X198217968Y-99314375D01*
X198217970Y-99314384D01*
X198264638Y-99447753D01*
X198264641Y-99447759D01*
X198348546Y-99561446D01*
X198348549Y-99561449D01*
X198400749Y-99599974D01*
X198436342Y-99649742D01*
X198435884Y-99710925D01*
X198400750Y-99759284D01*
X198347555Y-99798544D01*
X198347546Y-99798553D01*
X198263641Y-99912240D01*
X198263638Y-99912246D01*
X198216970Y-100045615D01*
X198216968Y-100045624D01*
X198214000Y-100077271D01*
X196619600Y-100077271D01*
X196619600Y-99980002D01*
X196619599Y-99980001D01*
X196019601Y-99980001D01*
X196019600Y-99980002D01*
X195769600Y-99980002D01*
X195769599Y-99980001D01*
X195169601Y-99980001D01*
X195169600Y-99980002D01*
X194887689Y-99980002D01*
X194883376Y-99958321D01*
X194883373Y-99958309D01*
X194873793Y-99910153D01*
X194873793Y-99910151D01*
X194832232Y-99847952D01*
X194815623Y-99789064D01*
X194826462Y-99755793D01*
X194823435Y-99754539D01*
X194827162Y-99745536D01*
X194827167Y-99745530D01*
X194838800Y-99687047D01*
X194838800Y-99579772D01*
X195169600Y-99579772D01*
X195169600Y-99730000D01*
X195169601Y-99730001D01*
X195769599Y-99730001D01*
X195769600Y-99730000D01*
X195769600Y-99167502D01*
X196019600Y-99167502D01*
X196019600Y-99730000D01*
X196019601Y-99730001D01*
X196619599Y-99730001D01*
X196619600Y-99730000D01*
X196619600Y-99579777D01*
X196619599Y-99579772D01*
X196616631Y-99548125D01*
X196616629Y-99548116D01*
X196569961Y-99414747D01*
X196569958Y-99414741D01*
X196486053Y-99301054D01*
X196486046Y-99301047D01*
X196372359Y-99217142D01*
X196372353Y-99217139D01*
X196238984Y-99170471D01*
X196238975Y-99170469D01*
X196207328Y-99167501D01*
X196019601Y-99167501D01*
X196019600Y-99167502D01*
X195769600Y-99167502D01*
X195769599Y-99167501D01*
X195581871Y-99167501D01*
X195550224Y-99170469D01*
X195550215Y-99170471D01*
X195416846Y-99217139D01*
X195416840Y-99217142D01*
X195303153Y-99301047D01*
X195303146Y-99301054D01*
X195219241Y-99414741D01*
X195219238Y-99414747D01*
X195172570Y-99548116D01*
X195172568Y-99548125D01*
X195169600Y-99579772D01*
X194838800Y-99579772D01*
X194838800Y-99439311D01*
X194857707Y-99381120D01*
X194867796Y-99369308D01*
X195342026Y-98895077D01*
X195396543Y-98867299D01*
X195456972Y-98876869D01*
X195507180Y-98902452D01*
X195569926Y-98912389D01*
X195605351Y-98918001D01*
X195605354Y-98918001D01*
X196183849Y-98918001D01*
X196214512Y-98913144D01*
X196282020Y-98902452D01*
X196400351Y-98842159D01*
X196494258Y-98748252D01*
X196540615Y-98657271D01*
X198215000Y-98657271D01*
X198215000Y-98844999D01*
X198215001Y-98845000D01*
X198777499Y-98845000D01*
X198777500Y-98844999D01*
X198777500Y-98245001D01*
X199027500Y-98245001D01*
X199027500Y-98844999D01*
X199027501Y-98845000D01*
X199589999Y-98845000D01*
X199590000Y-98844999D01*
X199590000Y-98657276D01*
X199589999Y-98657271D01*
X199587031Y-98625624D01*
X199587029Y-98625615D01*
X199540361Y-98492246D01*
X199540358Y-98492240D01*
X199456453Y-98378553D01*
X199456446Y-98378546D01*
X199342759Y-98294641D01*
X199342753Y-98294638D01*
X199209384Y-98247970D01*
X199209375Y-98247968D01*
X199177728Y-98245000D01*
X199027501Y-98245000D01*
X199027500Y-98245001D01*
X198777500Y-98245001D01*
X198777499Y-98245000D01*
X198627271Y-98245000D01*
X198595624Y-98247968D01*
X198595615Y-98247970D01*
X198462246Y-98294638D01*
X198462240Y-98294641D01*
X198348553Y-98378546D01*
X198348546Y-98378553D01*
X198264641Y-98492240D01*
X198264638Y-98492246D01*
X198217970Y-98625615D01*
X198217968Y-98625624D01*
X198215000Y-98657271D01*
X196540615Y-98657271D01*
X196554551Y-98629921D01*
X196570100Y-98531747D01*
X196570100Y-98399501D01*
X196589007Y-98341310D01*
X196638507Y-98305346D01*
X196669100Y-98300501D01*
X196679055Y-98300501D01*
X196679057Y-98300501D01*
X196831784Y-98259578D01*
X196968716Y-98180521D01*
X197080520Y-98068717D01*
X197159577Y-97931785D01*
X197200500Y-97779058D01*
X197200500Y-97620944D01*
X197159577Y-97468217D01*
X197080520Y-97331285D01*
X196968716Y-97219481D01*
X196831784Y-97140424D01*
X196679057Y-97099501D01*
X196520943Y-97099501D01*
X196368216Y-97140424D01*
X196231284Y-97219481D01*
X196119480Y-97331285D01*
X196040423Y-97468217D01*
X196013518Y-97568626D01*
X195980196Y-97619938D01*
X195923075Y-97641865D01*
X195917893Y-97642001D01*
X195605351Y-97642001D01*
X195507180Y-97657550D01*
X195507176Y-97657551D01*
X195388849Y-97717843D01*
X195388847Y-97717844D01*
X195301986Y-97804705D01*
X195257607Y-97830327D01*
X195146116Y-97860201D01*
X195146115Y-97860201D01*
X195043386Y-97919512D01*
X194134695Y-98828203D01*
X194080178Y-98855980D01*
X194064691Y-98857199D01*
X193577152Y-98857199D01*
X193577151Y-98857199D01*
X193577141Y-98857200D01*
X193518672Y-98868831D01*
X193518666Y-98868833D01*
X193479036Y-98895314D01*
X193424034Y-98911999D01*
X192111166Y-98911999D01*
X192056164Y-98895314D01*
X192016533Y-98868833D01*
X192016531Y-98868832D01*
X192016528Y-98868831D01*
X192016527Y-98868831D01*
X191958058Y-98857200D01*
X191958048Y-98857199D01*
X190877152Y-98857199D01*
X190877151Y-98857199D01*
X190877141Y-98857200D01*
X190818672Y-98868831D01*
X190818666Y-98868833D01*
X190752351Y-98913144D01*
X190752345Y-98913150D01*
X190708034Y-98979465D01*
X190708032Y-98979471D01*
X190696401Y-99037940D01*
X190696400Y-99037952D01*
X190696400Y-99295485D01*
X190677493Y-99353676D01*
X190627993Y-99389640D01*
X190566807Y-99389640D01*
X190538069Y-99372029D01*
X190537056Y-99373424D01*
X190530753Y-99368845D01*
X190530751Y-99368843D01*
X190472672Y-99339250D01*
X190412423Y-99308551D01*
X190412420Y-99308550D01*
X190387876Y-99304662D01*
X190314249Y-99293001D01*
X190314246Y-99293001D01*
X189735754Y-99293001D01*
X189735751Y-99293001D01*
X189637580Y-99308550D01*
X189637576Y-99308551D01*
X189519250Y-99368842D01*
X189425341Y-99462751D01*
X189365050Y-99581077D01*
X189365049Y-99581081D01*
X189349500Y-99679252D01*
X188545401Y-99679252D01*
X188604469Y-99091794D01*
X188605217Y-99086054D01*
X188610261Y-99054548D01*
X188710597Y-98427780D01*
X188711678Y-98422097D01*
X188716666Y-98399501D01*
X188855389Y-97771083D01*
X188856800Y-97765478D01*
X188860167Y-97753581D01*
X189038340Y-97123995D01*
X189040067Y-97118513D01*
X189258822Y-96488741D01*
X189260880Y-96483333D01*
X189296594Y-96397147D01*
X189516100Y-95867428D01*
X189518459Y-95862178D01*
X189809267Y-95262258D01*
X189811920Y-95257169D01*
X190137337Y-94675258D01*
X190140306Y-94670299D01*
X190499170Y-94108472D01*
X190502413Y-94103708D01*
X190893549Y-93563802D01*
X190897046Y-93559259D01*
X191319113Y-93043133D01*
X191322874Y-93038799D01*
X191774400Y-92548251D01*
X191778402Y-92544150D01*
X192257840Y-92080863D01*
X192262093Y-92076987D01*
X192767809Y-91642536D01*
X192772267Y-91638928D01*
X193302521Y-91234807D01*
X193307193Y-91231457D01*
X193860203Y-90859028D01*
X193865053Y-90855964D01*
X194438883Y-90516530D01*
X194443919Y-90513747D01*
X195036605Y-90208466D01*
X195041813Y-90205974D01*
X195498960Y-90003406D01*
X195559818Y-89997119D01*
X195612752Y-90027805D01*
G37*
G04 #@! TD.AperFunction*
M02*
