G04 #@! TF.GenerationSoftware,KiCad,Pcbnew,9.0.6*
G04 #@! TF.CreationDate,2026-05-25T15:05:50-04:00*
G04 #@! TF.ProjectId,psu,7073752e-6b69-4636-9164-5f7063625858,rev?*
G04 #@! TF.SameCoordinates,Original*
G04 #@! TF.FileFunction,Copper,L2,Bot*
G04 #@! TF.FilePolarity,Positive*
%FSLAX46Y46*%
G04 Gerber Fmt 4.6, Leading zero omitted, Abs format (unit mm)*
G04 Created by KiCad (PCBNEW 9.0.6) date 2026-05-25 15:05:50*
%MOMM*%
%LPD*%
G01*
G04 APERTURE LIST*
G04 #@! TA.AperFunction,ComponentPad*
%ADD10R,1.700000X1.700000*%
G04 #@! TD*
G04 #@! TA.AperFunction,ComponentPad*
%ADD11O,1.700000X1.700000*%
G04 #@! TD*
G04 #@! TA.AperFunction,ViaPad*
%ADD12C,0.600000*%
G04 #@! TD*
G04 #@! TA.AperFunction,ViaPad*
%ADD13C,0.800000*%
G04 #@! TD*
G04 #@! TA.AperFunction,Conductor*
%ADD14C,0.250000*%
G04 #@! TD*
G04 #@! TA.AperFunction,Conductor*
%ADD15C,0.200000*%
G04 #@! TD*
G04 APERTURE END LIST*
D10*
X207410000Y-98060000D03*
D11*
X209950000Y-98060000D03*
X207410000Y-100600000D03*
X209950000Y-100600000D03*
X207410000Y-103140000D03*
X209950000Y-103140000D03*
D12*
X197975000Y-108200000D03*
X198075000Y-105162501D03*
X192825000Y-98450001D03*
X198090000Y-100320000D03*
X201850000Y-109300000D03*
X194417600Y-104212501D03*
X197200000Y-110600000D03*
X198310000Y-98920000D03*
X194800000Y-100337501D03*
X191417600Y-102762501D03*
X205800000Y-98840000D03*
X201200000Y-109300000D03*
X207180000Y-96480000D03*
X203067600Y-104762501D03*
X193460000Y-100350000D03*
X204500000Y-95930000D03*
D13*
X196600000Y-97700001D03*
D12*
X196700000Y-109225000D03*
X195240000Y-106880000D03*
D14*
X196600000Y-97700001D02*
X207050001Y-97700001D01*
D15*
X196700000Y-109225000D02*
X195425000Y-109225000D01*
X195150000Y-108950000D02*
X195150000Y-107150000D01*
D14*
X207050001Y-97700001D02*
X207410000Y-98060000D01*
D15*
X195425000Y-109225000D02*
X195150000Y-108950000D01*
X195150000Y-107150000D02*
X195300000Y-107000000D01*
G04 #@! TA.AperFunction,Conductor*
G36*
X195612752Y-90027805D02*
G01*
X195637540Y-90083745D01*
X195638060Y-90094758D01*
X195615367Y-92772615D01*
X195614527Y-92871713D01*
X195614407Y-92871890D01*
X195614498Y-92875110D01*
X195614483Y-92876960D01*
X195614483Y-92876963D01*
X195614342Y-92893609D01*
X195615140Y-92897425D01*
X195620276Y-93075952D01*
X195620276Y-93075958D01*
X195620277Y-93075961D01*
X195645081Y-93281643D01*
X195668344Y-93474554D01*
X195668346Y-93474566D01*
X195752612Y-93867104D01*
X195872375Y-94250313D01*
X196026636Y-94620992D01*
X196026640Y-94620999D01*
X196214102Y-94976029D01*
X196433196Y-95312447D01*
X196433197Y-95312448D01*
X196433201Y-95312453D01*
X196682112Y-95627471D01*
X196682116Y-95627475D01*
X196682119Y-95627479D01*
X196682120Y-95627480D01*
X196958732Y-95918424D01*
X196958742Y-95918433D01*
X196958750Y-95918442D01*
X197260804Y-96182933D01*
X197480057Y-96342038D01*
X197585738Y-96418728D01*
X197585743Y-96418731D01*
X197585750Y-96418736D01*
X197930872Y-96623878D01*
X198293286Y-96796647D01*
X198669962Y-96935597D01*
X199057754Y-97039568D01*
X199453421Y-97107691D01*
X199853655Y-97139397D01*
X200255112Y-97134420D01*
X200654437Y-97092803D01*
X201048293Y-97014892D01*
X201433388Y-96901340D01*
X201806505Y-96753094D01*
X202061116Y-96623876D01*
X202164511Y-96571402D01*
X202164515Y-96571399D01*
X202164524Y-96571395D01*
X202504455Y-96357760D01*
X202504470Y-96357747D01*
X202504477Y-96357744D01*
X202733221Y-96182933D01*
X202823455Y-96113975D01*
X203118860Y-95842076D01*
X203388200Y-95544338D01*
X203629225Y-95223246D01*
X203839921Y-94881486D01*
X204018526Y-94521913D01*
X204163548Y-94147532D01*
X204273775Y-93761472D01*
X204348285Y-93366958D01*
X204386457Y-92967289D01*
X204387252Y-92766878D01*
X204387258Y-92766170D01*
X204422321Y-90118470D01*
X204441997Y-90060536D01*
X204491969Y-90025231D01*
X204553149Y-90026041D01*
X204561954Y-90029509D01*
X204953797Y-90205970D01*
X205020514Y-90236015D01*
X205025698Y-90238534D01*
X205616561Y-90547391D01*
X205621565Y-90550197D01*
X206001123Y-90777810D01*
X206193325Y-90893070D01*
X206198204Y-90896194D01*
X206748893Y-91271900D01*
X206753581Y-91275303D01*
X207281369Y-91682591D01*
X207285851Y-91686263D01*
X207788913Y-92123727D01*
X207793152Y-92127636D01*
X208036415Y-92365554D01*
X208269772Y-92593784D01*
X208273793Y-92597954D01*
X208722317Y-93091167D01*
X208726088Y-93095566D01*
X209144990Y-93614164D01*
X209148497Y-93618775D01*
X209536353Y-94160997D01*
X209539584Y-94165805D01*
X209895066Y-94729795D01*
X209898010Y-94734785D01*
X210219875Y-95318566D01*
X210222523Y-95323718D01*
X210509712Y-95925372D01*
X210512053Y-95930671D01*
X210763543Y-96548058D01*
X210765571Y-96553486D01*
X210980526Y-97184556D01*
X210982232Y-97190091D01*
X211066576Y-97495118D01*
X211063861Y-97556243D01*
X211025737Y-97604099D01*
X210966764Y-97620405D01*
X210909470Y-97598935D01*
X210884629Y-97565944D01*
X210883234Y-97566691D01*
X210880943Y-97562406D01*
X210880942Y-97562404D01*
X210880941Y-97562402D01*
X210765977Y-97390345D01*
X210619655Y-97244023D01*
X210619651Y-97244020D01*
X210447597Y-97129058D01*
X210256418Y-97049869D01*
X210053467Y-97009500D01*
X210053465Y-97009500D01*
X209846535Y-97009500D01*
X209846532Y-97009500D01*
X209643581Y-97049869D01*
X209452402Y-97129058D01*
X209280348Y-97244020D01*
X209134020Y-97390348D01*
X209019058Y-97562402D01*
X208939869Y-97753581D01*
X208899500Y-97956532D01*
X208899500Y-98163467D01*
X208939869Y-98366418D01*
X209019058Y-98557597D01*
X209019059Y-98557598D01*
X209134023Y-98729655D01*
X209280345Y-98875977D01*
X209452402Y-98990941D01*
X209643580Y-99070130D01*
X209846535Y-99110500D01*
X209846536Y-99110500D01*
X210053464Y-99110500D01*
X210053465Y-99110500D01*
X210256420Y-99070130D01*
X210447598Y-98990941D01*
X210619655Y-98875977D01*
X210765977Y-98729655D01*
X210880941Y-98557598D01*
X210960130Y-98366420D01*
X211000500Y-98163465D01*
X211000500Y-98022308D01*
X211019407Y-97964117D01*
X211068907Y-97928153D01*
X211130093Y-97928153D01*
X211179593Y-97964117D01*
X211196299Y-98001550D01*
X211301061Y-98490086D01*
X211302110Y-98495784D01*
X211403528Y-99154698D01*
X211404241Y-99160447D01*
X211466941Y-99824141D01*
X211467317Y-99829922D01*
X211491088Y-100496160D01*
X211491125Y-100501953D01*
X211475886Y-101168440D01*
X211475584Y-101174226D01*
X211421387Y-101838662D01*
X211420748Y-101844419D01*
X211327774Y-102504583D01*
X211326798Y-102510294D01*
X211232472Y-102979380D01*
X211202464Y-103032701D01*
X211146846Y-103058201D01*
X211086861Y-103046139D01*
X211045422Y-103001122D01*
X211037634Y-102975350D01*
X211022915Y-102882420D01*
X210969411Y-102717751D01*
X210890804Y-102563475D01*
X210890802Y-102563471D01*
X210789037Y-102423403D01*
X210666596Y-102300962D01*
X210526528Y-102199197D01*
X210526524Y-102199195D01*
X210372248Y-102120588D01*
X210207579Y-102067084D01*
X210075000Y-102046085D01*
X210075000Y-102655855D01*
X210015826Y-102640000D01*
X209884174Y-102640000D01*
X209825000Y-102655855D01*
X209825000Y-102046086D01*
X209824999Y-102046085D01*
X209692420Y-102067084D01*
X209527751Y-102120588D01*
X209373475Y-102199195D01*
X209373471Y-102199197D01*
X209233403Y-102300962D01*
X209110962Y-102423403D01*
X209009197Y-102563471D01*
X209009195Y-102563475D01*
X208930588Y-102717751D01*
X208877084Y-102882420D01*
X208856085Y-103014999D01*
X208856086Y-103015000D01*
X209465856Y-103015000D01*
X209450000Y-103074174D01*
X209450000Y-103205826D01*
X209465856Y-103265000D01*
X208856085Y-103265000D01*
X208877084Y-103397579D01*
X208930588Y-103562248D01*
X209009195Y-103716524D01*
X209009197Y-103716528D01*
X209110962Y-103856596D01*
X209233403Y-103979037D01*
X209373471Y-104080802D01*
X209373475Y-104080804D01*
X209527751Y-104159411D01*
X209692420Y-104212915D01*
X209825000Y-104233913D01*
X209825000Y-103624144D01*
X209884174Y-103640000D01*
X210015826Y-103640000D01*
X210075000Y-103624144D01*
X210075000Y-104233912D01*
X210207579Y-104212915D01*
X210372248Y-104159411D01*
X210526524Y-104080804D01*
X210526528Y-104080802D01*
X210666596Y-103979037D01*
X210789037Y-103856596D01*
X210823061Y-103809766D01*
X210872560Y-103773802D01*
X210933746Y-103773801D01*
X210983246Y-103809764D01*
X211002154Y-103867955D01*
X210997268Y-103898674D01*
X210816149Y-104453583D01*
X210814191Y-104459036D01*
X210570615Y-105079619D01*
X210568341Y-105084947D01*
X210288898Y-105690188D01*
X210286317Y-105695375D01*
X209971935Y-106283262D01*
X209969055Y-106288288D01*
X209620824Y-106856782D01*
X209617654Y-106861631D01*
X209236787Y-107408753D01*
X209233340Y-107413409D01*
X208821099Y-107937344D01*
X208817385Y-107941790D01*
X208375217Y-108440700D01*
X208371249Y-108444922D01*
X207900646Y-108917123D01*
X207896438Y-108921105D01*
X207399030Y-109364963D01*
X207394597Y-109368692D01*
X206872066Y-109782704D01*
X206867422Y-109786167D01*
X206321579Y-110168899D01*
X206316740Y-110172085D01*
X205749436Y-110522240D01*
X205744419Y-110525137D01*
X205157622Y-110841499D01*
X205152445Y-110844098D01*
X204548134Y-111125601D01*
X204542813Y-111127893D01*
X203923060Y-111373571D01*
X203917614Y-111375547D01*
X203284564Y-111584549D01*
X203279012Y-111586203D01*
X202634832Y-111757816D01*
X202629193Y-111759143D01*
X201976069Y-111892783D01*
X201970362Y-111893778D01*
X201310528Y-111988988D01*
X201304772Y-111989647D01*
X200640522Y-112046096D01*
X200634738Y-112046418D01*
X199968291Y-112063919D01*
X199962497Y-112063901D01*
X199296200Y-112042389D01*
X199290418Y-112042033D01*
X198626498Y-111981583D01*
X198620747Y-111980889D01*
X197961515Y-111881710D01*
X197955814Y-111880681D01*
X197303498Y-111743109D01*
X197297866Y-111741748D01*
X196654722Y-111566257D01*
X196649180Y-111564569D01*
X196017400Y-111351759D01*
X196011967Y-111349750D01*
X195393727Y-111100354D01*
X195388420Y-111098031D01*
X194785809Y-110812891D01*
X194780647Y-110810261D01*
X194195744Y-110490360D01*
X194190745Y-110487432D01*
X193625576Y-110133879D01*
X193620756Y-110130664D01*
X193077224Y-109744649D01*
X193072601Y-109741158D01*
X192552574Y-109324009D01*
X192548173Y-109320262D01*
X192053412Y-108873386D01*
X192049264Y-108869413D01*
X191821569Y-108638176D01*
X191581503Y-108394376D01*
X191577561Y-108390131D01*
X191357982Y-108139348D01*
X191138394Y-107888555D01*
X191134724Y-107884107D01*
X190725645Y-107357698D01*
X190722225Y-107353021D01*
X190385944Y-106863690D01*
X190385944Y-106863689D01*
X190351871Y-106814108D01*
X194739500Y-106814108D01*
X194739500Y-106945892D01*
X194769579Y-107058151D01*
X194773609Y-107073190D01*
X194836236Y-107181661D01*
X194849500Y-107231161D01*
X194849500Y-108989564D01*
X194869978Y-109065986D01*
X194869979Y-109065989D01*
X194894817Y-109109010D01*
X194894818Y-109109012D01*
X194894819Y-109109012D01*
X194909540Y-109134511D01*
X195240489Y-109465460D01*
X195240491Y-109465461D01*
X195240493Y-109465463D01*
X195309008Y-109505020D01*
X195309006Y-109505020D01*
X195309010Y-109505021D01*
X195309012Y-109505022D01*
X195385438Y-109525500D01*
X195464562Y-109525500D01*
X196251679Y-109525500D01*
X196309870Y-109544407D01*
X196321676Y-109554490D01*
X196392686Y-109625500D01*
X196392688Y-109625501D01*
X196392690Y-109625503D01*
X196506810Y-109691390D01*
X196506808Y-109691390D01*
X196506812Y-109691391D01*
X196506814Y-109691392D01*
X196634108Y-109725500D01*
X196634110Y-109725500D01*
X196765890Y-109725500D01*
X196765892Y-109725500D01*
X196893186Y-109691392D01*
X196893188Y-109691390D01*
X196893190Y-109691390D01*
X197007309Y-109625503D01*
X197007309Y-109625502D01*
X197007314Y-109625500D01*
X197100500Y-109532314D01*
X197139097Y-109465463D01*
X197166390Y-109418190D01*
X197166390Y-109418188D01*
X197166392Y-109418186D01*
X197200500Y-109290892D01*
X197200500Y-109159108D01*
X197166392Y-109031814D01*
X197166390Y-109031811D01*
X197166390Y-109031809D01*
X197100503Y-108917690D01*
X197100501Y-108917688D01*
X197100500Y-108917686D01*
X197007314Y-108824500D01*
X197007311Y-108824498D01*
X197007309Y-108824496D01*
X196893189Y-108758609D01*
X196893191Y-108758609D01*
X196843799Y-108745375D01*
X196765892Y-108724500D01*
X196634108Y-108724500D01*
X196556200Y-108745375D01*
X196506809Y-108758609D01*
X196392690Y-108824496D01*
X196392689Y-108824497D01*
X196392686Y-108824499D01*
X196392686Y-108824500D01*
X196321680Y-108895505D01*
X196267166Y-108923281D01*
X196251679Y-108924500D01*
X195590479Y-108924500D01*
X195582881Y-108922031D01*
X195574992Y-108923281D01*
X195554336Y-108912756D01*
X195532288Y-108905593D01*
X195520475Y-108895504D01*
X195479496Y-108854525D01*
X195451719Y-108800008D01*
X195450500Y-108784521D01*
X195450500Y-107393553D01*
X195469407Y-107335362D01*
X195500000Y-107307817D01*
X195520024Y-107296255D01*
X195547314Y-107280500D01*
X195640500Y-107187314D01*
X195706392Y-107073186D01*
X195740500Y-106945892D01*
X195740500Y-106814108D01*
X195706392Y-106686814D01*
X195706390Y-106686811D01*
X195706390Y-106686809D01*
X195640503Y-106572690D01*
X195640501Y-106572688D01*
X195640500Y-106572686D01*
X195547314Y-106479500D01*
X195547311Y-106479498D01*
X195547309Y-106479496D01*
X195433189Y-106413609D01*
X195433191Y-106413609D01*
X195383799Y-106400375D01*
X195305892Y-106379500D01*
X195174108Y-106379500D01*
X195096200Y-106400375D01*
X195046809Y-106413609D01*
X194932690Y-106479496D01*
X194839496Y-106572690D01*
X194773609Y-106686809D01*
X194773608Y-106686814D01*
X194739500Y-106814108D01*
X190351871Y-106814108D01*
X190344648Y-106803598D01*
X190341508Y-106798730D01*
X189996709Y-106228158D01*
X189993858Y-106223114D01*
X189683023Y-105633345D01*
X189680477Y-105628151D01*
X189404673Y-105021216D01*
X189402438Y-105015889D01*
X189162603Y-104393847D01*
X189160680Y-104388389D01*
X188957645Y-103753399D01*
X188956043Y-103747832D01*
X188790500Y-103102058D01*
X188789226Y-103096407D01*
X188777561Y-103036532D01*
X206359500Y-103036532D01*
X206359500Y-103243467D01*
X206399869Y-103446418D01*
X206479058Y-103637597D01*
X206479059Y-103637598D01*
X206594023Y-103809655D01*
X206740345Y-103955977D01*
X206912402Y-104070941D01*
X207103580Y-104150130D01*
X207306535Y-104190500D01*
X207306536Y-104190500D01*
X207513464Y-104190500D01*
X207513465Y-104190500D01*
X207716420Y-104150130D01*
X207907598Y-104070941D01*
X208079655Y-103955977D01*
X208225977Y-103809655D01*
X208340941Y-103637598D01*
X208420130Y-103446420D01*
X208460500Y-103243465D01*
X208460500Y-103036535D01*
X208420130Y-102833580D01*
X208340941Y-102642402D01*
X208225977Y-102470345D01*
X208079655Y-102324023D01*
X207907598Y-102209059D01*
X207907599Y-102209059D01*
X207907597Y-102209058D01*
X207716418Y-102129869D01*
X207513467Y-102089500D01*
X207513465Y-102089500D01*
X207306535Y-102089500D01*
X207306532Y-102089500D01*
X207103581Y-102129869D01*
X206912402Y-102209058D01*
X206740348Y-102324020D01*
X206594020Y-102470348D01*
X206479058Y-102642402D01*
X206399869Y-102833581D01*
X206359500Y-103036532D01*
X188777561Y-103036532D01*
X188661737Y-102442046D01*
X188660797Y-102436334D01*
X188645669Y-102324023D01*
X188571799Y-101775620D01*
X188571199Y-101769899D01*
X188521000Y-101105108D01*
X188520734Y-101099327D01*
X188520705Y-101097597D01*
X188510582Y-100496532D01*
X206359500Y-100496532D01*
X206359500Y-100703467D01*
X206399869Y-100906418D01*
X206479058Y-101097597D01*
X206528327Y-101171334D01*
X206594023Y-101269655D01*
X206740345Y-101415977D01*
X206912402Y-101530941D01*
X207103580Y-101610130D01*
X207306535Y-101650500D01*
X207306536Y-101650500D01*
X207513464Y-101650500D01*
X207513465Y-101650500D01*
X207716420Y-101610130D01*
X207907598Y-101530941D01*
X208079655Y-101415977D01*
X208225977Y-101269655D01*
X208340941Y-101097598D01*
X208420130Y-100906420D01*
X208460500Y-100703465D01*
X208460500Y-100496535D01*
X208460499Y-100496532D01*
X208899500Y-100496532D01*
X208899500Y-100703467D01*
X208939869Y-100906418D01*
X209019058Y-101097597D01*
X209068327Y-101171334D01*
X209134023Y-101269655D01*
X209280345Y-101415977D01*
X209452402Y-101530941D01*
X209643580Y-101610130D01*
X209846535Y-101650500D01*
X209846536Y-101650500D01*
X210053464Y-101650500D01*
X210053465Y-101650500D01*
X210256420Y-101610130D01*
X210447598Y-101530941D01*
X210619655Y-101415977D01*
X210765977Y-101269655D01*
X210880941Y-101097598D01*
X210960130Y-100906420D01*
X211000500Y-100703465D01*
X211000500Y-100496535D01*
X210960130Y-100293580D01*
X210880941Y-100102402D01*
X210765977Y-99930345D01*
X210619655Y-99784023D01*
X210580703Y-99757996D01*
X210447597Y-99669058D01*
X210256418Y-99589869D01*
X210053467Y-99549500D01*
X210053465Y-99549500D01*
X209846535Y-99549500D01*
X209846532Y-99549500D01*
X209643581Y-99589869D01*
X209452402Y-99669058D01*
X209280348Y-99784020D01*
X209134020Y-99930348D01*
X209019058Y-100102402D01*
X208939869Y-100293581D01*
X208899500Y-100496532D01*
X208460499Y-100496532D01*
X208420130Y-100293580D01*
X208340941Y-100102402D01*
X208225977Y-99930345D01*
X208079655Y-99784023D01*
X208040703Y-99757996D01*
X207907597Y-99669058D01*
X207716418Y-99589869D01*
X207513467Y-99549500D01*
X207513465Y-99549500D01*
X207306535Y-99549500D01*
X207306532Y-99549500D01*
X207103581Y-99589869D01*
X206912402Y-99669058D01*
X206740348Y-99784020D01*
X206594020Y-99930348D01*
X206479058Y-100102402D01*
X206399869Y-100293581D01*
X206359500Y-100496532D01*
X188510582Y-100496532D01*
X188509508Y-100432736D01*
X188509579Y-100426997D01*
X188537364Y-99760865D01*
X188537772Y-99755125D01*
X188604469Y-99091794D01*
X188605217Y-99086054D01*
X188630238Y-98929758D01*
X188710597Y-98427780D01*
X188711678Y-98422097D01*
X188723969Y-98366418D01*
X188855389Y-97771083D01*
X188856800Y-97765478D01*
X188860168Y-97753580D01*
X188897704Y-97620944D01*
X195999500Y-97620944D01*
X195999500Y-97779058D01*
X196040423Y-97931785D01*
X196119480Y-98068717D01*
X196231284Y-98180521D01*
X196368216Y-98259578D01*
X196520943Y-98300501D01*
X196520945Y-98300501D01*
X196679055Y-98300501D01*
X196679057Y-98300501D01*
X196831784Y-98259578D01*
X196968716Y-98180521D01*
X197080520Y-98068717D01*
X197080523Y-98068712D01*
X197083960Y-98064234D01*
X197134384Y-98029578D01*
X197162502Y-98025501D01*
X206260500Y-98025501D01*
X206318691Y-98044408D01*
X206354655Y-98093908D01*
X206359500Y-98124501D01*
X206359500Y-98929746D01*
X206359501Y-98929758D01*
X206371132Y-98988227D01*
X206371134Y-98988233D01*
X206415445Y-99054548D01*
X206415448Y-99054552D01*
X206481769Y-99098867D01*
X206526231Y-99107711D01*
X206540241Y-99110498D01*
X206540246Y-99110498D01*
X206540252Y-99110500D01*
X206540253Y-99110500D01*
X208279747Y-99110500D01*
X208279748Y-99110500D01*
X208338231Y-99098867D01*
X208404552Y-99054552D01*
X208448867Y-98988231D01*
X208460500Y-98929748D01*
X208460500Y-97190252D01*
X208448867Y-97131769D01*
X208404552Y-97065448D01*
X208403575Y-97064795D01*
X208338233Y-97021134D01*
X208338231Y-97021133D01*
X208338228Y-97021132D01*
X208338227Y-97021132D01*
X208279758Y-97009501D01*
X208279748Y-97009500D01*
X206540252Y-97009500D01*
X206540251Y-97009500D01*
X206540241Y-97009501D01*
X206481772Y-97021132D01*
X206481766Y-97021134D01*
X206415451Y-97065445D01*
X206415445Y-97065451D01*
X206371134Y-97131766D01*
X206371132Y-97131772D01*
X206359501Y-97190241D01*
X206359500Y-97190253D01*
X206359500Y-97275501D01*
X206340593Y-97333692D01*
X206291093Y-97369656D01*
X206260500Y-97374501D01*
X197162502Y-97374501D01*
X197104311Y-97355594D01*
X197083960Y-97335768D01*
X197080523Y-97331289D01*
X197080521Y-97331287D01*
X197080520Y-97331285D01*
X196968716Y-97219481D01*
X196831784Y-97140424D01*
X196679057Y-97099501D01*
X196520943Y-97099501D01*
X196368216Y-97140424D01*
X196231284Y-97219481D01*
X196119480Y-97331285D01*
X196040423Y-97468217D01*
X195999500Y-97620944D01*
X188897704Y-97620944D01*
X189038340Y-97123995D01*
X189040067Y-97118513D01*
X189258822Y-96488741D01*
X189260880Y-96483333D01*
X189287651Y-96418728D01*
X189516100Y-95867428D01*
X189518459Y-95862178D01*
X189809267Y-95262258D01*
X189811920Y-95257169D01*
X190137337Y-94675258D01*
X190140306Y-94670299D01*
X190499170Y-94108472D01*
X190502413Y-94103708D01*
X190893549Y-93563802D01*
X190897046Y-93559259D01*
X191319113Y-93043133D01*
X191322874Y-93038799D01*
X191774400Y-92548251D01*
X191778402Y-92544150D01*
X192257840Y-92080863D01*
X192262093Y-92076987D01*
X192767809Y-91642536D01*
X192772267Y-91638928D01*
X193302521Y-91234807D01*
X193307193Y-91231457D01*
X193860203Y-90859028D01*
X193865053Y-90855964D01*
X194438883Y-90516530D01*
X194443919Y-90513747D01*
X195036605Y-90208466D01*
X195041813Y-90205974D01*
X195498960Y-90003406D01*
X195559818Y-89997119D01*
X195612752Y-90027805D01*
G37*
G04 #@! TD.AperFunction*
M02*
